G04 #@! TF.GenerationSoftware,KiCad,Pcbnew,(5.1.6)-1*
G04 #@! TF.CreationDate,2020-05-27T20:21:06+02:00*
G04 #@! TF.ProjectId,charger_stepup,63686172-6765-4725-9f73-74657075702e,rev?*
G04 #@! TF.SameCoordinates,Original*
G04 #@! TF.FileFunction,Soldermask,Top*
G04 #@! TF.FilePolarity,Negative*
%FSLAX46Y46*%
G04 Gerber Fmt 4.6, Leading zero omitted, Abs format (unit mm)*
G04 Created by KiCad (PCBNEW (5.1.6)-1) date 2020-05-27 20:21:06*
%MOMM*%
%LPD*%
G01*
G04 APERTURE LIST*
%ADD10R,1.900000X1.650000*%
%ADD11R,1.850000X0.850000*%
%ADD12R,1.300000X1.600000*%
%ADD13R,2.600000X1.900000*%
%ADD14R,2.900000X2.200000*%
%ADD15O,1.400000X1.400000*%
%ADD16R,1.400000X1.400000*%
%ADD17R,1.050000X1.460000*%
%ADD18R,1.650000X1.900000*%
%ADD19R,1.050000X1.960000*%
%ADD20R,1.600000X1.300000*%
%ADD21R,1.050000X1.900000*%
%ADD22R,4.000000X3.100000*%
%ADD23C,1.000000*%
G04 APERTURE END LIST*
G04 #@! TO.C,C5*
G36*
G01*
X145183000Y-71590888D02*
X145183000Y-74713112D01*
G75*
G02*
X144844112Y-75052000I-338888J0D01*
G01*
X143996888Y-75052000D01*
G75*
G02*
X143658000Y-74713112I0J338888D01*
G01*
X143658000Y-71590888D01*
G75*
G02*
X143996888Y-71252000I338888J0D01*
G01*
X144844112Y-71252000D01*
G75*
G02*
X145183000Y-71590888I0J-338888D01*
G01*
G37*
G36*
G01*
X149458000Y-71590888D02*
X149458000Y-74713112D01*
G75*
G02*
X149119112Y-75052000I-338888J0D01*
G01*
X148271888Y-75052000D01*
G75*
G02*
X147933000Y-74713112I0J338888D01*
G01*
X147933000Y-71590888D01*
G75*
G02*
X148271888Y-71252000I338888J0D01*
G01*
X149119112Y-71252000D01*
G75*
G02*
X149458000Y-71590888I0J-338888D01*
G01*
G37*
G04 #@! TD*
D10*
G04 #@! TO.C,C3*
X123718000Y-73660000D03*
X126218000Y-73660000D03*
G04 #@! TD*
D11*
G04 #@! TO.C,U3*
X136242000Y-72177000D03*
X136242000Y-72827000D03*
X136242000Y-73477000D03*
X136242000Y-74127000D03*
X142142000Y-74127000D03*
X142142000Y-73477000D03*
X142142000Y-72827000D03*
X142142000Y-72177000D03*
G04 #@! TD*
D12*
G04 #@! TO.C,R4*
X138684000Y-69934000D03*
X138684000Y-67734000D03*
G04 #@! TD*
G04 #@! TO.C,R6*
G36*
G01*
X154174000Y-65834250D02*
X154174000Y-64721750D01*
G75*
G02*
X154517750Y-64378000I343750J0D01*
G01*
X155205250Y-64378000D01*
G75*
G02*
X155549000Y-64721750I0J-343750D01*
G01*
X155549000Y-65834250D01*
G75*
G02*
X155205250Y-66178000I-343750J0D01*
G01*
X154517750Y-66178000D01*
G75*
G02*
X154174000Y-65834250I0J343750D01*
G01*
G37*
G36*
G01*
X152299000Y-65834250D02*
X152299000Y-64721750D01*
G75*
G02*
X152642750Y-64378000I343750J0D01*
G01*
X153330250Y-64378000D01*
G75*
G02*
X153674000Y-64721750I0J-343750D01*
G01*
X153674000Y-65834250D01*
G75*
G02*
X153330250Y-66178000I-343750J0D01*
G01*
X152642750Y-66178000D01*
G75*
G02*
X152299000Y-65834250I0J343750D01*
G01*
G37*
G04 #@! TD*
G04 #@! TO.C,C4*
G36*
G01*
X140424888Y-69447000D02*
X143547112Y-69447000D01*
G75*
G02*
X143886000Y-69785888I0J-338888D01*
G01*
X143886000Y-70633112D01*
G75*
G02*
X143547112Y-70972000I-338888J0D01*
G01*
X140424888Y-70972000D01*
G75*
G02*
X140086000Y-70633112I0J338888D01*
G01*
X140086000Y-69785888D01*
G75*
G02*
X140424888Y-69447000I338888J0D01*
G01*
G37*
G36*
G01*
X140424888Y-65172000D02*
X143547112Y-65172000D01*
G75*
G02*
X143886000Y-65510888I0J-338888D01*
G01*
X143886000Y-66358112D01*
G75*
G02*
X143547112Y-66697000I-338888J0D01*
G01*
X140424888Y-66697000D01*
G75*
G02*
X140086000Y-66358112I0J338888D01*
G01*
X140086000Y-65510888D01*
G75*
G02*
X140424888Y-65172000I338888J0D01*
G01*
G37*
G04 #@! TD*
G04 #@! TO.C,R7*
G36*
G01*
X156415750Y-69592000D02*
X157528250Y-69592000D01*
G75*
G02*
X157872000Y-69935750I0J-343750D01*
G01*
X157872000Y-70623250D01*
G75*
G02*
X157528250Y-70967000I-343750J0D01*
G01*
X156415750Y-70967000D01*
G75*
G02*
X156072000Y-70623250I0J343750D01*
G01*
X156072000Y-69935750D01*
G75*
G02*
X156415750Y-69592000I343750J0D01*
G01*
G37*
G36*
G01*
X156415750Y-67717000D02*
X157528250Y-67717000D01*
G75*
G02*
X157872000Y-68060750I0J-343750D01*
G01*
X157872000Y-68748250D01*
G75*
G02*
X157528250Y-69092000I-343750J0D01*
G01*
X156415750Y-69092000D01*
G75*
G02*
X156072000Y-68748250I0J343750D01*
G01*
X156072000Y-68060750D01*
G75*
G02*
X156415750Y-67717000I343750J0D01*
G01*
G37*
G04 #@! TD*
D13*
G04 #@! TO.C,L1*
X148082000Y-70002000D03*
X148082000Y-63602000D03*
G04 #@! TD*
D14*
G04 #@! TO.C,D3*
X155162000Y-73152000D03*
X151162000Y-73152000D03*
G04 #@! TD*
D15*
G04 #@! TO.C,Charge*
X123952000Y-66548000D03*
D16*
X123952000Y-65278000D03*
G04 #@! TD*
D15*
G04 #@! TO.C,Bat EN GND 5V*
X138938000Y-63500000D03*
X140208000Y-63500000D03*
X141478000Y-63500000D03*
D16*
X142748000Y-63500000D03*
G04 #@! TD*
D15*
G04 #@! TO.C,Bat-+*
X133858000Y-73406000D03*
D16*
X132588000Y-73406000D03*
G04 #@! TD*
D17*
G04 #@! TO.C,U4*
X153924000Y-67988000D03*
X152974000Y-67988000D03*
X154874000Y-67988000D03*
X154874000Y-70188000D03*
X153924000Y-70188000D03*
X152974000Y-70188000D03*
G04 #@! TD*
G04 #@! TO.C,R8*
G36*
G01*
X154174000Y-63802250D02*
X154174000Y-62689750D01*
G75*
G02*
X154517750Y-62346000I343750J0D01*
G01*
X155205250Y-62346000D01*
G75*
G02*
X155549000Y-62689750I0J-343750D01*
G01*
X155549000Y-63802250D01*
G75*
G02*
X155205250Y-64146000I-343750J0D01*
G01*
X154517750Y-64146000D01*
G75*
G02*
X154174000Y-63802250I0J343750D01*
G01*
G37*
G36*
G01*
X152299000Y-63802250D02*
X152299000Y-62689750D01*
G75*
G02*
X152642750Y-62346000I343750J0D01*
G01*
X153330250Y-62346000D01*
G75*
G02*
X153674000Y-62689750I0J-343750D01*
G01*
X153674000Y-63802250D01*
G75*
G02*
X153330250Y-64146000I-343750J0D01*
G01*
X152642750Y-64146000D01*
G75*
G02*
X152299000Y-63802250I0J343750D01*
G01*
G37*
G04 #@! TD*
D18*
G04 #@! TO.C,C1*
X124714000Y-68981000D03*
X124714000Y-71481000D03*
G04 #@! TD*
D10*
G04 #@! TO.C,C2*
X136124000Y-65024000D03*
X133624000Y-65024000D03*
G04 #@! TD*
D19*
G04 #@! TO.C,U2*
X135117800Y-69917300D03*
X136067800Y-69917300D03*
X137017800Y-69917300D03*
X137017800Y-67217300D03*
X135117800Y-67217300D03*
X136067800Y-67217300D03*
G04 #@! TD*
D20*
G04 #@! TO.C,R1*
X129624000Y-61722000D03*
X127424000Y-61722000D03*
G04 #@! TD*
G04 #@! TO.C,R2*
X129624000Y-63246000D03*
X127424000Y-63246000D03*
G04 #@! TD*
G04 #@! TO.C,R3*
X130386000Y-73406000D03*
X128186000Y-73406000D03*
G04 #@! TD*
D12*
G04 #@! TO.C,R5*
X133350000Y-69934000D03*
X133350000Y-67734000D03*
G04 #@! TD*
D20*
G04 #@! TO.C,D1*
X125560000Y-63246000D03*
X123360000Y-63246000D03*
G04 #@! TD*
G04 #@! TO.C,D2*
X125560000Y-61722000D03*
X123360000Y-61722000D03*
G04 #@! TD*
D21*
G04 #@! TO.C,U1*
X126619000Y-71280000D03*
X127889000Y-71280000D03*
X129159000Y-71280000D03*
X130429000Y-71280000D03*
X130429000Y-65880000D03*
X129159000Y-65880000D03*
X127889000Y-65880000D03*
X126619000Y-65880000D03*
D22*
X128524000Y-68580000D03*
G04 #@! TD*
D23*
X152908000Y-63246000D03*
X133604000Y-65024000D03*
X130386000Y-73406000D03*
X131826000Y-65786000D03*
X151130000Y-73152000D03*
X149606000Y-73152000D03*
M02*
