G04 #@! TF.GenerationSoftware,KiCad,Pcbnew,(5.1.6)-1*
G04 #@! TF.CreationDate,2020-05-27T20:21:06+02:00*
G04 #@! TF.ProjectId,charger_stepup,63686172-6765-4725-9f73-74657075702e,rev?*
G04 #@! TF.SameCoordinates,Original*
G04 #@! TF.FileFunction,Paste,Top*
G04 #@! TF.FilePolarity,Positive*
%FSLAX46Y46*%
G04 Gerber Fmt 4.6, Leading zero omitted, Abs format (unit mm)*
G04 Created by KiCad (PCBNEW (5.1.6)-1) date 2020-05-27 20:21:06*
%MOMM*%
%LPD*%
G01*
G04 APERTURE LIST*
%ADD10R,1.500000X1.250000*%
%ADD11R,1.450000X0.450000*%
%ADD12R,0.900000X1.200000*%
%ADD13R,2.200000X1.500000*%
%ADD14R,2.500000X1.800000*%
%ADD15R,0.650000X1.060000*%
%ADD16R,1.250000X1.500000*%
%ADD17R,0.650000X1.560000*%
%ADD18R,1.200000X0.900000*%
%ADD19R,0.650000X1.500000*%
%ADD20R,3.600000X2.700000*%
G04 APERTURE END LIST*
G04 #@! TO.C,C5*
G36*
G01*
X144983000Y-71701999D02*
X144983000Y-74602001D01*
G75*
G02*
X144733001Y-74852000I-249999J0D01*
G01*
X144107999Y-74852000D01*
G75*
G02*
X143858000Y-74602001I0J249999D01*
G01*
X143858000Y-71701999D01*
G75*
G02*
X144107999Y-71452000I249999J0D01*
G01*
X144733001Y-71452000D01*
G75*
G02*
X144983000Y-71701999I0J-249999D01*
G01*
G37*
G36*
G01*
X149258000Y-71701999D02*
X149258000Y-74602001D01*
G75*
G02*
X149008001Y-74852000I-249999J0D01*
G01*
X148382999Y-74852000D01*
G75*
G02*
X148133000Y-74602001I0J249999D01*
G01*
X148133000Y-71701999D01*
G75*
G02*
X148382999Y-71452000I249999J0D01*
G01*
X149008001Y-71452000D01*
G75*
G02*
X149258000Y-71701999I0J-249999D01*
G01*
G37*
G04 #@! TD*
D10*
G04 #@! TO.C,C3*
X123718000Y-73660000D03*
X126218000Y-73660000D03*
G04 #@! TD*
D11*
G04 #@! TO.C,U3*
X136242000Y-72177000D03*
X136242000Y-72827000D03*
X136242000Y-73477000D03*
X136242000Y-74127000D03*
X142142000Y-74127000D03*
X142142000Y-73477000D03*
X142142000Y-72827000D03*
X142142000Y-72177000D03*
G04 #@! TD*
D12*
G04 #@! TO.C,R4*
X138684000Y-69934000D03*
X138684000Y-67734000D03*
G04 #@! TD*
G04 #@! TO.C,R6*
G36*
G01*
X154374000Y-65734250D02*
X154374000Y-64821750D01*
G75*
G02*
X154617750Y-64578000I243750J0D01*
G01*
X155105250Y-64578000D01*
G75*
G02*
X155349000Y-64821750I0J-243750D01*
G01*
X155349000Y-65734250D01*
G75*
G02*
X155105250Y-65978000I-243750J0D01*
G01*
X154617750Y-65978000D01*
G75*
G02*
X154374000Y-65734250I0J243750D01*
G01*
G37*
G36*
G01*
X152499000Y-65734250D02*
X152499000Y-64821750D01*
G75*
G02*
X152742750Y-64578000I243750J0D01*
G01*
X153230250Y-64578000D01*
G75*
G02*
X153474000Y-64821750I0J-243750D01*
G01*
X153474000Y-65734250D01*
G75*
G02*
X153230250Y-65978000I-243750J0D01*
G01*
X152742750Y-65978000D01*
G75*
G02*
X152499000Y-65734250I0J243750D01*
G01*
G37*
G04 #@! TD*
G04 #@! TO.C,C4*
G36*
G01*
X140535999Y-69647000D02*
X143436001Y-69647000D01*
G75*
G02*
X143686000Y-69896999I0J-249999D01*
G01*
X143686000Y-70522001D01*
G75*
G02*
X143436001Y-70772000I-249999J0D01*
G01*
X140535999Y-70772000D01*
G75*
G02*
X140286000Y-70522001I0J249999D01*
G01*
X140286000Y-69896999D01*
G75*
G02*
X140535999Y-69647000I249999J0D01*
G01*
G37*
G36*
G01*
X140535999Y-65372000D02*
X143436001Y-65372000D01*
G75*
G02*
X143686000Y-65621999I0J-249999D01*
G01*
X143686000Y-66247001D01*
G75*
G02*
X143436001Y-66497000I-249999J0D01*
G01*
X140535999Y-66497000D01*
G75*
G02*
X140286000Y-66247001I0J249999D01*
G01*
X140286000Y-65621999D01*
G75*
G02*
X140535999Y-65372000I249999J0D01*
G01*
G37*
G04 #@! TD*
G04 #@! TO.C,R7*
G36*
G01*
X156515750Y-69792000D02*
X157428250Y-69792000D01*
G75*
G02*
X157672000Y-70035750I0J-243750D01*
G01*
X157672000Y-70523250D01*
G75*
G02*
X157428250Y-70767000I-243750J0D01*
G01*
X156515750Y-70767000D01*
G75*
G02*
X156272000Y-70523250I0J243750D01*
G01*
X156272000Y-70035750D01*
G75*
G02*
X156515750Y-69792000I243750J0D01*
G01*
G37*
G36*
G01*
X156515750Y-67917000D02*
X157428250Y-67917000D01*
G75*
G02*
X157672000Y-68160750I0J-243750D01*
G01*
X157672000Y-68648250D01*
G75*
G02*
X157428250Y-68892000I-243750J0D01*
G01*
X156515750Y-68892000D01*
G75*
G02*
X156272000Y-68648250I0J243750D01*
G01*
X156272000Y-68160750D01*
G75*
G02*
X156515750Y-67917000I243750J0D01*
G01*
G37*
G04 #@! TD*
D13*
G04 #@! TO.C,L1*
X148082000Y-70002000D03*
X148082000Y-63602000D03*
G04 #@! TD*
D14*
G04 #@! TO.C,D3*
X155162000Y-73152000D03*
X151162000Y-73152000D03*
G04 #@! TD*
D15*
G04 #@! TO.C,U4*
X153924000Y-67988000D03*
X152974000Y-67988000D03*
X154874000Y-67988000D03*
X154874000Y-70188000D03*
X153924000Y-70188000D03*
X152974000Y-70188000D03*
G04 #@! TD*
G04 #@! TO.C,R8*
G36*
G01*
X154374000Y-63702250D02*
X154374000Y-62789750D01*
G75*
G02*
X154617750Y-62546000I243750J0D01*
G01*
X155105250Y-62546000D01*
G75*
G02*
X155349000Y-62789750I0J-243750D01*
G01*
X155349000Y-63702250D01*
G75*
G02*
X155105250Y-63946000I-243750J0D01*
G01*
X154617750Y-63946000D01*
G75*
G02*
X154374000Y-63702250I0J243750D01*
G01*
G37*
G36*
G01*
X152499000Y-63702250D02*
X152499000Y-62789750D01*
G75*
G02*
X152742750Y-62546000I243750J0D01*
G01*
X153230250Y-62546000D01*
G75*
G02*
X153474000Y-62789750I0J-243750D01*
G01*
X153474000Y-63702250D01*
G75*
G02*
X153230250Y-63946000I-243750J0D01*
G01*
X152742750Y-63946000D01*
G75*
G02*
X152499000Y-63702250I0J243750D01*
G01*
G37*
G04 #@! TD*
D16*
G04 #@! TO.C,C1*
X124714000Y-68981000D03*
X124714000Y-71481000D03*
G04 #@! TD*
D10*
G04 #@! TO.C,C2*
X136124000Y-65024000D03*
X133624000Y-65024000D03*
G04 #@! TD*
D17*
G04 #@! TO.C,U2*
X135117800Y-69917300D03*
X136067800Y-69917300D03*
X137017800Y-69917300D03*
X137017800Y-67217300D03*
X135117800Y-67217300D03*
X136067800Y-67217300D03*
G04 #@! TD*
D18*
G04 #@! TO.C,R1*
X129624000Y-61722000D03*
X127424000Y-61722000D03*
G04 #@! TD*
G04 #@! TO.C,R2*
X129624000Y-63246000D03*
X127424000Y-63246000D03*
G04 #@! TD*
G04 #@! TO.C,R3*
X130386000Y-73406000D03*
X128186000Y-73406000D03*
G04 #@! TD*
D12*
G04 #@! TO.C,R5*
X133350000Y-69934000D03*
X133350000Y-67734000D03*
G04 #@! TD*
D18*
G04 #@! TO.C,D1*
X125560000Y-63246000D03*
X123360000Y-63246000D03*
G04 #@! TD*
G04 #@! TO.C,D2*
X125560000Y-61722000D03*
X123360000Y-61722000D03*
G04 #@! TD*
D19*
G04 #@! TO.C,U1*
X126619000Y-71280000D03*
X127889000Y-71280000D03*
X129159000Y-71280000D03*
X130429000Y-71280000D03*
X130429000Y-65880000D03*
X129159000Y-65880000D03*
X127889000Y-65880000D03*
X126619000Y-65880000D03*
D20*
X128524000Y-68580000D03*
G04 #@! TD*
M02*
