G04 #@! TF.GenerationSoftware,KiCad,Pcbnew,(5.1.6)-1*
G04 #@! TF.CreationDate,2020-05-28T13:40:36+02:00*
G04 #@! TF.ProjectId,charger_stepup,63686172-6765-4725-9f73-74657075702e,rev?*
G04 #@! TF.SameCoordinates,Original*
G04 #@! TF.FileFunction,Copper,L2,Bot*
G04 #@! TF.FilePolarity,Positive*
%FSLAX46Y46*%
G04 Gerber Fmt 4.6, Leading zero omitted, Abs format (unit mm)*
G04 Created by KiCad (PCBNEW (5.1.6)-1) date 2020-05-28 13:40:36*
%MOMM*%
%LPD*%
G01*
G04 APERTURE LIST*
G04 #@! TA.AperFunction,NonConductor*
%ADD10C,0.300000*%
G04 #@! TD*
G04 #@! TA.AperFunction,ComponentPad*
%ADD11O,1.700000X1.700000*%
G04 #@! TD*
G04 #@! TA.AperFunction,ComponentPad*
%ADD12R,1.700000X1.700000*%
G04 #@! TD*
G04 #@! TA.AperFunction,ViaPad*
%ADD13C,0.600000*%
G04 #@! TD*
G04 #@! TA.AperFunction,Conductor*
%ADD14C,0.250000*%
G04 #@! TD*
G04 #@! TA.AperFunction,Conductor*
%ADD15C,0.700000*%
G04 #@! TD*
G04 #@! TA.AperFunction,Conductor*
%ADD16C,0.200000*%
G04 #@! TD*
G04 APERTURE END LIST*
D10*
X160019714Y-73092571D02*
X159519714Y-74592571D01*
X159019714Y-73092571D01*
X157734000Y-74592571D02*
X158591142Y-74592571D01*
X158162571Y-74592571D02*
X158162571Y-73092571D01*
X158305428Y-73306857D01*
X158448285Y-73449714D01*
X158591142Y-73521142D01*
X157091142Y-74449714D02*
X157019714Y-74521142D01*
X157091142Y-74592571D01*
X157162571Y-74521142D01*
X157091142Y-74449714D01*
X157091142Y-74592571D01*
X156091142Y-73092571D02*
X155948285Y-73092571D01*
X155805428Y-73164000D01*
X155734000Y-73235428D01*
X155662571Y-73378285D01*
X155591142Y-73664000D01*
X155591142Y-74021142D01*
X155662571Y-74306857D01*
X155734000Y-74449714D01*
X155805428Y-74521142D01*
X155948285Y-74592571D01*
X156091142Y-74592571D01*
X156234000Y-74521142D01*
X156305428Y-74449714D01*
X156376857Y-74306857D01*
X156448285Y-74021142D01*
X156448285Y-73664000D01*
X156376857Y-73378285D01*
X156305428Y-73235428D01*
X156234000Y-73164000D01*
X156091142Y-73092571D01*
X128047428Y-73235428D02*
X127976000Y-73164000D01*
X127833142Y-73092571D01*
X127476000Y-73092571D01*
X127333142Y-73164000D01*
X127261714Y-73235428D01*
X127190285Y-73378285D01*
X127190285Y-73521142D01*
X127261714Y-73735428D01*
X128118857Y-74592571D01*
X127190285Y-74592571D01*
X126261714Y-73092571D02*
X126118857Y-73092571D01*
X125976000Y-73164000D01*
X125904571Y-73235428D01*
X125833142Y-73378285D01*
X125761714Y-73664000D01*
X125761714Y-74021142D01*
X125833142Y-74306857D01*
X125904571Y-74449714D01*
X125976000Y-74521142D01*
X126118857Y-74592571D01*
X126261714Y-74592571D01*
X126404571Y-74521142D01*
X126476000Y-74449714D01*
X126547428Y-74306857D01*
X126618857Y-74021142D01*
X126618857Y-73664000D01*
X126547428Y-73378285D01*
X126476000Y-73235428D01*
X126404571Y-73164000D01*
X126261714Y-73092571D01*
X125190285Y-73235428D02*
X125118857Y-73164000D01*
X124976000Y-73092571D01*
X124618857Y-73092571D01*
X124476000Y-73164000D01*
X124404571Y-73235428D01*
X124333142Y-73378285D01*
X124333142Y-73521142D01*
X124404571Y-73735428D01*
X125261714Y-74592571D01*
X124333142Y-74592571D01*
X123404571Y-73092571D02*
X123261714Y-73092571D01*
X123118857Y-73164000D01*
X123047428Y-73235428D01*
X122976000Y-73378285D01*
X122904571Y-73664000D01*
X122904571Y-74021142D01*
X122976000Y-74306857D01*
X123047428Y-74449714D01*
X123118857Y-74521142D01*
X123261714Y-74592571D01*
X123404571Y-74592571D01*
X123547428Y-74521142D01*
X123618857Y-74449714D01*
X123690285Y-74306857D01*
X123761714Y-74021142D01*
X123761714Y-73664000D01*
X123690285Y-73378285D01*
X123618857Y-73235428D01*
X123547428Y-73164000D01*
X123404571Y-73092571D01*
X158178285Y-66967571D02*
X159035428Y-66967571D01*
X158606857Y-66967571D02*
X158606857Y-65467571D01*
X158749714Y-65681857D01*
X158892571Y-65824714D01*
X159035428Y-65896142D01*
X157606857Y-66896142D02*
X157464000Y-66967571D01*
X157178285Y-66967571D01*
X157035428Y-66896142D01*
X156964000Y-66753285D01*
X156964000Y-66681857D01*
X157035428Y-66539000D01*
X157178285Y-66467571D01*
X157392571Y-66467571D01*
X157535428Y-66396142D01*
X157606857Y-66253285D01*
X157606857Y-66181857D01*
X157535428Y-66039000D01*
X157392571Y-65967571D01*
X157178285Y-65967571D01*
X157035428Y-66039000D01*
X154464000Y-66967571D02*
X155178285Y-66967571D01*
X155178285Y-65467571D01*
X153964000Y-66967571D02*
X153964000Y-65967571D01*
X153964000Y-65467571D02*
X154035428Y-65539000D01*
X153964000Y-65610428D01*
X153892571Y-65539000D01*
X153964000Y-65467571D01*
X153964000Y-65610428D01*
X159106857Y-68017571D02*
X159821142Y-68017571D01*
X159892571Y-68731857D01*
X159821142Y-68660428D01*
X159678285Y-68589000D01*
X159321142Y-68589000D01*
X159178285Y-68660428D01*
X159106857Y-68731857D01*
X159035428Y-68874714D01*
X159035428Y-69231857D01*
X159106857Y-69374714D01*
X159178285Y-69446142D01*
X159321142Y-69517571D01*
X159678285Y-69517571D01*
X159821142Y-69446142D01*
X159892571Y-69374714D01*
X158606857Y-68017571D02*
X158106857Y-69517571D01*
X157606857Y-68017571D01*
X155749714Y-69517571D02*
X155892571Y-69446142D01*
X155964000Y-69374714D01*
X156035428Y-69231857D01*
X156035428Y-68803285D01*
X155964000Y-68660428D01*
X155892571Y-68589000D01*
X155749714Y-68517571D01*
X155535428Y-68517571D01*
X155392571Y-68589000D01*
X155321142Y-68660428D01*
X155249714Y-68803285D01*
X155249714Y-69231857D01*
X155321142Y-69374714D01*
X155392571Y-69446142D01*
X155535428Y-69517571D01*
X155749714Y-69517571D01*
X153964000Y-68517571D02*
X153964000Y-69517571D01*
X154606857Y-68517571D02*
X154606857Y-69303285D01*
X154535428Y-69446142D01*
X154392571Y-69517571D01*
X154178285Y-69517571D01*
X154035428Y-69446142D01*
X153964000Y-69374714D01*
X153464000Y-68517571D02*
X152892571Y-68517571D01*
X153249714Y-68017571D02*
X153249714Y-69303285D01*
X153178285Y-69446142D01*
X153035428Y-69517571D01*
X152892571Y-69517571D01*
X134293714Y-62837142D02*
X134079428Y-62908571D01*
X133722285Y-62908571D01*
X133579428Y-62837142D01*
X133508000Y-62765714D01*
X133436571Y-62622857D01*
X133436571Y-62480000D01*
X133508000Y-62337142D01*
X133579428Y-62265714D01*
X133722285Y-62194285D01*
X134008000Y-62122857D01*
X134150857Y-62051428D01*
X134222285Y-61980000D01*
X134293714Y-61837142D01*
X134293714Y-61694285D01*
X134222285Y-61551428D01*
X134150857Y-61480000D01*
X134008000Y-61408571D01*
X133650857Y-61408571D01*
X133436571Y-61480000D01*
X132150857Y-62908571D02*
X132150857Y-62122857D01*
X132222285Y-61980000D01*
X132365142Y-61908571D01*
X132650857Y-61908571D01*
X132793714Y-61980000D01*
X132150857Y-62837142D02*
X132293714Y-62908571D01*
X132650857Y-62908571D01*
X132793714Y-62837142D01*
X132865142Y-62694285D01*
X132865142Y-62551428D01*
X132793714Y-62408571D01*
X132650857Y-62337142D01*
X132293714Y-62337142D01*
X132150857Y-62265714D01*
X131436571Y-62908571D02*
X131436571Y-61908571D01*
X131436571Y-62051428D02*
X131365142Y-61980000D01*
X131222285Y-61908571D01*
X131008000Y-61908571D01*
X130865142Y-61980000D01*
X130793714Y-62122857D01*
X130793714Y-62908571D01*
X130793714Y-62122857D02*
X130722285Y-61980000D01*
X130579428Y-61908571D01*
X130365142Y-61908571D01*
X130222285Y-61980000D01*
X130150857Y-62122857D01*
X130150857Y-62908571D01*
X128793714Y-61908571D02*
X128793714Y-62908571D01*
X129436571Y-61908571D02*
X129436571Y-62694285D01*
X129365142Y-62837142D01*
X129222285Y-62908571D01*
X129008000Y-62908571D01*
X128865142Y-62837142D01*
X128793714Y-62765714D01*
X127508000Y-62837142D02*
X127650857Y-62908571D01*
X127936571Y-62908571D01*
X128079428Y-62837142D01*
X128150857Y-62694285D01*
X128150857Y-62122857D01*
X128079428Y-61980000D01*
X127936571Y-61908571D01*
X127650857Y-61908571D01*
X127508000Y-61980000D01*
X127436571Y-62122857D01*
X127436571Y-62265714D01*
X128150857Y-62408571D01*
X126579428Y-62908571D02*
X126722285Y-62837142D01*
X126793714Y-62694285D01*
X126793714Y-61408571D01*
X124865142Y-62908571D02*
X124865142Y-61408571D01*
X124865142Y-62122857D02*
X124008000Y-62122857D01*
X124008000Y-62908571D02*
X124008000Y-61408571D01*
X123293714Y-62908571D02*
X123293714Y-61908571D01*
X123293714Y-61408571D02*
X123365142Y-61480000D01*
X123293714Y-61551428D01*
X123222285Y-61480000D01*
X123293714Y-61408571D01*
X123293714Y-61551428D01*
X121936571Y-62837142D02*
X122079428Y-62908571D01*
X122365142Y-62908571D01*
X122508000Y-62837142D01*
X122579428Y-62765714D01*
X122650857Y-62622857D01*
X122650857Y-62194285D01*
X122579428Y-62051428D01*
X122508000Y-61980000D01*
X122365142Y-61908571D01*
X122079428Y-61908571D01*
X121936571Y-61980000D01*
X121293714Y-62908571D02*
X121293714Y-61408571D01*
X121150857Y-62337142D02*
X120722285Y-62908571D01*
X120722285Y-61908571D02*
X121293714Y-62480000D01*
D11*
G04 #@! TO.P,J3,2*
G04 #@! TO.N,BAT-*
X135636000Y-73152000D03*
D12*
G04 #@! TO.P,J3,1*
G04 #@! TO.N,BAT+*
X133096000Y-73152000D03*
G04 #@! TD*
D11*
G04 #@! TO.P,Bat EN GND 5V,4*
G04 #@! TO.N,BAT+*
X136652000Y-62230000D03*
G04 #@! TO.P,Bat EN GND 5V,3*
G04 #@! TO.N,EN*
X139192000Y-62230000D03*
G04 #@! TO.P,Bat EN GND 5V,2*
G04 #@! TO.N,GND*
X141732000Y-62230000D03*
D12*
G04 #@! TO.P,Bat EN GND 5V,1*
G04 #@! TO.N,5Vout*
X144272000Y-62230000D03*
G04 #@! TD*
D11*
G04 #@! TO.P,J1,2*
G04 #@! TO.N,IN+*
X121666000Y-66294000D03*
D12*
G04 #@! TO.P,J1,1*
G04 #@! TO.N,GND*
X121666000Y-68834000D03*
G04 #@! TD*
D13*
G04 #@! TO.N,BAT-*
X133604000Y-70084000D03*
G04 #@! TO.N,GND*
X155194000Y-63246000D03*
X130386000Y-73406000D03*
X132080000Y-64262000D03*
X150368000Y-66802000D03*
X141224000Y-66548000D03*
X148082000Y-72136000D03*
X125222000Y-66040000D03*
G04 #@! TO.N,5Vout*
X153416000Y-73152000D03*
X151892000Y-73152000D03*
G04 #@! TD*
D14*
G04 #@! TO.N,BAT-*
X134640000Y-71120000D02*
X133604000Y-70084000D01*
X135128000Y-71120000D02*
X134640000Y-71120000D01*
X135636000Y-73152000D02*
X135636000Y-71628000D01*
X135636000Y-71628000D02*
X135128000Y-71120000D01*
D15*
G04 #@! TO.N,5Vout*
X153416000Y-73152000D02*
X150876000Y-73152000D01*
X144272000Y-66548000D02*
X144272000Y-62230000D01*
X150876000Y-73152000D02*
X144272000Y-66548000D01*
G04 #@! TD*
D16*
G04 #@! TO.N,GND*
G36*
X160661001Y-75190000D02*
G01*
X160612572Y-75190000D01*
X160612572Y-72459000D01*
X154855429Y-72459000D01*
X154855429Y-75190000D01*
X128783143Y-75190000D01*
X128783143Y-72459000D01*
X122168857Y-72459000D01*
X122168857Y-75190000D01*
X120009000Y-75190000D01*
X120009000Y-72302000D01*
X131944549Y-72302000D01*
X131944549Y-74002000D01*
X131950341Y-74060810D01*
X131967496Y-74117360D01*
X131995353Y-74169477D01*
X132032842Y-74215158D01*
X132078523Y-74252647D01*
X132130640Y-74280504D01*
X132187190Y-74297659D01*
X132246000Y-74303451D01*
X133946000Y-74303451D01*
X134004810Y-74297659D01*
X134061360Y-74280504D01*
X134113477Y-74252647D01*
X134159158Y-74215158D01*
X134196647Y-74169477D01*
X134224504Y-74117360D01*
X134241659Y-74060810D01*
X134247451Y-74002000D01*
X134247451Y-72302000D01*
X134241659Y-72243190D01*
X134224504Y-72186640D01*
X134196647Y-72134523D01*
X134159158Y-72088842D01*
X134113477Y-72051353D01*
X134061360Y-72023496D01*
X134004810Y-72006341D01*
X133946000Y-72000549D01*
X132246000Y-72000549D01*
X132187190Y-72006341D01*
X132130640Y-72023496D01*
X132078523Y-72051353D01*
X132032842Y-72088842D01*
X131995353Y-72134523D01*
X131967496Y-72186640D01*
X131950341Y-72243190D01*
X131944549Y-72302000D01*
X120009000Y-72302000D01*
X120009000Y-70024905D01*
X133004000Y-70024905D01*
X133004000Y-70143095D01*
X133027058Y-70259014D01*
X133072287Y-70368207D01*
X133137950Y-70466478D01*
X133221522Y-70550050D01*
X133319793Y-70615713D01*
X133428986Y-70660942D01*
X133544905Y-70684000D01*
X133602960Y-70684000D01*
X134324719Y-71405760D01*
X134338026Y-71421974D01*
X134402740Y-71475084D01*
X134476573Y-71514548D01*
X134532383Y-71531478D01*
X134556685Y-71538850D01*
X134565098Y-71539679D01*
X134619126Y-71545000D01*
X134619132Y-71545000D01*
X134639999Y-71547055D01*
X134660866Y-71545000D01*
X134951960Y-71545000D01*
X135211001Y-71804042D01*
X135211001Y-72083290D01*
X135091271Y-72132884D01*
X134902918Y-72258737D01*
X134742737Y-72418918D01*
X134616884Y-72607271D01*
X134530194Y-72816557D01*
X134486000Y-73038735D01*
X134486000Y-73265265D01*
X134530194Y-73487443D01*
X134616884Y-73696729D01*
X134742737Y-73885082D01*
X134902918Y-74045263D01*
X135091271Y-74171116D01*
X135300557Y-74257806D01*
X135522735Y-74302000D01*
X135749265Y-74302000D01*
X135971443Y-74257806D01*
X136180729Y-74171116D01*
X136369082Y-74045263D01*
X136529263Y-73885082D01*
X136655116Y-73696729D01*
X136741806Y-73487443D01*
X136786000Y-73265265D01*
X136786000Y-73038735D01*
X136741806Y-72816557D01*
X136655116Y-72607271D01*
X136529263Y-72418918D01*
X136369082Y-72258737D01*
X136180729Y-72132884D01*
X136061000Y-72083290D01*
X136061000Y-71648866D01*
X136063055Y-71627999D01*
X136061000Y-71607132D01*
X136061000Y-71607126D01*
X136054850Y-71544686D01*
X136030548Y-71464573D01*
X135991084Y-71390740D01*
X135937974Y-71326026D01*
X135921762Y-71312721D01*
X135443283Y-70834243D01*
X135429974Y-70818026D01*
X135365260Y-70764916D01*
X135291427Y-70725452D01*
X135211314Y-70701150D01*
X135148874Y-70695000D01*
X135148867Y-70695000D01*
X135128000Y-70692945D01*
X135107133Y-70695000D01*
X134816041Y-70695000D01*
X134204000Y-70082960D01*
X134204000Y-70024905D01*
X134180942Y-69908986D01*
X134135713Y-69799793D01*
X134070050Y-69701522D01*
X133986478Y-69617950D01*
X133888207Y-69552287D01*
X133779014Y-69507058D01*
X133663095Y-69484000D01*
X133544905Y-69484000D01*
X133428986Y-69507058D01*
X133319793Y-69552287D01*
X133221522Y-69617950D01*
X133137950Y-69701522D01*
X133072287Y-69799793D01*
X133027058Y-69908986D01*
X133004000Y-70024905D01*
X120009000Y-70024905D01*
X120009000Y-69684000D01*
X120514548Y-69684000D01*
X120520340Y-69742810D01*
X120537495Y-69799361D01*
X120565352Y-69851478D01*
X120602841Y-69897159D01*
X120648522Y-69934648D01*
X120700639Y-69962505D01*
X120757190Y-69979660D01*
X120816000Y-69985452D01*
X121437000Y-69984000D01*
X121512000Y-69909000D01*
X121512000Y-68988000D01*
X121820000Y-68988000D01*
X121820000Y-69909000D01*
X121895000Y-69984000D01*
X122516000Y-69985452D01*
X122574810Y-69979660D01*
X122631361Y-69962505D01*
X122683478Y-69934648D01*
X122729159Y-69897159D01*
X122766648Y-69851478D01*
X122794505Y-69799361D01*
X122811660Y-69742810D01*
X122817452Y-69684000D01*
X122816000Y-69063000D01*
X122741000Y-68988000D01*
X121820000Y-68988000D01*
X121512000Y-68988000D01*
X120591000Y-68988000D01*
X120516000Y-69063000D01*
X120514548Y-69684000D01*
X120009000Y-69684000D01*
X120009000Y-67984000D01*
X120514548Y-67984000D01*
X120516000Y-68605000D01*
X120591000Y-68680000D01*
X121512000Y-68680000D01*
X121512000Y-67759000D01*
X121820000Y-67759000D01*
X121820000Y-68680000D01*
X122741000Y-68680000D01*
X122816000Y-68605000D01*
X122817452Y-67984000D01*
X122811660Y-67925190D01*
X122794505Y-67868639D01*
X122766648Y-67816522D01*
X122729159Y-67770841D01*
X122683478Y-67733352D01*
X122631361Y-67705495D01*
X122574810Y-67688340D01*
X122516000Y-67682548D01*
X121895000Y-67684000D01*
X121820000Y-67759000D01*
X121512000Y-67759000D01*
X121437000Y-67684000D01*
X120816000Y-67682548D01*
X120757190Y-67688340D01*
X120700639Y-67705495D01*
X120648522Y-67733352D01*
X120602841Y-67770841D01*
X120565352Y-67816522D01*
X120537495Y-67868639D01*
X120520340Y-67925190D01*
X120514548Y-67984000D01*
X120009000Y-67984000D01*
X120009000Y-66180735D01*
X120516000Y-66180735D01*
X120516000Y-66407265D01*
X120560194Y-66629443D01*
X120646884Y-66838729D01*
X120772737Y-67027082D01*
X120932918Y-67187263D01*
X121121271Y-67313116D01*
X121330557Y-67399806D01*
X121552735Y-67444000D01*
X121779265Y-67444000D01*
X122001443Y-67399806D01*
X122210729Y-67313116D01*
X122399082Y-67187263D01*
X122559263Y-67027082D01*
X122685116Y-66838729D01*
X122771806Y-66629443D01*
X122816000Y-66407265D01*
X122816000Y-66180735D01*
X122771806Y-65958557D01*
X122685116Y-65749271D01*
X122559263Y-65560918D01*
X122399082Y-65400737D01*
X122210729Y-65274884D01*
X122001443Y-65188194D01*
X121779265Y-65144000D01*
X121552735Y-65144000D01*
X121330557Y-65188194D01*
X121121271Y-65274884D01*
X120932918Y-65400737D01*
X120772737Y-65560918D01*
X120646884Y-65749271D01*
X120560194Y-65958557D01*
X120516000Y-66180735D01*
X120009000Y-66180735D01*
X120009000Y-63925000D01*
X135029429Y-63925000D01*
X135029429Y-62116735D01*
X135502000Y-62116735D01*
X135502000Y-62343265D01*
X135546194Y-62565443D01*
X135632884Y-62774729D01*
X135758737Y-62963082D01*
X135918918Y-63123263D01*
X136107271Y-63249116D01*
X136316557Y-63335806D01*
X136538735Y-63380000D01*
X136765265Y-63380000D01*
X136987443Y-63335806D01*
X137196729Y-63249116D01*
X137385082Y-63123263D01*
X137545263Y-62963082D01*
X137671116Y-62774729D01*
X137757806Y-62565443D01*
X137802000Y-62343265D01*
X137802000Y-62116735D01*
X138042000Y-62116735D01*
X138042000Y-62343265D01*
X138086194Y-62565443D01*
X138172884Y-62774729D01*
X138298737Y-62963082D01*
X138458918Y-63123263D01*
X138647271Y-63249116D01*
X138856557Y-63335806D01*
X139078735Y-63380000D01*
X139305265Y-63380000D01*
X139527443Y-63335806D01*
X139736729Y-63249116D01*
X139925082Y-63123263D01*
X140085263Y-62963082D01*
X140211116Y-62774729D01*
X140297806Y-62565443D01*
X140298812Y-62560385D01*
X140630472Y-62560385D01*
X140716092Y-62768934D01*
X140840753Y-62956772D01*
X140999664Y-63116681D01*
X141186719Y-63242515D01*
X141394728Y-63329439D01*
X141401617Y-63331520D01*
X141578000Y-63293912D01*
X141578000Y-62384000D01*
X141886000Y-62384000D01*
X141886000Y-63293912D01*
X142062383Y-63331520D01*
X142069272Y-63329439D01*
X142277281Y-63242515D01*
X142464336Y-63116681D01*
X142623247Y-62956772D01*
X142747908Y-62768934D01*
X142833528Y-62560385D01*
X142796650Y-62384000D01*
X141886000Y-62384000D01*
X141578000Y-62384000D01*
X140667350Y-62384000D01*
X140630472Y-62560385D01*
X140298812Y-62560385D01*
X140342000Y-62343265D01*
X140342000Y-62116735D01*
X140298813Y-61899615D01*
X140630472Y-61899615D01*
X140667350Y-62076000D01*
X141578000Y-62076000D01*
X141578000Y-61166088D01*
X141886000Y-61166088D01*
X141886000Y-62076000D01*
X142796650Y-62076000D01*
X142833528Y-61899615D01*
X142747908Y-61691066D01*
X142623247Y-61503228D01*
X142500789Y-61380000D01*
X143120549Y-61380000D01*
X143120549Y-63080000D01*
X143126341Y-63138810D01*
X143143496Y-63195360D01*
X143171353Y-63247477D01*
X143208842Y-63293158D01*
X143254523Y-63330647D01*
X143306640Y-63358504D01*
X143363190Y-63375659D01*
X143422000Y-63381451D01*
X143622001Y-63381451D01*
X143622000Y-66516078D01*
X143618856Y-66548000D01*
X143622000Y-66579921D01*
X143622000Y-66579931D01*
X143631405Y-66675421D01*
X143668573Y-66797947D01*
X143728930Y-66910868D01*
X143779369Y-66972328D01*
X143810157Y-67009843D01*
X143834962Y-67030200D01*
X150393804Y-73589043D01*
X150414157Y-73613843D01*
X150438957Y-73634196D01*
X150438959Y-73634198D01*
X150491837Y-73677593D01*
X150513132Y-73695070D01*
X150626052Y-73755427D01*
X150748578Y-73792595D01*
X150844068Y-73802000D01*
X150844078Y-73802000D01*
X150875999Y-73805144D01*
X150907920Y-73802000D01*
X153447932Y-73802000D01*
X153543422Y-73792595D01*
X153665948Y-73755427D01*
X153778868Y-73695070D01*
X153877843Y-73613843D01*
X153959070Y-73514868D01*
X154019427Y-73401948D01*
X154056595Y-73279422D01*
X154069145Y-73152000D01*
X154056595Y-73024578D01*
X154019427Y-72902052D01*
X153959070Y-72789132D01*
X153877843Y-72690157D01*
X153778868Y-72608930D01*
X153665948Y-72548573D01*
X153543422Y-72511405D01*
X153447932Y-72502000D01*
X151145239Y-72502000D01*
X144922000Y-66278762D01*
X144922000Y-64834000D01*
X152299715Y-64834000D01*
X152299715Y-70534000D01*
X160628286Y-70534000D01*
X160628286Y-64834000D01*
X152299715Y-64834000D01*
X144922000Y-64834000D01*
X144922000Y-63381451D01*
X145122000Y-63381451D01*
X145180810Y-63375659D01*
X145237360Y-63358504D01*
X145289477Y-63330647D01*
X145335158Y-63293158D01*
X145372647Y-63247477D01*
X145400504Y-63195360D01*
X145417659Y-63138810D01*
X145423451Y-63080000D01*
X145423451Y-61380000D01*
X145417659Y-61321190D01*
X145400504Y-61264640D01*
X145372647Y-61212523D01*
X145335158Y-61166842D01*
X145289477Y-61129353D01*
X145237360Y-61101496D01*
X145180810Y-61084341D01*
X145122000Y-61078549D01*
X143422000Y-61078549D01*
X143363190Y-61084341D01*
X143306640Y-61101496D01*
X143254523Y-61129353D01*
X143208842Y-61166842D01*
X143171353Y-61212523D01*
X143143496Y-61264640D01*
X143126341Y-61321190D01*
X143120549Y-61380000D01*
X142500789Y-61380000D01*
X142464336Y-61343319D01*
X142277281Y-61217485D01*
X142069272Y-61130561D01*
X142062383Y-61128480D01*
X141886000Y-61166088D01*
X141578000Y-61166088D01*
X141401617Y-61128480D01*
X141394728Y-61130561D01*
X141186719Y-61217485D01*
X140999664Y-61343319D01*
X140840753Y-61503228D01*
X140716092Y-61691066D01*
X140630472Y-61899615D01*
X140298813Y-61899615D01*
X140297806Y-61894557D01*
X140211116Y-61685271D01*
X140085263Y-61496918D01*
X139925082Y-61336737D01*
X139736729Y-61210884D01*
X139527443Y-61124194D01*
X139305265Y-61080000D01*
X139078735Y-61080000D01*
X138856557Y-61124194D01*
X138647271Y-61210884D01*
X138458918Y-61336737D01*
X138298737Y-61496918D01*
X138172884Y-61685271D01*
X138086194Y-61894557D01*
X138042000Y-62116735D01*
X137802000Y-62116735D01*
X137757806Y-61894557D01*
X137671116Y-61685271D01*
X137545263Y-61496918D01*
X137385082Y-61336737D01*
X137196729Y-61210884D01*
X136987443Y-61124194D01*
X136765265Y-61080000D01*
X136538735Y-61080000D01*
X136316557Y-61124194D01*
X136107271Y-61210884D01*
X135918918Y-61336737D01*
X135758737Y-61496918D01*
X135632884Y-61685271D01*
X135546194Y-61894557D01*
X135502000Y-62116735D01*
X135029429Y-62116735D01*
X135029429Y-60775000D01*
X120009000Y-60775000D01*
X120009000Y-60700000D01*
X160661000Y-60700000D01*
X160661001Y-75190000D01*
G37*
X160661001Y-75190000D02*
X160612572Y-75190000D01*
X160612572Y-72459000D01*
X154855429Y-72459000D01*
X154855429Y-75190000D01*
X128783143Y-75190000D01*
X128783143Y-72459000D01*
X122168857Y-72459000D01*
X122168857Y-75190000D01*
X120009000Y-75190000D01*
X120009000Y-72302000D01*
X131944549Y-72302000D01*
X131944549Y-74002000D01*
X131950341Y-74060810D01*
X131967496Y-74117360D01*
X131995353Y-74169477D01*
X132032842Y-74215158D01*
X132078523Y-74252647D01*
X132130640Y-74280504D01*
X132187190Y-74297659D01*
X132246000Y-74303451D01*
X133946000Y-74303451D01*
X134004810Y-74297659D01*
X134061360Y-74280504D01*
X134113477Y-74252647D01*
X134159158Y-74215158D01*
X134196647Y-74169477D01*
X134224504Y-74117360D01*
X134241659Y-74060810D01*
X134247451Y-74002000D01*
X134247451Y-72302000D01*
X134241659Y-72243190D01*
X134224504Y-72186640D01*
X134196647Y-72134523D01*
X134159158Y-72088842D01*
X134113477Y-72051353D01*
X134061360Y-72023496D01*
X134004810Y-72006341D01*
X133946000Y-72000549D01*
X132246000Y-72000549D01*
X132187190Y-72006341D01*
X132130640Y-72023496D01*
X132078523Y-72051353D01*
X132032842Y-72088842D01*
X131995353Y-72134523D01*
X131967496Y-72186640D01*
X131950341Y-72243190D01*
X131944549Y-72302000D01*
X120009000Y-72302000D01*
X120009000Y-70024905D01*
X133004000Y-70024905D01*
X133004000Y-70143095D01*
X133027058Y-70259014D01*
X133072287Y-70368207D01*
X133137950Y-70466478D01*
X133221522Y-70550050D01*
X133319793Y-70615713D01*
X133428986Y-70660942D01*
X133544905Y-70684000D01*
X133602960Y-70684000D01*
X134324719Y-71405760D01*
X134338026Y-71421974D01*
X134402740Y-71475084D01*
X134476573Y-71514548D01*
X134532383Y-71531478D01*
X134556685Y-71538850D01*
X134565098Y-71539679D01*
X134619126Y-71545000D01*
X134619132Y-71545000D01*
X134639999Y-71547055D01*
X134660866Y-71545000D01*
X134951960Y-71545000D01*
X135211001Y-71804042D01*
X135211001Y-72083290D01*
X135091271Y-72132884D01*
X134902918Y-72258737D01*
X134742737Y-72418918D01*
X134616884Y-72607271D01*
X134530194Y-72816557D01*
X134486000Y-73038735D01*
X134486000Y-73265265D01*
X134530194Y-73487443D01*
X134616884Y-73696729D01*
X134742737Y-73885082D01*
X134902918Y-74045263D01*
X135091271Y-74171116D01*
X135300557Y-74257806D01*
X135522735Y-74302000D01*
X135749265Y-74302000D01*
X135971443Y-74257806D01*
X136180729Y-74171116D01*
X136369082Y-74045263D01*
X136529263Y-73885082D01*
X136655116Y-73696729D01*
X136741806Y-73487443D01*
X136786000Y-73265265D01*
X136786000Y-73038735D01*
X136741806Y-72816557D01*
X136655116Y-72607271D01*
X136529263Y-72418918D01*
X136369082Y-72258737D01*
X136180729Y-72132884D01*
X136061000Y-72083290D01*
X136061000Y-71648866D01*
X136063055Y-71627999D01*
X136061000Y-71607132D01*
X136061000Y-71607126D01*
X136054850Y-71544686D01*
X136030548Y-71464573D01*
X135991084Y-71390740D01*
X135937974Y-71326026D01*
X135921762Y-71312721D01*
X135443283Y-70834243D01*
X135429974Y-70818026D01*
X135365260Y-70764916D01*
X135291427Y-70725452D01*
X135211314Y-70701150D01*
X135148874Y-70695000D01*
X135148867Y-70695000D01*
X135128000Y-70692945D01*
X135107133Y-70695000D01*
X134816041Y-70695000D01*
X134204000Y-70082960D01*
X134204000Y-70024905D01*
X134180942Y-69908986D01*
X134135713Y-69799793D01*
X134070050Y-69701522D01*
X133986478Y-69617950D01*
X133888207Y-69552287D01*
X133779014Y-69507058D01*
X133663095Y-69484000D01*
X133544905Y-69484000D01*
X133428986Y-69507058D01*
X133319793Y-69552287D01*
X133221522Y-69617950D01*
X133137950Y-69701522D01*
X133072287Y-69799793D01*
X133027058Y-69908986D01*
X133004000Y-70024905D01*
X120009000Y-70024905D01*
X120009000Y-69684000D01*
X120514548Y-69684000D01*
X120520340Y-69742810D01*
X120537495Y-69799361D01*
X120565352Y-69851478D01*
X120602841Y-69897159D01*
X120648522Y-69934648D01*
X120700639Y-69962505D01*
X120757190Y-69979660D01*
X120816000Y-69985452D01*
X121437000Y-69984000D01*
X121512000Y-69909000D01*
X121512000Y-68988000D01*
X121820000Y-68988000D01*
X121820000Y-69909000D01*
X121895000Y-69984000D01*
X122516000Y-69985452D01*
X122574810Y-69979660D01*
X122631361Y-69962505D01*
X122683478Y-69934648D01*
X122729159Y-69897159D01*
X122766648Y-69851478D01*
X122794505Y-69799361D01*
X122811660Y-69742810D01*
X122817452Y-69684000D01*
X122816000Y-69063000D01*
X122741000Y-68988000D01*
X121820000Y-68988000D01*
X121512000Y-68988000D01*
X120591000Y-68988000D01*
X120516000Y-69063000D01*
X120514548Y-69684000D01*
X120009000Y-69684000D01*
X120009000Y-67984000D01*
X120514548Y-67984000D01*
X120516000Y-68605000D01*
X120591000Y-68680000D01*
X121512000Y-68680000D01*
X121512000Y-67759000D01*
X121820000Y-67759000D01*
X121820000Y-68680000D01*
X122741000Y-68680000D01*
X122816000Y-68605000D01*
X122817452Y-67984000D01*
X122811660Y-67925190D01*
X122794505Y-67868639D01*
X122766648Y-67816522D01*
X122729159Y-67770841D01*
X122683478Y-67733352D01*
X122631361Y-67705495D01*
X122574810Y-67688340D01*
X122516000Y-67682548D01*
X121895000Y-67684000D01*
X121820000Y-67759000D01*
X121512000Y-67759000D01*
X121437000Y-67684000D01*
X120816000Y-67682548D01*
X120757190Y-67688340D01*
X120700639Y-67705495D01*
X120648522Y-67733352D01*
X120602841Y-67770841D01*
X120565352Y-67816522D01*
X120537495Y-67868639D01*
X120520340Y-67925190D01*
X120514548Y-67984000D01*
X120009000Y-67984000D01*
X120009000Y-66180735D01*
X120516000Y-66180735D01*
X120516000Y-66407265D01*
X120560194Y-66629443D01*
X120646884Y-66838729D01*
X120772737Y-67027082D01*
X120932918Y-67187263D01*
X121121271Y-67313116D01*
X121330557Y-67399806D01*
X121552735Y-67444000D01*
X121779265Y-67444000D01*
X122001443Y-67399806D01*
X122210729Y-67313116D01*
X122399082Y-67187263D01*
X122559263Y-67027082D01*
X122685116Y-66838729D01*
X122771806Y-66629443D01*
X122816000Y-66407265D01*
X122816000Y-66180735D01*
X122771806Y-65958557D01*
X122685116Y-65749271D01*
X122559263Y-65560918D01*
X122399082Y-65400737D01*
X122210729Y-65274884D01*
X122001443Y-65188194D01*
X121779265Y-65144000D01*
X121552735Y-65144000D01*
X121330557Y-65188194D01*
X121121271Y-65274884D01*
X120932918Y-65400737D01*
X120772737Y-65560918D01*
X120646884Y-65749271D01*
X120560194Y-65958557D01*
X120516000Y-66180735D01*
X120009000Y-66180735D01*
X120009000Y-63925000D01*
X135029429Y-63925000D01*
X135029429Y-62116735D01*
X135502000Y-62116735D01*
X135502000Y-62343265D01*
X135546194Y-62565443D01*
X135632884Y-62774729D01*
X135758737Y-62963082D01*
X135918918Y-63123263D01*
X136107271Y-63249116D01*
X136316557Y-63335806D01*
X136538735Y-63380000D01*
X136765265Y-63380000D01*
X136987443Y-63335806D01*
X137196729Y-63249116D01*
X137385082Y-63123263D01*
X137545263Y-62963082D01*
X137671116Y-62774729D01*
X137757806Y-62565443D01*
X137802000Y-62343265D01*
X137802000Y-62116735D01*
X138042000Y-62116735D01*
X138042000Y-62343265D01*
X138086194Y-62565443D01*
X138172884Y-62774729D01*
X138298737Y-62963082D01*
X138458918Y-63123263D01*
X138647271Y-63249116D01*
X138856557Y-63335806D01*
X139078735Y-63380000D01*
X139305265Y-63380000D01*
X139527443Y-63335806D01*
X139736729Y-63249116D01*
X139925082Y-63123263D01*
X140085263Y-62963082D01*
X140211116Y-62774729D01*
X140297806Y-62565443D01*
X140298812Y-62560385D01*
X140630472Y-62560385D01*
X140716092Y-62768934D01*
X140840753Y-62956772D01*
X140999664Y-63116681D01*
X141186719Y-63242515D01*
X141394728Y-63329439D01*
X141401617Y-63331520D01*
X141578000Y-63293912D01*
X141578000Y-62384000D01*
X141886000Y-62384000D01*
X141886000Y-63293912D01*
X142062383Y-63331520D01*
X142069272Y-63329439D01*
X142277281Y-63242515D01*
X142464336Y-63116681D01*
X142623247Y-62956772D01*
X142747908Y-62768934D01*
X142833528Y-62560385D01*
X142796650Y-62384000D01*
X141886000Y-62384000D01*
X141578000Y-62384000D01*
X140667350Y-62384000D01*
X140630472Y-62560385D01*
X140298812Y-62560385D01*
X140342000Y-62343265D01*
X140342000Y-62116735D01*
X140298813Y-61899615D01*
X140630472Y-61899615D01*
X140667350Y-62076000D01*
X141578000Y-62076000D01*
X141578000Y-61166088D01*
X141886000Y-61166088D01*
X141886000Y-62076000D01*
X142796650Y-62076000D01*
X142833528Y-61899615D01*
X142747908Y-61691066D01*
X142623247Y-61503228D01*
X142500789Y-61380000D01*
X143120549Y-61380000D01*
X143120549Y-63080000D01*
X143126341Y-63138810D01*
X143143496Y-63195360D01*
X143171353Y-63247477D01*
X143208842Y-63293158D01*
X143254523Y-63330647D01*
X143306640Y-63358504D01*
X143363190Y-63375659D01*
X143422000Y-63381451D01*
X143622001Y-63381451D01*
X143622000Y-66516078D01*
X143618856Y-66548000D01*
X143622000Y-66579921D01*
X143622000Y-66579931D01*
X143631405Y-66675421D01*
X143668573Y-66797947D01*
X143728930Y-66910868D01*
X143779369Y-66972328D01*
X143810157Y-67009843D01*
X143834962Y-67030200D01*
X150393804Y-73589043D01*
X150414157Y-73613843D01*
X150438957Y-73634196D01*
X150438959Y-73634198D01*
X150491837Y-73677593D01*
X150513132Y-73695070D01*
X150626052Y-73755427D01*
X150748578Y-73792595D01*
X150844068Y-73802000D01*
X150844078Y-73802000D01*
X150875999Y-73805144D01*
X150907920Y-73802000D01*
X153447932Y-73802000D01*
X153543422Y-73792595D01*
X153665948Y-73755427D01*
X153778868Y-73695070D01*
X153877843Y-73613843D01*
X153959070Y-73514868D01*
X154019427Y-73401948D01*
X154056595Y-73279422D01*
X154069145Y-73152000D01*
X154056595Y-73024578D01*
X154019427Y-72902052D01*
X153959070Y-72789132D01*
X153877843Y-72690157D01*
X153778868Y-72608930D01*
X153665948Y-72548573D01*
X153543422Y-72511405D01*
X153447932Y-72502000D01*
X151145239Y-72502000D01*
X144922000Y-66278762D01*
X144922000Y-64834000D01*
X152299715Y-64834000D01*
X152299715Y-70534000D01*
X160628286Y-70534000D01*
X160628286Y-64834000D01*
X152299715Y-64834000D01*
X144922000Y-64834000D01*
X144922000Y-63381451D01*
X145122000Y-63381451D01*
X145180810Y-63375659D01*
X145237360Y-63358504D01*
X145289477Y-63330647D01*
X145335158Y-63293158D01*
X145372647Y-63247477D01*
X145400504Y-63195360D01*
X145417659Y-63138810D01*
X145423451Y-63080000D01*
X145423451Y-61380000D01*
X145417659Y-61321190D01*
X145400504Y-61264640D01*
X145372647Y-61212523D01*
X145335158Y-61166842D01*
X145289477Y-61129353D01*
X145237360Y-61101496D01*
X145180810Y-61084341D01*
X145122000Y-61078549D01*
X143422000Y-61078549D01*
X143363190Y-61084341D01*
X143306640Y-61101496D01*
X143254523Y-61129353D01*
X143208842Y-61166842D01*
X143171353Y-61212523D01*
X143143496Y-61264640D01*
X143126341Y-61321190D01*
X143120549Y-61380000D01*
X142500789Y-61380000D01*
X142464336Y-61343319D01*
X142277281Y-61217485D01*
X142069272Y-61130561D01*
X142062383Y-61128480D01*
X141886000Y-61166088D01*
X141578000Y-61166088D01*
X141401617Y-61128480D01*
X141394728Y-61130561D01*
X141186719Y-61217485D01*
X140999664Y-61343319D01*
X140840753Y-61503228D01*
X140716092Y-61691066D01*
X140630472Y-61899615D01*
X140298813Y-61899615D01*
X140297806Y-61894557D01*
X140211116Y-61685271D01*
X140085263Y-61496918D01*
X139925082Y-61336737D01*
X139736729Y-61210884D01*
X139527443Y-61124194D01*
X139305265Y-61080000D01*
X139078735Y-61080000D01*
X138856557Y-61124194D01*
X138647271Y-61210884D01*
X138458918Y-61336737D01*
X138298737Y-61496918D01*
X138172884Y-61685271D01*
X138086194Y-61894557D01*
X138042000Y-62116735D01*
X137802000Y-62116735D01*
X137757806Y-61894557D01*
X137671116Y-61685271D01*
X137545263Y-61496918D01*
X137385082Y-61336737D01*
X137196729Y-61210884D01*
X136987443Y-61124194D01*
X136765265Y-61080000D01*
X136538735Y-61080000D01*
X136316557Y-61124194D01*
X136107271Y-61210884D01*
X135918918Y-61336737D01*
X135758737Y-61496918D01*
X135632884Y-61685271D01*
X135546194Y-61894557D01*
X135502000Y-62116735D01*
X135029429Y-62116735D01*
X135029429Y-60775000D01*
X120009000Y-60775000D01*
X120009000Y-60700000D01*
X160661000Y-60700000D01*
X160661001Y-75190000D01*
G04 #@! TD*
M02*
