G04 #@! TF.GenerationSoftware,KiCad,Pcbnew,(5.1.6)-1*
G04 #@! TF.CreationDate,2020-05-28T13:40:36+02:00*
G04 #@! TF.ProjectId,charger_stepup,63686172-6765-4725-9f73-74657075702e,rev?*
G04 #@! TF.SameCoordinates,Original*
G04 #@! TF.FileFunction,Copper,L1,Top*
G04 #@! TF.FilePolarity,Positive*
%FSLAX46Y46*%
G04 Gerber Fmt 4.6, Leading zero omitted, Abs format (unit mm)*
G04 Created by KiCad (PCBNEW (5.1.6)-1) date 2020-05-28 13:40:36*
%MOMM*%
%LPD*%
G01*
G04 APERTURE LIST*
G04 #@! TA.AperFunction,ComponentPad*
%ADD10O,1.700000X1.700000*%
G04 #@! TD*
G04 #@! TA.AperFunction,ComponentPad*
%ADD11R,1.700000X1.700000*%
G04 #@! TD*
G04 #@! TA.AperFunction,SMDPad,CuDef*
%ADD12R,2.200000X1.500000*%
G04 #@! TD*
G04 #@! TA.AperFunction,SMDPad,CuDef*
%ADD13R,2.500000X1.800000*%
G04 #@! TD*
G04 #@! TA.AperFunction,SMDPad,CuDef*
%ADD14R,0.650000X1.060000*%
G04 #@! TD*
G04 #@! TA.AperFunction,SMDPad,CuDef*
%ADD15R,3.600000X2.700000*%
G04 #@! TD*
G04 #@! TA.AperFunction,SMDPad,CuDef*
%ADD16R,0.650000X1.500000*%
G04 #@! TD*
G04 #@! TA.AperFunction,SMDPad,CuDef*
%ADD17R,1.500000X1.250000*%
G04 #@! TD*
G04 #@! TA.AperFunction,SMDPad,CuDef*
%ADD18R,1.450000X0.450000*%
G04 #@! TD*
G04 #@! TA.AperFunction,SMDPad,CuDef*
%ADD19R,1.250000X1.500000*%
G04 #@! TD*
G04 #@! TA.AperFunction,SMDPad,CuDef*
%ADD20R,0.650000X1.560000*%
G04 #@! TD*
G04 #@! TA.AperFunction,ViaPad*
%ADD21C,0.600000*%
G04 #@! TD*
G04 #@! TA.AperFunction,Conductor*
%ADD22C,0.700000*%
G04 #@! TD*
G04 #@! TA.AperFunction,Conductor*
%ADD23C,0.250000*%
G04 #@! TD*
G04 #@! TA.AperFunction,Conductor*
%ADD24C,0.200000*%
G04 #@! TD*
G04 APERTURE END LIST*
G04 #@! TO.P,R5,2*
G04 #@! TO.N,Net-(C2-Pad1)*
G04 #@! TA.AperFunction,SMDPad,CuDef*
G36*
G01*
X135965250Y-68638000D02*
X135052750Y-68638000D01*
G75*
G02*
X134809000Y-68394250I0J243750D01*
G01*
X134809000Y-67906750D01*
G75*
G02*
X135052750Y-67663000I243750J0D01*
G01*
X135965250Y-67663000D01*
G75*
G02*
X136209000Y-67906750I0J-243750D01*
G01*
X136209000Y-68394250D01*
G75*
G02*
X135965250Y-68638000I-243750J0D01*
G01*
G37*
G04 #@! TD.AperFunction*
G04 #@! TO.P,R5,1*
G04 #@! TO.N,BAT+*
G04 #@! TA.AperFunction,SMDPad,CuDef*
G36*
G01*
X135965250Y-70513000D02*
X135052750Y-70513000D01*
G75*
G02*
X134809000Y-70269250I0J243750D01*
G01*
X134809000Y-69781750D01*
G75*
G02*
X135052750Y-69538000I243750J0D01*
G01*
X135965250Y-69538000D01*
G75*
G02*
X136209000Y-69781750I0J-243750D01*
G01*
X136209000Y-70269250D01*
G75*
G02*
X135965250Y-70513000I-243750J0D01*
G01*
G37*
G04 #@! TD.AperFunction*
G04 #@! TD*
G04 #@! TO.P,R4,2*
G04 #@! TO.N,Net-(R4-Pad2)*
G04 #@! TA.AperFunction,SMDPad,CuDef*
G36*
G01*
X141680250Y-68384000D02*
X140767750Y-68384000D01*
G75*
G02*
X140524000Y-68140250I0J243750D01*
G01*
X140524000Y-67652750D01*
G75*
G02*
X140767750Y-67409000I243750J0D01*
G01*
X141680250Y-67409000D01*
G75*
G02*
X141924000Y-67652750I0J-243750D01*
G01*
X141924000Y-68140250D01*
G75*
G02*
X141680250Y-68384000I-243750J0D01*
G01*
G37*
G04 #@! TD.AperFunction*
G04 #@! TO.P,R4,1*
G04 #@! TO.N,GND*
G04 #@! TA.AperFunction,SMDPad,CuDef*
G36*
G01*
X141680250Y-70259000D02*
X140767750Y-70259000D01*
G75*
G02*
X140524000Y-70015250I0J243750D01*
G01*
X140524000Y-69527750D01*
G75*
G02*
X140767750Y-69284000I243750J0D01*
G01*
X141680250Y-69284000D01*
G75*
G02*
X141924000Y-69527750I0J-243750D01*
G01*
X141924000Y-70015250D01*
G75*
G02*
X141680250Y-70259000I-243750J0D01*
G01*
G37*
G04 #@! TD.AperFunction*
G04 #@! TD*
G04 #@! TO.P,R3,2*
G04 #@! TO.N,Net-(R3-Pad2)*
G04 #@! TA.AperFunction,SMDPad,CuDef*
G36*
G01*
X128836000Y-72949750D02*
X128836000Y-73862250D01*
G75*
G02*
X128592250Y-74106000I-243750J0D01*
G01*
X128104750Y-74106000D01*
G75*
G02*
X127861000Y-73862250I0J243750D01*
G01*
X127861000Y-72949750D01*
G75*
G02*
X128104750Y-72706000I243750J0D01*
G01*
X128592250Y-72706000D01*
G75*
G02*
X128836000Y-72949750I0J-243750D01*
G01*
G37*
G04 #@! TD.AperFunction*
G04 #@! TO.P,R3,1*
G04 #@! TO.N,GND*
G04 #@! TA.AperFunction,SMDPad,CuDef*
G36*
G01*
X130711000Y-72949750D02*
X130711000Y-73862250D01*
G75*
G02*
X130467250Y-74106000I-243750J0D01*
G01*
X129979750Y-74106000D01*
G75*
G02*
X129736000Y-73862250I0J243750D01*
G01*
X129736000Y-72949750D01*
G75*
G02*
X129979750Y-72706000I243750J0D01*
G01*
X130467250Y-72706000D01*
G75*
G02*
X130711000Y-72949750I0J-243750D01*
G01*
G37*
G04 #@! TD.AperFunction*
G04 #@! TD*
G04 #@! TO.P,R2,2*
G04 #@! TO.N,Net-(D1-Pad1)*
G04 #@! TA.AperFunction,SMDPad,CuDef*
G36*
G01*
X127312000Y-63297750D02*
X127312000Y-64210250D01*
G75*
G02*
X127068250Y-64454000I-243750J0D01*
G01*
X126580750Y-64454000D01*
G75*
G02*
X126337000Y-64210250I0J243750D01*
G01*
X126337000Y-63297750D01*
G75*
G02*
X126580750Y-63054000I243750J0D01*
G01*
X127068250Y-63054000D01*
G75*
G02*
X127312000Y-63297750I0J-243750D01*
G01*
G37*
G04 #@! TD.AperFunction*
G04 #@! TO.P,R2,1*
G04 #@! TO.N,Net-(R2-Pad1)*
G04 #@! TA.AperFunction,SMDPad,CuDef*
G36*
G01*
X129187000Y-63297750D02*
X129187000Y-64210250D01*
G75*
G02*
X128943250Y-64454000I-243750J0D01*
G01*
X128455750Y-64454000D01*
G75*
G02*
X128212000Y-64210250I0J243750D01*
G01*
X128212000Y-63297750D01*
G75*
G02*
X128455750Y-63054000I243750J0D01*
G01*
X128943250Y-63054000D01*
G75*
G02*
X129187000Y-63297750I0J-243750D01*
G01*
G37*
G04 #@! TD.AperFunction*
G04 #@! TD*
G04 #@! TO.P,R1,2*
G04 #@! TO.N,Net-(D2-Pad1)*
G04 #@! TA.AperFunction,SMDPad,CuDef*
G36*
G01*
X127312000Y-61265750D02*
X127312000Y-62178250D01*
G75*
G02*
X127068250Y-62422000I-243750J0D01*
G01*
X126580750Y-62422000D01*
G75*
G02*
X126337000Y-62178250I0J243750D01*
G01*
X126337000Y-61265750D01*
G75*
G02*
X126580750Y-61022000I243750J0D01*
G01*
X127068250Y-61022000D01*
G75*
G02*
X127312000Y-61265750I0J-243750D01*
G01*
G37*
G04 #@! TD.AperFunction*
G04 #@! TO.P,R1,1*
G04 #@! TO.N,Net-(R1-Pad1)*
G04 #@! TA.AperFunction,SMDPad,CuDef*
G36*
G01*
X129187000Y-61265750D02*
X129187000Y-62178250D01*
G75*
G02*
X128943250Y-62422000I-243750J0D01*
G01*
X128455750Y-62422000D01*
G75*
G02*
X128212000Y-62178250I0J243750D01*
G01*
X128212000Y-61265750D01*
G75*
G02*
X128455750Y-61022000I243750J0D01*
G01*
X128943250Y-61022000D01*
G75*
G02*
X129187000Y-61265750I0J-243750D01*
G01*
G37*
G04 #@! TD.AperFunction*
G04 #@! TD*
D10*
G04 #@! TO.P,J3,2*
G04 #@! TO.N,BAT-*
X135636000Y-73152000D03*
D11*
G04 #@! TO.P,J3,1*
G04 #@! TO.N,BAT+*
X133096000Y-73152000D03*
G04 #@! TD*
D10*
G04 #@! TO.P,Bat EN GND 5V,4*
G04 #@! TO.N,BAT+*
X136652000Y-62230000D03*
G04 #@! TO.P,Bat EN GND 5V,3*
G04 #@! TO.N,EN*
X139192000Y-62230000D03*
G04 #@! TO.P,Bat EN GND 5V,2*
G04 #@! TO.N,GND*
X141732000Y-62230000D03*
D11*
G04 #@! TO.P,Bat EN GND 5V,1*
G04 #@! TO.N,5Vout*
X144272000Y-62230000D03*
G04 #@! TD*
D10*
G04 #@! TO.P,J1,2*
G04 #@! TO.N,IN+*
X121666000Y-66294000D03*
D11*
G04 #@! TO.P,J1,1*
G04 #@! TO.N,GND*
X121666000Y-68834000D03*
G04 #@! TD*
G04 #@! TO.P,D2,2*
G04 #@! TO.N,IN+*
G04 #@! TA.AperFunction,SMDPad,CuDef*
G36*
G01*
X124110000Y-61465750D02*
X124110000Y-61978250D01*
G75*
G02*
X123891250Y-62197000I-218750J0D01*
G01*
X123453750Y-62197000D01*
G75*
G02*
X123235000Y-61978250I0J218750D01*
G01*
X123235000Y-61465750D01*
G75*
G02*
X123453750Y-61247000I218750J0D01*
G01*
X123891250Y-61247000D01*
G75*
G02*
X124110000Y-61465750I0J-218750D01*
G01*
G37*
G04 #@! TD.AperFunction*
G04 #@! TO.P,D2,1*
G04 #@! TO.N,Net-(D2-Pad1)*
G04 #@! TA.AperFunction,SMDPad,CuDef*
G36*
G01*
X125685000Y-61465750D02*
X125685000Y-61978250D01*
G75*
G02*
X125466250Y-62197000I-218750J0D01*
G01*
X125028750Y-62197000D01*
G75*
G02*
X124810000Y-61978250I0J218750D01*
G01*
X124810000Y-61465750D01*
G75*
G02*
X125028750Y-61247000I218750J0D01*
G01*
X125466250Y-61247000D01*
G75*
G02*
X125685000Y-61465750I0J-218750D01*
G01*
G37*
G04 #@! TD.AperFunction*
G04 #@! TD*
G04 #@! TO.P,D1,2*
G04 #@! TO.N,IN+*
G04 #@! TA.AperFunction,SMDPad,CuDef*
G36*
G01*
X124110000Y-62989750D02*
X124110000Y-63502250D01*
G75*
G02*
X123891250Y-63721000I-218750J0D01*
G01*
X123453750Y-63721000D01*
G75*
G02*
X123235000Y-63502250I0J218750D01*
G01*
X123235000Y-62989750D01*
G75*
G02*
X123453750Y-62771000I218750J0D01*
G01*
X123891250Y-62771000D01*
G75*
G02*
X124110000Y-62989750I0J-218750D01*
G01*
G37*
G04 #@! TD.AperFunction*
G04 #@! TO.P,D1,1*
G04 #@! TO.N,Net-(D1-Pad1)*
G04 #@! TA.AperFunction,SMDPad,CuDef*
G36*
G01*
X125685000Y-62989750D02*
X125685000Y-63502250D01*
G75*
G02*
X125466250Y-63721000I-218750J0D01*
G01*
X125028750Y-63721000D01*
G75*
G02*
X124810000Y-63502250I0J218750D01*
G01*
X124810000Y-62989750D01*
G75*
G02*
X125028750Y-62771000I218750J0D01*
G01*
X125466250Y-62771000D01*
G75*
G02*
X125685000Y-62989750I0J-218750D01*
G01*
G37*
G04 #@! TD.AperFunction*
G04 #@! TD*
G04 #@! TO.P,C5,2*
G04 #@! TO.N,GND*
G04 #@! TA.AperFunction,SMDPad,CuDef*
G36*
G01*
X147269000Y-71701999D02*
X147269000Y-74602001D01*
G75*
G02*
X147019001Y-74852000I-249999J0D01*
G01*
X146393999Y-74852000D01*
G75*
G02*
X146144000Y-74602001I0J249999D01*
G01*
X146144000Y-71701999D01*
G75*
G02*
X146393999Y-71452000I249999J0D01*
G01*
X147019001Y-71452000D01*
G75*
G02*
X147269000Y-71701999I0J-249999D01*
G01*
G37*
G04 #@! TD.AperFunction*
G04 #@! TO.P,C5,1*
G04 #@! TO.N,5Vout*
G04 #@! TA.AperFunction,SMDPad,CuDef*
G36*
G01*
X151544000Y-71701999D02*
X151544000Y-74602001D01*
G75*
G02*
X151294001Y-74852000I-249999J0D01*
G01*
X150668999Y-74852000D01*
G75*
G02*
X150419000Y-74602001I0J249999D01*
G01*
X150419000Y-71701999D01*
G75*
G02*
X150668999Y-71452000I249999J0D01*
G01*
X151294001Y-71452000D01*
G75*
G02*
X151544000Y-71701999I0J-249999D01*
G01*
G37*
G04 #@! TD.AperFunction*
G04 #@! TD*
G04 #@! TO.P,R6,2*
G04 #@! TO.N,EN*
G04 #@! TA.AperFunction,SMDPad,CuDef*
G36*
G01*
X156660000Y-65734250D02*
X156660000Y-64821750D01*
G75*
G02*
X156903750Y-64578000I243750J0D01*
G01*
X157391250Y-64578000D01*
G75*
G02*
X157635000Y-64821750I0J-243750D01*
G01*
X157635000Y-65734250D01*
G75*
G02*
X157391250Y-65978000I-243750J0D01*
G01*
X156903750Y-65978000D01*
G75*
G02*
X156660000Y-65734250I0J243750D01*
G01*
G37*
G04 #@! TD.AperFunction*
G04 #@! TO.P,R6,1*
G04 #@! TO.N,BAT+*
G04 #@! TA.AperFunction,SMDPad,CuDef*
G36*
G01*
X154785000Y-65734250D02*
X154785000Y-64821750D01*
G75*
G02*
X155028750Y-64578000I243750J0D01*
G01*
X155516250Y-64578000D01*
G75*
G02*
X155760000Y-64821750I0J-243750D01*
G01*
X155760000Y-65734250D01*
G75*
G02*
X155516250Y-65978000I-243750J0D01*
G01*
X155028750Y-65978000D01*
G75*
G02*
X154785000Y-65734250I0J243750D01*
G01*
G37*
G04 #@! TD.AperFunction*
G04 #@! TD*
G04 #@! TO.P,C4,2*
G04 #@! TO.N,GND*
G04 #@! TA.AperFunction,SMDPad,CuDef*
G36*
G01*
X142821999Y-69647000D02*
X145722001Y-69647000D01*
G75*
G02*
X145972000Y-69896999I0J-249999D01*
G01*
X145972000Y-70522001D01*
G75*
G02*
X145722001Y-70772000I-249999J0D01*
G01*
X142821999Y-70772000D01*
G75*
G02*
X142572000Y-70522001I0J249999D01*
G01*
X142572000Y-69896999D01*
G75*
G02*
X142821999Y-69647000I249999J0D01*
G01*
G37*
G04 #@! TD.AperFunction*
G04 #@! TO.P,C4,1*
G04 #@! TO.N,BAT+*
G04 #@! TA.AperFunction,SMDPad,CuDef*
G36*
G01*
X142821999Y-65372000D02*
X145722001Y-65372000D01*
G75*
G02*
X145972000Y-65621999I0J-249999D01*
G01*
X145972000Y-66247001D01*
G75*
G02*
X145722001Y-66497000I-249999J0D01*
G01*
X142821999Y-66497000D01*
G75*
G02*
X142572000Y-66247001I0J249999D01*
G01*
X142572000Y-65621999D01*
G75*
G02*
X142821999Y-65372000I249999J0D01*
G01*
G37*
G04 #@! TD.AperFunction*
G04 #@! TD*
G04 #@! TO.P,R7,2*
G04 #@! TO.N,5Vout*
G04 #@! TA.AperFunction,SMDPad,CuDef*
G36*
G01*
X158801750Y-69792000D02*
X159714250Y-69792000D01*
G75*
G02*
X159958000Y-70035750I0J-243750D01*
G01*
X159958000Y-70523250D01*
G75*
G02*
X159714250Y-70767000I-243750J0D01*
G01*
X158801750Y-70767000D01*
G75*
G02*
X158558000Y-70523250I0J243750D01*
G01*
X158558000Y-70035750D01*
G75*
G02*
X158801750Y-69792000I243750J0D01*
G01*
G37*
G04 #@! TD.AperFunction*
G04 #@! TO.P,R7,1*
G04 #@! TO.N,Net-(R7-Pad1)*
G04 #@! TA.AperFunction,SMDPad,CuDef*
G36*
G01*
X158801750Y-67917000D02*
X159714250Y-67917000D01*
G75*
G02*
X159958000Y-68160750I0J-243750D01*
G01*
X159958000Y-68648250D01*
G75*
G02*
X159714250Y-68892000I-243750J0D01*
G01*
X158801750Y-68892000D01*
G75*
G02*
X158558000Y-68648250I0J243750D01*
G01*
X158558000Y-68160750D01*
G75*
G02*
X158801750Y-67917000I243750J0D01*
G01*
G37*
G04 #@! TD.AperFunction*
G04 #@! TD*
D12*
G04 #@! TO.P,L1,2*
G04 #@! TO.N,Net-(D3-Pad2)*
X150368000Y-70002000D03*
G04 #@! TO.P,L1,1*
G04 #@! TO.N,BAT+*
X150368000Y-63602000D03*
G04 #@! TD*
D13*
G04 #@! TO.P,D3,2*
G04 #@! TO.N,Net-(D3-Pad2)*
X157448000Y-73152000D03*
G04 #@! TO.P,D3,1*
G04 #@! TO.N,5Vout*
X153448000Y-73152000D03*
G04 #@! TD*
D14*
G04 #@! TO.P,U4,5*
G04 #@! TO.N,BAT+*
X156210000Y-67988000D03*
G04 #@! TO.P,U4,6*
G04 #@! TO.N,Net-(U4-Pad6)*
X155260000Y-67988000D03*
G04 #@! TO.P,U4,4*
G04 #@! TO.N,EN*
X157160000Y-67988000D03*
G04 #@! TO.P,U4,3*
G04 #@! TO.N,Net-(R7-Pad1)*
X157160000Y-70188000D03*
G04 #@! TO.P,U4,2*
G04 #@! TO.N,GND*
X156210000Y-70188000D03*
G04 #@! TO.P,U4,1*
G04 #@! TO.N,Net-(D3-Pad2)*
X155260000Y-70188000D03*
G04 #@! TD*
G04 #@! TO.P,R8,2*
G04 #@! TO.N,Net-(R7-Pad1)*
G04 #@! TA.AperFunction,SMDPad,CuDef*
G36*
G01*
X156660000Y-63702250D02*
X156660000Y-62789750D01*
G75*
G02*
X156903750Y-62546000I243750J0D01*
G01*
X157391250Y-62546000D01*
G75*
G02*
X157635000Y-62789750I0J-243750D01*
G01*
X157635000Y-63702250D01*
G75*
G02*
X157391250Y-63946000I-243750J0D01*
G01*
X156903750Y-63946000D01*
G75*
G02*
X156660000Y-63702250I0J243750D01*
G01*
G37*
G04 #@! TD.AperFunction*
G04 #@! TO.P,R8,1*
G04 #@! TO.N,GND*
G04 #@! TA.AperFunction,SMDPad,CuDef*
G36*
G01*
X154785000Y-63702250D02*
X154785000Y-62789750D01*
G75*
G02*
X155028750Y-62546000I243750J0D01*
G01*
X155516250Y-62546000D01*
G75*
G02*
X155760000Y-62789750I0J-243750D01*
G01*
X155760000Y-63702250D01*
G75*
G02*
X155516250Y-63946000I-243750J0D01*
G01*
X155028750Y-63946000D01*
G75*
G02*
X154785000Y-63702250I0J243750D01*
G01*
G37*
G04 #@! TD.AperFunction*
G04 #@! TD*
D15*
G04 #@! TO.P,U1,9*
G04 #@! TO.N,IN+*
X128524000Y-68580000D03*
D16*
G04 #@! TO.P,U1,8*
X126619000Y-65880000D03*
G04 #@! TO.P,U1,7*
G04 #@! TO.N,Net-(R2-Pad1)*
X127889000Y-65880000D03*
G04 #@! TO.P,U1,6*
G04 #@! TO.N,Net-(R1-Pad1)*
X129159000Y-65880000D03*
G04 #@! TO.P,U1,5*
G04 #@! TO.N,BAT+*
X130429000Y-65880000D03*
G04 #@! TO.P,U1,4*
G04 #@! TO.N,IN+*
X130429000Y-71280000D03*
G04 #@! TO.P,U1,3*
G04 #@! TO.N,GND*
X129159000Y-71280000D03*
G04 #@! TO.P,U1,2*
G04 #@! TO.N,Net-(R3-Pad2)*
X127889000Y-71280000D03*
G04 #@! TO.P,U1,1*
G04 #@! TO.N,GND*
X126619000Y-71280000D03*
G04 #@! TD*
D17*
G04 #@! TO.P,C3,2*
G04 #@! TO.N,GND*
X123718000Y-73660000D03*
G04 #@! TO.P,C3,1*
G04 #@! TO.N,BAT+*
X126218000Y-73660000D03*
G04 #@! TD*
D18*
G04 #@! TO.P,U3,1*
G04 #@! TO.N,Net-(U3-Pad1)*
X138528000Y-72177000D03*
G04 #@! TO.P,U3,2*
G04 #@! TO.N,BAT-*
X138528000Y-72827000D03*
G04 #@! TO.P,U3,3*
X138528000Y-73477000D03*
G04 #@! TO.P,U3,4*
G04 #@! TO.N,Net-(U2-Pad1)*
X138528000Y-74127000D03*
G04 #@! TO.P,U3,5*
G04 #@! TO.N,Net-(U2-Pad3)*
X144428000Y-74127000D03*
G04 #@! TO.P,U3,6*
G04 #@! TO.N,GND*
X144428000Y-73477000D03*
G04 #@! TO.P,U3,7*
X144428000Y-72827000D03*
G04 #@! TO.P,U3,8*
G04 #@! TO.N,Net-(U3-Pad8)*
X144428000Y-72177000D03*
G04 #@! TD*
D19*
G04 #@! TO.P,C1,1*
G04 #@! TO.N,IN+*
X124714000Y-68981000D03*
G04 #@! TO.P,C1,2*
G04 #@! TO.N,GND*
X124714000Y-71481000D03*
G04 #@! TD*
G04 #@! TO.P,C2,1*
G04 #@! TO.N,Net-(C2-Pad1)*
X133604000Y-67584000D03*
G04 #@! TO.P,C2,2*
G04 #@! TO.N,BAT-*
X133604000Y-70084000D03*
G04 #@! TD*
D20*
G04 #@! TO.P,U2,1*
G04 #@! TO.N,Net-(U2-Pad1)*
X137403800Y-69917300D03*
G04 #@! TO.P,U2,2*
G04 #@! TO.N,Net-(R4-Pad2)*
X138353800Y-69917300D03*
G04 #@! TO.P,U2,3*
G04 #@! TO.N,Net-(U2-Pad3)*
X139303800Y-69917300D03*
G04 #@! TO.P,U2,4*
G04 #@! TO.N,Net-(U2-Pad4)*
X139303800Y-67217300D03*
G04 #@! TO.P,U2,6*
G04 #@! TO.N,BAT-*
X137403800Y-67217300D03*
G04 #@! TO.P,U2,5*
G04 #@! TO.N,Net-(C2-Pad1)*
X138353800Y-67217300D03*
G04 #@! TD*
D21*
G04 #@! TO.N,BAT-*
X133604000Y-70084000D03*
G04 #@! TO.N,GND*
X155194000Y-63246000D03*
X130386000Y-73406000D03*
X132080000Y-64262000D03*
X150368000Y-66802000D03*
X141224000Y-66548000D03*
X148082000Y-72136000D03*
X125222000Y-66040000D03*
G04 #@! TO.N,5Vout*
X153416000Y-73152000D03*
X151892000Y-73152000D03*
G04 #@! TD*
D22*
G04 #@! TO.N,IN+*
X126619000Y-66675000D02*
X128524000Y-68580000D01*
X126619000Y-65880000D02*
X126619000Y-66675000D01*
X130429000Y-70485000D02*
X128524000Y-68580000D01*
X130429000Y-71280000D02*
X130429000Y-70485000D01*
X128123000Y-68981000D02*
X128524000Y-68580000D01*
X124714000Y-68981000D02*
X128123000Y-68981000D01*
D23*
X123360000Y-61722000D02*
X123360000Y-63246000D01*
X123510000Y-63246000D02*
X124526000Y-64262000D01*
X123360000Y-63246000D02*
X123510000Y-63246000D01*
X124526000Y-64262000D02*
X125476000Y-64262000D01*
X126619000Y-65405000D02*
X126619000Y-65880000D01*
X125476000Y-64262000D02*
X126619000Y-65405000D01*
D22*
X124714000Y-67056000D02*
X124714000Y-68981000D01*
X121666000Y-66294000D02*
X123952000Y-66294000D01*
X123952000Y-66294000D02*
X124714000Y-67056000D01*
D23*
G04 #@! TO.N,Net-(C2-Pad1)*
X138353800Y-68273790D02*
X138047590Y-68580000D01*
X138353800Y-67217300D02*
X138353800Y-68273790D01*
X133604000Y-67584000D02*
X133604000Y-67818000D01*
X133604000Y-67584000D02*
X134600000Y-68580000D01*
X138047590Y-68580000D02*
X137414000Y-68580000D01*
X137414000Y-68580000D02*
X136482000Y-68580000D01*
X135636000Y-68150500D02*
X135636000Y-68580000D01*
X134600000Y-68580000D02*
X135636000Y-68580000D01*
X135636000Y-68580000D02*
X137414000Y-68580000D01*
G04 #@! TO.N,BAT-*
X137403800Y-67217300D02*
X137403800Y-66517800D01*
D22*
X135636000Y-73152000D02*
X138912600Y-73152000D01*
D23*
X132653999Y-66573999D02*
X132653999Y-69133999D01*
X132718999Y-66508999D02*
X132653999Y-66573999D01*
X136695499Y-66508999D02*
X132718999Y-66508999D01*
X132653999Y-69133999D02*
X133604000Y-70084000D01*
X137403800Y-67217300D02*
X136695499Y-66508999D01*
X133604000Y-70084000D02*
X133604000Y-70084000D01*
G04 #@! TO.N,Net-(D1-Pad1)*
X127000000Y-63246000D02*
X125136000Y-63246000D01*
G04 #@! TO.N,Net-(D2-Pad1)*
X127000000Y-61722000D02*
X125136000Y-61722000D01*
G04 #@! TO.N,Net-(R1-Pad1)*
X129159000Y-65455000D02*
X129159000Y-65880000D01*
X129159000Y-65880000D02*
X129159000Y-65405000D01*
X129159000Y-65405000D02*
X129794000Y-64770000D01*
X129794000Y-64770000D02*
X129794000Y-62992000D01*
X128699500Y-61897500D02*
X128699500Y-61722000D01*
X129794000Y-62992000D02*
X128699500Y-61897500D01*
G04 #@! TO.N,Net-(R2-Pad1)*
X127889000Y-65880000D02*
X127889000Y-65405000D01*
X127889000Y-65405000D02*
X128270000Y-65024000D01*
X128270000Y-64183500D02*
X128699500Y-63754000D01*
X128270000Y-65024000D02*
X128270000Y-64183500D01*
G04 #@! TO.N,Net-(R3-Pad2)*
X127889000Y-73109000D02*
X128186000Y-73406000D01*
X127889000Y-71280000D02*
X127889000Y-73109000D01*
G04 #@! TO.N,Net-(R4-Pad2)*
X138684000Y-68580000D02*
X140208000Y-68580000D01*
X140208000Y-68580000D02*
X141224000Y-67896500D01*
X138353800Y-69917300D02*
X138353800Y-68910200D01*
X138353800Y-68910200D02*
X138684000Y-68580000D01*
D22*
G04 #@! TO.N,BAT+*
X130429000Y-65151000D02*
X130429000Y-65880000D01*
X144272000Y-65934500D02*
X142896500Y-65934500D01*
X144272000Y-65934500D02*
X145647500Y-65934500D01*
X150368000Y-63602000D02*
X150012000Y-63602000D01*
X147679500Y-65934500D02*
X144272000Y-65934500D01*
X150012000Y-63602000D02*
X147679500Y-65934500D01*
X156210000Y-67092998D02*
X156210000Y-67988000D01*
X150368000Y-63602000D02*
X152719002Y-63602000D01*
D23*
X155194000Y-65278000D02*
X154794501Y-65677499D01*
X155272500Y-65278000D02*
X155194000Y-65278000D01*
D22*
X152719002Y-63602000D02*
X154794501Y-65677499D01*
X154794501Y-65677499D02*
X156210000Y-67092998D01*
D23*
X150368000Y-63602000D02*
X149962000Y-63602000D01*
X149936600Y-63602000D02*
X150368000Y-63602000D01*
D22*
X131572000Y-74676000D02*
X133096000Y-73152000D01*
X127000000Y-74676000D02*
X131572000Y-74676000D01*
X126218000Y-73660000D02*
X126218000Y-73894000D01*
X126218000Y-73894000D02*
X127000000Y-74676000D01*
X130429000Y-66344998D02*
X130429000Y-65880000D01*
X133096000Y-73152000D02*
X131826000Y-71882000D01*
X131826000Y-71882000D02*
X131826000Y-67741998D01*
D23*
X135636000Y-70612000D02*
X135636000Y-69771500D01*
X133096000Y-73152000D02*
X135636000Y-70612000D01*
D22*
X144272000Y-65934500D02*
X143709500Y-65372000D01*
X130975001Y-66128999D02*
X131732000Y-65372000D01*
X130975001Y-66890999D02*
X130975001Y-66128999D01*
X131826000Y-67741998D02*
X130975001Y-66890999D01*
X130975001Y-66890999D02*
X130429000Y-66344998D01*
X130650000Y-65372000D02*
X130429000Y-65151000D01*
X131732000Y-65372000D02*
X130650000Y-65372000D01*
X130975001Y-65697001D02*
X130650000Y-65372000D01*
X130975001Y-66128999D02*
X130975001Y-65697001D01*
X136652000Y-65212000D02*
X136812000Y-65372000D01*
X136718000Y-64770000D02*
X137320000Y-65372000D01*
X136652000Y-64770000D02*
X136718000Y-64770000D01*
X136652000Y-62230000D02*
X136652000Y-64770000D01*
X136652000Y-64770000D02*
X136652000Y-65212000D01*
X143709500Y-65372000D02*
X137320000Y-65372000D01*
X137320000Y-65372000D02*
X136812000Y-65372000D01*
X136586000Y-64770000D02*
X135984000Y-65372000D01*
X136652000Y-64770000D02*
X136586000Y-64770000D01*
X136812000Y-65372000D02*
X135984000Y-65372000D01*
X135984000Y-65372000D02*
X131732000Y-65372000D01*
D23*
G04 #@! TO.N,Net-(U2-Pad1)*
X137403800Y-70657302D02*
X137403800Y-69917300D01*
X137768799Y-71022301D02*
X137403800Y-70657302D01*
X138908303Y-71022301D02*
X137768799Y-71022301D01*
X139587610Y-71701608D02*
X138908303Y-71022301D01*
X139587610Y-73952392D02*
X139587610Y-71701608D01*
X139413002Y-74127000D02*
X139587610Y-73952392D01*
X138528000Y-74127000D02*
X139413002Y-74127000D01*
G04 #@! TO.N,Net-(U2-Pad3)*
X144428000Y-74127000D02*
X143453000Y-74127000D01*
X139303800Y-69917300D02*
X139303800Y-70215800D01*
X143215000Y-74127000D02*
X143453000Y-74127000D01*
X139303800Y-70215800D02*
X143215000Y-74127000D01*
D22*
G04 #@! TO.N,Net-(D3-Pad2)*
X150554000Y-70188000D02*
X150368000Y-70002000D01*
X155260000Y-70964000D02*
X157448000Y-73152000D01*
X155260000Y-70188000D02*
X155260000Y-70964000D01*
X155074000Y-70002000D02*
X155260000Y-70188000D01*
X154280000Y-70002000D02*
X154298000Y-70002000D01*
X154280000Y-70002000D02*
X155074000Y-70002000D01*
X154298000Y-70002000D02*
X155260000Y-70964000D01*
X150368000Y-70002000D02*
X154280000Y-70002000D01*
D23*
G04 #@! TO.N,EN*
X157160000Y-65290500D02*
X157147500Y-65278000D01*
X157160000Y-67988000D02*
X157160000Y-65290500D01*
X156085010Y-64137010D02*
X157226000Y-65278000D01*
X156085010Y-62554160D02*
X156085010Y-64137010D01*
X155751840Y-62220990D02*
X156085010Y-62554160D01*
X157147500Y-65278000D02*
X157226000Y-65278000D01*
X140716000Y-63754000D02*
X145796000Y-63754000D01*
X139192000Y-62230000D02*
X140716000Y-63754000D01*
X145796000Y-63754000D02*
X147329010Y-62220990D01*
X147329010Y-62220990D02*
X155751840Y-62220990D01*
G04 #@! TO.N,Net-(R7-Pad1)*
X157147500Y-63773650D02*
X157147500Y-63246000D01*
X159258000Y-65884150D02*
X157147500Y-63773650D01*
X159258000Y-68404500D02*
X159258000Y-65884150D01*
X159258000Y-68404500D02*
X158925500Y-68404500D01*
X157160000Y-70170000D02*
X157160000Y-70188000D01*
X158925500Y-68404500D02*
X157160000Y-70170000D01*
D22*
G04 #@! TO.N,GND*
X123825000Y-73553000D02*
X123718000Y-73660000D01*
D23*
X130386000Y-73406000D02*
X130386000Y-73406000D01*
D22*
G04 #@! TO.N,5Vout*
X153448000Y-73152000D02*
X152908000Y-73152000D01*
X152908000Y-73152000D02*
X152400000Y-73660000D01*
X151489500Y-73660000D02*
X150981500Y-73152000D01*
X152400000Y-73660000D02*
X151489500Y-73660000D01*
X153448000Y-73152000D02*
X153416000Y-73152000D01*
X153416000Y-73152000D02*
X152908000Y-72644000D01*
X152908000Y-72644000D02*
X151638000Y-72644000D01*
X151638000Y-72644000D02*
X151638000Y-72898000D01*
X151638000Y-72898000D02*
X151892000Y-73152000D01*
D23*
X153448000Y-73152000D02*
X153670000Y-73152000D01*
D22*
X153416000Y-73152000D02*
X153416000Y-73152000D01*
X151892000Y-73152000D02*
X151892000Y-73152000D01*
D23*
X153416000Y-73152000D02*
X153924000Y-73152000D01*
X153924000Y-73152000D02*
X155347027Y-74575027D01*
X159258000Y-74077002D02*
X159258000Y-70279500D01*
X158759975Y-74575027D02*
X159258000Y-74077002D01*
X155347027Y-74575027D02*
X158759975Y-74575027D01*
G04 #@! TD*
D24*
G04 #@! TO.N,GND*
G36*
X160661001Y-75190000D02*
G01*
X131970290Y-75190000D01*
X132033843Y-75137843D01*
X132054200Y-75113038D01*
X132315238Y-74852000D01*
X145842548Y-74852000D01*
X145848340Y-74910810D01*
X145865495Y-74967361D01*
X145893352Y-75019478D01*
X145930841Y-75065159D01*
X145976522Y-75102648D01*
X146028639Y-75130505D01*
X146085190Y-75147660D01*
X146144000Y-75153452D01*
X146477500Y-75152000D01*
X146552500Y-75077000D01*
X146552500Y-73306000D01*
X146860500Y-73306000D01*
X146860500Y-75077000D01*
X146935500Y-75152000D01*
X147269000Y-75153452D01*
X147327810Y-75147660D01*
X147384361Y-75130505D01*
X147436478Y-75102648D01*
X147482159Y-75065159D01*
X147519648Y-75019478D01*
X147547505Y-74967361D01*
X147564660Y-74910810D01*
X147570452Y-74852000D01*
X147569000Y-73381000D01*
X147494000Y-73306000D01*
X146860500Y-73306000D01*
X146552500Y-73306000D01*
X145919000Y-73306000D01*
X145844000Y-73381000D01*
X145842548Y-74852000D01*
X132315238Y-74852000D01*
X132863788Y-74303451D01*
X133946000Y-74303451D01*
X134004810Y-74297659D01*
X134061360Y-74280504D01*
X134113477Y-74252647D01*
X134159158Y-74215158D01*
X134196647Y-74169477D01*
X134224504Y-74117360D01*
X134241659Y-74060810D01*
X134247451Y-74002000D01*
X134247451Y-72601589D01*
X135921763Y-70927278D01*
X135937974Y-70913974D01*
X135991084Y-70849260D01*
X136012159Y-70809831D01*
X136071613Y-70803975D01*
X136173889Y-70772950D01*
X136268147Y-70722568D01*
X136350765Y-70654765D01*
X136418568Y-70572147D01*
X136468950Y-70477889D01*
X136499975Y-70375613D01*
X136510451Y-70269250D01*
X136510451Y-69781750D01*
X136499975Y-69675387D01*
X136468950Y-69573111D01*
X136418568Y-69478853D01*
X136350765Y-69396235D01*
X136268147Y-69328432D01*
X136173889Y-69278050D01*
X136071613Y-69247025D01*
X135965250Y-69236549D01*
X135052750Y-69236549D01*
X134946387Y-69247025D01*
X134844111Y-69278050D01*
X134749853Y-69328432D01*
X134667235Y-69396235D01*
X134599432Y-69478853D01*
X134549050Y-69573111D01*
X134530451Y-69634424D01*
X134530451Y-69334000D01*
X134524659Y-69275190D01*
X134507504Y-69218640D01*
X134479647Y-69166523D01*
X134442158Y-69120842D01*
X134396477Y-69083353D01*
X134344360Y-69055496D01*
X134287810Y-69038341D01*
X134229000Y-69032549D01*
X133153589Y-69032549D01*
X133078999Y-68957959D01*
X133078999Y-68635451D01*
X134054410Y-68635451D01*
X134284720Y-68865761D01*
X134298026Y-68881974D01*
X134314238Y-68895279D01*
X134314239Y-68895280D01*
X134321855Y-68901530D01*
X134362740Y-68935084D01*
X134402510Y-68956341D01*
X134436572Y-68974548D01*
X134515812Y-68998585D01*
X134516686Y-68998850D01*
X134579126Y-69005000D01*
X134579133Y-69005000D01*
X134600000Y-69007055D01*
X134620867Y-69005000D01*
X135615126Y-69005000D01*
X135636000Y-69007056D01*
X135656874Y-69005000D01*
X136809351Y-69005000D01*
X136800296Y-69021940D01*
X136783141Y-69078490D01*
X136777349Y-69137300D01*
X136777349Y-70697300D01*
X136783141Y-70756110D01*
X136800296Y-70812660D01*
X136828153Y-70864777D01*
X136865642Y-70910458D01*
X136911323Y-70947947D01*
X136963440Y-70975804D01*
X137019990Y-70992959D01*
X137078800Y-70998751D01*
X137144209Y-70998751D01*
X137453515Y-71308057D01*
X137466825Y-71324275D01*
X137531539Y-71377385D01*
X137603497Y-71415847D01*
X137605372Y-71416849D01*
X137685485Y-71441151D01*
X137768799Y-71449357D01*
X137789673Y-71447301D01*
X138732263Y-71447301D01*
X138935511Y-71650549D01*
X137803000Y-71650549D01*
X137744190Y-71656341D01*
X137687640Y-71673496D01*
X137635523Y-71701353D01*
X137589842Y-71738842D01*
X137552353Y-71784523D01*
X137524496Y-71836640D01*
X137507341Y-71893190D01*
X137501549Y-71952000D01*
X137501549Y-72402000D01*
X137507341Y-72460810D01*
X137519836Y-72502000D01*
X136584776Y-72502000D01*
X136529263Y-72418918D01*
X136369082Y-72258737D01*
X136180729Y-72132884D01*
X135971443Y-72046194D01*
X135749265Y-72002000D01*
X135522735Y-72002000D01*
X135300557Y-72046194D01*
X135091271Y-72132884D01*
X134902918Y-72258737D01*
X134742737Y-72418918D01*
X134616884Y-72607271D01*
X134530194Y-72816557D01*
X134486000Y-73038735D01*
X134486000Y-73265265D01*
X134530194Y-73487443D01*
X134616884Y-73696729D01*
X134742737Y-73885082D01*
X134902918Y-74045263D01*
X135091271Y-74171116D01*
X135300557Y-74257806D01*
X135522735Y-74302000D01*
X135749265Y-74302000D01*
X135971443Y-74257806D01*
X136180729Y-74171116D01*
X136369082Y-74045263D01*
X136529263Y-73885082D01*
X136584776Y-73802000D01*
X137519836Y-73802000D01*
X137507341Y-73843190D01*
X137501549Y-73902000D01*
X137501549Y-74352000D01*
X137507341Y-74410810D01*
X137524496Y-74467360D01*
X137552353Y-74519477D01*
X137589842Y-74565158D01*
X137635523Y-74602647D01*
X137687640Y-74630504D01*
X137744190Y-74647659D01*
X137803000Y-74653451D01*
X139253000Y-74653451D01*
X139311810Y-74647659D01*
X139368360Y-74630504D01*
X139420477Y-74602647D01*
X139466158Y-74565158D01*
X139480745Y-74547384D01*
X139496316Y-74545850D01*
X139576429Y-74521548D01*
X139650262Y-74482084D01*
X139714976Y-74428974D01*
X139728286Y-74412756D01*
X139873368Y-74267674D01*
X139889584Y-74254366D01*
X139942694Y-74189652D01*
X139982158Y-74115819D01*
X140006460Y-74035706D01*
X140012610Y-73973266D01*
X140012610Y-73973260D01*
X140014665Y-73952393D01*
X140012610Y-73931526D01*
X140012610Y-71722474D01*
X140014665Y-71701607D01*
X140012610Y-71680740D01*
X140012610Y-71680734D01*
X140006460Y-71618294D01*
X140006112Y-71617145D01*
X139999088Y-71593991D01*
X139982158Y-71538181D01*
X139942694Y-71464348D01*
X139903270Y-71416310D01*
X142899721Y-74412762D01*
X142913026Y-74428974D01*
X142977740Y-74482084D01*
X143051573Y-74521548D01*
X143107383Y-74538478D01*
X143131685Y-74545850D01*
X143140098Y-74546679D01*
X143194126Y-74552000D01*
X143194132Y-74552000D01*
X143214999Y-74554055D01*
X143235866Y-74552000D01*
X143479044Y-74552000D01*
X143489842Y-74565158D01*
X143535523Y-74602647D01*
X143587640Y-74630504D01*
X143644190Y-74647659D01*
X143703000Y-74653451D01*
X145153000Y-74653451D01*
X145211810Y-74647659D01*
X145268360Y-74630504D01*
X145320477Y-74602647D01*
X145366158Y-74565158D01*
X145403647Y-74519477D01*
X145431504Y-74467360D01*
X145448659Y-74410810D01*
X145454451Y-74352000D01*
X145454451Y-73902000D01*
X145448659Y-73843190D01*
X145436164Y-73802002D01*
X145448660Y-73760810D01*
X145454452Y-73702000D01*
X145453000Y-73677000D01*
X145378000Y-73602000D01*
X145167733Y-73602000D01*
X145153000Y-73600549D01*
X143703000Y-73600549D01*
X143688267Y-73602000D01*
X143478000Y-73602000D01*
X143403000Y-73677000D01*
X143401548Y-73702000D01*
X143391041Y-73702000D01*
X142741041Y-73052000D01*
X143401548Y-73052000D01*
X143407340Y-73110810D01*
X143419835Y-73151999D01*
X143407340Y-73193190D01*
X143401548Y-73252000D01*
X143403000Y-73277000D01*
X143478000Y-73352000D01*
X143688257Y-73352000D01*
X143703000Y-73353452D01*
X144199000Y-73352000D01*
X144274000Y-73352000D01*
X144274000Y-72952000D01*
X144582000Y-72952000D01*
X144582000Y-73352000D01*
X144657000Y-73352000D01*
X145153000Y-73353452D01*
X145167743Y-73352000D01*
X145378000Y-73352000D01*
X145453000Y-73277000D01*
X145454452Y-73252000D01*
X145448660Y-73193190D01*
X145436165Y-73151999D01*
X145448660Y-73110810D01*
X145454452Y-73052000D01*
X145453000Y-73027000D01*
X145378000Y-72952000D01*
X145167743Y-72952000D01*
X145153000Y-72950548D01*
X144657000Y-72952000D01*
X144582000Y-72952000D01*
X144274000Y-72952000D01*
X144199000Y-72952000D01*
X143703000Y-72950548D01*
X143688257Y-72952000D01*
X143478000Y-72952000D01*
X143403000Y-73027000D01*
X143401548Y-73052000D01*
X142741041Y-73052000D01*
X142291041Y-72602000D01*
X143401548Y-72602000D01*
X143403000Y-72627000D01*
X143478000Y-72702000D01*
X143688267Y-72702000D01*
X143703000Y-72703451D01*
X145153000Y-72703451D01*
X145167733Y-72702000D01*
X145378000Y-72702000D01*
X145453000Y-72627000D01*
X145454452Y-72602000D01*
X145448660Y-72543190D01*
X145436164Y-72501998D01*
X145448659Y-72460810D01*
X145454451Y-72402000D01*
X145454451Y-71952000D01*
X145448659Y-71893190D01*
X145431504Y-71836640D01*
X145403647Y-71784523D01*
X145366158Y-71738842D01*
X145320477Y-71701353D01*
X145268360Y-71673496D01*
X145211810Y-71656341D01*
X145153000Y-71650549D01*
X143703000Y-71650549D01*
X143644190Y-71656341D01*
X143587640Y-71673496D01*
X143535523Y-71701353D01*
X143489842Y-71738842D01*
X143452353Y-71784523D01*
X143424496Y-71836640D01*
X143407341Y-71893190D01*
X143401549Y-71952000D01*
X143401549Y-72402000D01*
X143407341Y-72460810D01*
X143419836Y-72501998D01*
X143407340Y-72543190D01*
X143401548Y-72602000D01*
X142291041Y-72602000D01*
X141141041Y-71452000D01*
X145842548Y-71452000D01*
X145844000Y-72923000D01*
X145919000Y-72998000D01*
X146552500Y-72998000D01*
X146552500Y-71227000D01*
X146860500Y-71227000D01*
X146860500Y-72998000D01*
X147494000Y-72998000D01*
X147569000Y-72923000D01*
X147570452Y-71452000D01*
X147564660Y-71393190D01*
X147547505Y-71336639D01*
X147519648Y-71284522D01*
X147482159Y-71238841D01*
X147436478Y-71201352D01*
X147384361Y-71173495D01*
X147327810Y-71156340D01*
X147269000Y-71150548D01*
X146935500Y-71152000D01*
X146860500Y-71227000D01*
X146552500Y-71227000D01*
X146477500Y-71152000D01*
X146144000Y-71150548D01*
X146085190Y-71156340D01*
X146028639Y-71173495D01*
X145976522Y-71201352D01*
X145930841Y-71238841D01*
X145893352Y-71284522D01*
X145865495Y-71336639D01*
X145848340Y-71393190D01*
X145842548Y-71452000D01*
X141141041Y-71452000D01*
X140461041Y-70772000D01*
X142270548Y-70772000D01*
X142276340Y-70830810D01*
X142293495Y-70887361D01*
X142321352Y-70939478D01*
X142358841Y-70985159D01*
X142404522Y-71022648D01*
X142456639Y-71050505D01*
X142513190Y-71067660D01*
X142572000Y-71073452D01*
X144043000Y-71072000D01*
X144118000Y-70997000D01*
X144118000Y-70363500D01*
X144426000Y-70363500D01*
X144426000Y-70997000D01*
X144501000Y-71072000D01*
X145972000Y-71073452D01*
X146030810Y-71067660D01*
X146087361Y-71050505D01*
X146139478Y-71022648D01*
X146185159Y-70985159D01*
X146222648Y-70939478D01*
X146250505Y-70887361D01*
X146267660Y-70830810D01*
X146273452Y-70772000D01*
X146272000Y-70438500D01*
X146197000Y-70363500D01*
X144426000Y-70363500D01*
X144118000Y-70363500D01*
X142347000Y-70363500D01*
X142272000Y-70438500D01*
X142270548Y-70772000D01*
X140461041Y-70772000D01*
X139948041Y-70259000D01*
X140222548Y-70259000D01*
X140228340Y-70317810D01*
X140245495Y-70374361D01*
X140273352Y-70426478D01*
X140310841Y-70472159D01*
X140356522Y-70509648D01*
X140408639Y-70537505D01*
X140465190Y-70554660D01*
X140524000Y-70560452D01*
X140995000Y-70559000D01*
X141070000Y-70484000D01*
X141070000Y-69925500D01*
X141378000Y-69925500D01*
X141378000Y-70484000D01*
X141453000Y-70559000D01*
X141924000Y-70560452D01*
X141982810Y-70554660D01*
X142039361Y-70537505D01*
X142091478Y-70509648D01*
X142137159Y-70472159D01*
X142174648Y-70426478D01*
X142202505Y-70374361D01*
X142219660Y-70317810D01*
X142225452Y-70259000D01*
X142224000Y-70000500D01*
X142149000Y-69925500D01*
X141378000Y-69925500D01*
X141070000Y-69925500D01*
X140299000Y-69925500D01*
X140224000Y-70000500D01*
X140222548Y-70259000D01*
X139948041Y-70259000D01*
X139930251Y-70241211D01*
X139930251Y-69647000D01*
X142270548Y-69647000D01*
X142272000Y-69980500D01*
X142347000Y-70055500D01*
X144118000Y-70055500D01*
X144118000Y-69422000D01*
X144426000Y-69422000D01*
X144426000Y-70055500D01*
X146197000Y-70055500D01*
X146272000Y-69980500D01*
X146273452Y-69647000D01*
X146267660Y-69588190D01*
X146250505Y-69531639D01*
X146222648Y-69479522D01*
X146185159Y-69433841D01*
X146139478Y-69396352D01*
X146087361Y-69368495D01*
X146030810Y-69351340D01*
X145972000Y-69345548D01*
X144501000Y-69347000D01*
X144426000Y-69422000D01*
X144118000Y-69422000D01*
X144043000Y-69347000D01*
X142572000Y-69345548D01*
X142513190Y-69351340D01*
X142456639Y-69368495D01*
X142404522Y-69396352D01*
X142358841Y-69433841D01*
X142321352Y-69479522D01*
X142293495Y-69531639D01*
X142276340Y-69588190D01*
X142270548Y-69647000D01*
X139930251Y-69647000D01*
X139930251Y-69284000D01*
X140222548Y-69284000D01*
X140224000Y-69542500D01*
X140299000Y-69617500D01*
X141070000Y-69617500D01*
X141070000Y-69059000D01*
X141378000Y-69059000D01*
X141378000Y-69617500D01*
X142149000Y-69617500D01*
X142224000Y-69542500D01*
X142225452Y-69284000D01*
X142219660Y-69225190D01*
X142202505Y-69168639D01*
X142174648Y-69116522D01*
X142137159Y-69070841D01*
X142091478Y-69033352D01*
X142039361Y-69005495D01*
X141982810Y-68988340D01*
X141924000Y-68982548D01*
X141453000Y-68984000D01*
X141378000Y-69059000D01*
X141070000Y-69059000D01*
X140995000Y-68984000D01*
X140524000Y-68982548D01*
X140465190Y-68988340D01*
X140408639Y-69005495D01*
X140356522Y-69033352D01*
X140310841Y-69070841D01*
X140273352Y-69116522D01*
X140245495Y-69168639D01*
X140228340Y-69225190D01*
X140222548Y-69284000D01*
X139930251Y-69284000D01*
X139930251Y-69137300D01*
X139924459Y-69078490D01*
X139907304Y-69021940D01*
X139898249Y-69005000D01*
X140187797Y-69005000D01*
X140209342Y-69007054D01*
X140250190Y-69002900D01*
X140291314Y-68998850D01*
X140291964Y-68998653D01*
X140292631Y-68998585D01*
X140331870Y-68986548D01*
X140371427Y-68974548D01*
X140372022Y-68974230D01*
X140372667Y-68974032D01*
X140408700Y-68954625D01*
X140445260Y-68935084D01*
X140462001Y-68921344D01*
X140812650Y-68685451D01*
X141680250Y-68685451D01*
X141786613Y-68674975D01*
X141888889Y-68643950D01*
X141983147Y-68593568D01*
X142065765Y-68525765D01*
X142133568Y-68443147D01*
X142183950Y-68348889D01*
X142214975Y-68246613D01*
X142225451Y-68140250D01*
X142225451Y-67652750D01*
X142214975Y-67546387D01*
X142183950Y-67444111D01*
X142133568Y-67349853D01*
X142065765Y-67267235D01*
X141983147Y-67199432D01*
X141888889Y-67149050D01*
X141786613Y-67118025D01*
X141680250Y-67107549D01*
X140767750Y-67107549D01*
X140661387Y-67118025D01*
X140559111Y-67149050D01*
X140464853Y-67199432D01*
X140382235Y-67267235D01*
X140314432Y-67349853D01*
X140264050Y-67444111D01*
X140233025Y-67546387D01*
X140222549Y-67652750D01*
X140222549Y-68057992D01*
X140078350Y-68155000D01*
X139884673Y-68155000D01*
X139907304Y-68112660D01*
X139924459Y-68056110D01*
X139930251Y-67997300D01*
X139930251Y-66437300D01*
X139924459Y-66378490D01*
X139907304Y-66321940D01*
X139879447Y-66269823D01*
X139841958Y-66224142D01*
X139796277Y-66186653D01*
X139744160Y-66158796D01*
X139687610Y-66141641D01*
X139628800Y-66135849D01*
X138978800Y-66135849D01*
X138919990Y-66141641D01*
X138863440Y-66158796D01*
X138828800Y-66177311D01*
X138794160Y-66158796D01*
X138737610Y-66141641D01*
X138678800Y-66135849D01*
X138028800Y-66135849D01*
X137969990Y-66141641D01*
X137913440Y-66158796D01*
X137878800Y-66177311D01*
X137844160Y-66158796D01*
X137787610Y-66141641D01*
X137728800Y-66135849D01*
X137590795Y-66135849D01*
X137567227Y-66123252D01*
X137487114Y-66098950D01*
X137403800Y-66090744D01*
X137320487Y-66098950D01*
X137240374Y-66123252D01*
X137216806Y-66135849D01*
X137078800Y-66135849D01*
X137019990Y-66141641D01*
X136963440Y-66158796D01*
X136948462Y-66166802D01*
X136932759Y-66153915D01*
X136858926Y-66114451D01*
X136778813Y-66090149D01*
X136716373Y-66083999D01*
X136716366Y-66083999D01*
X136695499Y-66081944D01*
X136674632Y-66083999D01*
X132739866Y-66083999D01*
X132718999Y-66081944D01*
X132698132Y-66083999D01*
X132698125Y-66083999D01*
X132635685Y-66090149D01*
X132555572Y-66114451D01*
X132481739Y-66153915D01*
X132417025Y-66207025D01*
X132403715Y-66223243D01*
X132368243Y-66258715D01*
X132352025Y-66272025D01*
X132298915Y-66336740D01*
X132259451Y-66410573D01*
X132235149Y-66490686D01*
X132228999Y-66553126D01*
X132228999Y-66553132D01*
X132226944Y-66573999D01*
X132228999Y-66594866D01*
X132228999Y-67225758D01*
X131625001Y-66621761D01*
X131625001Y-66398237D01*
X132001239Y-66022000D01*
X135952079Y-66022000D01*
X135984000Y-66025144D01*
X136015921Y-66022000D01*
X136780078Y-66022000D01*
X136811999Y-66025144D01*
X136843920Y-66022000D01*
X137288076Y-66022000D01*
X137320000Y-66025144D01*
X137351924Y-66022000D01*
X142251973Y-66022000D01*
X142255905Y-66061922D01*
X142270549Y-66110197D01*
X142270549Y-66247001D01*
X142281145Y-66354584D01*
X142312526Y-66458032D01*
X142363485Y-66553370D01*
X142432065Y-66636935D01*
X142515630Y-66705515D01*
X142610968Y-66756474D01*
X142714416Y-66787855D01*
X142821999Y-66798451D01*
X145722001Y-66798451D01*
X145829584Y-66787855D01*
X145933032Y-66756474D01*
X146028370Y-66705515D01*
X146111935Y-66636935D01*
X146154967Y-66584500D01*
X147647579Y-66584500D01*
X147679500Y-66587644D01*
X147711421Y-66584500D01*
X147711432Y-66584500D01*
X147806922Y-66575095D01*
X147929448Y-66537927D01*
X148042368Y-66477570D01*
X148141343Y-66396343D01*
X148161700Y-66371538D01*
X149879788Y-64653451D01*
X151468000Y-64653451D01*
X151526810Y-64647659D01*
X151583360Y-64630504D01*
X151635477Y-64602647D01*
X151681158Y-64565158D01*
X151718647Y-64519477D01*
X151746504Y-64467360D01*
X151763659Y-64410810D01*
X151769451Y-64352000D01*
X151769451Y-64252000D01*
X152449764Y-64252000D01*
X155354313Y-67156549D01*
X154935000Y-67156549D01*
X154876190Y-67162341D01*
X154819640Y-67179496D01*
X154767523Y-67207353D01*
X154721842Y-67244842D01*
X154684353Y-67290523D01*
X154656496Y-67342640D01*
X154639341Y-67399190D01*
X154633549Y-67458000D01*
X154633549Y-68518000D01*
X154639341Y-68576810D01*
X154656496Y-68633360D01*
X154684353Y-68685477D01*
X154721842Y-68731158D01*
X154767523Y-68768647D01*
X154819640Y-68796504D01*
X154876190Y-68813659D01*
X154935000Y-68819451D01*
X155585000Y-68819451D01*
X155643810Y-68813659D01*
X155700360Y-68796504D01*
X155735000Y-68777989D01*
X155769640Y-68796504D01*
X155826190Y-68813659D01*
X155885000Y-68819451D01*
X156535000Y-68819451D01*
X156593810Y-68813659D01*
X156650360Y-68796504D01*
X156685000Y-68777989D01*
X156719640Y-68796504D01*
X156776190Y-68813659D01*
X156835000Y-68819451D01*
X157485000Y-68819451D01*
X157543810Y-68813659D01*
X157600360Y-68796504D01*
X157652477Y-68768647D01*
X157698158Y-68731158D01*
X157735647Y-68685477D01*
X157763504Y-68633360D01*
X157780659Y-68576810D01*
X157786451Y-68518000D01*
X157786451Y-67458000D01*
X157780659Y-67399190D01*
X157763504Y-67342640D01*
X157735647Y-67290523D01*
X157698158Y-67244842D01*
X157652477Y-67207353D01*
X157600360Y-67179496D01*
X157585000Y-67174836D01*
X157585000Y-66242467D01*
X157599889Y-66237950D01*
X157694147Y-66187568D01*
X157776765Y-66119765D01*
X157844568Y-66037147D01*
X157894950Y-65942889D01*
X157925975Y-65840613D01*
X157936451Y-65734250D01*
X157936451Y-65163642D01*
X158833001Y-66060192D01*
X158833000Y-67615549D01*
X158801750Y-67615549D01*
X158695387Y-67626025D01*
X158593111Y-67657050D01*
X158498853Y-67707432D01*
X158416235Y-67775235D01*
X158348432Y-67857853D01*
X158298050Y-67952111D01*
X158267025Y-68054387D01*
X158256549Y-68160750D01*
X158256549Y-68472410D01*
X157372411Y-69356549D01*
X156835000Y-69356549D01*
X156776190Y-69362341D01*
X156719640Y-69379496D01*
X156685001Y-69398011D01*
X156650361Y-69379495D01*
X156593810Y-69362340D01*
X156535000Y-69356548D01*
X156439000Y-69358000D01*
X156364000Y-69433000D01*
X156364000Y-70034000D01*
X156384000Y-70034000D01*
X156384000Y-70342000D01*
X156364000Y-70342000D01*
X156364000Y-70362000D01*
X156056000Y-70362000D01*
X156056000Y-70342000D01*
X156036000Y-70342000D01*
X156036000Y-70034000D01*
X156056000Y-70034000D01*
X156056000Y-69433000D01*
X155981000Y-69358000D01*
X155885000Y-69356548D01*
X155826190Y-69362340D01*
X155769639Y-69379495D01*
X155734999Y-69398011D01*
X155700360Y-69379496D01*
X155643810Y-69362341D01*
X155585000Y-69356549D01*
X155152118Y-69356549D01*
X155105932Y-69352000D01*
X155105921Y-69352000D01*
X155074000Y-69348856D01*
X155042079Y-69352000D01*
X154329921Y-69352000D01*
X154298000Y-69348856D01*
X154266079Y-69352000D01*
X151769451Y-69352000D01*
X151769451Y-69252000D01*
X151763659Y-69193190D01*
X151746504Y-69136640D01*
X151718647Y-69084523D01*
X151681158Y-69038842D01*
X151635477Y-69001353D01*
X151583360Y-68973496D01*
X151526810Y-68956341D01*
X151468000Y-68950549D01*
X149268000Y-68950549D01*
X149209190Y-68956341D01*
X149152640Y-68973496D01*
X149100523Y-69001353D01*
X149054842Y-69038842D01*
X149017353Y-69084523D01*
X148989496Y-69136640D01*
X148972341Y-69193190D01*
X148966549Y-69252000D01*
X148966549Y-70752000D01*
X148972341Y-70810810D01*
X148989496Y-70867360D01*
X149017353Y-70919477D01*
X149054842Y-70965158D01*
X149100523Y-71002647D01*
X149152640Y-71030504D01*
X149209190Y-71047659D01*
X149268000Y-71053451D01*
X151468000Y-71053451D01*
X151526810Y-71047659D01*
X151583360Y-71030504D01*
X151635477Y-71002647D01*
X151681158Y-70965158D01*
X151718647Y-70919477D01*
X151746504Y-70867360D01*
X151763659Y-70810810D01*
X151769451Y-70752000D01*
X151769451Y-70652000D01*
X154028762Y-70652000D01*
X154777810Y-71401049D01*
X154798158Y-71425843D01*
X154822952Y-71446191D01*
X154822959Y-71446198D01*
X154822964Y-71446202D01*
X155896549Y-72519788D01*
X155896549Y-74052000D01*
X155902341Y-74110810D01*
X155914238Y-74150027D01*
X155523068Y-74150027D01*
X154999451Y-73626410D01*
X154999451Y-72252000D01*
X154993659Y-72193190D01*
X154976504Y-72136640D01*
X154948647Y-72084523D01*
X154911158Y-72038842D01*
X154865477Y-72001353D01*
X154813360Y-71973496D01*
X154756810Y-71956341D01*
X154698000Y-71950549D01*
X152198000Y-71950549D01*
X152139190Y-71956341D01*
X152082640Y-71973496D01*
X152044280Y-71994000D01*
X151845451Y-71994000D01*
X151845451Y-71701999D01*
X151834855Y-71594416D01*
X151803474Y-71490968D01*
X151752515Y-71395630D01*
X151683935Y-71312065D01*
X151600370Y-71243485D01*
X151505032Y-71192526D01*
X151401584Y-71161145D01*
X151294001Y-71150549D01*
X150668999Y-71150549D01*
X150561416Y-71161145D01*
X150457968Y-71192526D01*
X150362630Y-71243485D01*
X150279065Y-71312065D01*
X150210485Y-71395630D01*
X150159526Y-71490968D01*
X150128145Y-71594416D01*
X150117549Y-71701999D01*
X150117549Y-74602001D01*
X150128145Y-74709584D01*
X150159526Y-74813032D01*
X150210485Y-74908370D01*
X150279065Y-74991935D01*
X150362630Y-75060515D01*
X150457968Y-75111474D01*
X150561416Y-75142855D01*
X150668999Y-75153451D01*
X151294001Y-75153451D01*
X151401584Y-75142855D01*
X151505032Y-75111474D01*
X151600370Y-75060515D01*
X151683935Y-74991935D01*
X151752515Y-74908370D01*
X151803474Y-74813032D01*
X151834855Y-74709584D01*
X151845451Y-74602001D01*
X151845451Y-74310000D01*
X152044280Y-74310000D01*
X152082640Y-74330504D01*
X152139190Y-74347659D01*
X152198000Y-74353451D01*
X154524410Y-74353451D01*
X155031748Y-74860789D01*
X155045053Y-74877001D01*
X155109767Y-74930111D01*
X155183600Y-74969575D01*
X155239410Y-74986505D01*
X155263712Y-74993877D01*
X155272125Y-74994706D01*
X155326153Y-75000027D01*
X155326159Y-75000027D01*
X155347026Y-75002082D01*
X155367893Y-75000027D01*
X158739108Y-75000027D01*
X158759975Y-75002082D01*
X158780842Y-75000027D01*
X158780849Y-75000027D01*
X158843289Y-74993877D01*
X158923402Y-74969575D01*
X158997235Y-74930111D01*
X159061949Y-74877001D01*
X159075258Y-74860784D01*
X159543763Y-74392280D01*
X159559974Y-74378976D01*
X159613084Y-74314262D01*
X159639330Y-74265158D01*
X159652548Y-74240430D01*
X159676850Y-74160316D01*
X159678462Y-74143947D01*
X159683000Y-74097876D01*
X159683000Y-74097869D01*
X159685055Y-74077002D01*
X159683000Y-74056135D01*
X159683000Y-71068451D01*
X159714250Y-71068451D01*
X159820613Y-71057975D01*
X159922889Y-71026950D01*
X160017147Y-70976568D01*
X160099765Y-70908765D01*
X160167568Y-70826147D01*
X160217950Y-70731889D01*
X160248975Y-70629613D01*
X160259451Y-70523250D01*
X160259451Y-70035750D01*
X160248975Y-69929387D01*
X160217950Y-69827111D01*
X160167568Y-69732853D01*
X160099765Y-69650235D01*
X160017147Y-69582432D01*
X159922889Y-69532050D01*
X159820613Y-69501025D01*
X159714250Y-69490549D01*
X158801750Y-69490549D01*
X158695387Y-69501025D01*
X158593111Y-69532050D01*
X158498853Y-69582432D01*
X158416235Y-69650235D01*
X158348432Y-69732853D01*
X158298050Y-69827111D01*
X158267025Y-69929387D01*
X158256549Y-70035750D01*
X158256549Y-70523250D01*
X158267025Y-70629613D01*
X158298050Y-70731889D01*
X158348432Y-70826147D01*
X158416235Y-70908765D01*
X158498853Y-70976568D01*
X158593111Y-71026950D01*
X158695387Y-71057975D01*
X158801750Y-71068451D01*
X158833001Y-71068451D01*
X158833001Y-71983994D01*
X158813360Y-71973496D01*
X158756810Y-71956341D01*
X158698000Y-71950549D01*
X157165788Y-71950549D01*
X156233238Y-71018000D01*
X156364002Y-71018000D01*
X156364002Y-70943002D01*
X156439000Y-71018000D01*
X156535000Y-71019452D01*
X156593810Y-71013660D01*
X156650361Y-70996505D01*
X156685001Y-70977989D01*
X156719640Y-70996504D01*
X156776190Y-71013659D01*
X156835000Y-71019451D01*
X157485000Y-71019451D01*
X157543810Y-71013659D01*
X157600360Y-70996504D01*
X157652477Y-70968647D01*
X157698158Y-70931158D01*
X157735647Y-70885477D01*
X157763504Y-70833360D01*
X157780659Y-70776810D01*
X157786451Y-70718000D01*
X157786451Y-70144589D01*
X158743342Y-69187698D01*
X158801750Y-69193451D01*
X159714250Y-69193451D01*
X159820613Y-69182975D01*
X159922889Y-69151950D01*
X160017147Y-69101568D01*
X160099765Y-69033765D01*
X160167568Y-68951147D01*
X160217950Y-68856889D01*
X160248975Y-68754613D01*
X160259451Y-68648250D01*
X160259451Y-68160750D01*
X160248975Y-68054387D01*
X160217950Y-67952111D01*
X160167568Y-67857853D01*
X160099765Y-67775235D01*
X160017147Y-67707432D01*
X159922889Y-67657050D01*
X159820613Y-67626025D01*
X159714250Y-67615549D01*
X159683000Y-67615549D01*
X159683000Y-65905017D01*
X159685055Y-65884150D01*
X159683000Y-65863283D01*
X159683000Y-65863276D01*
X159676850Y-65800836D01*
X159662967Y-65755070D01*
X159652548Y-65720722D01*
X159638801Y-65695005D01*
X159613084Y-65646890D01*
X159559974Y-65582176D01*
X159543762Y-65568871D01*
X157891756Y-63916865D01*
X157894950Y-63910889D01*
X157925975Y-63808613D01*
X157936451Y-63702250D01*
X157936451Y-62789750D01*
X157925975Y-62683387D01*
X157894950Y-62581111D01*
X157844568Y-62486853D01*
X157776765Y-62404235D01*
X157694147Y-62336432D01*
X157599889Y-62286050D01*
X157497613Y-62255025D01*
X157391250Y-62244549D01*
X156903750Y-62244549D01*
X156797387Y-62255025D01*
X156695111Y-62286050D01*
X156600853Y-62336432D01*
X156518235Y-62404235D01*
X156492986Y-62435000D01*
X156479558Y-62390733D01*
X156473031Y-62378522D01*
X156440094Y-62316900D01*
X156386984Y-62252186D01*
X156370768Y-62238878D01*
X156067124Y-61935234D01*
X156053814Y-61919016D01*
X155989100Y-61865906D01*
X155915267Y-61826442D01*
X155835154Y-61802140D01*
X155772714Y-61795990D01*
X155772707Y-61795990D01*
X155751840Y-61793935D01*
X155730973Y-61795990D01*
X147349884Y-61795990D01*
X147329010Y-61793934D01*
X147308136Y-61795990D01*
X147245696Y-61802140D01*
X147165583Y-61826442D01*
X147091750Y-61865906D01*
X147027036Y-61919016D01*
X147013726Y-61935234D01*
X145619960Y-63329000D01*
X145291484Y-63329000D01*
X145335158Y-63293158D01*
X145372647Y-63247477D01*
X145400504Y-63195360D01*
X145417659Y-63138810D01*
X145423451Y-63080000D01*
X145423451Y-61380000D01*
X145417659Y-61321190D01*
X145400504Y-61264640D01*
X145372647Y-61212523D01*
X145335158Y-61166842D01*
X145289477Y-61129353D01*
X145237360Y-61101496D01*
X145180810Y-61084341D01*
X145122000Y-61078549D01*
X143422000Y-61078549D01*
X143363190Y-61084341D01*
X143306640Y-61101496D01*
X143254523Y-61129353D01*
X143208842Y-61166842D01*
X143171353Y-61212523D01*
X143143496Y-61264640D01*
X143126341Y-61321190D01*
X143120549Y-61380000D01*
X143120549Y-63080000D01*
X143126341Y-63138810D01*
X143143496Y-63195360D01*
X143171353Y-63247477D01*
X143208842Y-63293158D01*
X143252516Y-63329000D01*
X142070323Y-63329000D01*
X142277281Y-63242515D01*
X142464336Y-63116681D01*
X142623247Y-62956772D01*
X142747908Y-62768934D01*
X142833528Y-62560385D01*
X142796650Y-62384000D01*
X141886000Y-62384000D01*
X141886000Y-62404000D01*
X141578000Y-62404000D01*
X141578000Y-62384000D01*
X140667350Y-62384000D01*
X140630472Y-62560385D01*
X140716092Y-62768934D01*
X140840753Y-62956772D01*
X140999664Y-63116681D01*
X141186719Y-63242515D01*
X141393677Y-63329000D01*
X140892041Y-63329000D01*
X140248212Y-62685172D01*
X140297806Y-62565443D01*
X140342000Y-62343265D01*
X140342000Y-62116735D01*
X140298813Y-61899615D01*
X140630472Y-61899615D01*
X140667350Y-62076000D01*
X141578000Y-62076000D01*
X141578000Y-61166088D01*
X141886000Y-61166088D01*
X141886000Y-62076000D01*
X142796650Y-62076000D01*
X142833528Y-61899615D01*
X142747908Y-61691066D01*
X142623247Y-61503228D01*
X142464336Y-61343319D01*
X142277281Y-61217485D01*
X142069272Y-61130561D01*
X142062383Y-61128480D01*
X141886000Y-61166088D01*
X141578000Y-61166088D01*
X141401617Y-61128480D01*
X141394728Y-61130561D01*
X141186719Y-61217485D01*
X140999664Y-61343319D01*
X140840753Y-61503228D01*
X140716092Y-61691066D01*
X140630472Y-61899615D01*
X140298813Y-61899615D01*
X140297806Y-61894557D01*
X140211116Y-61685271D01*
X140085263Y-61496918D01*
X139925082Y-61336737D01*
X139736729Y-61210884D01*
X139527443Y-61124194D01*
X139305265Y-61080000D01*
X139078735Y-61080000D01*
X138856557Y-61124194D01*
X138647271Y-61210884D01*
X138458918Y-61336737D01*
X138298737Y-61496918D01*
X138172884Y-61685271D01*
X138086194Y-61894557D01*
X138042000Y-62116735D01*
X138042000Y-62343265D01*
X138086194Y-62565443D01*
X138172884Y-62774729D01*
X138298737Y-62963082D01*
X138458918Y-63123263D01*
X138647271Y-63249116D01*
X138856557Y-63335806D01*
X139078735Y-63380000D01*
X139305265Y-63380000D01*
X139527443Y-63335806D01*
X139647172Y-63286212D01*
X140400720Y-64039761D01*
X140414026Y-64055974D01*
X140478740Y-64109084D01*
X140552573Y-64148548D01*
X140598982Y-64162626D01*
X140632685Y-64172850D01*
X140641098Y-64173679D01*
X140695126Y-64179000D01*
X140695132Y-64179000D01*
X140715999Y-64181055D01*
X140736866Y-64179000D01*
X145775133Y-64179000D01*
X145796000Y-64181055D01*
X145816867Y-64179000D01*
X145816874Y-64179000D01*
X145879314Y-64172850D01*
X145959427Y-64148548D01*
X146033260Y-64109084D01*
X146097974Y-64055974D01*
X146111284Y-64039756D01*
X147505050Y-62645990D01*
X149048976Y-62645990D01*
X149017353Y-62684523D01*
X148989496Y-62736640D01*
X148972341Y-62793190D01*
X148966549Y-62852000D01*
X148966549Y-63728212D01*
X147410262Y-65284500D01*
X146154967Y-65284500D01*
X146111935Y-65232065D01*
X146028370Y-65163485D01*
X145933032Y-65112526D01*
X145829584Y-65081145D01*
X145722001Y-65070549D01*
X144327287Y-65070549D01*
X144191698Y-64934960D01*
X144171343Y-64910157D01*
X144072368Y-64828930D01*
X143959448Y-64768573D01*
X143836922Y-64731405D01*
X143741432Y-64722000D01*
X143741421Y-64722000D01*
X143709500Y-64718856D01*
X143677579Y-64722000D01*
X137589239Y-64722000D01*
X137302000Y-64434762D01*
X137302000Y-63178776D01*
X137385082Y-63123263D01*
X137545263Y-62963082D01*
X137671116Y-62774729D01*
X137757806Y-62565443D01*
X137802000Y-62343265D01*
X137802000Y-62116735D01*
X137757806Y-61894557D01*
X137671116Y-61685271D01*
X137545263Y-61496918D01*
X137385082Y-61336737D01*
X137196729Y-61210884D01*
X136987443Y-61124194D01*
X136765265Y-61080000D01*
X136538735Y-61080000D01*
X136316557Y-61124194D01*
X136107271Y-61210884D01*
X135918918Y-61336737D01*
X135758737Y-61496918D01*
X135632884Y-61685271D01*
X135546194Y-61894557D01*
X135502000Y-62116735D01*
X135502000Y-62343265D01*
X135546194Y-62565443D01*
X135632884Y-62774729D01*
X135758737Y-62963082D01*
X135918918Y-63123263D01*
X136002000Y-63178777D01*
X136002001Y-64434760D01*
X135714762Y-64722000D01*
X131763920Y-64722000D01*
X131731999Y-64718856D01*
X131700078Y-64722000D01*
X130919238Y-64722000D01*
X130911200Y-64713962D01*
X130890843Y-64689157D01*
X130840277Y-64647659D01*
X130791868Y-64607930D01*
X130678947Y-64547573D01*
X130649311Y-64538583D01*
X130556421Y-64510405D01*
X130429000Y-64497855D01*
X130301578Y-64510405D01*
X130219000Y-64535455D01*
X130219000Y-63012867D01*
X130221055Y-62992000D01*
X130219000Y-62971133D01*
X130219000Y-62971126D01*
X130212850Y-62908686D01*
X130196909Y-62856134D01*
X130188548Y-62828572D01*
X130170095Y-62794050D01*
X130149084Y-62754740D01*
X130095974Y-62690026D01*
X130079762Y-62676721D01*
X129488451Y-62085411D01*
X129488451Y-61265750D01*
X129477975Y-61159387D01*
X129446950Y-61057111D01*
X129396568Y-60962853D01*
X129328765Y-60880235D01*
X129246147Y-60812432D01*
X129151889Y-60762050D01*
X129049613Y-60731025D01*
X128943250Y-60720549D01*
X128455750Y-60720549D01*
X128349387Y-60731025D01*
X128247111Y-60762050D01*
X128152853Y-60812432D01*
X128070235Y-60880235D01*
X128002432Y-60962853D01*
X127952050Y-61057111D01*
X127921025Y-61159387D01*
X127910549Y-61265750D01*
X127910549Y-62178250D01*
X127921025Y-62284613D01*
X127952050Y-62386889D01*
X128002432Y-62481147D01*
X128070235Y-62563765D01*
X128152853Y-62631568D01*
X128247111Y-62681950D01*
X128349387Y-62712975D01*
X128455750Y-62723451D01*
X128924411Y-62723451D01*
X128954629Y-62753670D01*
X128943250Y-62752549D01*
X128455750Y-62752549D01*
X128349387Y-62763025D01*
X128247111Y-62794050D01*
X128152853Y-62844432D01*
X128070235Y-62912235D01*
X128002432Y-62994853D01*
X127952050Y-63089111D01*
X127921025Y-63191387D01*
X127910549Y-63297750D01*
X127910549Y-63954412D01*
X127895347Y-63982853D01*
X127875453Y-64020073D01*
X127851150Y-64100186D01*
X127842945Y-64183500D01*
X127845001Y-64204376D01*
X127845000Y-64828549D01*
X127564000Y-64828549D01*
X127505190Y-64834341D01*
X127448640Y-64851496D01*
X127396523Y-64879353D01*
X127350842Y-64916842D01*
X127313353Y-64962523D01*
X127285496Y-65014640D01*
X127268341Y-65071190D01*
X127262549Y-65130000D01*
X127262549Y-65782570D01*
X127259595Y-65752578D01*
X127245451Y-65705952D01*
X127245451Y-65130000D01*
X127239659Y-65071190D01*
X127222504Y-65014640D01*
X127194647Y-64962523D01*
X127157158Y-64916842D01*
X127111477Y-64879353D01*
X127059360Y-64851496D01*
X127002810Y-64834341D01*
X126944000Y-64828549D01*
X126643590Y-64828549D01*
X126569371Y-64754330D01*
X126580750Y-64755451D01*
X127068250Y-64755451D01*
X127174613Y-64744975D01*
X127276889Y-64713950D01*
X127371147Y-64663568D01*
X127453765Y-64595765D01*
X127521568Y-64513147D01*
X127571950Y-64418889D01*
X127602975Y-64316613D01*
X127613451Y-64210250D01*
X127613451Y-63297750D01*
X127602975Y-63191387D01*
X127571950Y-63089111D01*
X127521568Y-62994853D01*
X127453765Y-62912235D01*
X127371147Y-62844432D01*
X127276889Y-62794050D01*
X127174613Y-62763025D01*
X127068250Y-62752549D01*
X126580750Y-62752549D01*
X126474387Y-62763025D01*
X126372111Y-62794050D01*
X126321691Y-62821000D01*
X125956051Y-62821000D01*
X125946853Y-62790678D01*
X125898781Y-62700742D01*
X125834088Y-62621912D01*
X125755258Y-62557219D01*
X125665322Y-62509147D01*
X125582422Y-62484000D01*
X125665322Y-62458853D01*
X125755258Y-62410781D01*
X125834088Y-62346088D01*
X125898781Y-62267258D01*
X125946853Y-62177322D01*
X125956051Y-62147000D01*
X126035549Y-62147000D01*
X126035549Y-62178250D01*
X126046025Y-62284613D01*
X126077050Y-62386889D01*
X126127432Y-62481147D01*
X126195235Y-62563765D01*
X126277853Y-62631568D01*
X126372111Y-62681950D01*
X126474387Y-62712975D01*
X126580750Y-62723451D01*
X127068250Y-62723451D01*
X127174613Y-62712975D01*
X127276889Y-62681950D01*
X127371147Y-62631568D01*
X127453765Y-62563765D01*
X127521568Y-62481147D01*
X127571950Y-62386889D01*
X127602975Y-62284613D01*
X127613451Y-62178250D01*
X127613451Y-61265750D01*
X127602975Y-61159387D01*
X127571950Y-61057111D01*
X127521568Y-60962853D01*
X127453765Y-60880235D01*
X127371147Y-60812432D01*
X127276889Y-60762050D01*
X127174613Y-60731025D01*
X127068250Y-60720549D01*
X126580750Y-60720549D01*
X126474387Y-60731025D01*
X126372111Y-60762050D01*
X126277853Y-60812432D01*
X126195235Y-60880235D01*
X126127432Y-60962853D01*
X126077050Y-61057111D01*
X126046025Y-61159387D01*
X126035549Y-61265750D01*
X126035549Y-61297000D01*
X125956051Y-61297000D01*
X125946853Y-61266678D01*
X125898781Y-61176742D01*
X125834088Y-61097912D01*
X125755258Y-61033219D01*
X125665322Y-60985147D01*
X125567736Y-60955545D01*
X125466250Y-60945549D01*
X125028750Y-60945549D01*
X124927264Y-60955545D01*
X124829678Y-60985147D01*
X124739742Y-61033219D01*
X124660912Y-61097912D01*
X124596219Y-61176742D01*
X124548147Y-61266678D01*
X124518545Y-61364264D01*
X124508549Y-61465750D01*
X124508549Y-61978250D01*
X124518545Y-62079736D01*
X124548147Y-62177322D01*
X124596219Y-62267258D01*
X124660912Y-62346088D01*
X124739742Y-62410781D01*
X124829678Y-62458853D01*
X124912578Y-62484000D01*
X124829678Y-62509147D01*
X124739742Y-62557219D01*
X124660912Y-62621912D01*
X124596219Y-62700742D01*
X124548147Y-62790678D01*
X124518545Y-62888264D01*
X124508549Y-62989750D01*
X124508549Y-63502250D01*
X124518545Y-63603736D01*
X124540215Y-63675175D01*
X124407491Y-63542451D01*
X124411451Y-63502250D01*
X124411451Y-62989750D01*
X124401455Y-62888264D01*
X124371853Y-62790678D01*
X124323781Y-62700742D01*
X124259088Y-62621912D01*
X124180258Y-62557219D01*
X124090322Y-62509147D01*
X124007422Y-62484000D01*
X124090322Y-62458853D01*
X124180258Y-62410781D01*
X124259088Y-62346088D01*
X124323781Y-62267258D01*
X124371853Y-62177322D01*
X124401455Y-62079736D01*
X124411451Y-61978250D01*
X124411451Y-61465750D01*
X124401455Y-61364264D01*
X124371853Y-61266678D01*
X124323781Y-61176742D01*
X124259088Y-61097912D01*
X124180258Y-61033219D01*
X124090322Y-60985147D01*
X123992736Y-60955545D01*
X123891250Y-60945549D01*
X123453750Y-60945549D01*
X123352264Y-60955545D01*
X123254678Y-60985147D01*
X123164742Y-61033219D01*
X123085912Y-61097912D01*
X123021219Y-61176742D01*
X122973147Y-61266678D01*
X122943545Y-61364264D01*
X122933549Y-61465750D01*
X122933549Y-61978250D01*
X122935000Y-61992983D01*
X122935001Y-62975010D01*
X122933549Y-62989750D01*
X122933549Y-63239858D01*
X122932944Y-63246000D01*
X122933549Y-63252142D01*
X122933549Y-63502250D01*
X122943545Y-63603736D01*
X122973147Y-63701322D01*
X123021219Y-63791258D01*
X123085912Y-63870088D01*
X123164742Y-63934781D01*
X123254678Y-63982853D01*
X123352264Y-64012455D01*
X123453750Y-64022451D01*
X123685411Y-64022451D01*
X124210719Y-64547760D01*
X124224026Y-64563974D01*
X124288740Y-64617084D01*
X124362573Y-64656548D01*
X124418383Y-64673478D01*
X124442685Y-64680850D01*
X124450327Y-64681603D01*
X124505126Y-64687000D01*
X124505133Y-64687000D01*
X124526000Y-64689055D01*
X124546867Y-64687000D01*
X125299960Y-64687000D01*
X125992549Y-65379590D01*
X125992549Y-65705953D01*
X125978405Y-65752579D01*
X125969000Y-65848069D01*
X125969000Y-66643079D01*
X125965856Y-66675000D01*
X125969000Y-66706921D01*
X125969000Y-66706932D01*
X125978405Y-66802422D01*
X125988916Y-66837070D01*
X126015573Y-66924947D01*
X126075930Y-67037868D01*
X126136802Y-67112040D01*
X126136805Y-67112043D01*
X126157158Y-67136843D01*
X126181958Y-67157196D01*
X126422549Y-67397787D01*
X126422549Y-68331000D01*
X125640451Y-68331000D01*
X125640451Y-68231000D01*
X125634659Y-68172190D01*
X125617504Y-68115640D01*
X125589647Y-68063523D01*
X125552158Y-68017842D01*
X125506477Y-67980353D01*
X125454360Y-67952496D01*
X125397810Y-67935341D01*
X125364000Y-67932011D01*
X125364000Y-67087924D01*
X125367144Y-67056000D01*
X125364000Y-67024076D01*
X125364000Y-67024068D01*
X125354595Y-66928578D01*
X125317427Y-66806052D01*
X125257070Y-66693132D01*
X125175843Y-66594157D01*
X125151039Y-66573801D01*
X124434200Y-65856962D01*
X124413843Y-65832157D01*
X124314868Y-65750930D01*
X124201948Y-65690573D01*
X124079422Y-65653405D01*
X123983932Y-65644000D01*
X123983921Y-65644000D01*
X123952000Y-65640856D01*
X123920079Y-65644000D01*
X122614776Y-65644000D01*
X122559263Y-65560918D01*
X122399082Y-65400737D01*
X122210729Y-65274884D01*
X122001443Y-65188194D01*
X121779265Y-65144000D01*
X121552735Y-65144000D01*
X121330557Y-65188194D01*
X121121271Y-65274884D01*
X120932918Y-65400737D01*
X120772737Y-65560918D01*
X120646884Y-65749271D01*
X120560194Y-65958557D01*
X120516000Y-66180735D01*
X120516000Y-66407265D01*
X120560194Y-66629443D01*
X120646884Y-66838729D01*
X120772737Y-67027082D01*
X120932918Y-67187263D01*
X121121271Y-67313116D01*
X121330557Y-67399806D01*
X121552735Y-67444000D01*
X121779265Y-67444000D01*
X122001443Y-67399806D01*
X122210729Y-67313116D01*
X122399082Y-67187263D01*
X122559263Y-67027082D01*
X122614776Y-66944000D01*
X123682762Y-66944000D01*
X124064000Y-67325238D01*
X124064000Y-67932011D01*
X124030190Y-67935341D01*
X123973640Y-67952496D01*
X123921523Y-67980353D01*
X123875842Y-68017842D01*
X123838353Y-68063523D01*
X123810496Y-68115640D01*
X123793341Y-68172190D01*
X123787549Y-68231000D01*
X123787549Y-69731000D01*
X123793341Y-69789810D01*
X123810496Y-69846360D01*
X123838353Y-69898477D01*
X123875842Y-69944158D01*
X123921523Y-69981647D01*
X123973640Y-70009504D01*
X124030190Y-70026659D01*
X124089000Y-70032451D01*
X125339000Y-70032451D01*
X125397810Y-70026659D01*
X125454360Y-70009504D01*
X125506477Y-69981647D01*
X125552158Y-69944158D01*
X125589647Y-69898477D01*
X125617504Y-69846360D01*
X125634659Y-69789810D01*
X125640451Y-69731000D01*
X125640451Y-69631000D01*
X126422549Y-69631000D01*
X126422549Y-69930000D01*
X126428341Y-69988810D01*
X126445496Y-70045360D01*
X126473353Y-70097477D01*
X126510842Y-70143158D01*
X126556523Y-70180647D01*
X126608640Y-70208504D01*
X126665190Y-70225659D01*
X126724000Y-70231451D01*
X126846549Y-70231451D01*
X126773000Y-70305000D01*
X126773000Y-71126000D01*
X127169000Y-71126000D01*
X127244000Y-71051000D01*
X127245452Y-70530000D01*
X127239660Y-70471190D01*
X127222505Y-70414639D01*
X127194648Y-70362522D01*
X127157159Y-70316841D01*
X127111478Y-70279352D01*
X127059361Y-70251495D01*
X127002810Y-70234340D01*
X126973476Y-70231451D01*
X127534534Y-70231451D01*
X127505190Y-70234341D01*
X127448640Y-70251496D01*
X127396523Y-70279353D01*
X127350842Y-70316842D01*
X127313353Y-70362523D01*
X127285496Y-70414640D01*
X127268341Y-70471190D01*
X127262549Y-70530000D01*
X127262549Y-72030000D01*
X127268341Y-72088810D01*
X127285496Y-72145360D01*
X127313353Y-72197477D01*
X127350842Y-72243158D01*
X127396523Y-72280647D01*
X127448640Y-72308504D01*
X127464001Y-72313164D01*
X127464001Y-73088123D01*
X127461945Y-73109000D01*
X127470150Y-73192314D01*
X127492248Y-73265158D01*
X127494453Y-73272427D01*
X127533917Y-73346260D01*
X127559549Y-73377492D01*
X127559549Y-73862250D01*
X127570025Y-73968613D01*
X127587433Y-74026000D01*
X127269451Y-74026000D01*
X127269451Y-73035000D01*
X127263659Y-72976190D01*
X127246504Y-72919640D01*
X127218647Y-72867523D01*
X127181158Y-72821842D01*
X127135477Y-72784353D01*
X127083360Y-72756496D01*
X127026810Y-72739341D01*
X126968000Y-72733549D01*
X125468000Y-72733549D01*
X125409190Y-72739341D01*
X125352640Y-72756496D01*
X125300523Y-72784353D01*
X125254842Y-72821842D01*
X125217353Y-72867523D01*
X125189496Y-72919640D01*
X125172341Y-72976190D01*
X125166549Y-73035000D01*
X125166549Y-74285000D01*
X125172341Y-74343810D01*
X125189496Y-74400360D01*
X125217353Y-74452477D01*
X125254842Y-74498158D01*
X125300523Y-74535647D01*
X125352640Y-74563504D01*
X125409190Y-74580659D01*
X125468000Y-74586451D01*
X125991213Y-74586451D01*
X126517804Y-75113043D01*
X126538157Y-75137843D01*
X126562957Y-75158196D01*
X126562959Y-75158198D01*
X126601709Y-75190000D01*
X120009000Y-75190000D01*
X120009000Y-74285000D01*
X122666548Y-74285000D01*
X122672340Y-74343810D01*
X122689495Y-74400361D01*
X122717352Y-74452478D01*
X122754841Y-74498159D01*
X122800522Y-74535648D01*
X122852639Y-74563505D01*
X122909190Y-74580660D01*
X122968000Y-74586452D01*
X123489000Y-74585000D01*
X123564000Y-74510000D01*
X123564000Y-73814000D01*
X123872000Y-73814000D01*
X123872000Y-74510000D01*
X123947000Y-74585000D01*
X124468000Y-74586452D01*
X124526810Y-74580660D01*
X124583361Y-74563505D01*
X124635478Y-74535648D01*
X124681159Y-74498159D01*
X124718648Y-74452478D01*
X124746505Y-74400361D01*
X124763660Y-74343810D01*
X124769452Y-74285000D01*
X124768000Y-73889000D01*
X124693000Y-73814000D01*
X123872000Y-73814000D01*
X123564000Y-73814000D01*
X122743000Y-73814000D01*
X122668000Y-73889000D01*
X122666548Y-74285000D01*
X120009000Y-74285000D01*
X120009000Y-73035000D01*
X122666548Y-73035000D01*
X122668000Y-73431000D01*
X122743000Y-73506000D01*
X123564000Y-73506000D01*
X123564000Y-72810000D01*
X123872000Y-72810000D01*
X123872000Y-73506000D01*
X124693000Y-73506000D01*
X124768000Y-73431000D01*
X124769452Y-73035000D01*
X124763660Y-72976190D01*
X124746505Y-72919639D01*
X124718648Y-72867522D01*
X124681159Y-72821841D01*
X124635478Y-72784352D01*
X124583361Y-72756495D01*
X124526810Y-72739340D01*
X124468000Y-72733548D01*
X123947000Y-72735000D01*
X123872000Y-72810000D01*
X123564000Y-72810000D01*
X123489000Y-72735000D01*
X122968000Y-72733548D01*
X122909190Y-72739340D01*
X122852639Y-72756495D01*
X122800522Y-72784352D01*
X122754841Y-72821841D01*
X122717352Y-72867522D01*
X122689495Y-72919639D01*
X122672340Y-72976190D01*
X122666548Y-73035000D01*
X120009000Y-73035000D01*
X120009000Y-72231000D01*
X123787548Y-72231000D01*
X123793340Y-72289810D01*
X123810495Y-72346361D01*
X123838352Y-72398478D01*
X123875841Y-72444159D01*
X123921522Y-72481648D01*
X123973639Y-72509505D01*
X124030190Y-72526660D01*
X124089000Y-72532452D01*
X124485000Y-72531000D01*
X124560000Y-72456000D01*
X124560000Y-71635000D01*
X124868000Y-71635000D01*
X124868000Y-72456000D01*
X124943000Y-72531000D01*
X125339000Y-72532452D01*
X125397810Y-72526660D01*
X125454361Y-72509505D01*
X125506478Y-72481648D01*
X125552159Y-72444159D01*
X125589648Y-72398478D01*
X125617505Y-72346361D01*
X125634660Y-72289810D01*
X125640452Y-72231000D01*
X125639892Y-72030000D01*
X125992548Y-72030000D01*
X125998340Y-72088810D01*
X126015495Y-72145361D01*
X126043352Y-72197478D01*
X126080841Y-72243159D01*
X126126522Y-72280648D01*
X126178639Y-72308505D01*
X126235190Y-72325660D01*
X126294000Y-72331452D01*
X126390000Y-72330000D01*
X126465000Y-72255000D01*
X126465000Y-71434000D01*
X126773000Y-71434000D01*
X126773000Y-72255000D01*
X126848000Y-72330000D01*
X126944000Y-72331452D01*
X127002810Y-72325660D01*
X127059361Y-72308505D01*
X127111478Y-72280648D01*
X127157159Y-72243159D01*
X127194648Y-72197478D01*
X127222505Y-72145361D01*
X127239660Y-72088810D01*
X127245452Y-72030000D01*
X127244000Y-71509000D01*
X127169000Y-71434000D01*
X126773000Y-71434000D01*
X126465000Y-71434000D01*
X126069000Y-71434000D01*
X125994000Y-71509000D01*
X125992548Y-72030000D01*
X125639892Y-72030000D01*
X125639000Y-71710000D01*
X125564000Y-71635000D01*
X124868000Y-71635000D01*
X124560000Y-71635000D01*
X123864000Y-71635000D01*
X123789000Y-71710000D01*
X123787548Y-72231000D01*
X120009000Y-72231000D01*
X120009000Y-70731000D01*
X123787548Y-70731000D01*
X123789000Y-71252000D01*
X123864000Y-71327000D01*
X124560000Y-71327000D01*
X124560000Y-70506000D01*
X124868000Y-70506000D01*
X124868000Y-71327000D01*
X125564000Y-71327000D01*
X125639000Y-71252000D01*
X125640452Y-70731000D01*
X125634660Y-70672190D01*
X125617505Y-70615639D01*
X125589648Y-70563522D01*
X125562138Y-70530000D01*
X125992548Y-70530000D01*
X125994000Y-71051000D01*
X126069000Y-71126000D01*
X126465000Y-71126000D01*
X126465000Y-70305000D01*
X126390000Y-70230000D01*
X126294000Y-70228548D01*
X126235190Y-70234340D01*
X126178639Y-70251495D01*
X126126522Y-70279352D01*
X126080841Y-70316841D01*
X126043352Y-70362522D01*
X126015495Y-70414639D01*
X125998340Y-70471190D01*
X125992548Y-70530000D01*
X125562138Y-70530000D01*
X125552159Y-70517841D01*
X125506478Y-70480352D01*
X125454361Y-70452495D01*
X125397810Y-70435340D01*
X125339000Y-70429548D01*
X124943000Y-70431000D01*
X124868000Y-70506000D01*
X124560000Y-70506000D01*
X124485000Y-70431000D01*
X124089000Y-70429548D01*
X124030190Y-70435340D01*
X123973639Y-70452495D01*
X123921522Y-70480352D01*
X123875841Y-70517841D01*
X123838352Y-70563522D01*
X123810495Y-70615639D01*
X123793340Y-70672190D01*
X123787548Y-70731000D01*
X120009000Y-70731000D01*
X120009000Y-69684000D01*
X120514548Y-69684000D01*
X120520340Y-69742810D01*
X120537495Y-69799361D01*
X120565352Y-69851478D01*
X120602841Y-69897159D01*
X120648522Y-69934648D01*
X120700639Y-69962505D01*
X120757190Y-69979660D01*
X120816000Y-69985452D01*
X121437000Y-69984000D01*
X121512000Y-69909000D01*
X121512000Y-68988000D01*
X121820000Y-68988000D01*
X121820000Y-69909000D01*
X121895000Y-69984000D01*
X122516000Y-69985452D01*
X122574810Y-69979660D01*
X122631361Y-69962505D01*
X122683478Y-69934648D01*
X122729159Y-69897159D01*
X122766648Y-69851478D01*
X122794505Y-69799361D01*
X122811660Y-69742810D01*
X122817452Y-69684000D01*
X122816000Y-69063000D01*
X122741000Y-68988000D01*
X121820000Y-68988000D01*
X121512000Y-68988000D01*
X120591000Y-68988000D01*
X120516000Y-69063000D01*
X120514548Y-69684000D01*
X120009000Y-69684000D01*
X120009000Y-67984000D01*
X120514548Y-67984000D01*
X120516000Y-68605000D01*
X120591000Y-68680000D01*
X121512000Y-68680000D01*
X121512000Y-67759000D01*
X121820000Y-67759000D01*
X121820000Y-68680000D01*
X122741000Y-68680000D01*
X122816000Y-68605000D01*
X122817452Y-67984000D01*
X122811660Y-67925190D01*
X122794505Y-67868639D01*
X122766648Y-67816522D01*
X122729159Y-67770841D01*
X122683478Y-67733352D01*
X122631361Y-67705495D01*
X122574810Y-67688340D01*
X122516000Y-67682548D01*
X121895000Y-67684000D01*
X121820000Y-67759000D01*
X121512000Y-67759000D01*
X121437000Y-67684000D01*
X120816000Y-67682548D01*
X120757190Y-67688340D01*
X120700639Y-67705495D01*
X120648522Y-67733352D01*
X120602841Y-67770841D01*
X120565352Y-67816522D01*
X120537495Y-67868639D01*
X120520340Y-67925190D01*
X120514548Y-67984000D01*
X120009000Y-67984000D01*
X120009000Y-60700000D01*
X160661000Y-60700000D01*
X160661001Y-75190000D01*
G37*
X160661001Y-75190000D02*
X131970290Y-75190000D01*
X132033843Y-75137843D01*
X132054200Y-75113038D01*
X132315238Y-74852000D01*
X145842548Y-74852000D01*
X145848340Y-74910810D01*
X145865495Y-74967361D01*
X145893352Y-75019478D01*
X145930841Y-75065159D01*
X145976522Y-75102648D01*
X146028639Y-75130505D01*
X146085190Y-75147660D01*
X146144000Y-75153452D01*
X146477500Y-75152000D01*
X146552500Y-75077000D01*
X146552500Y-73306000D01*
X146860500Y-73306000D01*
X146860500Y-75077000D01*
X146935500Y-75152000D01*
X147269000Y-75153452D01*
X147327810Y-75147660D01*
X147384361Y-75130505D01*
X147436478Y-75102648D01*
X147482159Y-75065159D01*
X147519648Y-75019478D01*
X147547505Y-74967361D01*
X147564660Y-74910810D01*
X147570452Y-74852000D01*
X147569000Y-73381000D01*
X147494000Y-73306000D01*
X146860500Y-73306000D01*
X146552500Y-73306000D01*
X145919000Y-73306000D01*
X145844000Y-73381000D01*
X145842548Y-74852000D01*
X132315238Y-74852000D01*
X132863788Y-74303451D01*
X133946000Y-74303451D01*
X134004810Y-74297659D01*
X134061360Y-74280504D01*
X134113477Y-74252647D01*
X134159158Y-74215158D01*
X134196647Y-74169477D01*
X134224504Y-74117360D01*
X134241659Y-74060810D01*
X134247451Y-74002000D01*
X134247451Y-72601589D01*
X135921763Y-70927278D01*
X135937974Y-70913974D01*
X135991084Y-70849260D01*
X136012159Y-70809831D01*
X136071613Y-70803975D01*
X136173889Y-70772950D01*
X136268147Y-70722568D01*
X136350765Y-70654765D01*
X136418568Y-70572147D01*
X136468950Y-70477889D01*
X136499975Y-70375613D01*
X136510451Y-70269250D01*
X136510451Y-69781750D01*
X136499975Y-69675387D01*
X136468950Y-69573111D01*
X136418568Y-69478853D01*
X136350765Y-69396235D01*
X136268147Y-69328432D01*
X136173889Y-69278050D01*
X136071613Y-69247025D01*
X135965250Y-69236549D01*
X135052750Y-69236549D01*
X134946387Y-69247025D01*
X134844111Y-69278050D01*
X134749853Y-69328432D01*
X134667235Y-69396235D01*
X134599432Y-69478853D01*
X134549050Y-69573111D01*
X134530451Y-69634424D01*
X134530451Y-69334000D01*
X134524659Y-69275190D01*
X134507504Y-69218640D01*
X134479647Y-69166523D01*
X134442158Y-69120842D01*
X134396477Y-69083353D01*
X134344360Y-69055496D01*
X134287810Y-69038341D01*
X134229000Y-69032549D01*
X133153589Y-69032549D01*
X133078999Y-68957959D01*
X133078999Y-68635451D01*
X134054410Y-68635451D01*
X134284720Y-68865761D01*
X134298026Y-68881974D01*
X134314238Y-68895279D01*
X134314239Y-68895280D01*
X134321855Y-68901530D01*
X134362740Y-68935084D01*
X134402510Y-68956341D01*
X134436572Y-68974548D01*
X134515812Y-68998585D01*
X134516686Y-68998850D01*
X134579126Y-69005000D01*
X134579133Y-69005000D01*
X134600000Y-69007055D01*
X134620867Y-69005000D01*
X135615126Y-69005000D01*
X135636000Y-69007056D01*
X135656874Y-69005000D01*
X136809351Y-69005000D01*
X136800296Y-69021940D01*
X136783141Y-69078490D01*
X136777349Y-69137300D01*
X136777349Y-70697300D01*
X136783141Y-70756110D01*
X136800296Y-70812660D01*
X136828153Y-70864777D01*
X136865642Y-70910458D01*
X136911323Y-70947947D01*
X136963440Y-70975804D01*
X137019990Y-70992959D01*
X137078800Y-70998751D01*
X137144209Y-70998751D01*
X137453515Y-71308057D01*
X137466825Y-71324275D01*
X137531539Y-71377385D01*
X137603497Y-71415847D01*
X137605372Y-71416849D01*
X137685485Y-71441151D01*
X137768799Y-71449357D01*
X137789673Y-71447301D01*
X138732263Y-71447301D01*
X138935511Y-71650549D01*
X137803000Y-71650549D01*
X137744190Y-71656341D01*
X137687640Y-71673496D01*
X137635523Y-71701353D01*
X137589842Y-71738842D01*
X137552353Y-71784523D01*
X137524496Y-71836640D01*
X137507341Y-71893190D01*
X137501549Y-71952000D01*
X137501549Y-72402000D01*
X137507341Y-72460810D01*
X137519836Y-72502000D01*
X136584776Y-72502000D01*
X136529263Y-72418918D01*
X136369082Y-72258737D01*
X136180729Y-72132884D01*
X135971443Y-72046194D01*
X135749265Y-72002000D01*
X135522735Y-72002000D01*
X135300557Y-72046194D01*
X135091271Y-72132884D01*
X134902918Y-72258737D01*
X134742737Y-72418918D01*
X134616884Y-72607271D01*
X134530194Y-72816557D01*
X134486000Y-73038735D01*
X134486000Y-73265265D01*
X134530194Y-73487443D01*
X134616884Y-73696729D01*
X134742737Y-73885082D01*
X134902918Y-74045263D01*
X135091271Y-74171116D01*
X135300557Y-74257806D01*
X135522735Y-74302000D01*
X135749265Y-74302000D01*
X135971443Y-74257806D01*
X136180729Y-74171116D01*
X136369082Y-74045263D01*
X136529263Y-73885082D01*
X136584776Y-73802000D01*
X137519836Y-73802000D01*
X137507341Y-73843190D01*
X137501549Y-73902000D01*
X137501549Y-74352000D01*
X137507341Y-74410810D01*
X137524496Y-74467360D01*
X137552353Y-74519477D01*
X137589842Y-74565158D01*
X137635523Y-74602647D01*
X137687640Y-74630504D01*
X137744190Y-74647659D01*
X137803000Y-74653451D01*
X139253000Y-74653451D01*
X139311810Y-74647659D01*
X139368360Y-74630504D01*
X139420477Y-74602647D01*
X139466158Y-74565158D01*
X139480745Y-74547384D01*
X139496316Y-74545850D01*
X139576429Y-74521548D01*
X139650262Y-74482084D01*
X139714976Y-74428974D01*
X139728286Y-74412756D01*
X139873368Y-74267674D01*
X139889584Y-74254366D01*
X139942694Y-74189652D01*
X139982158Y-74115819D01*
X140006460Y-74035706D01*
X140012610Y-73973266D01*
X140012610Y-73973260D01*
X140014665Y-73952393D01*
X140012610Y-73931526D01*
X140012610Y-71722474D01*
X140014665Y-71701607D01*
X140012610Y-71680740D01*
X140012610Y-71680734D01*
X140006460Y-71618294D01*
X140006112Y-71617145D01*
X139999088Y-71593991D01*
X139982158Y-71538181D01*
X139942694Y-71464348D01*
X139903270Y-71416310D01*
X142899721Y-74412762D01*
X142913026Y-74428974D01*
X142977740Y-74482084D01*
X143051573Y-74521548D01*
X143107383Y-74538478D01*
X143131685Y-74545850D01*
X143140098Y-74546679D01*
X143194126Y-74552000D01*
X143194132Y-74552000D01*
X143214999Y-74554055D01*
X143235866Y-74552000D01*
X143479044Y-74552000D01*
X143489842Y-74565158D01*
X143535523Y-74602647D01*
X143587640Y-74630504D01*
X143644190Y-74647659D01*
X143703000Y-74653451D01*
X145153000Y-74653451D01*
X145211810Y-74647659D01*
X145268360Y-74630504D01*
X145320477Y-74602647D01*
X145366158Y-74565158D01*
X145403647Y-74519477D01*
X145431504Y-74467360D01*
X145448659Y-74410810D01*
X145454451Y-74352000D01*
X145454451Y-73902000D01*
X145448659Y-73843190D01*
X145436164Y-73802002D01*
X145448660Y-73760810D01*
X145454452Y-73702000D01*
X145453000Y-73677000D01*
X145378000Y-73602000D01*
X145167733Y-73602000D01*
X145153000Y-73600549D01*
X143703000Y-73600549D01*
X143688267Y-73602000D01*
X143478000Y-73602000D01*
X143403000Y-73677000D01*
X143401548Y-73702000D01*
X143391041Y-73702000D01*
X142741041Y-73052000D01*
X143401548Y-73052000D01*
X143407340Y-73110810D01*
X143419835Y-73151999D01*
X143407340Y-73193190D01*
X143401548Y-73252000D01*
X143403000Y-73277000D01*
X143478000Y-73352000D01*
X143688257Y-73352000D01*
X143703000Y-73353452D01*
X144199000Y-73352000D01*
X144274000Y-73352000D01*
X144274000Y-72952000D01*
X144582000Y-72952000D01*
X144582000Y-73352000D01*
X144657000Y-73352000D01*
X145153000Y-73353452D01*
X145167743Y-73352000D01*
X145378000Y-73352000D01*
X145453000Y-73277000D01*
X145454452Y-73252000D01*
X145448660Y-73193190D01*
X145436165Y-73151999D01*
X145448660Y-73110810D01*
X145454452Y-73052000D01*
X145453000Y-73027000D01*
X145378000Y-72952000D01*
X145167743Y-72952000D01*
X145153000Y-72950548D01*
X144657000Y-72952000D01*
X144582000Y-72952000D01*
X144274000Y-72952000D01*
X144199000Y-72952000D01*
X143703000Y-72950548D01*
X143688257Y-72952000D01*
X143478000Y-72952000D01*
X143403000Y-73027000D01*
X143401548Y-73052000D01*
X142741041Y-73052000D01*
X142291041Y-72602000D01*
X143401548Y-72602000D01*
X143403000Y-72627000D01*
X143478000Y-72702000D01*
X143688267Y-72702000D01*
X143703000Y-72703451D01*
X145153000Y-72703451D01*
X145167733Y-72702000D01*
X145378000Y-72702000D01*
X145453000Y-72627000D01*
X145454452Y-72602000D01*
X145448660Y-72543190D01*
X145436164Y-72501998D01*
X145448659Y-72460810D01*
X145454451Y-72402000D01*
X145454451Y-71952000D01*
X145448659Y-71893190D01*
X145431504Y-71836640D01*
X145403647Y-71784523D01*
X145366158Y-71738842D01*
X145320477Y-71701353D01*
X145268360Y-71673496D01*
X145211810Y-71656341D01*
X145153000Y-71650549D01*
X143703000Y-71650549D01*
X143644190Y-71656341D01*
X143587640Y-71673496D01*
X143535523Y-71701353D01*
X143489842Y-71738842D01*
X143452353Y-71784523D01*
X143424496Y-71836640D01*
X143407341Y-71893190D01*
X143401549Y-71952000D01*
X143401549Y-72402000D01*
X143407341Y-72460810D01*
X143419836Y-72501998D01*
X143407340Y-72543190D01*
X143401548Y-72602000D01*
X142291041Y-72602000D01*
X141141041Y-71452000D01*
X145842548Y-71452000D01*
X145844000Y-72923000D01*
X145919000Y-72998000D01*
X146552500Y-72998000D01*
X146552500Y-71227000D01*
X146860500Y-71227000D01*
X146860500Y-72998000D01*
X147494000Y-72998000D01*
X147569000Y-72923000D01*
X147570452Y-71452000D01*
X147564660Y-71393190D01*
X147547505Y-71336639D01*
X147519648Y-71284522D01*
X147482159Y-71238841D01*
X147436478Y-71201352D01*
X147384361Y-71173495D01*
X147327810Y-71156340D01*
X147269000Y-71150548D01*
X146935500Y-71152000D01*
X146860500Y-71227000D01*
X146552500Y-71227000D01*
X146477500Y-71152000D01*
X146144000Y-71150548D01*
X146085190Y-71156340D01*
X146028639Y-71173495D01*
X145976522Y-71201352D01*
X145930841Y-71238841D01*
X145893352Y-71284522D01*
X145865495Y-71336639D01*
X145848340Y-71393190D01*
X145842548Y-71452000D01*
X141141041Y-71452000D01*
X140461041Y-70772000D01*
X142270548Y-70772000D01*
X142276340Y-70830810D01*
X142293495Y-70887361D01*
X142321352Y-70939478D01*
X142358841Y-70985159D01*
X142404522Y-71022648D01*
X142456639Y-71050505D01*
X142513190Y-71067660D01*
X142572000Y-71073452D01*
X144043000Y-71072000D01*
X144118000Y-70997000D01*
X144118000Y-70363500D01*
X144426000Y-70363500D01*
X144426000Y-70997000D01*
X144501000Y-71072000D01*
X145972000Y-71073452D01*
X146030810Y-71067660D01*
X146087361Y-71050505D01*
X146139478Y-71022648D01*
X146185159Y-70985159D01*
X146222648Y-70939478D01*
X146250505Y-70887361D01*
X146267660Y-70830810D01*
X146273452Y-70772000D01*
X146272000Y-70438500D01*
X146197000Y-70363500D01*
X144426000Y-70363500D01*
X144118000Y-70363500D01*
X142347000Y-70363500D01*
X142272000Y-70438500D01*
X142270548Y-70772000D01*
X140461041Y-70772000D01*
X139948041Y-70259000D01*
X140222548Y-70259000D01*
X140228340Y-70317810D01*
X140245495Y-70374361D01*
X140273352Y-70426478D01*
X140310841Y-70472159D01*
X140356522Y-70509648D01*
X140408639Y-70537505D01*
X140465190Y-70554660D01*
X140524000Y-70560452D01*
X140995000Y-70559000D01*
X141070000Y-70484000D01*
X141070000Y-69925500D01*
X141378000Y-69925500D01*
X141378000Y-70484000D01*
X141453000Y-70559000D01*
X141924000Y-70560452D01*
X141982810Y-70554660D01*
X142039361Y-70537505D01*
X142091478Y-70509648D01*
X142137159Y-70472159D01*
X142174648Y-70426478D01*
X142202505Y-70374361D01*
X142219660Y-70317810D01*
X142225452Y-70259000D01*
X142224000Y-70000500D01*
X142149000Y-69925500D01*
X141378000Y-69925500D01*
X141070000Y-69925500D01*
X140299000Y-69925500D01*
X140224000Y-70000500D01*
X140222548Y-70259000D01*
X139948041Y-70259000D01*
X139930251Y-70241211D01*
X139930251Y-69647000D01*
X142270548Y-69647000D01*
X142272000Y-69980500D01*
X142347000Y-70055500D01*
X144118000Y-70055500D01*
X144118000Y-69422000D01*
X144426000Y-69422000D01*
X144426000Y-70055500D01*
X146197000Y-70055500D01*
X146272000Y-69980500D01*
X146273452Y-69647000D01*
X146267660Y-69588190D01*
X146250505Y-69531639D01*
X146222648Y-69479522D01*
X146185159Y-69433841D01*
X146139478Y-69396352D01*
X146087361Y-69368495D01*
X146030810Y-69351340D01*
X145972000Y-69345548D01*
X144501000Y-69347000D01*
X144426000Y-69422000D01*
X144118000Y-69422000D01*
X144043000Y-69347000D01*
X142572000Y-69345548D01*
X142513190Y-69351340D01*
X142456639Y-69368495D01*
X142404522Y-69396352D01*
X142358841Y-69433841D01*
X142321352Y-69479522D01*
X142293495Y-69531639D01*
X142276340Y-69588190D01*
X142270548Y-69647000D01*
X139930251Y-69647000D01*
X139930251Y-69284000D01*
X140222548Y-69284000D01*
X140224000Y-69542500D01*
X140299000Y-69617500D01*
X141070000Y-69617500D01*
X141070000Y-69059000D01*
X141378000Y-69059000D01*
X141378000Y-69617500D01*
X142149000Y-69617500D01*
X142224000Y-69542500D01*
X142225452Y-69284000D01*
X142219660Y-69225190D01*
X142202505Y-69168639D01*
X142174648Y-69116522D01*
X142137159Y-69070841D01*
X142091478Y-69033352D01*
X142039361Y-69005495D01*
X141982810Y-68988340D01*
X141924000Y-68982548D01*
X141453000Y-68984000D01*
X141378000Y-69059000D01*
X141070000Y-69059000D01*
X140995000Y-68984000D01*
X140524000Y-68982548D01*
X140465190Y-68988340D01*
X140408639Y-69005495D01*
X140356522Y-69033352D01*
X140310841Y-69070841D01*
X140273352Y-69116522D01*
X140245495Y-69168639D01*
X140228340Y-69225190D01*
X140222548Y-69284000D01*
X139930251Y-69284000D01*
X139930251Y-69137300D01*
X139924459Y-69078490D01*
X139907304Y-69021940D01*
X139898249Y-69005000D01*
X140187797Y-69005000D01*
X140209342Y-69007054D01*
X140250190Y-69002900D01*
X140291314Y-68998850D01*
X140291964Y-68998653D01*
X140292631Y-68998585D01*
X140331870Y-68986548D01*
X140371427Y-68974548D01*
X140372022Y-68974230D01*
X140372667Y-68974032D01*
X140408700Y-68954625D01*
X140445260Y-68935084D01*
X140462001Y-68921344D01*
X140812650Y-68685451D01*
X141680250Y-68685451D01*
X141786613Y-68674975D01*
X141888889Y-68643950D01*
X141983147Y-68593568D01*
X142065765Y-68525765D01*
X142133568Y-68443147D01*
X142183950Y-68348889D01*
X142214975Y-68246613D01*
X142225451Y-68140250D01*
X142225451Y-67652750D01*
X142214975Y-67546387D01*
X142183950Y-67444111D01*
X142133568Y-67349853D01*
X142065765Y-67267235D01*
X141983147Y-67199432D01*
X141888889Y-67149050D01*
X141786613Y-67118025D01*
X141680250Y-67107549D01*
X140767750Y-67107549D01*
X140661387Y-67118025D01*
X140559111Y-67149050D01*
X140464853Y-67199432D01*
X140382235Y-67267235D01*
X140314432Y-67349853D01*
X140264050Y-67444111D01*
X140233025Y-67546387D01*
X140222549Y-67652750D01*
X140222549Y-68057992D01*
X140078350Y-68155000D01*
X139884673Y-68155000D01*
X139907304Y-68112660D01*
X139924459Y-68056110D01*
X139930251Y-67997300D01*
X139930251Y-66437300D01*
X139924459Y-66378490D01*
X139907304Y-66321940D01*
X139879447Y-66269823D01*
X139841958Y-66224142D01*
X139796277Y-66186653D01*
X139744160Y-66158796D01*
X139687610Y-66141641D01*
X139628800Y-66135849D01*
X138978800Y-66135849D01*
X138919990Y-66141641D01*
X138863440Y-66158796D01*
X138828800Y-66177311D01*
X138794160Y-66158796D01*
X138737610Y-66141641D01*
X138678800Y-66135849D01*
X138028800Y-66135849D01*
X137969990Y-66141641D01*
X137913440Y-66158796D01*
X137878800Y-66177311D01*
X137844160Y-66158796D01*
X137787610Y-66141641D01*
X137728800Y-66135849D01*
X137590795Y-66135849D01*
X137567227Y-66123252D01*
X137487114Y-66098950D01*
X137403800Y-66090744D01*
X137320487Y-66098950D01*
X137240374Y-66123252D01*
X137216806Y-66135849D01*
X137078800Y-66135849D01*
X137019990Y-66141641D01*
X136963440Y-66158796D01*
X136948462Y-66166802D01*
X136932759Y-66153915D01*
X136858926Y-66114451D01*
X136778813Y-66090149D01*
X136716373Y-66083999D01*
X136716366Y-66083999D01*
X136695499Y-66081944D01*
X136674632Y-66083999D01*
X132739866Y-66083999D01*
X132718999Y-66081944D01*
X132698132Y-66083999D01*
X132698125Y-66083999D01*
X132635685Y-66090149D01*
X132555572Y-66114451D01*
X132481739Y-66153915D01*
X132417025Y-66207025D01*
X132403715Y-66223243D01*
X132368243Y-66258715D01*
X132352025Y-66272025D01*
X132298915Y-66336740D01*
X132259451Y-66410573D01*
X132235149Y-66490686D01*
X132228999Y-66553126D01*
X132228999Y-66553132D01*
X132226944Y-66573999D01*
X132228999Y-66594866D01*
X132228999Y-67225758D01*
X131625001Y-66621761D01*
X131625001Y-66398237D01*
X132001239Y-66022000D01*
X135952079Y-66022000D01*
X135984000Y-66025144D01*
X136015921Y-66022000D01*
X136780078Y-66022000D01*
X136811999Y-66025144D01*
X136843920Y-66022000D01*
X137288076Y-66022000D01*
X137320000Y-66025144D01*
X137351924Y-66022000D01*
X142251973Y-66022000D01*
X142255905Y-66061922D01*
X142270549Y-66110197D01*
X142270549Y-66247001D01*
X142281145Y-66354584D01*
X142312526Y-66458032D01*
X142363485Y-66553370D01*
X142432065Y-66636935D01*
X142515630Y-66705515D01*
X142610968Y-66756474D01*
X142714416Y-66787855D01*
X142821999Y-66798451D01*
X145722001Y-66798451D01*
X145829584Y-66787855D01*
X145933032Y-66756474D01*
X146028370Y-66705515D01*
X146111935Y-66636935D01*
X146154967Y-66584500D01*
X147647579Y-66584500D01*
X147679500Y-66587644D01*
X147711421Y-66584500D01*
X147711432Y-66584500D01*
X147806922Y-66575095D01*
X147929448Y-66537927D01*
X148042368Y-66477570D01*
X148141343Y-66396343D01*
X148161700Y-66371538D01*
X149879788Y-64653451D01*
X151468000Y-64653451D01*
X151526810Y-64647659D01*
X151583360Y-64630504D01*
X151635477Y-64602647D01*
X151681158Y-64565158D01*
X151718647Y-64519477D01*
X151746504Y-64467360D01*
X151763659Y-64410810D01*
X151769451Y-64352000D01*
X151769451Y-64252000D01*
X152449764Y-64252000D01*
X155354313Y-67156549D01*
X154935000Y-67156549D01*
X154876190Y-67162341D01*
X154819640Y-67179496D01*
X154767523Y-67207353D01*
X154721842Y-67244842D01*
X154684353Y-67290523D01*
X154656496Y-67342640D01*
X154639341Y-67399190D01*
X154633549Y-67458000D01*
X154633549Y-68518000D01*
X154639341Y-68576810D01*
X154656496Y-68633360D01*
X154684353Y-68685477D01*
X154721842Y-68731158D01*
X154767523Y-68768647D01*
X154819640Y-68796504D01*
X154876190Y-68813659D01*
X154935000Y-68819451D01*
X155585000Y-68819451D01*
X155643810Y-68813659D01*
X155700360Y-68796504D01*
X155735000Y-68777989D01*
X155769640Y-68796504D01*
X155826190Y-68813659D01*
X155885000Y-68819451D01*
X156535000Y-68819451D01*
X156593810Y-68813659D01*
X156650360Y-68796504D01*
X156685000Y-68777989D01*
X156719640Y-68796504D01*
X156776190Y-68813659D01*
X156835000Y-68819451D01*
X157485000Y-68819451D01*
X157543810Y-68813659D01*
X157600360Y-68796504D01*
X157652477Y-68768647D01*
X157698158Y-68731158D01*
X157735647Y-68685477D01*
X157763504Y-68633360D01*
X157780659Y-68576810D01*
X157786451Y-68518000D01*
X157786451Y-67458000D01*
X157780659Y-67399190D01*
X157763504Y-67342640D01*
X157735647Y-67290523D01*
X157698158Y-67244842D01*
X157652477Y-67207353D01*
X157600360Y-67179496D01*
X157585000Y-67174836D01*
X157585000Y-66242467D01*
X157599889Y-66237950D01*
X157694147Y-66187568D01*
X157776765Y-66119765D01*
X157844568Y-66037147D01*
X157894950Y-65942889D01*
X157925975Y-65840613D01*
X157936451Y-65734250D01*
X157936451Y-65163642D01*
X158833001Y-66060192D01*
X158833000Y-67615549D01*
X158801750Y-67615549D01*
X158695387Y-67626025D01*
X158593111Y-67657050D01*
X158498853Y-67707432D01*
X158416235Y-67775235D01*
X158348432Y-67857853D01*
X158298050Y-67952111D01*
X158267025Y-68054387D01*
X158256549Y-68160750D01*
X158256549Y-68472410D01*
X157372411Y-69356549D01*
X156835000Y-69356549D01*
X156776190Y-69362341D01*
X156719640Y-69379496D01*
X156685001Y-69398011D01*
X156650361Y-69379495D01*
X156593810Y-69362340D01*
X156535000Y-69356548D01*
X156439000Y-69358000D01*
X156364000Y-69433000D01*
X156364000Y-70034000D01*
X156384000Y-70034000D01*
X156384000Y-70342000D01*
X156364000Y-70342000D01*
X156364000Y-70362000D01*
X156056000Y-70362000D01*
X156056000Y-70342000D01*
X156036000Y-70342000D01*
X156036000Y-70034000D01*
X156056000Y-70034000D01*
X156056000Y-69433000D01*
X155981000Y-69358000D01*
X155885000Y-69356548D01*
X155826190Y-69362340D01*
X155769639Y-69379495D01*
X155734999Y-69398011D01*
X155700360Y-69379496D01*
X155643810Y-69362341D01*
X155585000Y-69356549D01*
X155152118Y-69356549D01*
X155105932Y-69352000D01*
X155105921Y-69352000D01*
X155074000Y-69348856D01*
X155042079Y-69352000D01*
X154329921Y-69352000D01*
X154298000Y-69348856D01*
X154266079Y-69352000D01*
X151769451Y-69352000D01*
X151769451Y-69252000D01*
X151763659Y-69193190D01*
X151746504Y-69136640D01*
X151718647Y-69084523D01*
X151681158Y-69038842D01*
X151635477Y-69001353D01*
X151583360Y-68973496D01*
X151526810Y-68956341D01*
X151468000Y-68950549D01*
X149268000Y-68950549D01*
X149209190Y-68956341D01*
X149152640Y-68973496D01*
X149100523Y-69001353D01*
X149054842Y-69038842D01*
X149017353Y-69084523D01*
X148989496Y-69136640D01*
X148972341Y-69193190D01*
X148966549Y-69252000D01*
X148966549Y-70752000D01*
X148972341Y-70810810D01*
X148989496Y-70867360D01*
X149017353Y-70919477D01*
X149054842Y-70965158D01*
X149100523Y-71002647D01*
X149152640Y-71030504D01*
X149209190Y-71047659D01*
X149268000Y-71053451D01*
X151468000Y-71053451D01*
X151526810Y-71047659D01*
X151583360Y-71030504D01*
X151635477Y-71002647D01*
X151681158Y-70965158D01*
X151718647Y-70919477D01*
X151746504Y-70867360D01*
X151763659Y-70810810D01*
X151769451Y-70752000D01*
X151769451Y-70652000D01*
X154028762Y-70652000D01*
X154777810Y-71401049D01*
X154798158Y-71425843D01*
X154822952Y-71446191D01*
X154822959Y-71446198D01*
X154822964Y-71446202D01*
X155896549Y-72519788D01*
X155896549Y-74052000D01*
X155902341Y-74110810D01*
X155914238Y-74150027D01*
X155523068Y-74150027D01*
X154999451Y-73626410D01*
X154999451Y-72252000D01*
X154993659Y-72193190D01*
X154976504Y-72136640D01*
X154948647Y-72084523D01*
X154911158Y-72038842D01*
X154865477Y-72001353D01*
X154813360Y-71973496D01*
X154756810Y-71956341D01*
X154698000Y-71950549D01*
X152198000Y-71950549D01*
X152139190Y-71956341D01*
X152082640Y-71973496D01*
X152044280Y-71994000D01*
X151845451Y-71994000D01*
X151845451Y-71701999D01*
X151834855Y-71594416D01*
X151803474Y-71490968D01*
X151752515Y-71395630D01*
X151683935Y-71312065D01*
X151600370Y-71243485D01*
X151505032Y-71192526D01*
X151401584Y-71161145D01*
X151294001Y-71150549D01*
X150668999Y-71150549D01*
X150561416Y-71161145D01*
X150457968Y-71192526D01*
X150362630Y-71243485D01*
X150279065Y-71312065D01*
X150210485Y-71395630D01*
X150159526Y-71490968D01*
X150128145Y-71594416D01*
X150117549Y-71701999D01*
X150117549Y-74602001D01*
X150128145Y-74709584D01*
X150159526Y-74813032D01*
X150210485Y-74908370D01*
X150279065Y-74991935D01*
X150362630Y-75060515D01*
X150457968Y-75111474D01*
X150561416Y-75142855D01*
X150668999Y-75153451D01*
X151294001Y-75153451D01*
X151401584Y-75142855D01*
X151505032Y-75111474D01*
X151600370Y-75060515D01*
X151683935Y-74991935D01*
X151752515Y-74908370D01*
X151803474Y-74813032D01*
X151834855Y-74709584D01*
X151845451Y-74602001D01*
X151845451Y-74310000D01*
X152044280Y-74310000D01*
X152082640Y-74330504D01*
X152139190Y-74347659D01*
X152198000Y-74353451D01*
X154524410Y-74353451D01*
X155031748Y-74860789D01*
X155045053Y-74877001D01*
X155109767Y-74930111D01*
X155183600Y-74969575D01*
X155239410Y-74986505D01*
X155263712Y-74993877D01*
X155272125Y-74994706D01*
X155326153Y-75000027D01*
X155326159Y-75000027D01*
X155347026Y-75002082D01*
X155367893Y-75000027D01*
X158739108Y-75000027D01*
X158759975Y-75002082D01*
X158780842Y-75000027D01*
X158780849Y-75000027D01*
X158843289Y-74993877D01*
X158923402Y-74969575D01*
X158997235Y-74930111D01*
X159061949Y-74877001D01*
X159075258Y-74860784D01*
X159543763Y-74392280D01*
X159559974Y-74378976D01*
X159613084Y-74314262D01*
X159639330Y-74265158D01*
X159652548Y-74240430D01*
X159676850Y-74160316D01*
X159678462Y-74143947D01*
X159683000Y-74097876D01*
X159683000Y-74097869D01*
X159685055Y-74077002D01*
X159683000Y-74056135D01*
X159683000Y-71068451D01*
X159714250Y-71068451D01*
X159820613Y-71057975D01*
X159922889Y-71026950D01*
X160017147Y-70976568D01*
X160099765Y-70908765D01*
X160167568Y-70826147D01*
X160217950Y-70731889D01*
X160248975Y-70629613D01*
X160259451Y-70523250D01*
X160259451Y-70035750D01*
X160248975Y-69929387D01*
X160217950Y-69827111D01*
X160167568Y-69732853D01*
X160099765Y-69650235D01*
X160017147Y-69582432D01*
X159922889Y-69532050D01*
X159820613Y-69501025D01*
X159714250Y-69490549D01*
X158801750Y-69490549D01*
X158695387Y-69501025D01*
X158593111Y-69532050D01*
X158498853Y-69582432D01*
X158416235Y-69650235D01*
X158348432Y-69732853D01*
X158298050Y-69827111D01*
X158267025Y-69929387D01*
X158256549Y-70035750D01*
X158256549Y-70523250D01*
X158267025Y-70629613D01*
X158298050Y-70731889D01*
X158348432Y-70826147D01*
X158416235Y-70908765D01*
X158498853Y-70976568D01*
X158593111Y-71026950D01*
X158695387Y-71057975D01*
X158801750Y-71068451D01*
X158833001Y-71068451D01*
X158833001Y-71983994D01*
X158813360Y-71973496D01*
X158756810Y-71956341D01*
X158698000Y-71950549D01*
X157165788Y-71950549D01*
X156233238Y-71018000D01*
X156364002Y-71018000D01*
X156364002Y-70943002D01*
X156439000Y-71018000D01*
X156535000Y-71019452D01*
X156593810Y-71013660D01*
X156650361Y-70996505D01*
X156685001Y-70977989D01*
X156719640Y-70996504D01*
X156776190Y-71013659D01*
X156835000Y-71019451D01*
X157485000Y-71019451D01*
X157543810Y-71013659D01*
X157600360Y-70996504D01*
X157652477Y-70968647D01*
X157698158Y-70931158D01*
X157735647Y-70885477D01*
X157763504Y-70833360D01*
X157780659Y-70776810D01*
X157786451Y-70718000D01*
X157786451Y-70144589D01*
X158743342Y-69187698D01*
X158801750Y-69193451D01*
X159714250Y-69193451D01*
X159820613Y-69182975D01*
X159922889Y-69151950D01*
X160017147Y-69101568D01*
X160099765Y-69033765D01*
X160167568Y-68951147D01*
X160217950Y-68856889D01*
X160248975Y-68754613D01*
X160259451Y-68648250D01*
X160259451Y-68160750D01*
X160248975Y-68054387D01*
X160217950Y-67952111D01*
X160167568Y-67857853D01*
X160099765Y-67775235D01*
X160017147Y-67707432D01*
X159922889Y-67657050D01*
X159820613Y-67626025D01*
X159714250Y-67615549D01*
X159683000Y-67615549D01*
X159683000Y-65905017D01*
X159685055Y-65884150D01*
X159683000Y-65863283D01*
X159683000Y-65863276D01*
X159676850Y-65800836D01*
X159662967Y-65755070D01*
X159652548Y-65720722D01*
X159638801Y-65695005D01*
X159613084Y-65646890D01*
X159559974Y-65582176D01*
X159543762Y-65568871D01*
X157891756Y-63916865D01*
X157894950Y-63910889D01*
X157925975Y-63808613D01*
X157936451Y-63702250D01*
X157936451Y-62789750D01*
X157925975Y-62683387D01*
X157894950Y-62581111D01*
X157844568Y-62486853D01*
X157776765Y-62404235D01*
X157694147Y-62336432D01*
X157599889Y-62286050D01*
X157497613Y-62255025D01*
X157391250Y-62244549D01*
X156903750Y-62244549D01*
X156797387Y-62255025D01*
X156695111Y-62286050D01*
X156600853Y-62336432D01*
X156518235Y-62404235D01*
X156492986Y-62435000D01*
X156479558Y-62390733D01*
X156473031Y-62378522D01*
X156440094Y-62316900D01*
X156386984Y-62252186D01*
X156370768Y-62238878D01*
X156067124Y-61935234D01*
X156053814Y-61919016D01*
X155989100Y-61865906D01*
X155915267Y-61826442D01*
X155835154Y-61802140D01*
X155772714Y-61795990D01*
X155772707Y-61795990D01*
X155751840Y-61793935D01*
X155730973Y-61795990D01*
X147349884Y-61795990D01*
X147329010Y-61793934D01*
X147308136Y-61795990D01*
X147245696Y-61802140D01*
X147165583Y-61826442D01*
X147091750Y-61865906D01*
X147027036Y-61919016D01*
X147013726Y-61935234D01*
X145619960Y-63329000D01*
X145291484Y-63329000D01*
X145335158Y-63293158D01*
X145372647Y-63247477D01*
X145400504Y-63195360D01*
X145417659Y-63138810D01*
X145423451Y-63080000D01*
X145423451Y-61380000D01*
X145417659Y-61321190D01*
X145400504Y-61264640D01*
X145372647Y-61212523D01*
X145335158Y-61166842D01*
X145289477Y-61129353D01*
X145237360Y-61101496D01*
X145180810Y-61084341D01*
X145122000Y-61078549D01*
X143422000Y-61078549D01*
X143363190Y-61084341D01*
X143306640Y-61101496D01*
X143254523Y-61129353D01*
X143208842Y-61166842D01*
X143171353Y-61212523D01*
X143143496Y-61264640D01*
X143126341Y-61321190D01*
X143120549Y-61380000D01*
X143120549Y-63080000D01*
X143126341Y-63138810D01*
X143143496Y-63195360D01*
X143171353Y-63247477D01*
X143208842Y-63293158D01*
X143252516Y-63329000D01*
X142070323Y-63329000D01*
X142277281Y-63242515D01*
X142464336Y-63116681D01*
X142623247Y-62956772D01*
X142747908Y-62768934D01*
X142833528Y-62560385D01*
X142796650Y-62384000D01*
X141886000Y-62384000D01*
X141886000Y-62404000D01*
X141578000Y-62404000D01*
X141578000Y-62384000D01*
X140667350Y-62384000D01*
X140630472Y-62560385D01*
X140716092Y-62768934D01*
X140840753Y-62956772D01*
X140999664Y-63116681D01*
X141186719Y-63242515D01*
X141393677Y-63329000D01*
X140892041Y-63329000D01*
X140248212Y-62685172D01*
X140297806Y-62565443D01*
X140342000Y-62343265D01*
X140342000Y-62116735D01*
X140298813Y-61899615D01*
X140630472Y-61899615D01*
X140667350Y-62076000D01*
X141578000Y-62076000D01*
X141578000Y-61166088D01*
X141886000Y-61166088D01*
X141886000Y-62076000D01*
X142796650Y-62076000D01*
X142833528Y-61899615D01*
X142747908Y-61691066D01*
X142623247Y-61503228D01*
X142464336Y-61343319D01*
X142277281Y-61217485D01*
X142069272Y-61130561D01*
X142062383Y-61128480D01*
X141886000Y-61166088D01*
X141578000Y-61166088D01*
X141401617Y-61128480D01*
X141394728Y-61130561D01*
X141186719Y-61217485D01*
X140999664Y-61343319D01*
X140840753Y-61503228D01*
X140716092Y-61691066D01*
X140630472Y-61899615D01*
X140298813Y-61899615D01*
X140297806Y-61894557D01*
X140211116Y-61685271D01*
X140085263Y-61496918D01*
X139925082Y-61336737D01*
X139736729Y-61210884D01*
X139527443Y-61124194D01*
X139305265Y-61080000D01*
X139078735Y-61080000D01*
X138856557Y-61124194D01*
X138647271Y-61210884D01*
X138458918Y-61336737D01*
X138298737Y-61496918D01*
X138172884Y-61685271D01*
X138086194Y-61894557D01*
X138042000Y-62116735D01*
X138042000Y-62343265D01*
X138086194Y-62565443D01*
X138172884Y-62774729D01*
X138298737Y-62963082D01*
X138458918Y-63123263D01*
X138647271Y-63249116D01*
X138856557Y-63335806D01*
X139078735Y-63380000D01*
X139305265Y-63380000D01*
X139527443Y-63335806D01*
X139647172Y-63286212D01*
X140400720Y-64039761D01*
X140414026Y-64055974D01*
X140478740Y-64109084D01*
X140552573Y-64148548D01*
X140598982Y-64162626D01*
X140632685Y-64172850D01*
X140641098Y-64173679D01*
X140695126Y-64179000D01*
X140695132Y-64179000D01*
X140715999Y-64181055D01*
X140736866Y-64179000D01*
X145775133Y-64179000D01*
X145796000Y-64181055D01*
X145816867Y-64179000D01*
X145816874Y-64179000D01*
X145879314Y-64172850D01*
X145959427Y-64148548D01*
X146033260Y-64109084D01*
X146097974Y-64055974D01*
X146111284Y-64039756D01*
X147505050Y-62645990D01*
X149048976Y-62645990D01*
X149017353Y-62684523D01*
X148989496Y-62736640D01*
X148972341Y-62793190D01*
X148966549Y-62852000D01*
X148966549Y-63728212D01*
X147410262Y-65284500D01*
X146154967Y-65284500D01*
X146111935Y-65232065D01*
X146028370Y-65163485D01*
X145933032Y-65112526D01*
X145829584Y-65081145D01*
X145722001Y-65070549D01*
X144327287Y-65070549D01*
X144191698Y-64934960D01*
X144171343Y-64910157D01*
X144072368Y-64828930D01*
X143959448Y-64768573D01*
X143836922Y-64731405D01*
X143741432Y-64722000D01*
X143741421Y-64722000D01*
X143709500Y-64718856D01*
X143677579Y-64722000D01*
X137589239Y-64722000D01*
X137302000Y-64434762D01*
X137302000Y-63178776D01*
X137385082Y-63123263D01*
X137545263Y-62963082D01*
X137671116Y-62774729D01*
X137757806Y-62565443D01*
X137802000Y-62343265D01*
X137802000Y-62116735D01*
X137757806Y-61894557D01*
X137671116Y-61685271D01*
X137545263Y-61496918D01*
X137385082Y-61336737D01*
X137196729Y-61210884D01*
X136987443Y-61124194D01*
X136765265Y-61080000D01*
X136538735Y-61080000D01*
X136316557Y-61124194D01*
X136107271Y-61210884D01*
X135918918Y-61336737D01*
X135758737Y-61496918D01*
X135632884Y-61685271D01*
X135546194Y-61894557D01*
X135502000Y-62116735D01*
X135502000Y-62343265D01*
X135546194Y-62565443D01*
X135632884Y-62774729D01*
X135758737Y-62963082D01*
X135918918Y-63123263D01*
X136002000Y-63178777D01*
X136002001Y-64434760D01*
X135714762Y-64722000D01*
X131763920Y-64722000D01*
X131731999Y-64718856D01*
X131700078Y-64722000D01*
X130919238Y-64722000D01*
X130911200Y-64713962D01*
X130890843Y-64689157D01*
X130840277Y-64647659D01*
X130791868Y-64607930D01*
X130678947Y-64547573D01*
X130649311Y-64538583D01*
X130556421Y-64510405D01*
X130429000Y-64497855D01*
X130301578Y-64510405D01*
X130219000Y-64535455D01*
X130219000Y-63012867D01*
X130221055Y-62992000D01*
X130219000Y-62971133D01*
X130219000Y-62971126D01*
X130212850Y-62908686D01*
X130196909Y-62856134D01*
X130188548Y-62828572D01*
X130170095Y-62794050D01*
X130149084Y-62754740D01*
X130095974Y-62690026D01*
X130079762Y-62676721D01*
X129488451Y-62085411D01*
X129488451Y-61265750D01*
X129477975Y-61159387D01*
X129446950Y-61057111D01*
X129396568Y-60962853D01*
X129328765Y-60880235D01*
X129246147Y-60812432D01*
X129151889Y-60762050D01*
X129049613Y-60731025D01*
X128943250Y-60720549D01*
X128455750Y-60720549D01*
X128349387Y-60731025D01*
X128247111Y-60762050D01*
X128152853Y-60812432D01*
X128070235Y-60880235D01*
X128002432Y-60962853D01*
X127952050Y-61057111D01*
X127921025Y-61159387D01*
X127910549Y-61265750D01*
X127910549Y-62178250D01*
X127921025Y-62284613D01*
X127952050Y-62386889D01*
X128002432Y-62481147D01*
X128070235Y-62563765D01*
X128152853Y-62631568D01*
X128247111Y-62681950D01*
X128349387Y-62712975D01*
X128455750Y-62723451D01*
X128924411Y-62723451D01*
X128954629Y-62753670D01*
X128943250Y-62752549D01*
X128455750Y-62752549D01*
X128349387Y-62763025D01*
X128247111Y-62794050D01*
X128152853Y-62844432D01*
X128070235Y-62912235D01*
X128002432Y-62994853D01*
X127952050Y-63089111D01*
X127921025Y-63191387D01*
X127910549Y-63297750D01*
X127910549Y-63954412D01*
X127895347Y-63982853D01*
X127875453Y-64020073D01*
X127851150Y-64100186D01*
X127842945Y-64183500D01*
X127845001Y-64204376D01*
X127845000Y-64828549D01*
X127564000Y-64828549D01*
X127505190Y-64834341D01*
X127448640Y-64851496D01*
X127396523Y-64879353D01*
X127350842Y-64916842D01*
X127313353Y-64962523D01*
X127285496Y-65014640D01*
X127268341Y-65071190D01*
X127262549Y-65130000D01*
X127262549Y-65782570D01*
X127259595Y-65752578D01*
X127245451Y-65705952D01*
X127245451Y-65130000D01*
X127239659Y-65071190D01*
X127222504Y-65014640D01*
X127194647Y-64962523D01*
X127157158Y-64916842D01*
X127111477Y-64879353D01*
X127059360Y-64851496D01*
X127002810Y-64834341D01*
X126944000Y-64828549D01*
X126643590Y-64828549D01*
X126569371Y-64754330D01*
X126580750Y-64755451D01*
X127068250Y-64755451D01*
X127174613Y-64744975D01*
X127276889Y-64713950D01*
X127371147Y-64663568D01*
X127453765Y-64595765D01*
X127521568Y-64513147D01*
X127571950Y-64418889D01*
X127602975Y-64316613D01*
X127613451Y-64210250D01*
X127613451Y-63297750D01*
X127602975Y-63191387D01*
X127571950Y-63089111D01*
X127521568Y-62994853D01*
X127453765Y-62912235D01*
X127371147Y-62844432D01*
X127276889Y-62794050D01*
X127174613Y-62763025D01*
X127068250Y-62752549D01*
X126580750Y-62752549D01*
X126474387Y-62763025D01*
X126372111Y-62794050D01*
X126321691Y-62821000D01*
X125956051Y-62821000D01*
X125946853Y-62790678D01*
X125898781Y-62700742D01*
X125834088Y-62621912D01*
X125755258Y-62557219D01*
X125665322Y-62509147D01*
X125582422Y-62484000D01*
X125665322Y-62458853D01*
X125755258Y-62410781D01*
X125834088Y-62346088D01*
X125898781Y-62267258D01*
X125946853Y-62177322D01*
X125956051Y-62147000D01*
X126035549Y-62147000D01*
X126035549Y-62178250D01*
X126046025Y-62284613D01*
X126077050Y-62386889D01*
X126127432Y-62481147D01*
X126195235Y-62563765D01*
X126277853Y-62631568D01*
X126372111Y-62681950D01*
X126474387Y-62712975D01*
X126580750Y-62723451D01*
X127068250Y-62723451D01*
X127174613Y-62712975D01*
X127276889Y-62681950D01*
X127371147Y-62631568D01*
X127453765Y-62563765D01*
X127521568Y-62481147D01*
X127571950Y-62386889D01*
X127602975Y-62284613D01*
X127613451Y-62178250D01*
X127613451Y-61265750D01*
X127602975Y-61159387D01*
X127571950Y-61057111D01*
X127521568Y-60962853D01*
X127453765Y-60880235D01*
X127371147Y-60812432D01*
X127276889Y-60762050D01*
X127174613Y-60731025D01*
X127068250Y-60720549D01*
X126580750Y-60720549D01*
X126474387Y-60731025D01*
X126372111Y-60762050D01*
X126277853Y-60812432D01*
X126195235Y-60880235D01*
X126127432Y-60962853D01*
X126077050Y-61057111D01*
X126046025Y-61159387D01*
X126035549Y-61265750D01*
X126035549Y-61297000D01*
X125956051Y-61297000D01*
X125946853Y-61266678D01*
X125898781Y-61176742D01*
X125834088Y-61097912D01*
X125755258Y-61033219D01*
X125665322Y-60985147D01*
X125567736Y-60955545D01*
X125466250Y-60945549D01*
X125028750Y-60945549D01*
X124927264Y-60955545D01*
X124829678Y-60985147D01*
X124739742Y-61033219D01*
X124660912Y-61097912D01*
X124596219Y-61176742D01*
X124548147Y-61266678D01*
X124518545Y-61364264D01*
X124508549Y-61465750D01*
X124508549Y-61978250D01*
X124518545Y-62079736D01*
X124548147Y-62177322D01*
X124596219Y-62267258D01*
X124660912Y-62346088D01*
X124739742Y-62410781D01*
X124829678Y-62458853D01*
X124912578Y-62484000D01*
X124829678Y-62509147D01*
X124739742Y-62557219D01*
X124660912Y-62621912D01*
X124596219Y-62700742D01*
X124548147Y-62790678D01*
X124518545Y-62888264D01*
X124508549Y-62989750D01*
X124508549Y-63502250D01*
X124518545Y-63603736D01*
X124540215Y-63675175D01*
X124407491Y-63542451D01*
X124411451Y-63502250D01*
X124411451Y-62989750D01*
X124401455Y-62888264D01*
X124371853Y-62790678D01*
X124323781Y-62700742D01*
X124259088Y-62621912D01*
X124180258Y-62557219D01*
X124090322Y-62509147D01*
X124007422Y-62484000D01*
X124090322Y-62458853D01*
X124180258Y-62410781D01*
X124259088Y-62346088D01*
X124323781Y-62267258D01*
X124371853Y-62177322D01*
X124401455Y-62079736D01*
X124411451Y-61978250D01*
X124411451Y-61465750D01*
X124401455Y-61364264D01*
X124371853Y-61266678D01*
X124323781Y-61176742D01*
X124259088Y-61097912D01*
X124180258Y-61033219D01*
X124090322Y-60985147D01*
X123992736Y-60955545D01*
X123891250Y-60945549D01*
X123453750Y-60945549D01*
X123352264Y-60955545D01*
X123254678Y-60985147D01*
X123164742Y-61033219D01*
X123085912Y-61097912D01*
X123021219Y-61176742D01*
X122973147Y-61266678D01*
X122943545Y-61364264D01*
X122933549Y-61465750D01*
X122933549Y-61978250D01*
X122935000Y-61992983D01*
X122935001Y-62975010D01*
X122933549Y-62989750D01*
X122933549Y-63239858D01*
X122932944Y-63246000D01*
X122933549Y-63252142D01*
X122933549Y-63502250D01*
X122943545Y-63603736D01*
X122973147Y-63701322D01*
X123021219Y-63791258D01*
X123085912Y-63870088D01*
X123164742Y-63934781D01*
X123254678Y-63982853D01*
X123352264Y-64012455D01*
X123453750Y-64022451D01*
X123685411Y-64022451D01*
X124210719Y-64547760D01*
X124224026Y-64563974D01*
X124288740Y-64617084D01*
X124362573Y-64656548D01*
X124418383Y-64673478D01*
X124442685Y-64680850D01*
X124450327Y-64681603D01*
X124505126Y-64687000D01*
X124505133Y-64687000D01*
X124526000Y-64689055D01*
X124546867Y-64687000D01*
X125299960Y-64687000D01*
X125992549Y-65379590D01*
X125992549Y-65705953D01*
X125978405Y-65752579D01*
X125969000Y-65848069D01*
X125969000Y-66643079D01*
X125965856Y-66675000D01*
X125969000Y-66706921D01*
X125969000Y-66706932D01*
X125978405Y-66802422D01*
X125988916Y-66837070D01*
X126015573Y-66924947D01*
X126075930Y-67037868D01*
X126136802Y-67112040D01*
X126136805Y-67112043D01*
X126157158Y-67136843D01*
X126181958Y-67157196D01*
X126422549Y-67397787D01*
X126422549Y-68331000D01*
X125640451Y-68331000D01*
X125640451Y-68231000D01*
X125634659Y-68172190D01*
X125617504Y-68115640D01*
X125589647Y-68063523D01*
X125552158Y-68017842D01*
X125506477Y-67980353D01*
X125454360Y-67952496D01*
X125397810Y-67935341D01*
X125364000Y-67932011D01*
X125364000Y-67087924D01*
X125367144Y-67056000D01*
X125364000Y-67024076D01*
X125364000Y-67024068D01*
X125354595Y-66928578D01*
X125317427Y-66806052D01*
X125257070Y-66693132D01*
X125175843Y-66594157D01*
X125151039Y-66573801D01*
X124434200Y-65856962D01*
X124413843Y-65832157D01*
X124314868Y-65750930D01*
X124201948Y-65690573D01*
X124079422Y-65653405D01*
X123983932Y-65644000D01*
X123983921Y-65644000D01*
X123952000Y-65640856D01*
X123920079Y-65644000D01*
X122614776Y-65644000D01*
X122559263Y-65560918D01*
X122399082Y-65400737D01*
X122210729Y-65274884D01*
X122001443Y-65188194D01*
X121779265Y-65144000D01*
X121552735Y-65144000D01*
X121330557Y-65188194D01*
X121121271Y-65274884D01*
X120932918Y-65400737D01*
X120772737Y-65560918D01*
X120646884Y-65749271D01*
X120560194Y-65958557D01*
X120516000Y-66180735D01*
X120516000Y-66407265D01*
X120560194Y-66629443D01*
X120646884Y-66838729D01*
X120772737Y-67027082D01*
X120932918Y-67187263D01*
X121121271Y-67313116D01*
X121330557Y-67399806D01*
X121552735Y-67444000D01*
X121779265Y-67444000D01*
X122001443Y-67399806D01*
X122210729Y-67313116D01*
X122399082Y-67187263D01*
X122559263Y-67027082D01*
X122614776Y-66944000D01*
X123682762Y-66944000D01*
X124064000Y-67325238D01*
X124064000Y-67932011D01*
X124030190Y-67935341D01*
X123973640Y-67952496D01*
X123921523Y-67980353D01*
X123875842Y-68017842D01*
X123838353Y-68063523D01*
X123810496Y-68115640D01*
X123793341Y-68172190D01*
X123787549Y-68231000D01*
X123787549Y-69731000D01*
X123793341Y-69789810D01*
X123810496Y-69846360D01*
X123838353Y-69898477D01*
X123875842Y-69944158D01*
X123921523Y-69981647D01*
X123973640Y-70009504D01*
X124030190Y-70026659D01*
X124089000Y-70032451D01*
X125339000Y-70032451D01*
X125397810Y-70026659D01*
X125454360Y-70009504D01*
X125506477Y-69981647D01*
X125552158Y-69944158D01*
X125589647Y-69898477D01*
X125617504Y-69846360D01*
X125634659Y-69789810D01*
X125640451Y-69731000D01*
X125640451Y-69631000D01*
X126422549Y-69631000D01*
X126422549Y-69930000D01*
X126428341Y-69988810D01*
X126445496Y-70045360D01*
X126473353Y-70097477D01*
X126510842Y-70143158D01*
X126556523Y-70180647D01*
X126608640Y-70208504D01*
X126665190Y-70225659D01*
X126724000Y-70231451D01*
X126846549Y-70231451D01*
X126773000Y-70305000D01*
X126773000Y-71126000D01*
X127169000Y-71126000D01*
X127244000Y-71051000D01*
X127245452Y-70530000D01*
X127239660Y-70471190D01*
X127222505Y-70414639D01*
X127194648Y-70362522D01*
X127157159Y-70316841D01*
X127111478Y-70279352D01*
X127059361Y-70251495D01*
X127002810Y-70234340D01*
X126973476Y-70231451D01*
X127534534Y-70231451D01*
X127505190Y-70234341D01*
X127448640Y-70251496D01*
X127396523Y-70279353D01*
X127350842Y-70316842D01*
X127313353Y-70362523D01*
X127285496Y-70414640D01*
X127268341Y-70471190D01*
X127262549Y-70530000D01*
X127262549Y-72030000D01*
X127268341Y-72088810D01*
X127285496Y-72145360D01*
X127313353Y-72197477D01*
X127350842Y-72243158D01*
X127396523Y-72280647D01*
X127448640Y-72308504D01*
X127464001Y-72313164D01*
X127464001Y-73088123D01*
X127461945Y-73109000D01*
X127470150Y-73192314D01*
X127492248Y-73265158D01*
X127494453Y-73272427D01*
X127533917Y-73346260D01*
X127559549Y-73377492D01*
X127559549Y-73862250D01*
X127570025Y-73968613D01*
X127587433Y-74026000D01*
X127269451Y-74026000D01*
X127269451Y-73035000D01*
X127263659Y-72976190D01*
X127246504Y-72919640D01*
X127218647Y-72867523D01*
X127181158Y-72821842D01*
X127135477Y-72784353D01*
X127083360Y-72756496D01*
X127026810Y-72739341D01*
X126968000Y-72733549D01*
X125468000Y-72733549D01*
X125409190Y-72739341D01*
X125352640Y-72756496D01*
X125300523Y-72784353D01*
X125254842Y-72821842D01*
X125217353Y-72867523D01*
X125189496Y-72919640D01*
X125172341Y-72976190D01*
X125166549Y-73035000D01*
X125166549Y-74285000D01*
X125172341Y-74343810D01*
X125189496Y-74400360D01*
X125217353Y-74452477D01*
X125254842Y-74498158D01*
X125300523Y-74535647D01*
X125352640Y-74563504D01*
X125409190Y-74580659D01*
X125468000Y-74586451D01*
X125991213Y-74586451D01*
X126517804Y-75113043D01*
X126538157Y-75137843D01*
X126562957Y-75158196D01*
X126562959Y-75158198D01*
X126601709Y-75190000D01*
X120009000Y-75190000D01*
X120009000Y-74285000D01*
X122666548Y-74285000D01*
X122672340Y-74343810D01*
X122689495Y-74400361D01*
X122717352Y-74452478D01*
X122754841Y-74498159D01*
X122800522Y-74535648D01*
X122852639Y-74563505D01*
X122909190Y-74580660D01*
X122968000Y-74586452D01*
X123489000Y-74585000D01*
X123564000Y-74510000D01*
X123564000Y-73814000D01*
X123872000Y-73814000D01*
X123872000Y-74510000D01*
X123947000Y-74585000D01*
X124468000Y-74586452D01*
X124526810Y-74580660D01*
X124583361Y-74563505D01*
X124635478Y-74535648D01*
X124681159Y-74498159D01*
X124718648Y-74452478D01*
X124746505Y-74400361D01*
X124763660Y-74343810D01*
X124769452Y-74285000D01*
X124768000Y-73889000D01*
X124693000Y-73814000D01*
X123872000Y-73814000D01*
X123564000Y-73814000D01*
X122743000Y-73814000D01*
X122668000Y-73889000D01*
X122666548Y-74285000D01*
X120009000Y-74285000D01*
X120009000Y-73035000D01*
X122666548Y-73035000D01*
X122668000Y-73431000D01*
X122743000Y-73506000D01*
X123564000Y-73506000D01*
X123564000Y-72810000D01*
X123872000Y-72810000D01*
X123872000Y-73506000D01*
X124693000Y-73506000D01*
X124768000Y-73431000D01*
X124769452Y-73035000D01*
X124763660Y-72976190D01*
X124746505Y-72919639D01*
X124718648Y-72867522D01*
X124681159Y-72821841D01*
X124635478Y-72784352D01*
X124583361Y-72756495D01*
X124526810Y-72739340D01*
X124468000Y-72733548D01*
X123947000Y-72735000D01*
X123872000Y-72810000D01*
X123564000Y-72810000D01*
X123489000Y-72735000D01*
X122968000Y-72733548D01*
X122909190Y-72739340D01*
X122852639Y-72756495D01*
X122800522Y-72784352D01*
X122754841Y-72821841D01*
X122717352Y-72867522D01*
X122689495Y-72919639D01*
X122672340Y-72976190D01*
X122666548Y-73035000D01*
X120009000Y-73035000D01*
X120009000Y-72231000D01*
X123787548Y-72231000D01*
X123793340Y-72289810D01*
X123810495Y-72346361D01*
X123838352Y-72398478D01*
X123875841Y-72444159D01*
X123921522Y-72481648D01*
X123973639Y-72509505D01*
X124030190Y-72526660D01*
X124089000Y-72532452D01*
X124485000Y-72531000D01*
X124560000Y-72456000D01*
X124560000Y-71635000D01*
X124868000Y-71635000D01*
X124868000Y-72456000D01*
X124943000Y-72531000D01*
X125339000Y-72532452D01*
X125397810Y-72526660D01*
X125454361Y-72509505D01*
X125506478Y-72481648D01*
X125552159Y-72444159D01*
X125589648Y-72398478D01*
X125617505Y-72346361D01*
X125634660Y-72289810D01*
X125640452Y-72231000D01*
X125639892Y-72030000D01*
X125992548Y-72030000D01*
X125998340Y-72088810D01*
X126015495Y-72145361D01*
X126043352Y-72197478D01*
X126080841Y-72243159D01*
X126126522Y-72280648D01*
X126178639Y-72308505D01*
X126235190Y-72325660D01*
X126294000Y-72331452D01*
X126390000Y-72330000D01*
X126465000Y-72255000D01*
X126465000Y-71434000D01*
X126773000Y-71434000D01*
X126773000Y-72255000D01*
X126848000Y-72330000D01*
X126944000Y-72331452D01*
X127002810Y-72325660D01*
X127059361Y-72308505D01*
X127111478Y-72280648D01*
X127157159Y-72243159D01*
X127194648Y-72197478D01*
X127222505Y-72145361D01*
X127239660Y-72088810D01*
X127245452Y-72030000D01*
X127244000Y-71509000D01*
X127169000Y-71434000D01*
X126773000Y-71434000D01*
X126465000Y-71434000D01*
X126069000Y-71434000D01*
X125994000Y-71509000D01*
X125992548Y-72030000D01*
X125639892Y-72030000D01*
X125639000Y-71710000D01*
X125564000Y-71635000D01*
X124868000Y-71635000D01*
X124560000Y-71635000D01*
X123864000Y-71635000D01*
X123789000Y-71710000D01*
X123787548Y-72231000D01*
X120009000Y-72231000D01*
X120009000Y-70731000D01*
X123787548Y-70731000D01*
X123789000Y-71252000D01*
X123864000Y-71327000D01*
X124560000Y-71327000D01*
X124560000Y-70506000D01*
X124868000Y-70506000D01*
X124868000Y-71327000D01*
X125564000Y-71327000D01*
X125639000Y-71252000D01*
X125640452Y-70731000D01*
X125634660Y-70672190D01*
X125617505Y-70615639D01*
X125589648Y-70563522D01*
X125562138Y-70530000D01*
X125992548Y-70530000D01*
X125994000Y-71051000D01*
X126069000Y-71126000D01*
X126465000Y-71126000D01*
X126465000Y-70305000D01*
X126390000Y-70230000D01*
X126294000Y-70228548D01*
X126235190Y-70234340D01*
X126178639Y-70251495D01*
X126126522Y-70279352D01*
X126080841Y-70316841D01*
X126043352Y-70362522D01*
X126015495Y-70414639D01*
X125998340Y-70471190D01*
X125992548Y-70530000D01*
X125562138Y-70530000D01*
X125552159Y-70517841D01*
X125506478Y-70480352D01*
X125454361Y-70452495D01*
X125397810Y-70435340D01*
X125339000Y-70429548D01*
X124943000Y-70431000D01*
X124868000Y-70506000D01*
X124560000Y-70506000D01*
X124485000Y-70431000D01*
X124089000Y-70429548D01*
X124030190Y-70435340D01*
X123973639Y-70452495D01*
X123921522Y-70480352D01*
X123875841Y-70517841D01*
X123838352Y-70563522D01*
X123810495Y-70615639D01*
X123793340Y-70672190D01*
X123787548Y-70731000D01*
X120009000Y-70731000D01*
X120009000Y-69684000D01*
X120514548Y-69684000D01*
X120520340Y-69742810D01*
X120537495Y-69799361D01*
X120565352Y-69851478D01*
X120602841Y-69897159D01*
X120648522Y-69934648D01*
X120700639Y-69962505D01*
X120757190Y-69979660D01*
X120816000Y-69985452D01*
X121437000Y-69984000D01*
X121512000Y-69909000D01*
X121512000Y-68988000D01*
X121820000Y-68988000D01*
X121820000Y-69909000D01*
X121895000Y-69984000D01*
X122516000Y-69985452D01*
X122574810Y-69979660D01*
X122631361Y-69962505D01*
X122683478Y-69934648D01*
X122729159Y-69897159D01*
X122766648Y-69851478D01*
X122794505Y-69799361D01*
X122811660Y-69742810D01*
X122817452Y-69684000D01*
X122816000Y-69063000D01*
X122741000Y-68988000D01*
X121820000Y-68988000D01*
X121512000Y-68988000D01*
X120591000Y-68988000D01*
X120516000Y-69063000D01*
X120514548Y-69684000D01*
X120009000Y-69684000D01*
X120009000Y-67984000D01*
X120514548Y-67984000D01*
X120516000Y-68605000D01*
X120591000Y-68680000D01*
X121512000Y-68680000D01*
X121512000Y-67759000D01*
X121820000Y-67759000D01*
X121820000Y-68680000D01*
X122741000Y-68680000D01*
X122816000Y-68605000D01*
X122817452Y-67984000D01*
X122811660Y-67925190D01*
X122794505Y-67868639D01*
X122766648Y-67816522D01*
X122729159Y-67770841D01*
X122683478Y-67733352D01*
X122631361Y-67705495D01*
X122574810Y-67688340D01*
X122516000Y-67682548D01*
X121895000Y-67684000D01*
X121820000Y-67759000D01*
X121512000Y-67759000D01*
X121437000Y-67684000D01*
X120816000Y-67682548D01*
X120757190Y-67688340D01*
X120700639Y-67705495D01*
X120648522Y-67733352D01*
X120602841Y-67770841D01*
X120565352Y-67816522D01*
X120537495Y-67868639D01*
X120520340Y-67925190D01*
X120514548Y-67984000D01*
X120009000Y-67984000D01*
X120009000Y-60700000D01*
X160661000Y-60700000D01*
X160661001Y-75190000D01*
G36*
X131176001Y-68011238D02*
G01*
X131176000Y-71850078D01*
X131172856Y-71882000D01*
X131176000Y-71913921D01*
X131176000Y-71913931D01*
X131185405Y-72009421D01*
X131209497Y-72088842D01*
X131222573Y-72131947D01*
X131282930Y-72244868D01*
X131333369Y-72306328D01*
X131364157Y-72343843D01*
X131388962Y-72364200D01*
X131944549Y-72919787D01*
X131944549Y-73384212D01*
X131302762Y-74026000D01*
X131012205Y-74026000D01*
X131011000Y-73635000D01*
X130936000Y-73560000D01*
X130377500Y-73560000D01*
X130377500Y-73580000D01*
X130069500Y-73580000D01*
X130069500Y-73560000D01*
X129511000Y-73560000D01*
X129436000Y-73635000D01*
X129434795Y-74026000D01*
X129109567Y-74026000D01*
X129126975Y-73968613D01*
X129137451Y-73862250D01*
X129137451Y-72949750D01*
X129126975Y-72843387D01*
X129095950Y-72741111D01*
X129077183Y-72706000D01*
X129434548Y-72706000D01*
X129436000Y-73177000D01*
X129511000Y-73252000D01*
X130069500Y-73252000D01*
X130069500Y-72481000D01*
X130377500Y-72481000D01*
X130377500Y-73252000D01*
X130936000Y-73252000D01*
X131011000Y-73177000D01*
X131012452Y-72706000D01*
X131006660Y-72647190D01*
X130989505Y-72590639D01*
X130961648Y-72538522D01*
X130924159Y-72492841D01*
X130878478Y-72455352D01*
X130826361Y-72427495D01*
X130769810Y-72410340D01*
X130711000Y-72404548D01*
X130452500Y-72406000D01*
X130377500Y-72481000D01*
X130069500Y-72481000D01*
X129994500Y-72406000D01*
X129736000Y-72404548D01*
X129677190Y-72410340D01*
X129620639Y-72427495D01*
X129568522Y-72455352D01*
X129522841Y-72492841D01*
X129485352Y-72538522D01*
X129457495Y-72590639D01*
X129440340Y-72647190D01*
X129434548Y-72706000D01*
X129077183Y-72706000D01*
X129045568Y-72646853D01*
X128977765Y-72564235D01*
X128895147Y-72496432D01*
X128800889Y-72446050D01*
X128698613Y-72415025D01*
X128592250Y-72404549D01*
X128314000Y-72404549D01*
X128314000Y-72313164D01*
X128329360Y-72308504D01*
X128381477Y-72280647D01*
X128427158Y-72243158D01*
X128464647Y-72197477D01*
X128492504Y-72145360D01*
X128509659Y-72088810D01*
X128515451Y-72030000D01*
X128532548Y-72030000D01*
X128538340Y-72088810D01*
X128555495Y-72145361D01*
X128583352Y-72197478D01*
X128620841Y-72243159D01*
X128666522Y-72280648D01*
X128718639Y-72308505D01*
X128775190Y-72325660D01*
X128834000Y-72331452D01*
X128930000Y-72330000D01*
X129005000Y-72255000D01*
X129005000Y-71434000D01*
X128609000Y-71434000D01*
X128534000Y-71509000D01*
X128532548Y-72030000D01*
X128515451Y-72030000D01*
X128515451Y-70530000D01*
X128509659Y-70471190D01*
X128492504Y-70414640D01*
X128464647Y-70362523D01*
X128427158Y-70316842D01*
X128381477Y-70279353D01*
X128329360Y-70251496D01*
X128272810Y-70234341D01*
X128243466Y-70231451D01*
X128804524Y-70231451D01*
X128775190Y-70234340D01*
X128718639Y-70251495D01*
X128666522Y-70279352D01*
X128620841Y-70316841D01*
X128583352Y-70362522D01*
X128555495Y-70414639D01*
X128538340Y-70471190D01*
X128532548Y-70530000D01*
X128534000Y-71051000D01*
X128609000Y-71126000D01*
X129005000Y-71126000D01*
X129005000Y-71106000D01*
X129313000Y-71106000D01*
X129313000Y-71126000D01*
X129333000Y-71126000D01*
X129333000Y-71434000D01*
X129313000Y-71434000D01*
X129313000Y-72255000D01*
X129388000Y-72330000D01*
X129484000Y-72331452D01*
X129542810Y-72325660D01*
X129599361Y-72308505D01*
X129651478Y-72280648D01*
X129697159Y-72243159D01*
X129734648Y-72197478D01*
X129762505Y-72145361D01*
X129779660Y-72088810D01*
X129785452Y-72030000D01*
X129784000Y-71509000D01*
X129709002Y-71434002D01*
X129784000Y-71434002D01*
X129784000Y-71362697D01*
X129788405Y-71407421D01*
X129802549Y-71454047D01*
X129802549Y-72030000D01*
X129808341Y-72088810D01*
X129825496Y-72145360D01*
X129853353Y-72197477D01*
X129890842Y-72243158D01*
X129936523Y-72280647D01*
X129988640Y-72308504D01*
X130045190Y-72325659D01*
X130104000Y-72331451D01*
X130754000Y-72331451D01*
X130812810Y-72325659D01*
X130869360Y-72308504D01*
X130921477Y-72280647D01*
X130967158Y-72243158D01*
X131004647Y-72197477D01*
X131032504Y-72145360D01*
X131049659Y-72088810D01*
X131055451Y-72030000D01*
X131055451Y-71454048D01*
X131069595Y-71407422D01*
X131079000Y-71311932D01*
X131079000Y-70516924D01*
X131082144Y-70485000D01*
X131079000Y-70453076D01*
X131079000Y-70453068D01*
X131069595Y-70357578D01*
X131032427Y-70235052D01*
X130972070Y-70122132D01*
X130890843Y-70023157D01*
X130866038Y-70002800D01*
X130625451Y-69762213D01*
X130625451Y-67460687D01*
X131176001Y-68011238D01*
G37*
X131176001Y-68011238D02*
X131176000Y-71850078D01*
X131172856Y-71882000D01*
X131176000Y-71913921D01*
X131176000Y-71913931D01*
X131185405Y-72009421D01*
X131209497Y-72088842D01*
X131222573Y-72131947D01*
X131282930Y-72244868D01*
X131333369Y-72306328D01*
X131364157Y-72343843D01*
X131388962Y-72364200D01*
X131944549Y-72919787D01*
X131944549Y-73384212D01*
X131302762Y-74026000D01*
X131012205Y-74026000D01*
X131011000Y-73635000D01*
X130936000Y-73560000D01*
X130377500Y-73560000D01*
X130377500Y-73580000D01*
X130069500Y-73580000D01*
X130069500Y-73560000D01*
X129511000Y-73560000D01*
X129436000Y-73635000D01*
X129434795Y-74026000D01*
X129109567Y-74026000D01*
X129126975Y-73968613D01*
X129137451Y-73862250D01*
X129137451Y-72949750D01*
X129126975Y-72843387D01*
X129095950Y-72741111D01*
X129077183Y-72706000D01*
X129434548Y-72706000D01*
X129436000Y-73177000D01*
X129511000Y-73252000D01*
X130069500Y-73252000D01*
X130069500Y-72481000D01*
X130377500Y-72481000D01*
X130377500Y-73252000D01*
X130936000Y-73252000D01*
X131011000Y-73177000D01*
X131012452Y-72706000D01*
X131006660Y-72647190D01*
X130989505Y-72590639D01*
X130961648Y-72538522D01*
X130924159Y-72492841D01*
X130878478Y-72455352D01*
X130826361Y-72427495D01*
X130769810Y-72410340D01*
X130711000Y-72404548D01*
X130452500Y-72406000D01*
X130377500Y-72481000D01*
X130069500Y-72481000D01*
X129994500Y-72406000D01*
X129736000Y-72404548D01*
X129677190Y-72410340D01*
X129620639Y-72427495D01*
X129568522Y-72455352D01*
X129522841Y-72492841D01*
X129485352Y-72538522D01*
X129457495Y-72590639D01*
X129440340Y-72647190D01*
X129434548Y-72706000D01*
X129077183Y-72706000D01*
X129045568Y-72646853D01*
X128977765Y-72564235D01*
X128895147Y-72496432D01*
X128800889Y-72446050D01*
X128698613Y-72415025D01*
X128592250Y-72404549D01*
X128314000Y-72404549D01*
X128314000Y-72313164D01*
X128329360Y-72308504D01*
X128381477Y-72280647D01*
X128427158Y-72243158D01*
X128464647Y-72197477D01*
X128492504Y-72145360D01*
X128509659Y-72088810D01*
X128515451Y-72030000D01*
X128532548Y-72030000D01*
X128538340Y-72088810D01*
X128555495Y-72145361D01*
X128583352Y-72197478D01*
X128620841Y-72243159D01*
X128666522Y-72280648D01*
X128718639Y-72308505D01*
X128775190Y-72325660D01*
X128834000Y-72331452D01*
X128930000Y-72330000D01*
X129005000Y-72255000D01*
X129005000Y-71434000D01*
X128609000Y-71434000D01*
X128534000Y-71509000D01*
X128532548Y-72030000D01*
X128515451Y-72030000D01*
X128515451Y-70530000D01*
X128509659Y-70471190D01*
X128492504Y-70414640D01*
X128464647Y-70362523D01*
X128427158Y-70316842D01*
X128381477Y-70279353D01*
X128329360Y-70251496D01*
X128272810Y-70234341D01*
X128243466Y-70231451D01*
X128804524Y-70231451D01*
X128775190Y-70234340D01*
X128718639Y-70251495D01*
X128666522Y-70279352D01*
X128620841Y-70316841D01*
X128583352Y-70362522D01*
X128555495Y-70414639D01*
X128538340Y-70471190D01*
X128532548Y-70530000D01*
X128534000Y-71051000D01*
X128609000Y-71126000D01*
X129005000Y-71126000D01*
X129005000Y-71106000D01*
X129313000Y-71106000D01*
X129313000Y-71126000D01*
X129333000Y-71126000D01*
X129333000Y-71434000D01*
X129313000Y-71434000D01*
X129313000Y-72255000D01*
X129388000Y-72330000D01*
X129484000Y-72331452D01*
X129542810Y-72325660D01*
X129599361Y-72308505D01*
X129651478Y-72280648D01*
X129697159Y-72243159D01*
X129734648Y-72197478D01*
X129762505Y-72145361D01*
X129779660Y-72088810D01*
X129785452Y-72030000D01*
X129784000Y-71509000D01*
X129709002Y-71434002D01*
X129784000Y-71434002D01*
X129784000Y-71362697D01*
X129788405Y-71407421D01*
X129802549Y-71454047D01*
X129802549Y-72030000D01*
X129808341Y-72088810D01*
X129825496Y-72145360D01*
X129853353Y-72197477D01*
X129890842Y-72243158D01*
X129936523Y-72280647D01*
X129988640Y-72308504D01*
X130045190Y-72325659D01*
X130104000Y-72331451D01*
X130754000Y-72331451D01*
X130812810Y-72325659D01*
X130869360Y-72308504D01*
X130921477Y-72280647D01*
X130967158Y-72243158D01*
X131004647Y-72197477D01*
X131032504Y-72145360D01*
X131049659Y-72088810D01*
X131055451Y-72030000D01*
X131055451Y-71454048D01*
X131069595Y-71407422D01*
X131079000Y-71311932D01*
X131079000Y-70516924D01*
X131082144Y-70485000D01*
X131079000Y-70453076D01*
X131079000Y-70453068D01*
X131069595Y-70357578D01*
X131032427Y-70235052D01*
X130972070Y-70122132D01*
X130890843Y-70023157D01*
X130866038Y-70002800D01*
X130625451Y-69762213D01*
X130625451Y-67460687D01*
X131176001Y-68011238D01*
G36*
X154485000Y-63017000D02*
G01*
X154560000Y-63092000D01*
X155118500Y-63092000D01*
X155118500Y-63072000D01*
X155426500Y-63072000D01*
X155426500Y-63092000D01*
X155446500Y-63092000D01*
X155446500Y-63400000D01*
X155426500Y-63400000D01*
X155426500Y-64171000D01*
X155501500Y-64246000D01*
X155674243Y-64246970D01*
X155686630Y-64287801D01*
X155690463Y-64300437D01*
X155695037Y-64308995D01*
X155622613Y-64287025D01*
X155516250Y-64276549D01*
X155028750Y-64276549D01*
X154922387Y-64287025D01*
X154820111Y-64318050D01*
X154725853Y-64368432D01*
X154643235Y-64436235D01*
X154575432Y-64518853D01*
X154568347Y-64532107D01*
X153982240Y-63946000D01*
X154483548Y-63946000D01*
X154489340Y-64004810D01*
X154506495Y-64061361D01*
X154534352Y-64113478D01*
X154571841Y-64159159D01*
X154617522Y-64196648D01*
X154669639Y-64224505D01*
X154726190Y-64241660D01*
X154785000Y-64247452D01*
X155043500Y-64246000D01*
X155118500Y-64171000D01*
X155118500Y-63400000D01*
X154560000Y-63400000D01*
X154485000Y-63475000D01*
X154483548Y-63946000D01*
X153982240Y-63946000D01*
X153201202Y-63164962D01*
X153180845Y-63140157D01*
X153081870Y-63058930D01*
X152968950Y-62998573D01*
X152846424Y-62961405D01*
X152750934Y-62952000D01*
X152750923Y-62952000D01*
X152719002Y-62948856D01*
X152687081Y-62952000D01*
X151769451Y-62952000D01*
X151769451Y-62852000D01*
X151763659Y-62793190D01*
X151746504Y-62736640D01*
X151718647Y-62684523D01*
X151687024Y-62645990D01*
X154483856Y-62645990D01*
X154485000Y-63017000D01*
G37*
X154485000Y-63017000D02*
X154560000Y-63092000D01*
X155118500Y-63092000D01*
X155118500Y-63072000D01*
X155426500Y-63072000D01*
X155426500Y-63092000D01*
X155446500Y-63092000D01*
X155446500Y-63400000D01*
X155426500Y-63400000D01*
X155426500Y-64171000D01*
X155501500Y-64246000D01*
X155674243Y-64246970D01*
X155686630Y-64287801D01*
X155690463Y-64300437D01*
X155695037Y-64308995D01*
X155622613Y-64287025D01*
X155516250Y-64276549D01*
X155028750Y-64276549D01*
X154922387Y-64287025D01*
X154820111Y-64318050D01*
X154725853Y-64368432D01*
X154643235Y-64436235D01*
X154575432Y-64518853D01*
X154568347Y-64532107D01*
X153982240Y-63946000D01*
X154483548Y-63946000D01*
X154489340Y-64004810D01*
X154506495Y-64061361D01*
X154534352Y-64113478D01*
X154571841Y-64159159D01*
X154617522Y-64196648D01*
X154669639Y-64224505D01*
X154726190Y-64241660D01*
X154785000Y-64247452D01*
X155043500Y-64246000D01*
X155118500Y-64171000D01*
X155118500Y-63400000D01*
X154560000Y-63400000D01*
X154485000Y-63475000D01*
X154483548Y-63946000D01*
X153982240Y-63946000D01*
X153201202Y-63164962D01*
X153180845Y-63140157D01*
X153081870Y-63058930D01*
X152968950Y-62998573D01*
X152846424Y-62961405D01*
X152750934Y-62952000D01*
X152750923Y-62952000D01*
X152719002Y-62948856D01*
X152687081Y-62952000D01*
X151769451Y-62952000D01*
X151769451Y-62852000D01*
X151763659Y-62793190D01*
X151746504Y-62736640D01*
X151718647Y-62684523D01*
X151687024Y-62645990D01*
X154483856Y-62645990D01*
X154485000Y-63017000D01*
G04 #@! TD*
M02*
