G04 #@! TF.GenerationSoftware,KiCad,Pcbnew,(5.1.6)-1*
G04 #@! TF.CreationDate,2020-05-27T20:21:06+02:00*
G04 #@! TF.ProjectId,charger_stepup,63686172-6765-4725-9f73-74657075702e,rev?*
G04 #@! TF.SameCoordinates,Original*
G04 #@! TF.FileFunction,Copper,L1,Top*
G04 #@! TF.FilePolarity,Positive*
%FSLAX46Y46*%
G04 Gerber Fmt 4.6, Leading zero omitted, Abs format (unit mm)*
G04 Created by KiCad (PCBNEW (5.1.6)-1) date 2020-05-27 20:21:06*
%MOMM*%
%LPD*%
G01*
G04 APERTURE LIST*
G04 #@! TA.AperFunction,SMDPad,CuDef*
%ADD10R,1.500000X1.250000*%
G04 #@! TD*
G04 #@! TA.AperFunction,SMDPad,CuDef*
%ADD11R,1.450000X0.450000*%
G04 #@! TD*
G04 #@! TA.AperFunction,SMDPad,CuDef*
%ADD12R,0.900000X1.200000*%
G04 #@! TD*
G04 #@! TA.AperFunction,SMDPad,CuDef*
%ADD13R,2.200000X1.500000*%
G04 #@! TD*
G04 #@! TA.AperFunction,SMDPad,CuDef*
%ADD14R,2.500000X1.800000*%
G04 #@! TD*
G04 #@! TA.AperFunction,ComponentPad*
%ADD15O,1.000000X1.000000*%
G04 #@! TD*
G04 #@! TA.AperFunction,ComponentPad*
%ADD16R,1.000000X1.000000*%
G04 #@! TD*
G04 #@! TA.AperFunction,SMDPad,CuDef*
%ADD17R,0.650000X1.060000*%
G04 #@! TD*
G04 #@! TA.AperFunction,SMDPad,CuDef*
%ADD18R,1.250000X1.500000*%
G04 #@! TD*
G04 #@! TA.AperFunction,SMDPad,CuDef*
%ADD19R,0.650000X1.560000*%
G04 #@! TD*
G04 #@! TA.AperFunction,SMDPad,CuDef*
%ADD20R,1.200000X0.900000*%
G04 #@! TD*
G04 #@! TA.AperFunction,SMDPad,CuDef*
%ADD21R,0.650000X1.500000*%
G04 #@! TD*
G04 #@! TA.AperFunction,SMDPad,CuDef*
%ADD22R,3.600000X2.700000*%
G04 #@! TD*
G04 #@! TA.AperFunction,ViaPad*
%ADD23C,0.600000*%
G04 #@! TD*
G04 #@! TA.AperFunction,Conductor*
%ADD24C,0.700000*%
G04 #@! TD*
G04 #@! TA.AperFunction,Conductor*
%ADD25C,0.250000*%
G04 #@! TD*
G04 #@! TA.AperFunction,Conductor*
%ADD26C,0.200000*%
G04 #@! TD*
G04 APERTURE END LIST*
G04 #@! TO.P,C5,2*
G04 #@! TO.N,GND*
G04 #@! TA.AperFunction,SMDPad,CuDef*
G36*
G01*
X144983000Y-71701999D02*
X144983000Y-74602001D01*
G75*
G02*
X144733001Y-74852000I-249999J0D01*
G01*
X144107999Y-74852000D01*
G75*
G02*
X143858000Y-74602001I0J249999D01*
G01*
X143858000Y-71701999D01*
G75*
G02*
X144107999Y-71452000I249999J0D01*
G01*
X144733001Y-71452000D01*
G75*
G02*
X144983000Y-71701999I0J-249999D01*
G01*
G37*
G04 #@! TD.AperFunction*
G04 #@! TO.P,C5,1*
G04 #@! TO.N,5Vout*
G04 #@! TA.AperFunction,SMDPad,CuDef*
G36*
G01*
X149258000Y-71701999D02*
X149258000Y-74602001D01*
G75*
G02*
X149008001Y-74852000I-249999J0D01*
G01*
X148382999Y-74852000D01*
G75*
G02*
X148133000Y-74602001I0J249999D01*
G01*
X148133000Y-71701999D01*
G75*
G02*
X148382999Y-71452000I249999J0D01*
G01*
X149008001Y-71452000D01*
G75*
G02*
X149258000Y-71701999I0J-249999D01*
G01*
G37*
G04 #@! TD.AperFunction*
G04 #@! TD*
D10*
G04 #@! TO.P,C3,2*
G04 #@! TO.N,GND*
X123718000Y-73660000D03*
G04 #@! TO.P,C3,1*
G04 #@! TO.N,BAT+*
X126218000Y-73660000D03*
G04 #@! TD*
D11*
G04 #@! TO.P,U3,1*
G04 #@! TO.N,Net-(U3-Pad1)*
X136242000Y-72177000D03*
G04 #@! TO.P,U3,2*
G04 #@! TO.N,BAT-*
X136242000Y-72827000D03*
G04 #@! TO.P,U3,3*
X136242000Y-73477000D03*
G04 #@! TO.P,U3,4*
G04 #@! TO.N,Net-(U2-Pad1)*
X136242000Y-74127000D03*
G04 #@! TO.P,U3,5*
G04 #@! TO.N,Net-(U2-Pad3)*
X142142000Y-74127000D03*
G04 #@! TO.P,U3,6*
G04 #@! TO.N,GND*
X142142000Y-73477000D03*
G04 #@! TO.P,U3,7*
X142142000Y-72827000D03*
G04 #@! TO.P,U3,8*
G04 #@! TO.N,Net-(U3-Pad8)*
X142142000Y-72177000D03*
G04 #@! TD*
D12*
G04 #@! TO.P,R4,1*
G04 #@! TO.N,GND*
X138684000Y-69934000D03*
G04 #@! TO.P,R4,2*
G04 #@! TO.N,Net-(R4-Pad2)*
X138684000Y-67734000D03*
G04 #@! TD*
G04 #@! TO.P,R6,2*
G04 #@! TO.N,EN*
G04 #@! TA.AperFunction,SMDPad,CuDef*
G36*
G01*
X154374000Y-65734250D02*
X154374000Y-64821750D01*
G75*
G02*
X154617750Y-64578000I243750J0D01*
G01*
X155105250Y-64578000D01*
G75*
G02*
X155349000Y-64821750I0J-243750D01*
G01*
X155349000Y-65734250D01*
G75*
G02*
X155105250Y-65978000I-243750J0D01*
G01*
X154617750Y-65978000D01*
G75*
G02*
X154374000Y-65734250I0J243750D01*
G01*
G37*
G04 #@! TD.AperFunction*
G04 #@! TO.P,R6,1*
G04 #@! TO.N,BAT+*
G04 #@! TA.AperFunction,SMDPad,CuDef*
G36*
G01*
X152499000Y-65734250D02*
X152499000Y-64821750D01*
G75*
G02*
X152742750Y-64578000I243750J0D01*
G01*
X153230250Y-64578000D01*
G75*
G02*
X153474000Y-64821750I0J-243750D01*
G01*
X153474000Y-65734250D01*
G75*
G02*
X153230250Y-65978000I-243750J0D01*
G01*
X152742750Y-65978000D01*
G75*
G02*
X152499000Y-65734250I0J243750D01*
G01*
G37*
G04 #@! TD.AperFunction*
G04 #@! TD*
G04 #@! TO.P,C4,2*
G04 #@! TO.N,GND*
G04 #@! TA.AperFunction,SMDPad,CuDef*
G36*
G01*
X140535999Y-69647000D02*
X143436001Y-69647000D01*
G75*
G02*
X143686000Y-69896999I0J-249999D01*
G01*
X143686000Y-70522001D01*
G75*
G02*
X143436001Y-70772000I-249999J0D01*
G01*
X140535999Y-70772000D01*
G75*
G02*
X140286000Y-70522001I0J249999D01*
G01*
X140286000Y-69896999D01*
G75*
G02*
X140535999Y-69647000I249999J0D01*
G01*
G37*
G04 #@! TD.AperFunction*
G04 #@! TO.P,C4,1*
G04 #@! TO.N,BAT+*
G04 #@! TA.AperFunction,SMDPad,CuDef*
G36*
G01*
X140535999Y-65372000D02*
X143436001Y-65372000D01*
G75*
G02*
X143686000Y-65621999I0J-249999D01*
G01*
X143686000Y-66247001D01*
G75*
G02*
X143436001Y-66497000I-249999J0D01*
G01*
X140535999Y-66497000D01*
G75*
G02*
X140286000Y-66247001I0J249999D01*
G01*
X140286000Y-65621999D01*
G75*
G02*
X140535999Y-65372000I249999J0D01*
G01*
G37*
G04 #@! TD.AperFunction*
G04 #@! TD*
G04 #@! TO.P,R7,2*
G04 #@! TO.N,5Vout*
G04 #@! TA.AperFunction,SMDPad,CuDef*
G36*
G01*
X156515750Y-69792000D02*
X157428250Y-69792000D01*
G75*
G02*
X157672000Y-70035750I0J-243750D01*
G01*
X157672000Y-70523250D01*
G75*
G02*
X157428250Y-70767000I-243750J0D01*
G01*
X156515750Y-70767000D01*
G75*
G02*
X156272000Y-70523250I0J243750D01*
G01*
X156272000Y-70035750D01*
G75*
G02*
X156515750Y-69792000I243750J0D01*
G01*
G37*
G04 #@! TD.AperFunction*
G04 #@! TO.P,R7,1*
G04 #@! TO.N,Net-(R7-Pad1)*
G04 #@! TA.AperFunction,SMDPad,CuDef*
G36*
G01*
X156515750Y-67917000D02*
X157428250Y-67917000D01*
G75*
G02*
X157672000Y-68160750I0J-243750D01*
G01*
X157672000Y-68648250D01*
G75*
G02*
X157428250Y-68892000I-243750J0D01*
G01*
X156515750Y-68892000D01*
G75*
G02*
X156272000Y-68648250I0J243750D01*
G01*
X156272000Y-68160750D01*
G75*
G02*
X156515750Y-67917000I243750J0D01*
G01*
G37*
G04 #@! TD.AperFunction*
G04 #@! TD*
D13*
G04 #@! TO.P,L1,2*
G04 #@! TO.N,Net-(D3-Pad2)*
X148082000Y-70002000D03*
G04 #@! TO.P,L1,1*
G04 #@! TO.N,BAT+*
X148082000Y-63602000D03*
G04 #@! TD*
D14*
G04 #@! TO.P,D3,2*
G04 #@! TO.N,Net-(D3-Pad2)*
X155162000Y-73152000D03*
G04 #@! TO.P,D3,1*
G04 #@! TO.N,5Vout*
X151162000Y-73152000D03*
G04 #@! TD*
D15*
G04 #@! TO.P,Charge,2*
G04 #@! TO.N,IN+*
X123952000Y-66548000D03*
D16*
G04 #@! TO.P,Charge,1*
G04 #@! TO.N,GND*
X123952000Y-65278000D03*
G04 #@! TD*
D15*
G04 #@! TO.P,Bat EN GND 5V,4*
G04 #@! TO.N,BAT+*
X138938000Y-63500000D03*
G04 #@! TO.P,Bat EN GND 5V,3*
G04 #@! TO.N,EN*
X140208000Y-63500000D03*
G04 #@! TO.P,Bat EN GND 5V,2*
G04 #@! TO.N,GND*
X141478000Y-63500000D03*
D16*
G04 #@! TO.P,Bat EN GND 5V,1*
G04 #@! TO.N,5Vout*
X142748000Y-63500000D03*
G04 #@! TD*
D15*
G04 #@! TO.P,Bat-+,2*
G04 #@! TO.N,BAT-*
X133858000Y-73406000D03*
D16*
G04 #@! TO.P,Bat-+,1*
G04 #@! TO.N,BAT+*
X132588000Y-73406000D03*
G04 #@! TD*
D17*
G04 #@! TO.P,U4,5*
G04 #@! TO.N,BAT+*
X153924000Y-67988000D03*
G04 #@! TO.P,U4,6*
G04 #@! TO.N,Net-(U4-Pad6)*
X152974000Y-67988000D03*
G04 #@! TO.P,U4,4*
G04 #@! TO.N,EN*
X154874000Y-67988000D03*
G04 #@! TO.P,U4,3*
G04 #@! TO.N,Net-(R7-Pad1)*
X154874000Y-70188000D03*
G04 #@! TO.P,U4,2*
G04 #@! TO.N,GND*
X153924000Y-70188000D03*
G04 #@! TO.P,U4,1*
G04 #@! TO.N,Net-(D3-Pad2)*
X152974000Y-70188000D03*
G04 #@! TD*
G04 #@! TO.P,R8,2*
G04 #@! TO.N,Net-(R7-Pad1)*
G04 #@! TA.AperFunction,SMDPad,CuDef*
G36*
G01*
X154374000Y-63702250D02*
X154374000Y-62789750D01*
G75*
G02*
X154617750Y-62546000I243750J0D01*
G01*
X155105250Y-62546000D01*
G75*
G02*
X155349000Y-62789750I0J-243750D01*
G01*
X155349000Y-63702250D01*
G75*
G02*
X155105250Y-63946000I-243750J0D01*
G01*
X154617750Y-63946000D01*
G75*
G02*
X154374000Y-63702250I0J243750D01*
G01*
G37*
G04 #@! TD.AperFunction*
G04 #@! TO.P,R8,1*
G04 #@! TO.N,GND*
G04 #@! TA.AperFunction,SMDPad,CuDef*
G36*
G01*
X152499000Y-63702250D02*
X152499000Y-62789750D01*
G75*
G02*
X152742750Y-62546000I243750J0D01*
G01*
X153230250Y-62546000D01*
G75*
G02*
X153474000Y-62789750I0J-243750D01*
G01*
X153474000Y-63702250D01*
G75*
G02*
X153230250Y-63946000I-243750J0D01*
G01*
X152742750Y-63946000D01*
G75*
G02*
X152499000Y-63702250I0J243750D01*
G01*
G37*
G04 #@! TD.AperFunction*
G04 #@! TD*
D18*
G04 #@! TO.P,C1,1*
G04 #@! TO.N,IN+*
X124714000Y-68981000D03*
G04 #@! TO.P,C1,2*
G04 #@! TO.N,GND*
X124714000Y-71481000D03*
G04 #@! TD*
D10*
G04 #@! TO.P,C2,1*
G04 #@! TO.N,Net-(C2-Pad1)*
X136124000Y-65024000D03*
G04 #@! TO.P,C2,2*
G04 #@! TO.N,BAT-*
X133624000Y-65024000D03*
G04 #@! TD*
D19*
G04 #@! TO.P,U2,1*
G04 #@! TO.N,Net-(U2-Pad1)*
X135117800Y-69917300D03*
G04 #@! TO.P,U2,2*
G04 #@! TO.N,Net-(R4-Pad2)*
X136067800Y-69917300D03*
G04 #@! TO.P,U2,3*
G04 #@! TO.N,Net-(U2-Pad3)*
X137017800Y-69917300D03*
G04 #@! TO.P,U2,4*
G04 #@! TO.N,Net-(U2-Pad4)*
X137017800Y-67217300D03*
G04 #@! TO.P,U2,6*
G04 #@! TO.N,BAT-*
X135117800Y-67217300D03*
G04 #@! TO.P,U2,5*
G04 #@! TO.N,Net-(C2-Pad1)*
X136067800Y-67217300D03*
G04 #@! TD*
D20*
G04 #@! TO.P,R1,1*
G04 #@! TO.N,Net-(R1-Pad1)*
X129624000Y-61722000D03*
G04 #@! TO.P,R1,2*
G04 #@! TO.N,Net-(D2-Pad1)*
X127424000Y-61722000D03*
G04 #@! TD*
G04 #@! TO.P,R2,1*
G04 #@! TO.N,Net-(R2-Pad1)*
X129624000Y-63246000D03*
G04 #@! TO.P,R2,2*
G04 #@! TO.N,Net-(D1-Pad1)*
X127424000Y-63246000D03*
G04 #@! TD*
G04 #@! TO.P,R3,1*
G04 #@! TO.N,GND*
X130386000Y-73406000D03*
G04 #@! TO.P,R3,2*
G04 #@! TO.N,Net-(R3-Pad2)*
X128186000Y-73406000D03*
G04 #@! TD*
D12*
G04 #@! TO.P,R5,1*
G04 #@! TO.N,BAT+*
X133350000Y-69934000D03*
G04 #@! TO.P,R5,2*
G04 #@! TO.N,Net-(C2-Pad1)*
X133350000Y-67734000D03*
G04 #@! TD*
D20*
G04 #@! TO.P,D1,1*
G04 #@! TO.N,Net-(D1-Pad1)*
X125560000Y-63246000D03*
G04 #@! TO.P,D1,2*
G04 #@! TO.N,IN+*
X123360000Y-63246000D03*
G04 #@! TD*
G04 #@! TO.P,D2,1*
G04 #@! TO.N,Net-(D2-Pad1)*
X125560000Y-61722000D03*
G04 #@! TO.P,D2,2*
G04 #@! TO.N,IN+*
X123360000Y-61722000D03*
G04 #@! TD*
D21*
G04 #@! TO.P,U1,1*
G04 #@! TO.N,GND*
X126619000Y-71280000D03*
G04 #@! TO.P,U1,2*
G04 #@! TO.N,Net-(R3-Pad2)*
X127889000Y-71280000D03*
G04 #@! TO.P,U1,3*
G04 #@! TO.N,GND*
X129159000Y-71280000D03*
G04 #@! TO.P,U1,4*
G04 #@! TO.N,IN+*
X130429000Y-71280000D03*
G04 #@! TO.P,U1,5*
G04 #@! TO.N,BAT+*
X130429000Y-65880000D03*
G04 #@! TO.P,U1,6*
G04 #@! TO.N,Net-(R1-Pad1)*
X129159000Y-65880000D03*
G04 #@! TO.P,U1,7*
G04 #@! TO.N,Net-(R2-Pad1)*
X127889000Y-65880000D03*
G04 #@! TO.P,U1,8*
G04 #@! TO.N,IN+*
X126619000Y-65880000D03*
D22*
G04 #@! TO.P,U1,9*
X128524000Y-68580000D03*
G04 #@! TD*
D23*
G04 #@! TO.N,GND*
X152908000Y-63246000D03*
G04 #@! TO.N,BAT-*
X133604000Y-65024000D03*
G04 #@! TO.N,GND*
X130386000Y-73406000D03*
X131826000Y-65786000D03*
G04 #@! TO.N,5Vout*
X151130000Y-73152000D03*
X149606000Y-73152000D03*
G04 #@! TD*
D24*
G04 #@! TO.N,IN+*
X126619000Y-66675000D02*
X128524000Y-68580000D01*
X126619000Y-65880000D02*
X126619000Y-66675000D01*
X130429000Y-70485000D02*
X128524000Y-68580000D01*
X130429000Y-71280000D02*
X130429000Y-70485000D01*
X123952000Y-68219000D02*
X124714000Y-68981000D01*
X123952000Y-66548000D02*
X123952000Y-68219000D01*
X128123000Y-68981000D02*
X128524000Y-68580000D01*
X124714000Y-68981000D02*
X128123000Y-68981000D01*
D25*
X123360000Y-61722000D02*
X123360000Y-63246000D01*
X123510000Y-63246000D02*
X124526000Y-64262000D01*
X123360000Y-63246000D02*
X123510000Y-63246000D01*
X124526000Y-64262000D02*
X125476000Y-64262000D01*
X126619000Y-65405000D02*
X126619000Y-65880000D01*
X125476000Y-64262000D02*
X126619000Y-65405000D01*
G04 #@! TO.N,Net-(C2-Pad1)*
X136067800Y-68273790D02*
X135761590Y-68580000D01*
X136067800Y-67217300D02*
X136067800Y-68273790D01*
X134196000Y-68580000D02*
X133350000Y-67734000D01*
X135761590Y-68580000D02*
X134196000Y-68580000D01*
X136067800Y-65080200D02*
X136124000Y-65024000D01*
X136067800Y-67217300D02*
X136067800Y-65080200D01*
D24*
G04 #@! TO.N,BAT-*
X133858000Y-73406000D02*
X134112000Y-73152000D01*
X134112000Y-73152000D02*
X136626600Y-73152000D01*
D25*
X135117800Y-66517800D02*
X133624000Y-65024000D01*
X135117800Y-67217300D02*
X135117800Y-66517800D01*
G04 #@! TO.N,Net-(D1-Pad1)*
X127424000Y-63246000D02*
X125560000Y-63246000D01*
G04 #@! TO.N,Net-(D2-Pad1)*
X127424000Y-61722000D02*
X125560000Y-61722000D01*
G04 #@! TO.N,Net-(R1-Pad1)*
X130549001Y-64064999D02*
X130549001Y-62647001D01*
X129159000Y-65455000D02*
X130549001Y-64064999D01*
X130549001Y-62647001D02*
X129624000Y-61722000D01*
X129159000Y-65880000D02*
X129159000Y-65455000D01*
G04 #@! TO.N,Net-(R2-Pad1)*
X127889000Y-64880000D02*
X129523000Y-63246000D01*
X129523000Y-63246000D02*
X129624000Y-63246000D01*
X127889000Y-65880000D02*
X127889000Y-64880000D01*
G04 #@! TO.N,Net-(R3-Pad2)*
X127889000Y-73109000D02*
X128186000Y-73406000D01*
X127889000Y-71280000D02*
X127889000Y-73109000D01*
G04 #@! TO.N,Net-(R4-Pad2)*
X136067800Y-69917300D02*
X136067800Y-68910200D01*
X136067800Y-68910200D02*
X136398000Y-68580000D01*
X137838000Y-68580000D02*
X138684000Y-67734000D01*
X136398000Y-68580000D02*
X137838000Y-68580000D01*
D24*
G04 #@! TO.N,BAT+*
X131318000Y-74676000D02*
X132588000Y-73406000D01*
X127000000Y-74676000D02*
X131318000Y-74676000D01*
X126218000Y-73660000D02*
X126218000Y-73894000D01*
X126218000Y-73894000D02*
X127000000Y-74676000D01*
X132588000Y-73406000D02*
X132588000Y-72136000D01*
X130429000Y-66344998D02*
X130429000Y-65880000D01*
X131826000Y-67741998D02*
X130429000Y-66344998D01*
X131826000Y-71374000D02*
X131826000Y-67741998D01*
X130429000Y-65151000D02*
X130429000Y-65880000D01*
X141986000Y-65934500D02*
X140610500Y-65934500D01*
X131978000Y-63602000D02*
X130429000Y-65151000D01*
X141986000Y-65934500D02*
X143361500Y-65934500D01*
X148082000Y-63602000D02*
X147726000Y-63602000D01*
X145393500Y-65934500D02*
X141986000Y-65934500D01*
X147726000Y-63602000D02*
X145393500Y-65934500D01*
X153924000Y-67092998D02*
X153924000Y-67988000D01*
X148082000Y-63602000D02*
X150433002Y-63602000D01*
D25*
X152908000Y-65278000D02*
X152508501Y-65677499D01*
X152986500Y-65278000D02*
X152908000Y-65278000D01*
D24*
X150433002Y-63602000D02*
X152508501Y-65677499D01*
X152508501Y-65677499D02*
X153924000Y-67092998D01*
D25*
X148082000Y-63602000D02*
X147676000Y-63602000D01*
X147650600Y-63602000D02*
X148082000Y-63602000D01*
X138938000Y-63500000D02*
X138557000Y-63881000D01*
D24*
X140610500Y-65934500D02*
X138557000Y-63881000D01*
X138557000Y-63881000D02*
X138278000Y-63602000D01*
X131978000Y-63602000D02*
X138278000Y-63602000D01*
D25*
X133350000Y-69934000D02*
X133350000Y-71374000D01*
D24*
X132207000Y-71755000D02*
X131826000Y-71374000D01*
X132588000Y-72136000D02*
X132207000Y-71755000D01*
D25*
X132969000Y-71755000D02*
X132207000Y-71755000D01*
X132969000Y-71755000D02*
X132588000Y-72136000D01*
X133350000Y-71374000D02*
X132969000Y-71755000D01*
G04 #@! TO.N,Net-(U2-Pad1)*
X135117800Y-70657302D02*
X135117800Y-69917300D01*
X135482799Y-71022301D02*
X135117800Y-70657302D01*
X136622303Y-71022301D02*
X135482799Y-71022301D01*
X137301610Y-71701608D02*
X136622303Y-71022301D01*
X137301610Y-73952392D02*
X137301610Y-71701608D01*
X137127002Y-74127000D02*
X137301610Y-73952392D01*
X136242000Y-74127000D02*
X137127002Y-74127000D01*
D24*
G04 #@! TO.N,GND*
X123825000Y-73553000D02*
X123718000Y-73660000D01*
D25*
X130386000Y-73406000D02*
X130386000Y-73406000D01*
G04 #@! TO.N,Net-(U2-Pad3)*
X142142000Y-74127000D02*
X141167000Y-74127000D01*
X137017800Y-69917300D02*
X137017800Y-70215800D01*
X140929000Y-74127000D02*
X141167000Y-74127000D01*
X137017800Y-70215800D02*
X140929000Y-74127000D01*
D24*
G04 #@! TO.N,5Vout*
X151162000Y-73152000D02*
X150622000Y-73152000D01*
X150622000Y-73152000D02*
X150114000Y-73660000D01*
X149203500Y-73660000D02*
X148695500Y-73152000D01*
X150114000Y-73660000D02*
X149203500Y-73660000D01*
X151162000Y-73152000D02*
X151130000Y-73152000D01*
X151130000Y-73152000D02*
X150622000Y-72644000D01*
X150622000Y-72644000D02*
X149352000Y-72644000D01*
X149352000Y-72644000D02*
X149352000Y-72898000D01*
X149352000Y-72898000D02*
X149606000Y-73152000D01*
D25*
X151162000Y-73152000D02*
X151384000Y-73152000D01*
D24*
G04 #@! TO.N,Net-(D3-Pad2)*
X148268000Y-70188000D02*
X148082000Y-70002000D01*
X152974000Y-70964000D02*
X155162000Y-73152000D01*
X152974000Y-70188000D02*
X152974000Y-70964000D01*
X152788000Y-70002000D02*
X152974000Y-70188000D01*
X151994000Y-70002000D02*
X152012000Y-70002000D01*
X151994000Y-70002000D02*
X152788000Y-70002000D01*
X152012000Y-70002000D02*
X152974000Y-70964000D01*
X148082000Y-70002000D02*
X151994000Y-70002000D01*
D25*
G04 #@! TO.N,EN*
X154874000Y-65290500D02*
X154861500Y-65278000D01*
X154874000Y-67988000D02*
X154874000Y-65290500D01*
X153799010Y-64137010D02*
X154940000Y-65278000D01*
X153799010Y-62554160D02*
X153799010Y-64137010D01*
X153465840Y-62220990D02*
X153799010Y-62554160D01*
X141487010Y-62220990D02*
X153465840Y-62220990D01*
X140208000Y-63500000D02*
X141487010Y-62220990D01*
X154861500Y-65278000D02*
X154940000Y-65278000D01*
G04 #@! TO.N,Net-(R7-Pad1)*
X154861500Y-63773650D02*
X154861500Y-63246000D01*
X156972000Y-65884150D02*
X154861500Y-63773650D01*
X156972000Y-68404500D02*
X156972000Y-65884150D01*
X156972000Y-68404500D02*
X156639500Y-68404500D01*
X154874000Y-70170000D02*
X154874000Y-70188000D01*
X156639500Y-68404500D02*
X154874000Y-70170000D01*
D24*
G04 #@! TO.N,5Vout*
X151130000Y-73152000D02*
X151130000Y-73152000D01*
X149606000Y-73152000D02*
X149606000Y-73152000D01*
D25*
X151130000Y-73152000D02*
X151638000Y-73152000D01*
X151638000Y-73152000D02*
X153061027Y-74575027D01*
X156972000Y-74077002D02*
X156972000Y-70279500D01*
X156473975Y-74575027D02*
X156972000Y-74077002D01*
X153061027Y-74575027D02*
X156473975Y-74575027D01*
G04 #@! TD*
D26*
G04 #@! TO.N,GND*
G36*
X158375001Y-75190000D02*
G01*
X131716290Y-75190000D01*
X131779843Y-75137843D01*
X131800200Y-75113038D01*
X132061238Y-74852000D01*
X143556548Y-74852000D01*
X143562340Y-74910810D01*
X143579495Y-74967361D01*
X143607352Y-75019478D01*
X143644841Y-75065159D01*
X143690522Y-75102648D01*
X143742639Y-75130505D01*
X143799190Y-75147660D01*
X143858000Y-75153452D01*
X144191500Y-75152000D01*
X144266500Y-75077000D01*
X144266500Y-73306000D01*
X144574500Y-73306000D01*
X144574500Y-75077000D01*
X144649500Y-75152000D01*
X144983000Y-75153452D01*
X145041810Y-75147660D01*
X145098361Y-75130505D01*
X145150478Y-75102648D01*
X145196159Y-75065159D01*
X145233648Y-75019478D01*
X145261505Y-74967361D01*
X145278660Y-74910810D01*
X145284452Y-74852000D01*
X145283000Y-73381000D01*
X145208000Y-73306000D01*
X144574500Y-73306000D01*
X144266500Y-73306000D01*
X143633000Y-73306000D01*
X143558000Y-73381000D01*
X143556548Y-74852000D01*
X132061238Y-74852000D01*
X132705788Y-74207451D01*
X133088000Y-74207451D01*
X133146810Y-74201659D01*
X133203360Y-74184504D01*
X133255477Y-74156647D01*
X133301158Y-74119158D01*
X133338647Y-74073477D01*
X133359263Y-74034907D01*
X133479058Y-74114951D01*
X133624649Y-74175257D01*
X133779207Y-74206000D01*
X133936793Y-74206000D01*
X134091351Y-74175257D01*
X134236942Y-74114951D01*
X134367970Y-74027401D01*
X134479401Y-73915970D01*
X134555553Y-73802000D01*
X135233836Y-73802000D01*
X135221341Y-73843190D01*
X135215549Y-73902000D01*
X135215549Y-74352000D01*
X135221341Y-74410810D01*
X135238496Y-74467360D01*
X135266353Y-74519477D01*
X135303842Y-74565158D01*
X135349523Y-74602647D01*
X135401640Y-74630504D01*
X135458190Y-74647659D01*
X135517000Y-74653451D01*
X136967000Y-74653451D01*
X137025810Y-74647659D01*
X137082360Y-74630504D01*
X137134477Y-74602647D01*
X137180158Y-74565158D01*
X137194745Y-74547384D01*
X137210316Y-74545850D01*
X137290429Y-74521548D01*
X137364262Y-74482084D01*
X137428976Y-74428974D01*
X137442286Y-74412756D01*
X137587368Y-74267674D01*
X137603584Y-74254366D01*
X137656694Y-74189652D01*
X137696158Y-74115819D01*
X137720460Y-74035706D01*
X137726610Y-73973266D01*
X137726610Y-73973260D01*
X137728665Y-73952393D01*
X137726610Y-73931526D01*
X137726610Y-71722474D01*
X137728665Y-71701607D01*
X137726610Y-71680740D01*
X137726610Y-71680734D01*
X137720460Y-71618294D01*
X137720112Y-71617145D01*
X137712354Y-71591573D01*
X137696158Y-71538181D01*
X137656694Y-71464348D01*
X137617270Y-71416310D01*
X140613721Y-74412762D01*
X140627026Y-74428974D01*
X140691740Y-74482084D01*
X140765573Y-74521548D01*
X140821383Y-74538478D01*
X140845685Y-74545850D01*
X140854098Y-74546679D01*
X140908126Y-74552000D01*
X140908132Y-74552000D01*
X140928999Y-74554055D01*
X140949866Y-74552000D01*
X141193044Y-74552000D01*
X141203842Y-74565158D01*
X141249523Y-74602647D01*
X141301640Y-74630504D01*
X141358190Y-74647659D01*
X141417000Y-74653451D01*
X142867000Y-74653451D01*
X142925810Y-74647659D01*
X142982360Y-74630504D01*
X143034477Y-74602647D01*
X143080158Y-74565158D01*
X143117647Y-74519477D01*
X143145504Y-74467360D01*
X143162659Y-74410810D01*
X143168451Y-74352000D01*
X143168451Y-73902000D01*
X143162659Y-73843190D01*
X143150164Y-73802002D01*
X143162660Y-73760810D01*
X143168452Y-73702000D01*
X143167000Y-73677000D01*
X143092000Y-73602000D01*
X142881733Y-73602000D01*
X142867000Y-73600549D01*
X141417000Y-73600549D01*
X141402267Y-73602000D01*
X141192000Y-73602000D01*
X141117000Y-73677000D01*
X141115548Y-73702000D01*
X141105041Y-73702000D01*
X140455041Y-73052000D01*
X141115548Y-73052000D01*
X141121340Y-73110810D01*
X141133835Y-73151999D01*
X141121340Y-73193190D01*
X141115548Y-73252000D01*
X141117000Y-73277000D01*
X141192000Y-73352000D01*
X141402257Y-73352000D01*
X141417000Y-73353452D01*
X141913000Y-73352000D01*
X141988000Y-73352000D01*
X141988000Y-72952000D01*
X142296000Y-72952000D01*
X142296000Y-73352000D01*
X142371000Y-73352000D01*
X142867000Y-73353452D01*
X142881743Y-73352000D01*
X143092000Y-73352000D01*
X143167000Y-73277000D01*
X143168452Y-73252000D01*
X143162660Y-73193190D01*
X143150165Y-73151999D01*
X143162660Y-73110810D01*
X143168452Y-73052000D01*
X143167000Y-73027000D01*
X143092000Y-72952000D01*
X142881743Y-72952000D01*
X142867000Y-72950548D01*
X142371000Y-72952000D01*
X142296000Y-72952000D01*
X141988000Y-72952000D01*
X141913000Y-72952000D01*
X141417000Y-72950548D01*
X141402257Y-72952000D01*
X141192000Y-72952000D01*
X141117000Y-73027000D01*
X141115548Y-73052000D01*
X140455041Y-73052000D01*
X140005041Y-72602000D01*
X141115548Y-72602000D01*
X141117000Y-72627000D01*
X141192000Y-72702000D01*
X141402267Y-72702000D01*
X141417000Y-72703451D01*
X142867000Y-72703451D01*
X142881733Y-72702000D01*
X143092000Y-72702000D01*
X143167000Y-72627000D01*
X143168452Y-72602000D01*
X143162660Y-72543190D01*
X143150164Y-72501998D01*
X143162659Y-72460810D01*
X143168451Y-72402000D01*
X143168451Y-71952000D01*
X143162659Y-71893190D01*
X143145504Y-71836640D01*
X143117647Y-71784523D01*
X143080158Y-71738842D01*
X143034477Y-71701353D01*
X142982360Y-71673496D01*
X142925810Y-71656341D01*
X142867000Y-71650549D01*
X141417000Y-71650549D01*
X141358190Y-71656341D01*
X141301640Y-71673496D01*
X141249523Y-71701353D01*
X141203842Y-71738842D01*
X141166353Y-71784523D01*
X141138496Y-71836640D01*
X141121341Y-71893190D01*
X141115549Y-71952000D01*
X141115549Y-72402000D01*
X141121341Y-72460810D01*
X141133836Y-72501998D01*
X141121340Y-72543190D01*
X141115548Y-72602000D01*
X140005041Y-72602000D01*
X138855041Y-71452000D01*
X143556548Y-71452000D01*
X143558000Y-72923000D01*
X143633000Y-72998000D01*
X144266500Y-72998000D01*
X144266500Y-71227000D01*
X144574500Y-71227000D01*
X144574500Y-72998000D01*
X145208000Y-72998000D01*
X145283000Y-72923000D01*
X145284452Y-71452000D01*
X145278660Y-71393190D01*
X145261505Y-71336639D01*
X145233648Y-71284522D01*
X145196159Y-71238841D01*
X145150478Y-71201352D01*
X145098361Y-71173495D01*
X145041810Y-71156340D01*
X144983000Y-71150548D01*
X144649500Y-71152000D01*
X144574500Y-71227000D01*
X144266500Y-71227000D01*
X144191500Y-71152000D01*
X143858000Y-71150548D01*
X143799190Y-71156340D01*
X143742639Y-71173495D01*
X143690522Y-71201352D01*
X143644841Y-71238841D01*
X143607352Y-71284522D01*
X143579495Y-71336639D01*
X143562340Y-71393190D01*
X143556548Y-71452000D01*
X138855041Y-71452000D01*
X138238463Y-70835423D01*
X138455000Y-70834000D01*
X138530000Y-70759000D01*
X138530000Y-70088000D01*
X138838000Y-70088000D01*
X138838000Y-70759000D01*
X138913000Y-70834000D01*
X139134000Y-70835452D01*
X139192810Y-70829660D01*
X139249361Y-70812505D01*
X139301478Y-70784648D01*
X139316889Y-70772000D01*
X139984548Y-70772000D01*
X139990340Y-70830810D01*
X140007495Y-70887361D01*
X140035352Y-70939478D01*
X140072841Y-70985159D01*
X140118522Y-71022648D01*
X140170639Y-71050505D01*
X140227190Y-71067660D01*
X140286000Y-71073452D01*
X141757000Y-71072000D01*
X141832000Y-70997000D01*
X141832000Y-70363500D01*
X142140000Y-70363500D01*
X142140000Y-70997000D01*
X142215000Y-71072000D01*
X143686000Y-71073452D01*
X143744810Y-71067660D01*
X143801361Y-71050505D01*
X143853478Y-71022648D01*
X143899159Y-70985159D01*
X143936648Y-70939478D01*
X143964505Y-70887361D01*
X143981660Y-70830810D01*
X143987452Y-70772000D01*
X143986000Y-70438500D01*
X143911000Y-70363500D01*
X142140000Y-70363500D01*
X141832000Y-70363500D01*
X140061000Y-70363500D01*
X139986000Y-70438500D01*
X139984548Y-70772000D01*
X139316889Y-70772000D01*
X139347159Y-70747159D01*
X139384648Y-70701478D01*
X139412505Y-70649361D01*
X139429660Y-70592810D01*
X139435452Y-70534000D01*
X139434000Y-70163000D01*
X139359000Y-70088000D01*
X138838000Y-70088000D01*
X138530000Y-70088000D01*
X138009000Y-70088000D01*
X137934000Y-70163000D01*
X137932566Y-70529525D01*
X137644251Y-70241211D01*
X137644251Y-69334000D01*
X137932548Y-69334000D01*
X137934000Y-69705000D01*
X138009000Y-69780000D01*
X138530000Y-69780000D01*
X138530000Y-69109000D01*
X138838000Y-69109000D01*
X138838000Y-69780000D01*
X139359000Y-69780000D01*
X139434000Y-69705000D01*
X139434226Y-69647000D01*
X139984548Y-69647000D01*
X139986000Y-69980500D01*
X140061000Y-70055500D01*
X141832000Y-70055500D01*
X141832000Y-69422000D01*
X142140000Y-69422000D01*
X142140000Y-70055500D01*
X143911000Y-70055500D01*
X143986000Y-69980500D01*
X143987452Y-69647000D01*
X143981660Y-69588190D01*
X143964505Y-69531639D01*
X143936648Y-69479522D01*
X143899159Y-69433841D01*
X143853478Y-69396352D01*
X143801361Y-69368495D01*
X143744810Y-69351340D01*
X143686000Y-69345548D01*
X142215000Y-69347000D01*
X142140000Y-69422000D01*
X141832000Y-69422000D01*
X141757000Y-69347000D01*
X140286000Y-69345548D01*
X140227190Y-69351340D01*
X140170639Y-69368495D01*
X140118522Y-69396352D01*
X140072841Y-69433841D01*
X140035352Y-69479522D01*
X140007495Y-69531639D01*
X139990340Y-69588190D01*
X139984548Y-69647000D01*
X139434226Y-69647000D01*
X139435452Y-69334000D01*
X139429660Y-69275190D01*
X139412505Y-69218639D01*
X139384648Y-69166522D01*
X139347159Y-69120841D01*
X139301478Y-69083352D01*
X139249361Y-69055495D01*
X139192810Y-69038340D01*
X139134000Y-69032548D01*
X138913000Y-69034000D01*
X138838000Y-69109000D01*
X138530000Y-69109000D01*
X138455000Y-69034000D01*
X138234000Y-69032548D01*
X138175190Y-69038340D01*
X138118639Y-69055495D01*
X138066522Y-69083352D01*
X138020841Y-69120841D01*
X137983352Y-69166522D01*
X137955495Y-69218639D01*
X137938340Y-69275190D01*
X137932548Y-69334000D01*
X137644251Y-69334000D01*
X137644251Y-69137300D01*
X137638459Y-69078490D01*
X137621304Y-69021940D01*
X137612249Y-69005000D01*
X137817133Y-69005000D01*
X137838000Y-69007055D01*
X137858867Y-69005000D01*
X137858874Y-69005000D01*
X137921314Y-68998850D01*
X138001427Y-68974548D01*
X138075260Y-68935084D01*
X138139974Y-68881974D01*
X138153283Y-68865757D01*
X138383589Y-68635451D01*
X139134000Y-68635451D01*
X139192810Y-68629659D01*
X139249360Y-68612504D01*
X139301477Y-68584647D01*
X139347158Y-68547158D01*
X139384647Y-68501477D01*
X139412504Y-68449360D01*
X139429659Y-68392810D01*
X139435451Y-68334000D01*
X139435451Y-67134000D01*
X139429659Y-67075190D01*
X139412504Y-67018640D01*
X139384647Y-66966523D01*
X139347158Y-66920842D01*
X139301477Y-66883353D01*
X139249360Y-66855496D01*
X139192810Y-66838341D01*
X139134000Y-66832549D01*
X138234000Y-66832549D01*
X138175190Y-66838341D01*
X138118640Y-66855496D01*
X138066523Y-66883353D01*
X138020842Y-66920842D01*
X137983353Y-66966523D01*
X137955496Y-67018640D01*
X137938341Y-67075190D01*
X137932549Y-67134000D01*
X137932549Y-67884411D01*
X137661960Y-68155000D01*
X137598673Y-68155000D01*
X137621304Y-68112660D01*
X137638459Y-68056110D01*
X137644251Y-67997300D01*
X137644251Y-66437300D01*
X137638459Y-66378490D01*
X137621304Y-66321940D01*
X137593447Y-66269823D01*
X137555958Y-66224142D01*
X137510277Y-66186653D01*
X137458160Y-66158796D01*
X137401610Y-66141641D01*
X137342800Y-66135849D01*
X136692800Y-66135849D01*
X136633990Y-66141641D01*
X136577440Y-66158796D01*
X136542800Y-66177311D01*
X136508160Y-66158796D01*
X136492800Y-66154136D01*
X136492800Y-65950451D01*
X136874000Y-65950451D01*
X136932810Y-65944659D01*
X136989360Y-65927504D01*
X137041477Y-65899647D01*
X137087158Y-65862158D01*
X137124647Y-65816477D01*
X137152504Y-65764360D01*
X137169659Y-65707810D01*
X137175451Y-65649000D01*
X137175451Y-64399000D01*
X137169659Y-64340190D01*
X137152504Y-64283640D01*
X137135592Y-64252000D01*
X138008762Y-64252000D01*
X138074802Y-64318040D01*
X139984549Y-66227788D01*
X139984549Y-66247001D01*
X139995145Y-66354584D01*
X140026526Y-66458032D01*
X140077485Y-66553370D01*
X140146065Y-66636935D01*
X140229630Y-66705515D01*
X140324968Y-66756474D01*
X140428416Y-66787855D01*
X140535999Y-66798451D01*
X143436001Y-66798451D01*
X143543584Y-66787855D01*
X143647032Y-66756474D01*
X143742370Y-66705515D01*
X143825935Y-66636935D01*
X143868967Y-66584500D01*
X145361579Y-66584500D01*
X145393500Y-66587644D01*
X145425421Y-66584500D01*
X145425432Y-66584500D01*
X145520922Y-66575095D01*
X145643448Y-66537927D01*
X145756368Y-66477570D01*
X145855343Y-66396343D01*
X145875700Y-66371538D01*
X147593788Y-64653451D01*
X149182000Y-64653451D01*
X149240810Y-64647659D01*
X149297360Y-64630504D01*
X149349477Y-64602647D01*
X149395158Y-64565158D01*
X149432647Y-64519477D01*
X149460504Y-64467360D01*
X149477659Y-64410810D01*
X149483451Y-64352000D01*
X149483451Y-64252000D01*
X150163764Y-64252000D01*
X153068313Y-67156549D01*
X152649000Y-67156549D01*
X152590190Y-67162341D01*
X152533640Y-67179496D01*
X152481523Y-67207353D01*
X152435842Y-67244842D01*
X152398353Y-67290523D01*
X152370496Y-67342640D01*
X152353341Y-67399190D01*
X152347549Y-67458000D01*
X152347549Y-68518000D01*
X152353341Y-68576810D01*
X152370496Y-68633360D01*
X152398353Y-68685477D01*
X152435842Y-68731158D01*
X152481523Y-68768647D01*
X152533640Y-68796504D01*
X152590190Y-68813659D01*
X152649000Y-68819451D01*
X153299000Y-68819451D01*
X153357810Y-68813659D01*
X153414360Y-68796504D01*
X153449000Y-68777989D01*
X153483640Y-68796504D01*
X153540190Y-68813659D01*
X153599000Y-68819451D01*
X154249000Y-68819451D01*
X154307810Y-68813659D01*
X154364360Y-68796504D01*
X154399000Y-68777989D01*
X154433640Y-68796504D01*
X154490190Y-68813659D01*
X154549000Y-68819451D01*
X155199000Y-68819451D01*
X155257810Y-68813659D01*
X155314360Y-68796504D01*
X155366477Y-68768647D01*
X155412158Y-68731158D01*
X155449647Y-68685477D01*
X155477504Y-68633360D01*
X155494659Y-68576810D01*
X155500451Y-68518000D01*
X155500451Y-67458000D01*
X155494659Y-67399190D01*
X155477504Y-67342640D01*
X155449647Y-67290523D01*
X155412158Y-67244842D01*
X155366477Y-67207353D01*
X155314360Y-67179496D01*
X155299000Y-67174836D01*
X155299000Y-66242467D01*
X155313889Y-66237950D01*
X155408147Y-66187568D01*
X155490765Y-66119765D01*
X155558568Y-66037147D01*
X155608950Y-65942889D01*
X155639975Y-65840613D01*
X155650451Y-65734250D01*
X155650451Y-65163642D01*
X156547001Y-66060192D01*
X156547000Y-67615549D01*
X156515750Y-67615549D01*
X156409387Y-67626025D01*
X156307111Y-67657050D01*
X156212853Y-67707432D01*
X156130235Y-67775235D01*
X156062432Y-67857853D01*
X156012050Y-67952111D01*
X155981025Y-68054387D01*
X155970549Y-68160750D01*
X155970549Y-68472410D01*
X155086411Y-69356549D01*
X154549000Y-69356549D01*
X154490190Y-69362341D01*
X154433640Y-69379496D01*
X154399001Y-69398011D01*
X154364361Y-69379495D01*
X154307810Y-69362340D01*
X154249000Y-69356548D01*
X154153000Y-69358000D01*
X154078000Y-69433000D01*
X154078000Y-70034000D01*
X154098000Y-70034000D01*
X154098000Y-70342000D01*
X154078000Y-70342000D01*
X154078000Y-70362000D01*
X153770000Y-70362000D01*
X153770000Y-70342000D01*
X153750000Y-70342000D01*
X153750000Y-70034000D01*
X153770000Y-70034000D01*
X153770000Y-69433000D01*
X153695000Y-69358000D01*
X153599000Y-69356548D01*
X153540190Y-69362340D01*
X153483639Y-69379495D01*
X153448999Y-69398011D01*
X153414360Y-69379496D01*
X153357810Y-69362341D01*
X153299000Y-69356549D01*
X152866118Y-69356549D01*
X152819932Y-69352000D01*
X152819921Y-69352000D01*
X152788000Y-69348856D01*
X152756079Y-69352000D01*
X152043921Y-69352000D01*
X152012000Y-69348856D01*
X151980079Y-69352000D01*
X149483451Y-69352000D01*
X149483451Y-69252000D01*
X149477659Y-69193190D01*
X149460504Y-69136640D01*
X149432647Y-69084523D01*
X149395158Y-69038842D01*
X149349477Y-69001353D01*
X149297360Y-68973496D01*
X149240810Y-68956341D01*
X149182000Y-68950549D01*
X146982000Y-68950549D01*
X146923190Y-68956341D01*
X146866640Y-68973496D01*
X146814523Y-69001353D01*
X146768842Y-69038842D01*
X146731353Y-69084523D01*
X146703496Y-69136640D01*
X146686341Y-69193190D01*
X146680549Y-69252000D01*
X146680549Y-70752000D01*
X146686341Y-70810810D01*
X146703496Y-70867360D01*
X146731353Y-70919477D01*
X146768842Y-70965158D01*
X146814523Y-71002647D01*
X146866640Y-71030504D01*
X146923190Y-71047659D01*
X146982000Y-71053451D01*
X149182000Y-71053451D01*
X149240810Y-71047659D01*
X149297360Y-71030504D01*
X149349477Y-71002647D01*
X149395158Y-70965158D01*
X149432647Y-70919477D01*
X149460504Y-70867360D01*
X149477659Y-70810810D01*
X149483451Y-70752000D01*
X149483451Y-70652000D01*
X151742762Y-70652000D01*
X152491810Y-71401049D01*
X152512158Y-71425843D01*
X152536952Y-71446191D01*
X152536959Y-71446198D01*
X152536964Y-71446202D01*
X153610549Y-72519788D01*
X153610549Y-74052000D01*
X153616341Y-74110810D01*
X153628238Y-74150027D01*
X153237068Y-74150027D01*
X152713451Y-73626410D01*
X152713451Y-72252000D01*
X152707659Y-72193190D01*
X152690504Y-72136640D01*
X152662647Y-72084523D01*
X152625158Y-72038842D01*
X152579477Y-72001353D01*
X152527360Y-71973496D01*
X152470810Y-71956341D01*
X152412000Y-71950549D01*
X149912000Y-71950549D01*
X149853190Y-71956341D01*
X149796640Y-71973496D01*
X149758280Y-71994000D01*
X149559451Y-71994000D01*
X149559451Y-71701999D01*
X149548855Y-71594416D01*
X149517474Y-71490968D01*
X149466515Y-71395630D01*
X149397935Y-71312065D01*
X149314370Y-71243485D01*
X149219032Y-71192526D01*
X149115584Y-71161145D01*
X149008001Y-71150549D01*
X148382999Y-71150549D01*
X148275416Y-71161145D01*
X148171968Y-71192526D01*
X148076630Y-71243485D01*
X147993065Y-71312065D01*
X147924485Y-71395630D01*
X147873526Y-71490968D01*
X147842145Y-71594416D01*
X147831549Y-71701999D01*
X147831549Y-74602001D01*
X147842145Y-74709584D01*
X147873526Y-74813032D01*
X147924485Y-74908370D01*
X147993065Y-74991935D01*
X148076630Y-75060515D01*
X148171968Y-75111474D01*
X148275416Y-75142855D01*
X148382999Y-75153451D01*
X149008001Y-75153451D01*
X149115584Y-75142855D01*
X149219032Y-75111474D01*
X149314370Y-75060515D01*
X149397935Y-74991935D01*
X149466515Y-74908370D01*
X149517474Y-74813032D01*
X149548855Y-74709584D01*
X149559451Y-74602001D01*
X149559451Y-74310000D01*
X149758280Y-74310000D01*
X149796640Y-74330504D01*
X149853190Y-74347659D01*
X149912000Y-74353451D01*
X152238410Y-74353451D01*
X152745748Y-74860789D01*
X152759053Y-74877001D01*
X152823767Y-74930111D01*
X152897600Y-74969575D01*
X152953410Y-74986505D01*
X152977712Y-74993877D01*
X152986125Y-74994706D01*
X153040153Y-75000027D01*
X153040159Y-75000027D01*
X153061026Y-75002082D01*
X153081893Y-75000027D01*
X156453108Y-75000027D01*
X156473975Y-75002082D01*
X156494842Y-75000027D01*
X156494849Y-75000027D01*
X156557289Y-74993877D01*
X156637402Y-74969575D01*
X156711235Y-74930111D01*
X156775949Y-74877001D01*
X156789258Y-74860784D01*
X157257763Y-74392280D01*
X157273974Y-74378976D01*
X157327084Y-74314262D01*
X157353330Y-74265158D01*
X157366548Y-74240430D01*
X157390850Y-74160316D01*
X157391275Y-74156000D01*
X157397000Y-74097876D01*
X157397000Y-74097869D01*
X157399055Y-74077002D01*
X157397000Y-74056135D01*
X157397000Y-71068451D01*
X157428250Y-71068451D01*
X157534613Y-71057975D01*
X157636889Y-71026950D01*
X157731147Y-70976568D01*
X157813765Y-70908765D01*
X157881568Y-70826147D01*
X157931950Y-70731889D01*
X157962975Y-70629613D01*
X157973451Y-70523250D01*
X157973451Y-70035750D01*
X157962975Y-69929387D01*
X157931950Y-69827111D01*
X157881568Y-69732853D01*
X157813765Y-69650235D01*
X157731147Y-69582432D01*
X157636889Y-69532050D01*
X157534613Y-69501025D01*
X157428250Y-69490549D01*
X156515750Y-69490549D01*
X156409387Y-69501025D01*
X156307111Y-69532050D01*
X156212853Y-69582432D01*
X156130235Y-69650235D01*
X156062432Y-69732853D01*
X156012050Y-69827111D01*
X155981025Y-69929387D01*
X155970549Y-70035750D01*
X155970549Y-70523250D01*
X155981025Y-70629613D01*
X156012050Y-70731889D01*
X156062432Y-70826147D01*
X156130235Y-70908765D01*
X156212853Y-70976568D01*
X156307111Y-71026950D01*
X156409387Y-71057975D01*
X156515750Y-71068451D01*
X156547001Y-71068451D01*
X156547001Y-71983994D01*
X156527360Y-71973496D01*
X156470810Y-71956341D01*
X156412000Y-71950549D01*
X154879788Y-71950549D01*
X153947238Y-71018000D01*
X154078002Y-71018000D01*
X154078002Y-70943002D01*
X154153000Y-71018000D01*
X154249000Y-71019452D01*
X154307810Y-71013660D01*
X154364361Y-70996505D01*
X154399001Y-70977989D01*
X154433640Y-70996504D01*
X154490190Y-71013659D01*
X154549000Y-71019451D01*
X155199000Y-71019451D01*
X155257810Y-71013659D01*
X155314360Y-70996504D01*
X155366477Y-70968647D01*
X155412158Y-70931158D01*
X155449647Y-70885477D01*
X155477504Y-70833360D01*
X155494659Y-70776810D01*
X155500451Y-70718000D01*
X155500451Y-70144589D01*
X156457342Y-69187698D01*
X156515750Y-69193451D01*
X157428250Y-69193451D01*
X157534613Y-69182975D01*
X157636889Y-69151950D01*
X157731147Y-69101568D01*
X157813765Y-69033765D01*
X157881568Y-68951147D01*
X157931950Y-68856889D01*
X157962975Y-68754613D01*
X157973451Y-68648250D01*
X157973451Y-68160750D01*
X157962975Y-68054387D01*
X157931950Y-67952111D01*
X157881568Y-67857853D01*
X157813765Y-67775235D01*
X157731147Y-67707432D01*
X157636889Y-67657050D01*
X157534613Y-67626025D01*
X157428250Y-67615549D01*
X157397000Y-67615549D01*
X157397000Y-65905017D01*
X157399055Y-65884150D01*
X157397000Y-65863283D01*
X157397000Y-65863276D01*
X157390850Y-65800836D01*
X157390459Y-65799547D01*
X157366548Y-65720722D01*
X157351117Y-65691854D01*
X157327084Y-65646890D01*
X157273974Y-65582176D01*
X157257762Y-65568871D01*
X155605756Y-63916865D01*
X155608950Y-63910889D01*
X155639975Y-63808613D01*
X155650451Y-63702250D01*
X155650451Y-62789750D01*
X155639975Y-62683387D01*
X155608950Y-62581111D01*
X155558568Y-62486853D01*
X155490765Y-62404235D01*
X155408147Y-62336432D01*
X155313889Y-62286050D01*
X155211613Y-62255025D01*
X155105250Y-62244549D01*
X154617750Y-62244549D01*
X154511387Y-62255025D01*
X154409111Y-62286050D01*
X154314853Y-62336432D01*
X154232235Y-62404235D01*
X154206986Y-62435000D01*
X154193558Y-62390733D01*
X154187031Y-62378522D01*
X154154094Y-62316900D01*
X154100984Y-62252186D01*
X154084768Y-62238878D01*
X153781124Y-61935234D01*
X153767814Y-61919016D01*
X153703100Y-61865906D01*
X153629267Y-61826442D01*
X153549154Y-61802140D01*
X153486714Y-61795990D01*
X153486707Y-61795990D01*
X153465840Y-61793935D01*
X153444973Y-61795990D01*
X141507876Y-61795990D01*
X141487009Y-61793935D01*
X141466142Y-61795990D01*
X141466136Y-61795990D01*
X141412108Y-61801311D01*
X141403695Y-61802140D01*
X141379393Y-61809512D01*
X141323583Y-61826442D01*
X141249750Y-61865906D01*
X141185036Y-61919016D01*
X141171731Y-61935228D01*
X140387023Y-62719937D01*
X140286793Y-62700000D01*
X140129207Y-62700000D01*
X139974649Y-62730743D01*
X139829058Y-62791049D01*
X139698030Y-62878599D01*
X139586599Y-62990030D01*
X139573000Y-63010382D01*
X139559401Y-62990030D01*
X139447970Y-62878599D01*
X139316942Y-62791049D01*
X139171351Y-62730743D01*
X139016793Y-62700000D01*
X138859207Y-62700000D01*
X138704649Y-62730743D01*
X138559058Y-62791049D01*
X138428030Y-62878599D01*
X138350621Y-62956008D01*
X138309932Y-62952000D01*
X138309921Y-62952000D01*
X138278000Y-62948856D01*
X138246079Y-62952000D01*
X132009924Y-62952000D01*
X131978000Y-62948856D01*
X131946076Y-62952000D01*
X131946068Y-62952000D01*
X131850578Y-62961405D01*
X131728052Y-62998573D01*
X131615132Y-63058930D01*
X131516157Y-63140157D01*
X131495800Y-63164962D01*
X130974001Y-63686761D01*
X130974001Y-62667868D01*
X130976056Y-62647001D01*
X130974001Y-62626134D01*
X130974001Y-62626127D01*
X130967851Y-62563687D01*
X130962290Y-62545353D01*
X130953839Y-62517496D01*
X130943549Y-62483574D01*
X130904085Y-62409741D01*
X130850975Y-62345027D01*
X130834763Y-62331722D01*
X130525451Y-62022410D01*
X130525451Y-61272000D01*
X130519659Y-61213190D01*
X130502504Y-61156640D01*
X130474647Y-61104523D01*
X130437158Y-61058842D01*
X130391477Y-61021353D01*
X130339360Y-60993496D01*
X130282810Y-60976341D01*
X130224000Y-60970549D01*
X129024000Y-60970549D01*
X128965190Y-60976341D01*
X128908640Y-60993496D01*
X128856523Y-61021353D01*
X128810842Y-61058842D01*
X128773353Y-61104523D01*
X128745496Y-61156640D01*
X128728341Y-61213190D01*
X128722549Y-61272000D01*
X128722549Y-62172000D01*
X128728341Y-62230810D01*
X128745496Y-62287360D01*
X128773353Y-62339477D01*
X128810842Y-62385158D01*
X128856523Y-62422647D01*
X128908640Y-62450504D01*
X128965190Y-62467659D01*
X129024000Y-62473451D01*
X129774411Y-62473451D01*
X129795508Y-62494549D01*
X129024000Y-62494549D01*
X128965190Y-62500341D01*
X128908640Y-62517496D01*
X128856523Y-62545353D01*
X128810842Y-62582842D01*
X128773353Y-62628523D01*
X128745496Y-62680640D01*
X128728341Y-62737190D01*
X128722549Y-62796000D01*
X128722549Y-63445410D01*
X127603239Y-64564721D01*
X127587027Y-64578026D01*
X127533917Y-64642740D01*
X127495850Y-64713960D01*
X127494453Y-64716573D01*
X127470150Y-64796686D01*
X127465248Y-64846458D01*
X127448640Y-64851496D01*
X127396523Y-64879353D01*
X127350842Y-64916842D01*
X127313353Y-64962523D01*
X127285496Y-65014640D01*
X127268341Y-65071190D01*
X127262549Y-65130000D01*
X127262549Y-65782570D01*
X127259595Y-65752578D01*
X127245451Y-65705952D01*
X127245451Y-65130000D01*
X127239659Y-65071190D01*
X127222504Y-65014640D01*
X127194647Y-64962523D01*
X127157158Y-64916842D01*
X127111477Y-64879353D01*
X127059360Y-64851496D01*
X127002810Y-64834341D01*
X126944000Y-64828549D01*
X126643590Y-64828549D01*
X125812491Y-63997451D01*
X126160000Y-63997451D01*
X126218810Y-63991659D01*
X126275360Y-63974504D01*
X126327477Y-63946647D01*
X126373158Y-63909158D01*
X126410647Y-63863477D01*
X126438504Y-63811360D01*
X126455659Y-63754810D01*
X126461451Y-63696000D01*
X126461451Y-63671000D01*
X126522549Y-63671000D01*
X126522549Y-63696000D01*
X126528341Y-63754810D01*
X126545496Y-63811360D01*
X126573353Y-63863477D01*
X126610842Y-63909158D01*
X126656523Y-63946647D01*
X126708640Y-63974504D01*
X126765190Y-63991659D01*
X126824000Y-63997451D01*
X128024000Y-63997451D01*
X128082810Y-63991659D01*
X128139360Y-63974504D01*
X128191477Y-63946647D01*
X128237158Y-63909158D01*
X128274647Y-63863477D01*
X128302504Y-63811360D01*
X128319659Y-63754810D01*
X128325451Y-63696000D01*
X128325451Y-62796000D01*
X128319659Y-62737190D01*
X128302504Y-62680640D01*
X128274647Y-62628523D01*
X128237158Y-62582842D01*
X128191477Y-62545353D01*
X128139360Y-62517496D01*
X128082810Y-62500341D01*
X128024000Y-62494549D01*
X126824000Y-62494549D01*
X126765190Y-62500341D01*
X126708640Y-62517496D01*
X126656523Y-62545353D01*
X126610842Y-62582842D01*
X126573353Y-62628523D01*
X126545496Y-62680640D01*
X126528341Y-62737190D01*
X126522549Y-62796000D01*
X126522549Y-62821000D01*
X126461451Y-62821000D01*
X126461451Y-62796000D01*
X126455659Y-62737190D01*
X126438504Y-62680640D01*
X126410647Y-62628523D01*
X126373158Y-62582842D01*
X126327477Y-62545353D01*
X126275360Y-62517496D01*
X126218810Y-62500341D01*
X126160000Y-62494549D01*
X124960000Y-62494549D01*
X124901190Y-62500341D01*
X124844640Y-62517496D01*
X124792523Y-62545353D01*
X124746842Y-62582842D01*
X124709353Y-62628523D01*
X124681496Y-62680640D01*
X124664341Y-62737190D01*
X124658549Y-62796000D01*
X124658549Y-63696000D01*
X124664341Y-63754810D01*
X124681496Y-63811360D01*
X124687347Y-63822306D01*
X124261451Y-63396411D01*
X124261451Y-62796000D01*
X124255659Y-62737190D01*
X124238504Y-62680640D01*
X124210647Y-62628523D01*
X124173158Y-62582842D01*
X124127477Y-62545353D01*
X124075360Y-62517496D01*
X124018810Y-62500341D01*
X123960000Y-62494549D01*
X123785000Y-62494549D01*
X123785000Y-62473451D01*
X123960000Y-62473451D01*
X124018810Y-62467659D01*
X124075360Y-62450504D01*
X124127477Y-62422647D01*
X124173158Y-62385158D01*
X124210647Y-62339477D01*
X124238504Y-62287360D01*
X124255659Y-62230810D01*
X124261451Y-62172000D01*
X124261451Y-61272000D01*
X124658549Y-61272000D01*
X124658549Y-62172000D01*
X124664341Y-62230810D01*
X124681496Y-62287360D01*
X124709353Y-62339477D01*
X124746842Y-62385158D01*
X124792523Y-62422647D01*
X124844640Y-62450504D01*
X124901190Y-62467659D01*
X124960000Y-62473451D01*
X126160000Y-62473451D01*
X126218810Y-62467659D01*
X126275360Y-62450504D01*
X126327477Y-62422647D01*
X126373158Y-62385158D01*
X126410647Y-62339477D01*
X126438504Y-62287360D01*
X126455659Y-62230810D01*
X126461451Y-62172000D01*
X126461451Y-62147000D01*
X126522549Y-62147000D01*
X126522549Y-62172000D01*
X126528341Y-62230810D01*
X126545496Y-62287360D01*
X126573353Y-62339477D01*
X126610842Y-62385158D01*
X126656523Y-62422647D01*
X126708640Y-62450504D01*
X126765190Y-62467659D01*
X126824000Y-62473451D01*
X128024000Y-62473451D01*
X128082810Y-62467659D01*
X128139360Y-62450504D01*
X128191477Y-62422647D01*
X128237158Y-62385158D01*
X128274647Y-62339477D01*
X128302504Y-62287360D01*
X128319659Y-62230810D01*
X128325451Y-62172000D01*
X128325451Y-61272000D01*
X128319659Y-61213190D01*
X128302504Y-61156640D01*
X128274647Y-61104523D01*
X128237158Y-61058842D01*
X128191477Y-61021353D01*
X128139360Y-60993496D01*
X128082810Y-60976341D01*
X128024000Y-60970549D01*
X126824000Y-60970549D01*
X126765190Y-60976341D01*
X126708640Y-60993496D01*
X126656523Y-61021353D01*
X126610842Y-61058842D01*
X126573353Y-61104523D01*
X126545496Y-61156640D01*
X126528341Y-61213190D01*
X126522549Y-61272000D01*
X126522549Y-61297000D01*
X126461451Y-61297000D01*
X126461451Y-61272000D01*
X126455659Y-61213190D01*
X126438504Y-61156640D01*
X126410647Y-61104523D01*
X126373158Y-61058842D01*
X126327477Y-61021353D01*
X126275360Y-60993496D01*
X126218810Y-60976341D01*
X126160000Y-60970549D01*
X124960000Y-60970549D01*
X124901190Y-60976341D01*
X124844640Y-60993496D01*
X124792523Y-61021353D01*
X124746842Y-61058842D01*
X124709353Y-61104523D01*
X124681496Y-61156640D01*
X124664341Y-61213190D01*
X124658549Y-61272000D01*
X124261451Y-61272000D01*
X124255659Y-61213190D01*
X124238504Y-61156640D01*
X124210647Y-61104523D01*
X124173158Y-61058842D01*
X124127477Y-61021353D01*
X124075360Y-60993496D01*
X124018810Y-60976341D01*
X123960000Y-60970549D01*
X122760000Y-60970549D01*
X122701190Y-60976341D01*
X122644640Y-60993496D01*
X122592523Y-61021353D01*
X122546842Y-61058842D01*
X122509353Y-61104523D01*
X122481496Y-61156640D01*
X122464341Y-61213190D01*
X122458549Y-61272000D01*
X122458549Y-62172000D01*
X122464341Y-62230810D01*
X122481496Y-62287360D01*
X122509353Y-62339477D01*
X122546842Y-62385158D01*
X122592523Y-62422647D01*
X122644640Y-62450504D01*
X122701190Y-62467659D01*
X122760000Y-62473451D01*
X122935000Y-62473451D01*
X122935001Y-62494549D01*
X122760000Y-62494549D01*
X122701190Y-62500341D01*
X122644640Y-62517496D01*
X122592523Y-62545353D01*
X122546842Y-62582842D01*
X122509353Y-62628523D01*
X122481496Y-62680640D01*
X122464341Y-62737190D01*
X122458549Y-62796000D01*
X122458549Y-63696000D01*
X122464341Y-63754810D01*
X122481496Y-63811360D01*
X122509353Y-63863477D01*
X122546842Y-63909158D01*
X122592523Y-63946647D01*
X122644640Y-63974504D01*
X122701190Y-63991659D01*
X122760000Y-63997451D01*
X123660411Y-63997451D01*
X124160980Y-64498020D01*
X124106000Y-64553000D01*
X124106000Y-65124000D01*
X124677000Y-65124000D01*
X124752000Y-65049000D01*
X124753452Y-64778000D01*
X124747660Y-64719190D01*
X124737895Y-64687000D01*
X125299960Y-64687000D01*
X125992549Y-65379590D01*
X125992549Y-65705953D01*
X125978405Y-65752579D01*
X125969000Y-65848069D01*
X125969000Y-66643079D01*
X125965856Y-66675000D01*
X125969000Y-66706921D01*
X125969000Y-66706932D01*
X125978405Y-66802422D01*
X125996544Y-66862216D01*
X126015573Y-66924947D01*
X126075930Y-67037868D01*
X126136802Y-67112040D01*
X126136805Y-67112043D01*
X126157158Y-67136843D01*
X126181958Y-67157196D01*
X126422549Y-67397787D01*
X126422549Y-68331000D01*
X125640451Y-68331000D01*
X125640451Y-68231000D01*
X125634659Y-68172190D01*
X125617504Y-68115640D01*
X125589647Y-68063523D01*
X125552158Y-68017842D01*
X125506477Y-67980353D01*
X125454360Y-67952496D01*
X125397810Y-67935341D01*
X125339000Y-67929549D01*
X124602000Y-67929549D01*
X124602000Y-67015169D01*
X124660951Y-66926942D01*
X124721257Y-66781351D01*
X124752000Y-66626793D01*
X124752000Y-66469207D01*
X124721257Y-66314649D01*
X124660951Y-66169058D01*
X124580907Y-66049264D01*
X124619478Y-66028648D01*
X124665159Y-65991159D01*
X124702648Y-65945478D01*
X124730505Y-65893361D01*
X124747660Y-65836810D01*
X124753452Y-65778000D01*
X124752000Y-65507000D01*
X124677000Y-65432000D01*
X124106000Y-65432000D01*
X124106000Y-65452000D01*
X123798000Y-65452000D01*
X123798000Y-65432000D01*
X123227000Y-65432000D01*
X123152000Y-65507000D01*
X123150548Y-65778000D01*
X123156340Y-65836810D01*
X123173495Y-65893361D01*
X123201352Y-65945478D01*
X123238841Y-65991159D01*
X123284522Y-66028648D01*
X123323093Y-66049264D01*
X123243049Y-66169058D01*
X123182743Y-66314649D01*
X123152000Y-66469207D01*
X123152000Y-66626793D01*
X123182743Y-66781351D01*
X123243049Y-66926942D01*
X123302000Y-67015169D01*
X123302001Y-68187069D01*
X123298856Y-68219000D01*
X123302001Y-68250932D01*
X123306308Y-68294664D01*
X123311406Y-68346422D01*
X123348573Y-68468947D01*
X123408930Y-68581868D01*
X123469802Y-68656040D01*
X123469805Y-68656043D01*
X123490158Y-68680843D01*
X123514958Y-68701196D01*
X123787549Y-68973787D01*
X123787549Y-69731000D01*
X123793341Y-69789810D01*
X123810496Y-69846360D01*
X123838353Y-69898477D01*
X123875842Y-69944158D01*
X123921523Y-69981647D01*
X123973640Y-70009504D01*
X124030190Y-70026659D01*
X124089000Y-70032451D01*
X125339000Y-70032451D01*
X125397810Y-70026659D01*
X125454360Y-70009504D01*
X125506477Y-69981647D01*
X125552158Y-69944158D01*
X125589647Y-69898477D01*
X125617504Y-69846360D01*
X125634659Y-69789810D01*
X125640451Y-69731000D01*
X125640451Y-69631000D01*
X126422549Y-69631000D01*
X126422549Y-69930000D01*
X126428341Y-69988810D01*
X126445496Y-70045360D01*
X126473353Y-70097477D01*
X126510842Y-70143158D01*
X126556523Y-70180647D01*
X126608640Y-70208504D01*
X126665190Y-70225659D01*
X126724000Y-70231451D01*
X126846549Y-70231451D01*
X126773000Y-70305000D01*
X126773000Y-71126000D01*
X127169000Y-71126000D01*
X127244000Y-71051000D01*
X127245452Y-70530000D01*
X127239660Y-70471190D01*
X127222505Y-70414639D01*
X127194648Y-70362522D01*
X127157159Y-70316841D01*
X127111478Y-70279352D01*
X127059361Y-70251495D01*
X127002810Y-70234340D01*
X126973476Y-70231451D01*
X127534534Y-70231451D01*
X127505190Y-70234341D01*
X127448640Y-70251496D01*
X127396523Y-70279353D01*
X127350842Y-70316842D01*
X127313353Y-70362523D01*
X127285496Y-70414640D01*
X127268341Y-70471190D01*
X127262549Y-70530000D01*
X127262549Y-72030000D01*
X127268341Y-72088810D01*
X127285496Y-72145360D01*
X127313353Y-72197477D01*
X127350842Y-72243158D01*
X127396523Y-72280647D01*
X127448640Y-72308504D01*
X127464001Y-72313164D01*
X127464001Y-72681045D01*
X127418523Y-72705353D01*
X127372842Y-72742842D01*
X127335353Y-72788523D01*
X127307496Y-72840640D01*
X127290341Y-72897190D01*
X127284549Y-72956000D01*
X127284549Y-73856000D01*
X127290341Y-73914810D01*
X127307496Y-73971360D01*
X127335353Y-74023477D01*
X127337424Y-74026000D01*
X127269451Y-74026000D01*
X127269451Y-73035000D01*
X127263659Y-72976190D01*
X127246504Y-72919640D01*
X127218647Y-72867523D01*
X127181158Y-72821842D01*
X127135477Y-72784353D01*
X127083360Y-72756496D01*
X127026810Y-72739341D01*
X126968000Y-72733549D01*
X125468000Y-72733549D01*
X125409190Y-72739341D01*
X125352640Y-72756496D01*
X125300523Y-72784353D01*
X125254842Y-72821842D01*
X125217353Y-72867523D01*
X125189496Y-72919640D01*
X125172341Y-72976190D01*
X125166549Y-73035000D01*
X125166549Y-74285000D01*
X125172341Y-74343810D01*
X125189496Y-74400360D01*
X125217353Y-74452477D01*
X125254842Y-74498158D01*
X125300523Y-74535647D01*
X125352640Y-74563504D01*
X125409190Y-74580659D01*
X125468000Y-74586451D01*
X125991213Y-74586451D01*
X126517804Y-75113043D01*
X126538157Y-75137843D01*
X126562957Y-75158196D01*
X126562959Y-75158198D01*
X126601709Y-75190000D01*
X122295000Y-75190000D01*
X122295000Y-74285000D01*
X122666548Y-74285000D01*
X122672340Y-74343810D01*
X122689495Y-74400361D01*
X122717352Y-74452478D01*
X122754841Y-74498159D01*
X122800522Y-74535648D01*
X122852639Y-74563505D01*
X122909190Y-74580660D01*
X122968000Y-74586452D01*
X123489000Y-74585000D01*
X123564000Y-74510000D01*
X123564000Y-73814000D01*
X123872000Y-73814000D01*
X123872000Y-74510000D01*
X123947000Y-74585000D01*
X124468000Y-74586452D01*
X124526810Y-74580660D01*
X124583361Y-74563505D01*
X124635478Y-74535648D01*
X124681159Y-74498159D01*
X124718648Y-74452478D01*
X124746505Y-74400361D01*
X124763660Y-74343810D01*
X124769452Y-74285000D01*
X124768000Y-73889000D01*
X124693000Y-73814000D01*
X123872000Y-73814000D01*
X123564000Y-73814000D01*
X122743000Y-73814000D01*
X122668000Y-73889000D01*
X122666548Y-74285000D01*
X122295000Y-74285000D01*
X122295000Y-73035000D01*
X122666548Y-73035000D01*
X122668000Y-73431000D01*
X122743000Y-73506000D01*
X123564000Y-73506000D01*
X123564000Y-72810000D01*
X123872000Y-72810000D01*
X123872000Y-73506000D01*
X124693000Y-73506000D01*
X124768000Y-73431000D01*
X124769452Y-73035000D01*
X124763660Y-72976190D01*
X124746505Y-72919639D01*
X124718648Y-72867522D01*
X124681159Y-72821841D01*
X124635478Y-72784352D01*
X124583361Y-72756495D01*
X124526810Y-72739340D01*
X124468000Y-72733548D01*
X123947000Y-72735000D01*
X123872000Y-72810000D01*
X123564000Y-72810000D01*
X123489000Y-72735000D01*
X122968000Y-72733548D01*
X122909190Y-72739340D01*
X122852639Y-72756495D01*
X122800522Y-72784352D01*
X122754841Y-72821841D01*
X122717352Y-72867522D01*
X122689495Y-72919639D01*
X122672340Y-72976190D01*
X122666548Y-73035000D01*
X122295000Y-73035000D01*
X122295000Y-72231000D01*
X123787548Y-72231000D01*
X123793340Y-72289810D01*
X123810495Y-72346361D01*
X123838352Y-72398478D01*
X123875841Y-72444159D01*
X123921522Y-72481648D01*
X123973639Y-72509505D01*
X124030190Y-72526660D01*
X124089000Y-72532452D01*
X124485000Y-72531000D01*
X124560000Y-72456000D01*
X124560000Y-71635000D01*
X124868000Y-71635000D01*
X124868000Y-72456000D01*
X124943000Y-72531000D01*
X125339000Y-72532452D01*
X125397810Y-72526660D01*
X125454361Y-72509505D01*
X125506478Y-72481648D01*
X125552159Y-72444159D01*
X125589648Y-72398478D01*
X125617505Y-72346361D01*
X125634660Y-72289810D01*
X125640452Y-72231000D01*
X125639892Y-72030000D01*
X125992548Y-72030000D01*
X125998340Y-72088810D01*
X126015495Y-72145361D01*
X126043352Y-72197478D01*
X126080841Y-72243159D01*
X126126522Y-72280648D01*
X126178639Y-72308505D01*
X126235190Y-72325660D01*
X126294000Y-72331452D01*
X126390000Y-72330000D01*
X126465000Y-72255000D01*
X126465000Y-71434000D01*
X126773000Y-71434000D01*
X126773000Y-72255000D01*
X126848000Y-72330000D01*
X126944000Y-72331452D01*
X127002810Y-72325660D01*
X127059361Y-72308505D01*
X127111478Y-72280648D01*
X127157159Y-72243159D01*
X127194648Y-72197478D01*
X127222505Y-72145361D01*
X127239660Y-72088810D01*
X127245452Y-72030000D01*
X127244000Y-71509000D01*
X127169000Y-71434000D01*
X126773000Y-71434000D01*
X126465000Y-71434000D01*
X126069000Y-71434000D01*
X125994000Y-71509000D01*
X125992548Y-72030000D01*
X125639892Y-72030000D01*
X125639000Y-71710000D01*
X125564000Y-71635000D01*
X124868000Y-71635000D01*
X124560000Y-71635000D01*
X123864000Y-71635000D01*
X123789000Y-71710000D01*
X123787548Y-72231000D01*
X122295000Y-72231000D01*
X122295000Y-70731000D01*
X123787548Y-70731000D01*
X123789000Y-71252000D01*
X123864000Y-71327000D01*
X124560000Y-71327000D01*
X124560000Y-70506000D01*
X124868000Y-70506000D01*
X124868000Y-71327000D01*
X125564000Y-71327000D01*
X125639000Y-71252000D01*
X125640452Y-70731000D01*
X125634660Y-70672190D01*
X125617505Y-70615639D01*
X125589648Y-70563522D01*
X125562138Y-70530000D01*
X125992548Y-70530000D01*
X125994000Y-71051000D01*
X126069000Y-71126000D01*
X126465000Y-71126000D01*
X126465000Y-70305000D01*
X126390000Y-70230000D01*
X126294000Y-70228548D01*
X126235190Y-70234340D01*
X126178639Y-70251495D01*
X126126522Y-70279352D01*
X126080841Y-70316841D01*
X126043352Y-70362522D01*
X126015495Y-70414639D01*
X125998340Y-70471190D01*
X125992548Y-70530000D01*
X125562138Y-70530000D01*
X125552159Y-70517841D01*
X125506478Y-70480352D01*
X125454361Y-70452495D01*
X125397810Y-70435340D01*
X125339000Y-70429548D01*
X124943000Y-70431000D01*
X124868000Y-70506000D01*
X124560000Y-70506000D01*
X124485000Y-70431000D01*
X124089000Y-70429548D01*
X124030190Y-70435340D01*
X123973639Y-70452495D01*
X123921522Y-70480352D01*
X123875841Y-70517841D01*
X123838352Y-70563522D01*
X123810495Y-70615639D01*
X123793340Y-70672190D01*
X123787548Y-70731000D01*
X122295000Y-70731000D01*
X122295000Y-64778000D01*
X123150548Y-64778000D01*
X123152000Y-65049000D01*
X123227000Y-65124000D01*
X123798000Y-65124000D01*
X123798000Y-64553000D01*
X123723000Y-64478000D01*
X123452000Y-64476548D01*
X123393190Y-64482340D01*
X123336639Y-64499495D01*
X123284522Y-64527352D01*
X123238841Y-64564841D01*
X123201352Y-64610522D01*
X123173495Y-64662639D01*
X123156340Y-64719190D01*
X123150548Y-64778000D01*
X122295000Y-64778000D01*
X122295000Y-60700000D01*
X158375000Y-60700000D01*
X158375001Y-75190000D01*
G37*
X158375001Y-75190000D02*
X131716290Y-75190000D01*
X131779843Y-75137843D01*
X131800200Y-75113038D01*
X132061238Y-74852000D01*
X143556548Y-74852000D01*
X143562340Y-74910810D01*
X143579495Y-74967361D01*
X143607352Y-75019478D01*
X143644841Y-75065159D01*
X143690522Y-75102648D01*
X143742639Y-75130505D01*
X143799190Y-75147660D01*
X143858000Y-75153452D01*
X144191500Y-75152000D01*
X144266500Y-75077000D01*
X144266500Y-73306000D01*
X144574500Y-73306000D01*
X144574500Y-75077000D01*
X144649500Y-75152000D01*
X144983000Y-75153452D01*
X145041810Y-75147660D01*
X145098361Y-75130505D01*
X145150478Y-75102648D01*
X145196159Y-75065159D01*
X145233648Y-75019478D01*
X145261505Y-74967361D01*
X145278660Y-74910810D01*
X145284452Y-74852000D01*
X145283000Y-73381000D01*
X145208000Y-73306000D01*
X144574500Y-73306000D01*
X144266500Y-73306000D01*
X143633000Y-73306000D01*
X143558000Y-73381000D01*
X143556548Y-74852000D01*
X132061238Y-74852000D01*
X132705788Y-74207451D01*
X133088000Y-74207451D01*
X133146810Y-74201659D01*
X133203360Y-74184504D01*
X133255477Y-74156647D01*
X133301158Y-74119158D01*
X133338647Y-74073477D01*
X133359263Y-74034907D01*
X133479058Y-74114951D01*
X133624649Y-74175257D01*
X133779207Y-74206000D01*
X133936793Y-74206000D01*
X134091351Y-74175257D01*
X134236942Y-74114951D01*
X134367970Y-74027401D01*
X134479401Y-73915970D01*
X134555553Y-73802000D01*
X135233836Y-73802000D01*
X135221341Y-73843190D01*
X135215549Y-73902000D01*
X135215549Y-74352000D01*
X135221341Y-74410810D01*
X135238496Y-74467360D01*
X135266353Y-74519477D01*
X135303842Y-74565158D01*
X135349523Y-74602647D01*
X135401640Y-74630504D01*
X135458190Y-74647659D01*
X135517000Y-74653451D01*
X136967000Y-74653451D01*
X137025810Y-74647659D01*
X137082360Y-74630504D01*
X137134477Y-74602647D01*
X137180158Y-74565158D01*
X137194745Y-74547384D01*
X137210316Y-74545850D01*
X137290429Y-74521548D01*
X137364262Y-74482084D01*
X137428976Y-74428974D01*
X137442286Y-74412756D01*
X137587368Y-74267674D01*
X137603584Y-74254366D01*
X137656694Y-74189652D01*
X137696158Y-74115819D01*
X137720460Y-74035706D01*
X137726610Y-73973266D01*
X137726610Y-73973260D01*
X137728665Y-73952393D01*
X137726610Y-73931526D01*
X137726610Y-71722474D01*
X137728665Y-71701607D01*
X137726610Y-71680740D01*
X137726610Y-71680734D01*
X137720460Y-71618294D01*
X137720112Y-71617145D01*
X137712354Y-71591573D01*
X137696158Y-71538181D01*
X137656694Y-71464348D01*
X137617270Y-71416310D01*
X140613721Y-74412762D01*
X140627026Y-74428974D01*
X140691740Y-74482084D01*
X140765573Y-74521548D01*
X140821383Y-74538478D01*
X140845685Y-74545850D01*
X140854098Y-74546679D01*
X140908126Y-74552000D01*
X140908132Y-74552000D01*
X140928999Y-74554055D01*
X140949866Y-74552000D01*
X141193044Y-74552000D01*
X141203842Y-74565158D01*
X141249523Y-74602647D01*
X141301640Y-74630504D01*
X141358190Y-74647659D01*
X141417000Y-74653451D01*
X142867000Y-74653451D01*
X142925810Y-74647659D01*
X142982360Y-74630504D01*
X143034477Y-74602647D01*
X143080158Y-74565158D01*
X143117647Y-74519477D01*
X143145504Y-74467360D01*
X143162659Y-74410810D01*
X143168451Y-74352000D01*
X143168451Y-73902000D01*
X143162659Y-73843190D01*
X143150164Y-73802002D01*
X143162660Y-73760810D01*
X143168452Y-73702000D01*
X143167000Y-73677000D01*
X143092000Y-73602000D01*
X142881733Y-73602000D01*
X142867000Y-73600549D01*
X141417000Y-73600549D01*
X141402267Y-73602000D01*
X141192000Y-73602000D01*
X141117000Y-73677000D01*
X141115548Y-73702000D01*
X141105041Y-73702000D01*
X140455041Y-73052000D01*
X141115548Y-73052000D01*
X141121340Y-73110810D01*
X141133835Y-73151999D01*
X141121340Y-73193190D01*
X141115548Y-73252000D01*
X141117000Y-73277000D01*
X141192000Y-73352000D01*
X141402257Y-73352000D01*
X141417000Y-73353452D01*
X141913000Y-73352000D01*
X141988000Y-73352000D01*
X141988000Y-72952000D01*
X142296000Y-72952000D01*
X142296000Y-73352000D01*
X142371000Y-73352000D01*
X142867000Y-73353452D01*
X142881743Y-73352000D01*
X143092000Y-73352000D01*
X143167000Y-73277000D01*
X143168452Y-73252000D01*
X143162660Y-73193190D01*
X143150165Y-73151999D01*
X143162660Y-73110810D01*
X143168452Y-73052000D01*
X143167000Y-73027000D01*
X143092000Y-72952000D01*
X142881743Y-72952000D01*
X142867000Y-72950548D01*
X142371000Y-72952000D01*
X142296000Y-72952000D01*
X141988000Y-72952000D01*
X141913000Y-72952000D01*
X141417000Y-72950548D01*
X141402257Y-72952000D01*
X141192000Y-72952000D01*
X141117000Y-73027000D01*
X141115548Y-73052000D01*
X140455041Y-73052000D01*
X140005041Y-72602000D01*
X141115548Y-72602000D01*
X141117000Y-72627000D01*
X141192000Y-72702000D01*
X141402267Y-72702000D01*
X141417000Y-72703451D01*
X142867000Y-72703451D01*
X142881733Y-72702000D01*
X143092000Y-72702000D01*
X143167000Y-72627000D01*
X143168452Y-72602000D01*
X143162660Y-72543190D01*
X143150164Y-72501998D01*
X143162659Y-72460810D01*
X143168451Y-72402000D01*
X143168451Y-71952000D01*
X143162659Y-71893190D01*
X143145504Y-71836640D01*
X143117647Y-71784523D01*
X143080158Y-71738842D01*
X143034477Y-71701353D01*
X142982360Y-71673496D01*
X142925810Y-71656341D01*
X142867000Y-71650549D01*
X141417000Y-71650549D01*
X141358190Y-71656341D01*
X141301640Y-71673496D01*
X141249523Y-71701353D01*
X141203842Y-71738842D01*
X141166353Y-71784523D01*
X141138496Y-71836640D01*
X141121341Y-71893190D01*
X141115549Y-71952000D01*
X141115549Y-72402000D01*
X141121341Y-72460810D01*
X141133836Y-72501998D01*
X141121340Y-72543190D01*
X141115548Y-72602000D01*
X140005041Y-72602000D01*
X138855041Y-71452000D01*
X143556548Y-71452000D01*
X143558000Y-72923000D01*
X143633000Y-72998000D01*
X144266500Y-72998000D01*
X144266500Y-71227000D01*
X144574500Y-71227000D01*
X144574500Y-72998000D01*
X145208000Y-72998000D01*
X145283000Y-72923000D01*
X145284452Y-71452000D01*
X145278660Y-71393190D01*
X145261505Y-71336639D01*
X145233648Y-71284522D01*
X145196159Y-71238841D01*
X145150478Y-71201352D01*
X145098361Y-71173495D01*
X145041810Y-71156340D01*
X144983000Y-71150548D01*
X144649500Y-71152000D01*
X144574500Y-71227000D01*
X144266500Y-71227000D01*
X144191500Y-71152000D01*
X143858000Y-71150548D01*
X143799190Y-71156340D01*
X143742639Y-71173495D01*
X143690522Y-71201352D01*
X143644841Y-71238841D01*
X143607352Y-71284522D01*
X143579495Y-71336639D01*
X143562340Y-71393190D01*
X143556548Y-71452000D01*
X138855041Y-71452000D01*
X138238463Y-70835423D01*
X138455000Y-70834000D01*
X138530000Y-70759000D01*
X138530000Y-70088000D01*
X138838000Y-70088000D01*
X138838000Y-70759000D01*
X138913000Y-70834000D01*
X139134000Y-70835452D01*
X139192810Y-70829660D01*
X139249361Y-70812505D01*
X139301478Y-70784648D01*
X139316889Y-70772000D01*
X139984548Y-70772000D01*
X139990340Y-70830810D01*
X140007495Y-70887361D01*
X140035352Y-70939478D01*
X140072841Y-70985159D01*
X140118522Y-71022648D01*
X140170639Y-71050505D01*
X140227190Y-71067660D01*
X140286000Y-71073452D01*
X141757000Y-71072000D01*
X141832000Y-70997000D01*
X141832000Y-70363500D01*
X142140000Y-70363500D01*
X142140000Y-70997000D01*
X142215000Y-71072000D01*
X143686000Y-71073452D01*
X143744810Y-71067660D01*
X143801361Y-71050505D01*
X143853478Y-71022648D01*
X143899159Y-70985159D01*
X143936648Y-70939478D01*
X143964505Y-70887361D01*
X143981660Y-70830810D01*
X143987452Y-70772000D01*
X143986000Y-70438500D01*
X143911000Y-70363500D01*
X142140000Y-70363500D01*
X141832000Y-70363500D01*
X140061000Y-70363500D01*
X139986000Y-70438500D01*
X139984548Y-70772000D01*
X139316889Y-70772000D01*
X139347159Y-70747159D01*
X139384648Y-70701478D01*
X139412505Y-70649361D01*
X139429660Y-70592810D01*
X139435452Y-70534000D01*
X139434000Y-70163000D01*
X139359000Y-70088000D01*
X138838000Y-70088000D01*
X138530000Y-70088000D01*
X138009000Y-70088000D01*
X137934000Y-70163000D01*
X137932566Y-70529525D01*
X137644251Y-70241211D01*
X137644251Y-69334000D01*
X137932548Y-69334000D01*
X137934000Y-69705000D01*
X138009000Y-69780000D01*
X138530000Y-69780000D01*
X138530000Y-69109000D01*
X138838000Y-69109000D01*
X138838000Y-69780000D01*
X139359000Y-69780000D01*
X139434000Y-69705000D01*
X139434226Y-69647000D01*
X139984548Y-69647000D01*
X139986000Y-69980500D01*
X140061000Y-70055500D01*
X141832000Y-70055500D01*
X141832000Y-69422000D01*
X142140000Y-69422000D01*
X142140000Y-70055500D01*
X143911000Y-70055500D01*
X143986000Y-69980500D01*
X143987452Y-69647000D01*
X143981660Y-69588190D01*
X143964505Y-69531639D01*
X143936648Y-69479522D01*
X143899159Y-69433841D01*
X143853478Y-69396352D01*
X143801361Y-69368495D01*
X143744810Y-69351340D01*
X143686000Y-69345548D01*
X142215000Y-69347000D01*
X142140000Y-69422000D01*
X141832000Y-69422000D01*
X141757000Y-69347000D01*
X140286000Y-69345548D01*
X140227190Y-69351340D01*
X140170639Y-69368495D01*
X140118522Y-69396352D01*
X140072841Y-69433841D01*
X140035352Y-69479522D01*
X140007495Y-69531639D01*
X139990340Y-69588190D01*
X139984548Y-69647000D01*
X139434226Y-69647000D01*
X139435452Y-69334000D01*
X139429660Y-69275190D01*
X139412505Y-69218639D01*
X139384648Y-69166522D01*
X139347159Y-69120841D01*
X139301478Y-69083352D01*
X139249361Y-69055495D01*
X139192810Y-69038340D01*
X139134000Y-69032548D01*
X138913000Y-69034000D01*
X138838000Y-69109000D01*
X138530000Y-69109000D01*
X138455000Y-69034000D01*
X138234000Y-69032548D01*
X138175190Y-69038340D01*
X138118639Y-69055495D01*
X138066522Y-69083352D01*
X138020841Y-69120841D01*
X137983352Y-69166522D01*
X137955495Y-69218639D01*
X137938340Y-69275190D01*
X137932548Y-69334000D01*
X137644251Y-69334000D01*
X137644251Y-69137300D01*
X137638459Y-69078490D01*
X137621304Y-69021940D01*
X137612249Y-69005000D01*
X137817133Y-69005000D01*
X137838000Y-69007055D01*
X137858867Y-69005000D01*
X137858874Y-69005000D01*
X137921314Y-68998850D01*
X138001427Y-68974548D01*
X138075260Y-68935084D01*
X138139974Y-68881974D01*
X138153283Y-68865757D01*
X138383589Y-68635451D01*
X139134000Y-68635451D01*
X139192810Y-68629659D01*
X139249360Y-68612504D01*
X139301477Y-68584647D01*
X139347158Y-68547158D01*
X139384647Y-68501477D01*
X139412504Y-68449360D01*
X139429659Y-68392810D01*
X139435451Y-68334000D01*
X139435451Y-67134000D01*
X139429659Y-67075190D01*
X139412504Y-67018640D01*
X139384647Y-66966523D01*
X139347158Y-66920842D01*
X139301477Y-66883353D01*
X139249360Y-66855496D01*
X139192810Y-66838341D01*
X139134000Y-66832549D01*
X138234000Y-66832549D01*
X138175190Y-66838341D01*
X138118640Y-66855496D01*
X138066523Y-66883353D01*
X138020842Y-66920842D01*
X137983353Y-66966523D01*
X137955496Y-67018640D01*
X137938341Y-67075190D01*
X137932549Y-67134000D01*
X137932549Y-67884411D01*
X137661960Y-68155000D01*
X137598673Y-68155000D01*
X137621304Y-68112660D01*
X137638459Y-68056110D01*
X137644251Y-67997300D01*
X137644251Y-66437300D01*
X137638459Y-66378490D01*
X137621304Y-66321940D01*
X137593447Y-66269823D01*
X137555958Y-66224142D01*
X137510277Y-66186653D01*
X137458160Y-66158796D01*
X137401610Y-66141641D01*
X137342800Y-66135849D01*
X136692800Y-66135849D01*
X136633990Y-66141641D01*
X136577440Y-66158796D01*
X136542800Y-66177311D01*
X136508160Y-66158796D01*
X136492800Y-66154136D01*
X136492800Y-65950451D01*
X136874000Y-65950451D01*
X136932810Y-65944659D01*
X136989360Y-65927504D01*
X137041477Y-65899647D01*
X137087158Y-65862158D01*
X137124647Y-65816477D01*
X137152504Y-65764360D01*
X137169659Y-65707810D01*
X137175451Y-65649000D01*
X137175451Y-64399000D01*
X137169659Y-64340190D01*
X137152504Y-64283640D01*
X137135592Y-64252000D01*
X138008762Y-64252000D01*
X138074802Y-64318040D01*
X139984549Y-66227788D01*
X139984549Y-66247001D01*
X139995145Y-66354584D01*
X140026526Y-66458032D01*
X140077485Y-66553370D01*
X140146065Y-66636935D01*
X140229630Y-66705515D01*
X140324968Y-66756474D01*
X140428416Y-66787855D01*
X140535999Y-66798451D01*
X143436001Y-66798451D01*
X143543584Y-66787855D01*
X143647032Y-66756474D01*
X143742370Y-66705515D01*
X143825935Y-66636935D01*
X143868967Y-66584500D01*
X145361579Y-66584500D01*
X145393500Y-66587644D01*
X145425421Y-66584500D01*
X145425432Y-66584500D01*
X145520922Y-66575095D01*
X145643448Y-66537927D01*
X145756368Y-66477570D01*
X145855343Y-66396343D01*
X145875700Y-66371538D01*
X147593788Y-64653451D01*
X149182000Y-64653451D01*
X149240810Y-64647659D01*
X149297360Y-64630504D01*
X149349477Y-64602647D01*
X149395158Y-64565158D01*
X149432647Y-64519477D01*
X149460504Y-64467360D01*
X149477659Y-64410810D01*
X149483451Y-64352000D01*
X149483451Y-64252000D01*
X150163764Y-64252000D01*
X153068313Y-67156549D01*
X152649000Y-67156549D01*
X152590190Y-67162341D01*
X152533640Y-67179496D01*
X152481523Y-67207353D01*
X152435842Y-67244842D01*
X152398353Y-67290523D01*
X152370496Y-67342640D01*
X152353341Y-67399190D01*
X152347549Y-67458000D01*
X152347549Y-68518000D01*
X152353341Y-68576810D01*
X152370496Y-68633360D01*
X152398353Y-68685477D01*
X152435842Y-68731158D01*
X152481523Y-68768647D01*
X152533640Y-68796504D01*
X152590190Y-68813659D01*
X152649000Y-68819451D01*
X153299000Y-68819451D01*
X153357810Y-68813659D01*
X153414360Y-68796504D01*
X153449000Y-68777989D01*
X153483640Y-68796504D01*
X153540190Y-68813659D01*
X153599000Y-68819451D01*
X154249000Y-68819451D01*
X154307810Y-68813659D01*
X154364360Y-68796504D01*
X154399000Y-68777989D01*
X154433640Y-68796504D01*
X154490190Y-68813659D01*
X154549000Y-68819451D01*
X155199000Y-68819451D01*
X155257810Y-68813659D01*
X155314360Y-68796504D01*
X155366477Y-68768647D01*
X155412158Y-68731158D01*
X155449647Y-68685477D01*
X155477504Y-68633360D01*
X155494659Y-68576810D01*
X155500451Y-68518000D01*
X155500451Y-67458000D01*
X155494659Y-67399190D01*
X155477504Y-67342640D01*
X155449647Y-67290523D01*
X155412158Y-67244842D01*
X155366477Y-67207353D01*
X155314360Y-67179496D01*
X155299000Y-67174836D01*
X155299000Y-66242467D01*
X155313889Y-66237950D01*
X155408147Y-66187568D01*
X155490765Y-66119765D01*
X155558568Y-66037147D01*
X155608950Y-65942889D01*
X155639975Y-65840613D01*
X155650451Y-65734250D01*
X155650451Y-65163642D01*
X156547001Y-66060192D01*
X156547000Y-67615549D01*
X156515750Y-67615549D01*
X156409387Y-67626025D01*
X156307111Y-67657050D01*
X156212853Y-67707432D01*
X156130235Y-67775235D01*
X156062432Y-67857853D01*
X156012050Y-67952111D01*
X155981025Y-68054387D01*
X155970549Y-68160750D01*
X155970549Y-68472410D01*
X155086411Y-69356549D01*
X154549000Y-69356549D01*
X154490190Y-69362341D01*
X154433640Y-69379496D01*
X154399001Y-69398011D01*
X154364361Y-69379495D01*
X154307810Y-69362340D01*
X154249000Y-69356548D01*
X154153000Y-69358000D01*
X154078000Y-69433000D01*
X154078000Y-70034000D01*
X154098000Y-70034000D01*
X154098000Y-70342000D01*
X154078000Y-70342000D01*
X154078000Y-70362000D01*
X153770000Y-70362000D01*
X153770000Y-70342000D01*
X153750000Y-70342000D01*
X153750000Y-70034000D01*
X153770000Y-70034000D01*
X153770000Y-69433000D01*
X153695000Y-69358000D01*
X153599000Y-69356548D01*
X153540190Y-69362340D01*
X153483639Y-69379495D01*
X153448999Y-69398011D01*
X153414360Y-69379496D01*
X153357810Y-69362341D01*
X153299000Y-69356549D01*
X152866118Y-69356549D01*
X152819932Y-69352000D01*
X152819921Y-69352000D01*
X152788000Y-69348856D01*
X152756079Y-69352000D01*
X152043921Y-69352000D01*
X152012000Y-69348856D01*
X151980079Y-69352000D01*
X149483451Y-69352000D01*
X149483451Y-69252000D01*
X149477659Y-69193190D01*
X149460504Y-69136640D01*
X149432647Y-69084523D01*
X149395158Y-69038842D01*
X149349477Y-69001353D01*
X149297360Y-68973496D01*
X149240810Y-68956341D01*
X149182000Y-68950549D01*
X146982000Y-68950549D01*
X146923190Y-68956341D01*
X146866640Y-68973496D01*
X146814523Y-69001353D01*
X146768842Y-69038842D01*
X146731353Y-69084523D01*
X146703496Y-69136640D01*
X146686341Y-69193190D01*
X146680549Y-69252000D01*
X146680549Y-70752000D01*
X146686341Y-70810810D01*
X146703496Y-70867360D01*
X146731353Y-70919477D01*
X146768842Y-70965158D01*
X146814523Y-71002647D01*
X146866640Y-71030504D01*
X146923190Y-71047659D01*
X146982000Y-71053451D01*
X149182000Y-71053451D01*
X149240810Y-71047659D01*
X149297360Y-71030504D01*
X149349477Y-71002647D01*
X149395158Y-70965158D01*
X149432647Y-70919477D01*
X149460504Y-70867360D01*
X149477659Y-70810810D01*
X149483451Y-70752000D01*
X149483451Y-70652000D01*
X151742762Y-70652000D01*
X152491810Y-71401049D01*
X152512158Y-71425843D01*
X152536952Y-71446191D01*
X152536959Y-71446198D01*
X152536964Y-71446202D01*
X153610549Y-72519788D01*
X153610549Y-74052000D01*
X153616341Y-74110810D01*
X153628238Y-74150027D01*
X153237068Y-74150027D01*
X152713451Y-73626410D01*
X152713451Y-72252000D01*
X152707659Y-72193190D01*
X152690504Y-72136640D01*
X152662647Y-72084523D01*
X152625158Y-72038842D01*
X152579477Y-72001353D01*
X152527360Y-71973496D01*
X152470810Y-71956341D01*
X152412000Y-71950549D01*
X149912000Y-71950549D01*
X149853190Y-71956341D01*
X149796640Y-71973496D01*
X149758280Y-71994000D01*
X149559451Y-71994000D01*
X149559451Y-71701999D01*
X149548855Y-71594416D01*
X149517474Y-71490968D01*
X149466515Y-71395630D01*
X149397935Y-71312065D01*
X149314370Y-71243485D01*
X149219032Y-71192526D01*
X149115584Y-71161145D01*
X149008001Y-71150549D01*
X148382999Y-71150549D01*
X148275416Y-71161145D01*
X148171968Y-71192526D01*
X148076630Y-71243485D01*
X147993065Y-71312065D01*
X147924485Y-71395630D01*
X147873526Y-71490968D01*
X147842145Y-71594416D01*
X147831549Y-71701999D01*
X147831549Y-74602001D01*
X147842145Y-74709584D01*
X147873526Y-74813032D01*
X147924485Y-74908370D01*
X147993065Y-74991935D01*
X148076630Y-75060515D01*
X148171968Y-75111474D01*
X148275416Y-75142855D01*
X148382999Y-75153451D01*
X149008001Y-75153451D01*
X149115584Y-75142855D01*
X149219032Y-75111474D01*
X149314370Y-75060515D01*
X149397935Y-74991935D01*
X149466515Y-74908370D01*
X149517474Y-74813032D01*
X149548855Y-74709584D01*
X149559451Y-74602001D01*
X149559451Y-74310000D01*
X149758280Y-74310000D01*
X149796640Y-74330504D01*
X149853190Y-74347659D01*
X149912000Y-74353451D01*
X152238410Y-74353451D01*
X152745748Y-74860789D01*
X152759053Y-74877001D01*
X152823767Y-74930111D01*
X152897600Y-74969575D01*
X152953410Y-74986505D01*
X152977712Y-74993877D01*
X152986125Y-74994706D01*
X153040153Y-75000027D01*
X153040159Y-75000027D01*
X153061026Y-75002082D01*
X153081893Y-75000027D01*
X156453108Y-75000027D01*
X156473975Y-75002082D01*
X156494842Y-75000027D01*
X156494849Y-75000027D01*
X156557289Y-74993877D01*
X156637402Y-74969575D01*
X156711235Y-74930111D01*
X156775949Y-74877001D01*
X156789258Y-74860784D01*
X157257763Y-74392280D01*
X157273974Y-74378976D01*
X157327084Y-74314262D01*
X157353330Y-74265158D01*
X157366548Y-74240430D01*
X157390850Y-74160316D01*
X157391275Y-74156000D01*
X157397000Y-74097876D01*
X157397000Y-74097869D01*
X157399055Y-74077002D01*
X157397000Y-74056135D01*
X157397000Y-71068451D01*
X157428250Y-71068451D01*
X157534613Y-71057975D01*
X157636889Y-71026950D01*
X157731147Y-70976568D01*
X157813765Y-70908765D01*
X157881568Y-70826147D01*
X157931950Y-70731889D01*
X157962975Y-70629613D01*
X157973451Y-70523250D01*
X157973451Y-70035750D01*
X157962975Y-69929387D01*
X157931950Y-69827111D01*
X157881568Y-69732853D01*
X157813765Y-69650235D01*
X157731147Y-69582432D01*
X157636889Y-69532050D01*
X157534613Y-69501025D01*
X157428250Y-69490549D01*
X156515750Y-69490549D01*
X156409387Y-69501025D01*
X156307111Y-69532050D01*
X156212853Y-69582432D01*
X156130235Y-69650235D01*
X156062432Y-69732853D01*
X156012050Y-69827111D01*
X155981025Y-69929387D01*
X155970549Y-70035750D01*
X155970549Y-70523250D01*
X155981025Y-70629613D01*
X156012050Y-70731889D01*
X156062432Y-70826147D01*
X156130235Y-70908765D01*
X156212853Y-70976568D01*
X156307111Y-71026950D01*
X156409387Y-71057975D01*
X156515750Y-71068451D01*
X156547001Y-71068451D01*
X156547001Y-71983994D01*
X156527360Y-71973496D01*
X156470810Y-71956341D01*
X156412000Y-71950549D01*
X154879788Y-71950549D01*
X153947238Y-71018000D01*
X154078002Y-71018000D01*
X154078002Y-70943002D01*
X154153000Y-71018000D01*
X154249000Y-71019452D01*
X154307810Y-71013660D01*
X154364361Y-70996505D01*
X154399001Y-70977989D01*
X154433640Y-70996504D01*
X154490190Y-71013659D01*
X154549000Y-71019451D01*
X155199000Y-71019451D01*
X155257810Y-71013659D01*
X155314360Y-70996504D01*
X155366477Y-70968647D01*
X155412158Y-70931158D01*
X155449647Y-70885477D01*
X155477504Y-70833360D01*
X155494659Y-70776810D01*
X155500451Y-70718000D01*
X155500451Y-70144589D01*
X156457342Y-69187698D01*
X156515750Y-69193451D01*
X157428250Y-69193451D01*
X157534613Y-69182975D01*
X157636889Y-69151950D01*
X157731147Y-69101568D01*
X157813765Y-69033765D01*
X157881568Y-68951147D01*
X157931950Y-68856889D01*
X157962975Y-68754613D01*
X157973451Y-68648250D01*
X157973451Y-68160750D01*
X157962975Y-68054387D01*
X157931950Y-67952111D01*
X157881568Y-67857853D01*
X157813765Y-67775235D01*
X157731147Y-67707432D01*
X157636889Y-67657050D01*
X157534613Y-67626025D01*
X157428250Y-67615549D01*
X157397000Y-67615549D01*
X157397000Y-65905017D01*
X157399055Y-65884150D01*
X157397000Y-65863283D01*
X157397000Y-65863276D01*
X157390850Y-65800836D01*
X157390459Y-65799547D01*
X157366548Y-65720722D01*
X157351117Y-65691854D01*
X157327084Y-65646890D01*
X157273974Y-65582176D01*
X157257762Y-65568871D01*
X155605756Y-63916865D01*
X155608950Y-63910889D01*
X155639975Y-63808613D01*
X155650451Y-63702250D01*
X155650451Y-62789750D01*
X155639975Y-62683387D01*
X155608950Y-62581111D01*
X155558568Y-62486853D01*
X155490765Y-62404235D01*
X155408147Y-62336432D01*
X155313889Y-62286050D01*
X155211613Y-62255025D01*
X155105250Y-62244549D01*
X154617750Y-62244549D01*
X154511387Y-62255025D01*
X154409111Y-62286050D01*
X154314853Y-62336432D01*
X154232235Y-62404235D01*
X154206986Y-62435000D01*
X154193558Y-62390733D01*
X154187031Y-62378522D01*
X154154094Y-62316900D01*
X154100984Y-62252186D01*
X154084768Y-62238878D01*
X153781124Y-61935234D01*
X153767814Y-61919016D01*
X153703100Y-61865906D01*
X153629267Y-61826442D01*
X153549154Y-61802140D01*
X153486714Y-61795990D01*
X153486707Y-61795990D01*
X153465840Y-61793935D01*
X153444973Y-61795990D01*
X141507876Y-61795990D01*
X141487009Y-61793935D01*
X141466142Y-61795990D01*
X141466136Y-61795990D01*
X141412108Y-61801311D01*
X141403695Y-61802140D01*
X141379393Y-61809512D01*
X141323583Y-61826442D01*
X141249750Y-61865906D01*
X141185036Y-61919016D01*
X141171731Y-61935228D01*
X140387023Y-62719937D01*
X140286793Y-62700000D01*
X140129207Y-62700000D01*
X139974649Y-62730743D01*
X139829058Y-62791049D01*
X139698030Y-62878599D01*
X139586599Y-62990030D01*
X139573000Y-63010382D01*
X139559401Y-62990030D01*
X139447970Y-62878599D01*
X139316942Y-62791049D01*
X139171351Y-62730743D01*
X139016793Y-62700000D01*
X138859207Y-62700000D01*
X138704649Y-62730743D01*
X138559058Y-62791049D01*
X138428030Y-62878599D01*
X138350621Y-62956008D01*
X138309932Y-62952000D01*
X138309921Y-62952000D01*
X138278000Y-62948856D01*
X138246079Y-62952000D01*
X132009924Y-62952000D01*
X131978000Y-62948856D01*
X131946076Y-62952000D01*
X131946068Y-62952000D01*
X131850578Y-62961405D01*
X131728052Y-62998573D01*
X131615132Y-63058930D01*
X131516157Y-63140157D01*
X131495800Y-63164962D01*
X130974001Y-63686761D01*
X130974001Y-62667868D01*
X130976056Y-62647001D01*
X130974001Y-62626134D01*
X130974001Y-62626127D01*
X130967851Y-62563687D01*
X130962290Y-62545353D01*
X130953839Y-62517496D01*
X130943549Y-62483574D01*
X130904085Y-62409741D01*
X130850975Y-62345027D01*
X130834763Y-62331722D01*
X130525451Y-62022410D01*
X130525451Y-61272000D01*
X130519659Y-61213190D01*
X130502504Y-61156640D01*
X130474647Y-61104523D01*
X130437158Y-61058842D01*
X130391477Y-61021353D01*
X130339360Y-60993496D01*
X130282810Y-60976341D01*
X130224000Y-60970549D01*
X129024000Y-60970549D01*
X128965190Y-60976341D01*
X128908640Y-60993496D01*
X128856523Y-61021353D01*
X128810842Y-61058842D01*
X128773353Y-61104523D01*
X128745496Y-61156640D01*
X128728341Y-61213190D01*
X128722549Y-61272000D01*
X128722549Y-62172000D01*
X128728341Y-62230810D01*
X128745496Y-62287360D01*
X128773353Y-62339477D01*
X128810842Y-62385158D01*
X128856523Y-62422647D01*
X128908640Y-62450504D01*
X128965190Y-62467659D01*
X129024000Y-62473451D01*
X129774411Y-62473451D01*
X129795508Y-62494549D01*
X129024000Y-62494549D01*
X128965190Y-62500341D01*
X128908640Y-62517496D01*
X128856523Y-62545353D01*
X128810842Y-62582842D01*
X128773353Y-62628523D01*
X128745496Y-62680640D01*
X128728341Y-62737190D01*
X128722549Y-62796000D01*
X128722549Y-63445410D01*
X127603239Y-64564721D01*
X127587027Y-64578026D01*
X127533917Y-64642740D01*
X127495850Y-64713960D01*
X127494453Y-64716573D01*
X127470150Y-64796686D01*
X127465248Y-64846458D01*
X127448640Y-64851496D01*
X127396523Y-64879353D01*
X127350842Y-64916842D01*
X127313353Y-64962523D01*
X127285496Y-65014640D01*
X127268341Y-65071190D01*
X127262549Y-65130000D01*
X127262549Y-65782570D01*
X127259595Y-65752578D01*
X127245451Y-65705952D01*
X127245451Y-65130000D01*
X127239659Y-65071190D01*
X127222504Y-65014640D01*
X127194647Y-64962523D01*
X127157158Y-64916842D01*
X127111477Y-64879353D01*
X127059360Y-64851496D01*
X127002810Y-64834341D01*
X126944000Y-64828549D01*
X126643590Y-64828549D01*
X125812491Y-63997451D01*
X126160000Y-63997451D01*
X126218810Y-63991659D01*
X126275360Y-63974504D01*
X126327477Y-63946647D01*
X126373158Y-63909158D01*
X126410647Y-63863477D01*
X126438504Y-63811360D01*
X126455659Y-63754810D01*
X126461451Y-63696000D01*
X126461451Y-63671000D01*
X126522549Y-63671000D01*
X126522549Y-63696000D01*
X126528341Y-63754810D01*
X126545496Y-63811360D01*
X126573353Y-63863477D01*
X126610842Y-63909158D01*
X126656523Y-63946647D01*
X126708640Y-63974504D01*
X126765190Y-63991659D01*
X126824000Y-63997451D01*
X128024000Y-63997451D01*
X128082810Y-63991659D01*
X128139360Y-63974504D01*
X128191477Y-63946647D01*
X128237158Y-63909158D01*
X128274647Y-63863477D01*
X128302504Y-63811360D01*
X128319659Y-63754810D01*
X128325451Y-63696000D01*
X128325451Y-62796000D01*
X128319659Y-62737190D01*
X128302504Y-62680640D01*
X128274647Y-62628523D01*
X128237158Y-62582842D01*
X128191477Y-62545353D01*
X128139360Y-62517496D01*
X128082810Y-62500341D01*
X128024000Y-62494549D01*
X126824000Y-62494549D01*
X126765190Y-62500341D01*
X126708640Y-62517496D01*
X126656523Y-62545353D01*
X126610842Y-62582842D01*
X126573353Y-62628523D01*
X126545496Y-62680640D01*
X126528341Y-62737190D01*
X126522549Y-62796000D01*
X126522549Y-62821000D01*
X126461451Y-62821000D01*
X126461451Y-62796000D01*
X126455659Y-62737190D01*
X126438504Y-62680640D01*
X126410647Y-62628523D01*
X126373158Y-62582842D01*
X126327477Y-62545353D01*
X126275360Y-62517496D01*
X126218810Y-62500341D01*
X126160000Y-62494549D01*
X124960000Y-62494549D01*
X124901190Y-62500341D01*
X124844640Y-62517496D01*
X124792523Y-62545353D01*
X124746842Y-62582842D01*
X124709353Y-62628523D01*
X124681496Y-62680640D01*
X124664341Y-62737190D01*
X124658549Y-62796000D01*
X124658549Y-63696000D01*
X124664341Y-63754810D01*
X124681496Y-63811360D01*
X124687347Y-63822306D01*
X124261451Y-63396411D01*
X124261451Y-62796000D01*
X124255659Y-62737190D01*
X124238504Y-62680640D01*
X124210647Y-62628523D01*
X124173158Y-62582842D01*
X124127477Y-62545353D01*
X124075360Y-62517496D01*
X124018810Y-62500341D01*
X123960000Y-62494549D01*
X123785000Y-62494549D01*
X123785000Y-62473451D01*
X123960000Y-62473451D01*
X124018810Y-62467659D01*
X124075360Y-62450504D01*
X124127477Y-62422647D01*
X124173158Y-62385158D01*
X124210647Y-62339477D01*
X124238504Y-62287360D01*
X124255659Y-62230810D01*
X124261451Y-62172000D01*
X124261451Y-61272000D01*
X124658549Y-61272000D01*
X124658549Y-62172000D01*
X124664341Y-62230810D01*
X124681496Y-62287360D01*
X124709353Y-62339477D01*
X124746842Y-62385158D01*
X124792523Y-62422647D01*
X124844640Y-62450504D01*
X124901190Y-62467659D01*
X124960000Y-62473451D01*
X126160000Y-62473451D01*
X126218810Y-62467659D01*
X126275360Y-62450504D01*
X126327477Y-62422647D01*
X126373158Y-62385158D01*
X126410647Y-62339477D01*
X126438504Y-62287360D01*
X126455659Y-62230810D01*
X126461451Y-62172000D01*
X126461451Y-62147000D01*
X126522549Y-62147000D01*
X126522549Y-62172000D01*
X126528341Y-62230810D01*
X126545496Y-62287360D01*
X126573353Y-62339477D01*
X126610842Y-62385158D01*
X126656523Y-62422647D01*
X126708640Y-62450504D01*
X126765190Y-62467659D01*
X126824000Y-62473451D01*
X128024000Y-62473451D01*
X128082810Y-62467659D01*
X128139360Y-62450504D01*
X128191477Y-62422647D01*
X128237158Y-62385158D01*
X128274647Y-62339477D01*
X128302504Y-62287360D01*
X128319659Y-62230810D01*
X128325451Y-62172000D01*
X128325451Y-61272000D01*
X128319659Y-61213190D01*
X128302504Y-61156640D01*
X128274647Y-61104523D01*
X128237158Y-61058842D01*
X128191477Y-61021353D01*
X128139360Y-60993496D01*
X128082810Y-60976341D01*
X128024000Y-60970549D01*
X126824000Y-60970549D01*
X126765190Y-60976341D01*
X126708640Y-60993496D01*
X126656523Y-61021353D01*
X126610842Y-61058842D01*
X126573353Y-61104523D01*
X126545496Y-61156640D01*
X126528341Y-61213190D01*
X126522549Y-61272000D01*
X126522549Y-61297000D01*
X126461451Y-61297000D01*
X126461451Y-61272000D01*
X126455659Y-61213190D01*
X126438504Y-61156640D01*
X126410647Y-61104523D01*
X126373158Y-61058842D01*
X126327477Y-61021353D01*
X126275360Y-60993496D01*
X126218810Y-60976341D01*
X126160000Y-60970549D01*
X124960000Y-60970549D01*
X124901190Y-60976341D01*
X124844640Y-60993496D01*
X124792523Y-61021353D01*
X124746842Y-61058842D01*
X124709353Y-61104523D01*
X124681496Y-61156640D01*
X124664341Y-61213190D01*
X124658549Y-61272000D01*
X124261451Y-61272000D01*
X124255659Y-61213190D01*
X124238504Y-61156640D01*
X124210647Y-61104523D01*
X124173158Y-61058842D01*
X124127477Y-61021353D01*
X124075360Y-60993496D01*
X124018810Y-60976341D01*
X123960000Y-60970549D01*
X122760000Y-60970549D01*
X122701190Y-60976341D01*
X122644640Y-60993496D01*
X122592523Y-61021353D01*
X122546842Y-61058842D01*
X122509353Y-61104523D01*
X122481496Y-61156640D01*
X122464341Y-61213190D01*
X122458549Y-61272000D01*
X122458549Y-62172000D01*
X122464341Y-62230810D01*
X122481496Y-62287360D01*
X122509353Y-62339477D01*
X122546842Y-62385158D01*
X122592523Y-62422647D01*
X122644640Y-62450504D01*
X122701190Y-62467659D01*
X122760000Y-62473451D01*
X122935000Y-62473451D01*
X122935001Y-62494549D01*
X122760000Y-62494549D01*
X122701190Y-62500341D01*
X122644640Y-62517496D01*
X122592523Y-62545353D01*
X122546842Y-62582842D01*
X122509353Y-62628523D01*
X122481496Y-62680640D01*
X122464341Y-62737190D01*
X122458549Y-62796000D01*
X122458549Y-63696000D01*
X122464341Y-63754810D01*
X122481496Y-63811360D01*
X122509353Y-63863477D01*
X122546842Y-63909158D01*
X122592523Y-63946647D01*
X122644640Y-63974504D01*
X122701190Y-63991659D01*
X122760000Y-63997451D01*
X123660411Y-63997451D01*
X124160980Y-64498020D01*
X124106000Y-64553000D01*
X124106000Y-65124000D01*
X124677000Y-65124000D01*
X124752000Y-65049000D01*
X124753452Y-64778000D01*
X124747660Y-64719190D01*
X124737895Y-64687000D01*
X125299960Y-64687000D01*
X125992549Y-65379590D01*
X125992549Y-65705953D01*
X125978405Y-65752579D01*
X125969000Y-65848069D01*
X125969000Y-66643079D01*
X125965856Y-66675000D01*
X125969000Y-66706921D01*
X125969000Y-66706932D01*
X125978405Y-66802422D01*
X125996544Y-66862216D01*
X126015573Y-66924947D01*
X126075930Y-67037868D01*
X126136802Y-67112040D01*
X126136805Y-67112043D01*
X126157158Y-67136843D01*
X126181958Y-67157196D01*
X126422549Y-67397787D01*
X126422549Y-68331000D01*
X125640451Y-68331000D01*
X125640451Y-68231000D01*
X125634659Y-68172190D01*
X125617504Y-68115640D01*
X125589647Y-68063523D01*
X125552158Y-68017842D01*
X125506477Y-67980353D01*
X125454360Y-67952496D01*
X125397810Y-67935341D01*
X125339000Y-67929549D01*
X124602000Y-67929549D01*
X124602000Y-67015169D01*
X124660951Y-66926942D01*
X124721257Y-66781351D01*
X124752000Y-66626793D01*
X124752000Y-66469207D01*
X124721257Y-66314649D01*
X124660951Y-66169058D01*
X124580907Y-66049264D01*
X124619478Y-66028648D01*
X124665159Y-65991159D01*
X124702648Y-65945478D01*
X124730505Y-65893361D01*
X124747660Y-65836810D01*
X124753452Y-65778000D01*
X124752000Y-65507000D01*
X124677000Y-65432000D01*
X124106000Y-65432000D01*
X124106000Y-65452000D01*
X123798000Y-65452000D01*
X123798000Y-65432000D01*
X123227000Y-65432000D01*
X123152000Y-65507000D01*
X123150548Y-65778000D01*
X123156340Y-65836810D01*
X123173495Y-65893361D01*
X123201352Y-65945478D01*
X123238841Y-65991159D01*
X123284522Y-66028648D01*
X123323093Y-66049264D01*
X123243049Y-66169058D01*
X123182743Y-66314649D01*
X123152000Y-66469207D01*
X123152000Y-66626793D01*
X123182743Y-66781351D01*
X123243049Y-66926942D01*
X123302000Y-67015169D01*
X123302001Y-68187069D01*
X123298856Y-68219000D01*
X123302001Y-68250932D01*
X123306308Y-68294664D01*
X123311406Y-68346422D01*
X123348573Y-68468947D01*
X123408930Y-68581868D01*
X123469802Y-68656040D01*
X123469805Y-68656043D01*
X123490158Y-68680843D01*
X123514958Y-68701196D01*
X123787549Y-68973787D01*
X123787549Y-69731000D01*
X123793341Y-69789810D01*
X123810496Y-69846360D01*
X123838353Y-69898477D01*
X123875842Y-69944158D01*
X123921523Y-69981647D01*
X123973640Y-70009504D01*
X124030190Y-70026659D01*
X124089000Y-70032451D01*
X125339000Y-70032451D01*
X125397810Y-70026659D01*
X125454360Y-70009504D01*
X125506477Y-69981647D01*
X125552158Y-69944158D01*
X125589647Y-69898477D01*
X125617504Y-69846360D01*
X125634659Y-69789810D01*
X125640451Y-69731000D01*
X125640451Y-69631000D01*
X126422549Y-69631000D01*
X126422549Y-69930000D01*
X126428341Y-69988810D01*
X126445496Y-70045360D01*
X126473353Y-70097477D01*
X126510842Y-70143158D01*
X126556523Y-70180647D01*
X126608640Y-70208504D01*
X126665190Y-70225659D01*
X126724000Y-70231451D01*
X126846549Y-70231451D01*
X126773000Y-70305000D01*
X126773000Y-71126000D01*
X127169000Y-71126000D01*
X127244000Y-71051000D01*
X127245452Y-70530000D01*
X127239660Y-70471190D01*
X127222505Y-70414639D01*
X127194648Y-70362522D01*
X127157159Y-70316841D01*
X127111478Y-70279352D01*
X127059361Y-70251495D01*
X127002810Y-70234340D01*
X126973476Y-70231451D01*
X127534534Y-70231451D01*
X127505190Y-70234341D01*
X127448640Y-70251496D01*
X127396523Y-70279353D01*
X127350842Y-70316842D01*
X127313353Y-70362523D01*
X127285496Y-70414640D01*
X127268341Y-70471190D01*
X127262549Y-70530000D01*
X127262549Y-72030000D01*
X127268341Y-72088810D01*
X127285496Y-72145360D01*
X127313353Y-72197477D01*
X127350842Y-72243158D01*
X127396523Y-72280647D01*
X127448640Y-72308504D01*
X127464001Y-72313164D01*
X127464001Y-72681045D01*
X127418523Y-72705353D01*
X127372842Y-72742842D01*
X127335353Y-72788523D01*
X127307496Y-72840640D01*
X127290341Y-72897190D01*
X127284549Y-72956000D01*
X127284549Y-73856000D01*
X127290341Y-73914810D01*
X127307496Y-73971360D01*
X127335353Y-74023477D01*
X127337424Y-74026000D01*
X127269451Y-74026000D01*
X127269451Y-73035000D01*
X127263659Y-72976190D01*
X127246504Y-72919640D01*
X127218647Y-72867523D01*
X127181158Y-72821842D01*
X127135477Y-72784353D01*
X127083360Y-72756496D01*
X127026810Y-72739341D01*
X126968000Y-72733549D01*
X125468000Y-72733549D01*
X125409190Y-72739341D01*
X125352640Y-72756496D01*
X125300523Y-72784353D01*
X125254842Y-72821842D01*
X125217353Y-72867523D01*
X125189496Y-72919640D01*
X125172341Y-72976190D01*
X125166549Y-73035000D01*
X125166549Y-74285000D01*
X125172341Y-74343810D01*
X125189496Y-74400360D01*
X125217353Y-74452477D01*
X125254842Y-74498158D01*
X125300523Y-74535647D01*
X125352640Y-74563504D01*
X125409190Y-74580659D01*
X125468000Y-74586451D01*
X125991213Y-74586451D01*
X126517804Y-75113043D01*
X126538157Y-75137843D01*
X126562957Y-75158196D01*
X126562959Y-75158198D01*
X126601709Y-75190000D01*
X122295000Y-75190000D01*
X122295000Y-74285000D01*
X122666548Y-74285000D01*
X122672340Y-74343810D01*
X122689495Y-74400361D01*
X122717352Y-74452478D01*
X122754841Y-74498159D01*
X122800522Y-74535648D01*
X122852639Y-74563505D01*
X122909190Y-74580660D01*
X122968000Y-74586452D01*
X123489000Y-74585000D01*
X123564000Y-74510000D01*
X123564000Y-73814000D01*
X123872000Y-73814000D01*
X123872000Y-74510000D01*
X123947000Y-74585000D01*
X124468000Y-74586452D01*
X124526810Y-74580660D01*
X124583361Y-74563505D01*
X124635478Y-74535648D01*
X124681159Y-74498159D01*
X124718648Y-74452478D01*
X124746505Y-74400361D01*
X124763660Y-74343810D01*
X124769452Y-74285000D01*
X124768000Y-73889000D01*
X124693000Y-73814000D01*
X123872000Y-73814000D01*
X123564000Y-73814000D01*
X122743000Y-73814000D01*
X122668000Y-73889000D01*
X122666548Y-74285000D01*
X122295000Y-74285000D01*
X122295000Y-73035000D01*
X122666548Y-73035000D01*
X122668000Y-73431000D01*
X122743000Y-73506000D01*
X123564000Y-73506000D01*
X123564000Y-72810000D01*
X123872000Y-72810000D01*
X123872000Y-73506000D01*
X124693000Y-73506000D01*
X124768000Y-73431000D01*
X124769452Y-73035000D01*
X124763660Y-72976190D01*
X124746505Y-72919639D01*
X124718648Y-72867522D01*
X124681159Y-72821841D01*
X124635478Y-72784352D01*
X124583361Y-72756495D01*
X124526810Y-72739340D01*
X124468000Y-72733548D01*
X123947000Y-72735000D01*
X123872000Y-72810000D01*
X123564000Y-72810000D01*
X123489000Y-72735000D01*
X122968000Y-72733548D01*
X122909190Y-72739340D01*
X122852639Y-72756495D01*
X122800522Y-72784352D01*
X122754841Y-72821841D01*
X122717352Y-72867522D01*
X122689495Y-72919639D01*
X122672340Y-72976190D01*
X122666548Y-73035000D01*
X122295000Y-73035000D01*
X122295000Y-72231000D01*
X123787548Y-72231000D01*
X123793340Y-72289810D01*
X123810495Y-72346361D01*
X123838352Y-72398478D01*
X123875841Y-72444159D01*
X123921522Y-72481648D01*
X123973639Y-72509505D01*
X124030190Y-72526660D01*
X124089000Y-72532452D01*
X124485000Y-72531000D01*
X124560000Y-72456000D01*
X124560000Y-71635000D01*
X124868000Y-71635000D01*
X124868000Y-72456000D01*
X124943000Y-72531000D01*
X125339000Y-72532452D01*
X125397810Y-72526660D01*
X125454361Y-72509505D01*
X125506478Y-72481648D01*
X125552159Y-72444159D01*
X125589648Y-72398478D01*
X125617505Y-72346361D01*
X125634660Y-72289810D01*
X125640452Y-72231000D01*
X125639892Y-72030000D01*
X125992548Y-72030000D01*
X125998340Y-72088810D01*
X126015495Y-72145361D01*
X126043352Y-72197478D01*
X126080841Y-72243159D01*
X126126522Y-72280648D01*
X126178639Y-72308505D01*
X126235190Y-72325660D01*
X126294000Y-72331452D01*
X126390000Y-72330000D01*
X126465000Y-72255000D01*
X126465000Y-71434000D01*
X126773000Y-71434000D01*
X126773000Y-72255000D01*
X126848000Y-72330000D01*
X126944000Y-72331452D01*
X127002810Y-72325660D01*
X127059361Y-72308505D01*
X127111478Y-72280648D01*
X127157159Y-72243159D01*
X127194648Y-72197478D01*
X127222505Y-72145361D01*
X127239660Y-72088810D01*
X127245452Y-72030000D01*
X127244000Y-71509000D01*
X127169000Y-71434000D01*
X126773000Y-71434000D01*
X126465000Y-71434000D01*
X126069000Y-71434000D01*
X125994000Y-71509000D01*
X125992548Y-72030000D01*
X125639892Y-72030000D01*
X125639000Y-71710000D01*
X125564000Y-71635000D01*
X124868000Y-71635000D01*
X124560000Y-71635000D01*
X123864000Y-71635000D01*
X123789000Y-71710000D01*
X123787548Y-72231000D01*
X122295000Y-72231000D01*
X122295000Y-70731000D01*
X123787548Y-70731000D01*
X123789000Y-71252000D01*
X123864000Y-71327000D01*
X124560000Y-71327000D01*
X124560000Y-70506000D01*
X124868000Y-70506000D01*
X124868000Y-71327000D01*
X125564000Y-71327000D01*
X125639000Y-71252000D01*
X125640452Y-70731000D01*
X125634660Y-70672190D01*
X125617505Y-70615639D01*
X125589648Y-70563522D01*
X125562138Y-70530000D01*
X125992548Y-70530000D01*
X125994000Y-71051000D01*
X126069000Y-71126000D01*
X126465000Y-71126000D01*
X126465000Y-70305000D01*
X126390000Y-70230000D01*
X126294000Y-70228548D01*
X126235190Y-70234340D01*
X126178639Y-70251495D01*
X126126522Y-70279352D01*
X126080841Y-70316841D01*
X126043352Y-70362522D01*
X126015495Y-70414639D01*
X125998340Y-70471190D01*
X125992548Y-70530000D01*
X125562138Y-70530000D01*
X125552159Y-70517841D01*
X125506478Y-70480352D01*
X125454361Y-70452495D01*
X125397810Y-70435340D01*
X125339000Y-70429548D01*
X124943000Y-70431000D01*
X124868000Y-70506000D01*
X124560000Y-70506000D01*
X124485000Y-70431000D01*
X124089000Y-70429548D01*
X124030190Y-70435340D01*
X123973639Y-70452495D01*
X123921522Y-70480352D01*
X123875841Y-70517841D01*
X123838352Y-70563522D01*
X123810495Y-70615639D01*
X123793340Y-70672190D01*
X123787548Y-70731000D01*
X122295000Y-70731000D01*
X122295000Y-64778000D01*
X123150548Y-64778000D01*
X123152000Y-65049000D01*
X123227000Y-65124000D01*
X123798000Y-65124000D01*
X123798000Y-64553000D01*
X123723000Y-64478000D01*
X123452000Y-64476548D01*
X123393190Y-64482340D01*
X123336639Y-64499495D01*
X123284522Y-64527352D01*
X123238841Y-64564841D01*
X123201352Y-64610522D01*
X123173495Y-64662639D01*
X123156340Y-64719190D01*
X123150548Y-64778000D01*
X122295000Y-64778000D01*
X122295000Y-60700000D01*
X158375000Y-60700000D01*
X158375001Y-75190000D01*
G36*
X131176001Y-68011238D02*
G01*
X131176000Y-71342078D01*
X131172856Y-71374000D01*
X131176000Y-71405921D01*
X131176000Y-71405931D01*
X131185405Y-71501421D01*
X131212753Y-71591574D01*
X131222573Y-71623947D01*
X131282930Y-71736868D01*
X131322040Y-71784523D01*
X131364157Y-71835843D01*
X131388962Y-71856200D01*
X131938001Y-72405239D01*
X131938001Y-72646011D01*
X131920523Y-72655353D01*
X131874842Y-72692842D01*
X131837353Y-72738523D01*
X131809496Y-72790640D01*
X131792341Y-72847190D01*
X131786549Y-72906000D01*
X131786549Y-73288212D01*
X131287004Y-73787758D01*
X131286000Y-73635000D01*
X131211000Y-73560000D01*
X130540000Y-73560000D01*
X130540000Y-73580000D01*
X130232000Y-73580000D01*
X130232000Y-73560000D01*
X129561000Y-73560000D01*
X129486000Y-73635000D01*
X129484548Y-73856000D01*
X129490340Y-73914810D01*
X129507495Y-73971361D01*
X129535352Y-74023478D01*
X129537422Y-74026000D01*
X129034576Y-74026000D01*
X129036647Y-74023477D01*
X129064504Y-73971360D01*
X129081659Y-73914810D01*
X129087451Y-73856000D01*
X129087451Y-72956000D01*
X129484548Y-72956000D01*
X129486000Y-73177000D01*
X129561000Y-73252000D01*
X130232000Y-73252000D01*
X130232000Y-72731000D01*
X130540000Y-72731000D01*
X130540000Y-73252000D01*
X131211000Y-73252000D01*
X131286000Y-73177000D01*
X131287452Y-72956000D01*
X131281660Y-72897190D01*
X131264505Y-72840639D01*
X131236648Y-72788522D01*
X131199159Y-72742841D01*
X131153478Y-72705352D01*
X131101361Y-72677495D01*
X131044810Y-72660340D01*
X130986000Y-72654548D01*
X130615000Y-72656000D01*
X130540000Y-72731000D01*
X130232000Y-72731000D01*
X130157000Y-72656000D01*
X129786000Y-72654548D01*
X129727190Y-72660340D01*
X129670639Y-72677495D01*
X129618522Y-72705352D01*
X129572841Y-72742841D01*
X129535352Y-72788522D01*
X129507495Y-72840639D01*
X129490340Y-72897190D01*
X129484548Y-72956000D01*
X129087451Y-72956000D01*
X129081659Y-72897190D01*
X129064504Y-72840640D01*
X129036647Y-72788523D01*
X128999158Y-72742842D01*
X128953477Y-72705353D01*
X128901360Y-72677496D01*
X128844810Y-72660341D01*
X128786000Y-72654549D01*
X128314000Y-72654549D01*
X128314000Y-72313164D01*
X128329360Y-72308504D01*
X128381477Y-72280647D01*
X128427158Y-72243158D01*
X128464647Y-72197477D01*
X128492504Y-72145360D01*
X128509659Y-72088810D01*
X128515451Y-72030000D01*
X128532548Y-72030000D01*
X128538340Y-72088810D01*
X128555495Y-72145361D01*
X128583352Y-72197478D01*
X128620841Y-72243159D01*
X128666522Y-72280648D01*
X128718639Y-72308505D01*
X128775190Y-72325660D01*
X128834000Y-72331452D01*
X128930000Y-72330000D01*
X129005000Y-72255000D01*
X129005000Y-71434000D01*
X128609000Y-71434000D01*
X128534000Y-71509000D01*
X128532548Y-72030000D01*
X128515451Y-72030000D01*
X128515451Y-70530000D01*
X128509659Y-70471190D01*
X128492504Y-70414640D01*
X128464647Y-70362523D01*
X128427158Y-70316842D01*
X128381477Y-70279353D01*
X128329360Y-70251496D01*
X128272810Y-70234341D01*
X128243466Y-70231451D01*
X128804524Y-70231451D01*
X128775190Y-70234340D01*
X128718639Y-70251495D01*
X128666522Y-70279352D01*
X128620841Y-70316841D01*
X128583352Y-70362522D01*
X128555495Y-70414639D01*
X128538340Y-70471190D01*
X128532548Y-70530000D01*
X128534000Y-71051000D01*
X128609000Y-71126000D01*
X129005000Y-71126000D01*
X129005000Y-71106000D01*
X129313000Y-71106000D01*
X129313000Y-71126000D01*
X129333000Y-71126000D01*
X129333000Y-71434000D01*
X129313000Y-71434000D01*
X129313000Y-72255000D01*
X129388000Y-72330000D01*
X129484000Y-72331452D01*
X129542810Y-72325660D01*
X129599361Y-72308505D01*
X129651478Y-72280648D01*
X129697159Y-72243159D01*
X129734648Y-72197478D01*
X129762505Y-72145361D01*
X129779660Y-72088810D01*
X129785452Y-72030000D01*
X129784000Y-71509000D01*
X129709002Y-71434002D01*
X129784000Y-71434002D01*
X129784000Y-71362697D01*
X129788405Y-71407421D01*
X129802549Y-71454047D01*
X129802549Y-72030000D01*
X129808341Y-72088810D01*
X129825496Y-72145360D01*
X129853353Y-72197477D01*
X129890842Y-72243158D01*
X129936523Y-72280647D01*
X129988640Y-72308504D01*
X130045190Y-72325659D01*
X130104000Y-72331451D01*
X130754000Y-72331451D01*
X130812810Y-72325659D01*
X130869360Y-72308504D01*
X130921477Y-72280647D01*
X130967158Y-72243158D01*
X131004647Y-72197477D01*
X131032504Y-72145360D01*
X131049659Y-72088810D01*
X131055451Y-72030000D01*
X131055451Y-71454048D01*
X131069595Y-71407422D01*
X131079000Y-71311932D01*
X131079000Y-70516924D01*
X131082144Y-70485000D01*
X131079000Y-70453076D01*
X131079000Y-70453068D01*
X131069595Y-70357578D01*
X131032427Y-70235052D01*
X130972070Y-70122132D01*
X130890843Y-70023157D01*
X130866038Y-70002800D01*
X130625451Y-69762213D01*
X130625451Y-67460687D01*
X131176001Y-68011238D01*
G37*
X131176001Y-68011238D02*
X131176000Y-71342078D01*
X131172856Y-71374000D01*
X131176000Y-71405921D01*
X131176000Y-71405931D01*
X131185405Y-71501421D01*
X131212753Y-71591574D01*
X131222573Y-71623947D01*
X131282930Y-71736868D01*
X131322040Y-71784523D01*
X131364157Y-71835843D01*
X131388962Y-71856200D01*
X131938001Y-72405239D01*
X131938001Y-72646011D01*
X131920523Y-72655353D01*
X131874842Y-72692842D01*
X131837353Y-72738523D01*
X131809496Y-72790640D01*
X131792341Y-72847190D01*
X131786549Y-72906000D01*
X131786549Y-73288212D01*
X131287004Y-73787758D01*
X131286000Y-73635000D01*
X131211000Y-73560000D01*
X130540000Y-73560000D01*
X130540000Y-73580000D01*
X130232000Y-73580000D01*
X130232000Y-73560000D01*
X129561000Y-73560000D01*
X129486000Y-73635000D01*
X129484548Y-73856000D01*
X129490340Y-73914810D01*
X129507495Y-73971361D01*
X129535352Y-74023478D01*
X129537422Y-74026000D01*
X129034576Y-74026000D01*
X129036647Y-74023477D01*
X129064504Y-73971360D01*
X129081659Y-73914810D01*
X129087451Y-73856000D01*
X129087451Y-72956000D01*
X129484548Y-72956000D01*
X129486000Y-73177000D01*
X129561000Y-73252000D01*
X130232000Y-73252000D01*
X130232000Y-72731000D01*
X130540000Y-72731000D01*
X130540000Y-73252000D01*
X131211000Y-73252000D01*
X131286000Y-73177000D01*
X131287452Y-72956000D01*
X131281660Y-72897190D01*
X131264505Y-72840639D01*
X131236648Y-72788522D01*
X131199159Y-72742841D01*
X131153478Y-72705352D01*
X131101361Y-72677495D01*
X131044810Y-72660340D01*
X130986000Y-72654548D01*
X130615000Y-72656000D01*
X130540000Y-72731000D01*
X130232000Y-72731000D01*
X130157000Y-72656000D01*
X129786000Y-72654548D01*
X129727190Y-72660340D01*
X129670639Y-72677495D01*
X129618522Y-72705352D01*
X129572841Y-72742841D01*
X129535352Y-72788522D01*
X129507495Y-72840639D01*
X129490340Y-72897190D01*
X129484548Y-72956000D01*
X129087451Y-72956000D01*
X129081659Y-72897190D01*
X129064504Y-72840640D01*
X129036647Y-72788523D01*
X128999158Y-72742842D01*
X128953477Y-72705353D01*
X128901360Y-72677496D01*
X128844810Y-72660341D01*
X128786000Y-72654549D01*
X128314000Y-72654549D01*
X128314000Y-72313164D01*
X128329360Y-72308504D01*
X128381477Y-72280647D01*
X128427158Y-72243158D01*
X128464647Y-72197477D01*
X128492504Y-72145360D01*
X128509659Y-72088810D01*
X128515451Y-72030000D01*
X128532548Y-72030000D01*
X128538340Y-72088810D01*
X128555495Y-72145361D01*
X128583352Y-72197478D01*
X128620841Y-72243159D01*
X128666522Y-72280648D01*
X128718639Y-72308505D01*
X128775190Y-72325660D01*
X128834000Y-72331452D01*
X128930000Y-72330000D01*
X129005000Y-72255000D01*
X129005000Y-71434000D01*
X128609000Y-71434000D01*
X128534000Y-71509000D01*
X128532548Y-72030000D01*
X128515451Y-72030000D01*
X128515451Y-70530000D01*
X128509659Y-70471190D01*
X128492504Y-70414640D01*
X128464647Y-70362523D01*
X128427158Y-70316842D01*
X128381477Y-70279353D01*
X128329360Y-70251496D01*
X128272810Y-70234341D01*
X128243466Y-70231451D01*
X128804524Y-70231451D01*
X128775190Y-70234340D01*
X128718639Y-70251495D01*
X128666522Y-70279352D01*
X128620841Y-70316841D01*
X128583352Y-70362522D01*
X128555495Y-70414639D01*
X128538340Y-70471190D01*
X128532548Y-70530000D01*
X128534000Y-71051000D01*
X128609000Y-71126000D01*
X129005000Y-71126000D01*
X129005000Y-71106000D01*
X129313000Y-71106000D01*
X129313000Y-71126000D01*
X129333000Y-71126000D01*
X129333000Y-71434000D01*
X129313000Y-71434000D01*
X129313000Y-72255000D01*
X129388000Y-72330000D01*
X129484000Y-72331452D01*
X129542810Y-72325660D01*
X129599361Y-72308505D01*
X129651478Y-72280648D01*
X129697159Y-72243159D01*
X129734648Y-72197478D01*
X129762505Y-72145361D01*
X129779660Y-72088810D01*
X129785452Y-72030000D01*
X129784000Y-71509000D01*
X129709002Y-71434002D01*
X129784000Y-71434002D01*
X129784000Y-71362697D01*
X129788405Y-71407421D01*
X129802549Y-71454047D01*
X129802549Y-72030000D01*
X129808341Y-72088810D01*
X129825496Y-72145360D01*
X129853353Y-72197477D01*
X129890842Y-72243158D01*
X129936523Y-72280647D01*
X129988640Y-72308504D01*
X130045190Y-72325659D01*
X130104000Y-72331451D01*
X130754000Y-72331451D01*
X130812810Y-72325659D01*
X130869360Y-72308504D01*
X130921477Y-72280647D01*
X130967158Y-72243158D01*
X131004647Y-72197477D01*
X131032504Y-72145360D01*
X131049659Y-72088810D01*
X131055451Y-72030000D01*
X131055451Y-71454048D01*
X131069595Y-71407422D01*
X131079000Y-71311932D01*
X131079000Y-70516924D01*
X131082144Y-70485000D01*
X131079000Y-70453076D01*
X131079000Y-70453068D01*
X131069595Y-70357578D01*
X131032427Y-70235052D01*
X130972070Y-70122132D01*
X130890843Y-70023157D01*
X130866038Y-70002800D01*
X130625451Y-69762213D01*
X130625451Y-67460687D01*
X131176001Y-68011238D01*
G36*
X132595496Y-64283640D02*
G01*
X132578341Y-64340190D01*
X132572549Y-64399000D01*
X132572549Y-65649000D01*
X132578341Y-65707810D01*
X132595496Y-65764360D01*
X132623353Y-65816477D01*
X132660842Y-65862158D01*
X132706523Y-65899647D01*
X132758640Y-65927504D01*
X132815190Y-65944659D01*
X132874000Y-65950451D01*
X133949411Y-65950451D01*
X134491349Y-66492390D01*
X134491349Y-67997300D01*
X134497141Y-68056110D01*
X134514296Y-68112660D01*
X134536927Y-68155000D01*
X134372041Y-68155000D01*
X134101451Y-67884410D01*
X134101451Y-67134000D01*
X134095659Y-67075190D01*
X134078504Y-67018640D01*
X134050647Y-66966523D01*
X134013158Y-66920842D01*
X133967477Y-66883353D01*
X133915360Y-66855496D01*
X133858810Y-66838341D01*
X133800000Y-66832549D01*
X132900000Y-66832549D01*
X132841190Y-66838341D01*
X132784640Y-66855496D01*
X132732523Y-66883353D01*
X132686842Y-66920842D01*
X132649353Y-66966523D01*
X132621496Y-67018640D01*
X132604341Y-67075190D01*
X132598549Y-67134000D01*
X132598549Y-68334000D01*
X132604341Y-68392810D01*
X132621496Y-68449360D01*
X132649353Y-68501477D01*
X132686842Y-68547158D01*
X132732523Y-68584647D01*
X132784640Y-68612504D01*
X132841190Y-68629659D01*
X132900000Y-68635451D01*
X133650410Y-68635451D01*
X133880720Y-68865761D01*
X133894026Y-68881974D01*
X133958740Y-68935084D01*
X134032573Y-68974548D01*
X134112686Y-68998850D01*
X134175126Y-69005000D01*
X134175133Y-69005000D01*
X134196000Y-69007055D01*
X134216867Y-69005000D01*
X134523351Y-69005000D01*
X134514296Y-69021940D01*
X134497141Y-69078490D01*
X134491349Y-69137300D01*
X134491349Y-70697300D01*
X134497141Y-70756110D01*
X134514296Y-70812660D01*
X134542153Y-70864777D01*
X134579642Y-70910458D01*
X134625323Y-70947947D01*
X134677440Y-70975804D01*
X134733990Y-70992959D01*
X134792800Y-70998751D01*
X134858209Y-70998751D01*
X135167515Y-71308057D01*
X135180825Y-71324275D01*
X135245539Y-71377385D01*
X135317497Y-71415847D01*
X135319372Y-71416849D01*
X135399485Y-71441151D01*
X135482799Y-71449357D01*
X135503673Y-71447301D01*
X136446263Y-71447301D01*
X136649511Y-71650549D01*
X135517000Y-71650549D01*
X135458190Y-71656341D01*
X135401640Y-71673496D01*
X135349523Y-71701353D01*
X135303842Y-71738842D01*
X135266353Y-71784523D01*
X135238496Y-71836640D01*
X135221341Y-71893190D01*
X135215549Y-71952000D01*
X135215549Y-72402000D01*
X135221341Y-72460810D01*
X135233836Y-72502000D01*
X134143920Y-72502000D01*
X134111999Y-72498856D01*
X134080078Y-72502000D01*
X134080068Y-72502000D01*
X133984578Y-72511405D01*
X133862052Y-72548573D01*
X133749132Y-72608930D01*
X133744223Y-72612959D01*
X133624649Y-72636743D01*
X133479058Y-72697049D01*
X133359263Y-72777093D01*
X133338647Y-72738523D01*
X133301158Y-72692842D01*
X133255477Y-72655353D01*
X133238000Y-72646011D01*
X133238000Y-72167920D01*
X133241144Y-72135999D01*
X133238000Y-72104078D01*
X133238000Y-72104068D01*
X133236473Y-72088568D01*
X133254762Y-72070279D01*
X133270974Y-72056974D01*
X133284283Y-72040757D01*
X133635762Y-71689279D01*
X133651974Y-71675974D01*
X133705084Y-71611260D01*
X133744548Y-71537427D01*
X133768850Y-71457314D01*
X133775000Y-71394874D01*
X133775000Y-71394868D01*
X133777055Y-71374001D01*
X133775000Y-71353134D01*
X133775000Y-70835451D01*
X133800000Y-70835451D01*
X133858810Y-70829659D01*
X133915360Y-70812504D01*
X133967477Y-70784647D01*
X134013158Y-70747158D01*
X134050647Y-70701477D01*
X134078504Y-70649360D01*
X134095659Y-70592810D01*
X134101451Y-70534000D01*
X134101451Y-69334000D01*
X134095659Y-69275190D01*
X134078504Y-69218640D01*
X134050647Y-69166523D01*
X134013158Y-69120842D01*
X133967477Y-69083353D01*
X133915360Y-69055496D01*
X133858810Y-69038341D01*
X133800000Y-69032549D01*
X132900000Y-69032549D01*
X132841190Y-69038341D01*
X132784640Y-69055496D01*
X132732523Y-69083353D01*
X132686842Y-69120842D01*
X132649353Y-69166523D01*
X132621496Y-69218640D01*
X132604341Y-69275190D01*
X132598549Y-69334000D01*
X132598549Y-70534000D01*
X132604341Y-70592810D01*
X132621496Y-70649360D01*
X132649353Y-70701477D01*
X132686842Y-70747158D01*
X132732523Y-70784647D01*
X132784640Y-70812504D01*
X132841190Y-70829659D01*
X132900000Y-70835451D01*
X132925001Y-70835451D01*
X132925001Y-71197958D01*
X132792960Y-71330000D01*
X132701238Y-71330000D01*
X132476000Y-71104762D01*
X132476000Y-67773918D01*
X132479144Y-67741997D01*
X132476000Y-67710076D01*
X132476000Y-67710066D01*
X132466595Y-67614576D01*
X132429427Y-67492050D01*
X132369070Y-67379130D01*
X132287843Y-67280155D01*
X132263043Y-67259802D01*
X131079000Y-66075760D01*
X131079000Y-65420238D01*
X132247238Y-64252000D01*
X132612408Y-64252000D01*
X132595496Y-64283640D01*
G37*
X132595496Y-64283640D02*
X132578341Y-64340190D01*
X132572549Y-64399000D01*
X132572549Y-65649000D01*
X132578341Y-65707810D01*
X132595496Y-65764360D01*
X132623353Y-65816477D01*
X132660842Y-65862158D01*
X132706523Y-65899647D01*
X132758640Y-65927504D01*
X132815190Y-65944659D01*
X132874000Y-65950451D01*
X133949411Y-65950451D01*
X134491349Y-66492390D01*
X134491349Y-67997300D01*
X134497141Y-68056110D01*
X134514296Y-68112660D01*
X134536927Y-68155000D01*
X134372041Y-68155000D01*
X134101451Y-67884410D01*
X134101451Y-67134000D01*
X134095659Y-67075190D01*
X134078504Y-67018640D01*
X134050647Y-66966523D01*
X134013158Y-66920842D01*
X133967477Y-66883353D01*
X133915360Y-66855496D01*
X133858810Y-66838341D01*
X133800000Y-66832549D01*
X132900000Y-66832549D01*
X132841190Y-66838341D01*
X132784640Y-66855496D01*
X132732523Y-66883353D01*
X132686842Y-66920842D01*
X132649353Y-66966523D01*
X132621496Y-67018640D01*
X132604341Y-67075190D01*
X132598549Y-67134000D01*
X132598549Y-68334000D01*
X132604341Y-68392810D01*
X132621496Y-68449360D01*
X132649353Y-68501477D01*
X132686842Y-68547158D01*
X132732523Y-68584647D01*
X132784640Y-68612504D01*
X132841190Y-68629659D01*
X132900000Y-68635451D01*
X133650410Y-68635451D01*
X133880720Y-68865761D01*
X133894026Y-68881974D01*
X133958740Y-68935084D01*
X134032573Y-68974548D01*
X134112686Y-68998850D01*
X134175126Y-69005000D01*
X134175133Y-69005000D01*
X134196000Y-69007055D01*
X134216867Y-69005000D01*
X134523351Y-69005000D01*
X134514296Y-69021940D01*
X134497141Y-69078490D01*
X134491349Y-69137300D01*
X134491349Y-70697300D01*
X134497141Y-70756110D01*
X134514296Y-70812660D01*
X134542153Y-70864777D01*
X134579642Y-70910458D01*
X134625323Y-70947947D01*
X134677440Y-70975804D01*
X134733990Y-70992959D01*
X134792800Y-70998751D01*
X134858209Y-70998751D01*
X135167515Y-71308057D01*
X135180825Y-71324275D01*
X135245539Y-71377385D01*
X135317497Y-71415847D01*
X135319372Y-71416849D01*
X135399485Y-71441151D01*
X135482799Y-71449357D01*
X135503673Y-71447301D01*
X136446263Y-71447301D01*
X136649511Y-71650549D01*
X135517000Y-71650549D01*
X135458190Y-71656341D01*
X135401640Y-71673496D01*
X135349523Y-71701353D01*
X135303842Y-71738842D01*
X135266353Y-71784523D01*
X135238496Y-71836640D01*
X135221341Y-71893190D01*
X135215549Y-71952000D01*
X135215549Y-72402000D01*
X135221341Y-72460810D01*
X135233836Y-72502000D01*
X134143920Y-72502000D01*
X134111999Y-72498856D01*
X134080078Y-72502000D01*
X134080068Y-72502000D01*
X133984578Y-72511405D01*
X133862052Y-72548573D01*
X133749132Y-72608930D01*
X133744223Y-72612959D01*
X133624649Y-72636743D01*
X133479058Y-72697049D01*
X133359263Y-72777093D01*
X133338647Y-72738523D01*
X133301158Y-72692842D01*
X133255477Y-72655353D01*
X133238000Y-72646011D01*
X133238000Y-72167920D01*
X133241144Y-72135999D01*
X133238000Y-72104078D01*
X133238000Y-72104068D01*
X133236473Y-72088568D01*
X133254762Y-72070279D01*
X133270974Y-72056974D01*
X133284283Y-72040757D01*
X133635762Y-71689279D01*
X133651974Y-71675974D01*
X133705084Y-71611260D01*
X133744548Y-71537427D01*
X133768850Y-71457314D01*
X133775000Y-71394874D01*
X133775000Y-71394868D01*
X133777055Y-71374001D01*
X133775000Y-71353134D01*
X133775000Y-70835451D01*
X133800000Y-70835451D01*
X133858810Y-70829659D01*
X133915360Y-70812504D01*
X133967477Y-70784647D01*
X134013158Y-70747158D01*
X134050647Y-70701477D01*
X134078504Y-70649360D01*
X134095659Y-70592810D01*
X134101451Y-70534000D01*
X134101451Y-69334000D01*
X134095659Y-69275190D01*
X134078504Y-69218640D01*
X134050647Y-69166523D01*
X134013158Y-69120842D01*
X133967477Y-69083353D01*
X133915360Y-69055496D01*
X133858810Y-69038341D01*
X133800000Y-69032549D01*
X132900000Y-69032549D01*
X132841190Y-69038341D01*
X132784640Y-69055496D01*
X132732523Y-69083353D01*
X132686842Y-69120842D01*
X132649353Y-69166523D01*
X132621496Y-69218640D01*
X132604341Y-69275190D01*
X132598549Y-69334000D01*
X132598549Y-70534000D01*
X132604341Y-70592810D01*
X132621496Y-70649360D01*
X132649353Y-70701477D01*
X132686842Y-70747158D01*
X132732523Y-70784647D01*
X132784640Y-70812504D01*
X132841190Y-70829659D01*
X132900000Y-70835451D01*
X132925001Y-70835451D01*
X132925001Y-71197958D01*
X132792960Y-71330000D01*
X132701238Y-71330000D01*
X132476000Y-71104762D01*
X132476000Y-67773918D01*
X132479144Y-67741997D01*
X132476000Y-67710076D01*
X132476000Y-67710066D01*
X132466595Y-67614576D01*
X132429427Y-67492050D01*
X132369070Y-67379130D01*
X132287843Y-67280155D01*
X132263043Y-67259802D01*
X131079000Y-66075760D01*
X131079000Y-65420238D01*
X132247238Y-64252000D01*
X132612408Y-64252000D01*
X132595496Y-64283640D01*
G36*
X146731353Y-62684523D02*
G01*
X146703496Y-62736640D01*
X146686341Y-62793190D01*
X146680549Y-62852000D01*
X146680549Y-63728212D01*
X145124262Y-65284500D01*
X143868967Y-65284500D01*
X143825935Y-65232065D01*
X143742370Y-65163485D01*
X143647032Y-65112526D01*
X143543584Y-65081145D01*
X143436001Y-65070549D01*
X140665788Y-65070549D01*
X139754112Y-64158874D01*
X139829058Y-64208951D01*
X139974649Y-64269257D01*
X140129207Y-64300000D01*
X140286793Y-64300000D01*
X140441351Y-64269257D01*
X140586942Y-64208951D01*
X140717970Y-64121401D01*
X140829401Y-64009970D01*
X140846313Y-63984659D01*
X140889101Y-64041494D01*
X141006057Y-64145978D01*
X141141149Y-64225637D01*
X141203089Y-64251282D01*
X141324000Y-64208455D01*
X141324000Y-63654000D01*
X141304000Y-63654000D01*
X141304000Y-63346000D01*
X141324000Y-63346000D01*
X141324000Y-63326000D01*
X141632000Y-63326000D01*
X141632000Y-63346000D01*
X141652000Y-63346000D01*
X141652000Y-63654000D01*
X141632000Y-63654000D01*
X141632000Y-64208455D01*
X141752911Y-64251282D01*
X141814851Y-64225637D01*
X141949943Y-64145978D01*
X141974253Y-64124260D01*
X141997353Y-64167477D01*
X142034842Y-64213158D01*
X142080523Y-64250647D01*
X142132640Y-64278504D01*
X142189190Y-64295659D01*
X142248000Y-64301451D01*
X143248000Y-64301451D01*
X143306810Y-64295659D01*
X143363360Y-64278504D01*
X143415477Y-64250647D01*
X143461158Y-64213158D01*
X143498647Y-64167477D01*
X143526504Y-64115360D01*
X143543659Y-64058810D01*
X143549451Y-64000000D01*
X143549451Y-63000000D01*
X143543659Y-62941190D01*
X143526504Y-62884640D01*
X143498647Y-62832523D01*
X143461158Y-62786842D01*
X143415477Y-62749353D01*
X143363360Y-62721496D01*
X143306810Y-62704341D01*
X143248000Y-62698549D01*
X142248000Y-62698549D01*
X142189190Y-62704341D01*
X142132640Y-62721496D01*
X142080523Y-62749353D01*
X142034842Y-62786842D01*
X141997353Y-62832523D01*
X141974253Y-62875740D01*
X141949943Y-62854022D01*
X141814851Y-62774363D01*
X141752911Y-62748718D01*
X141632002Y-62791544D01*
X141632002Y-62700000D01*
X141609041Y-62700000D01*
X141663051Y-62645990D01*
X146762976Y-62645990D01*
X146731353Y-62684523D01*
G37*
X146731353Y-62684523D02*
X146703496Y-62736640D01*
X146686341Y-62793190D01*
X146680549Y-62852000D01*
X146680549Y-63728212D01*
X145124262Y-65284500D01*
X143868967Y-65284500D01*
X143825935Y-65232065D01*
X143742370Y-65163485D01*
X143647032Y-65112526D01*
X143543584Y-65081145D01*
X143436001Y-65070549D01*
X140665788Y-65070549D01*
X139754112Y-64158874D01*
X139829058Y-64208951D01*
X139974649Y-64269257D01*
X140129207Y-64300000D01*
X140286793Y-64300000D01*
X140441351Y-64269257D01*
X140586942Y-64208951D01*
X140717970Y-64121401D01*
X140829401Y-64009970D01*
X140846313Y-63984659D01*
X140889101Y-64041494D01*
X141006057Y-64145978D01*
X141141149Y-64225637D01*
X141203089Y-64251282D01*
X141324000Y-64208455D01*
X141324000Y-63654000D01*
X141304000Y-63654000D01*
X141304000Y-63346000D01*
X141324000Y-63346000D01*
X141324000Y-63326000D01*
X141632000Y-63326000D01*
X141632000Y-63346000D01*
X141652000Y-63346000D01*
X141652000Y-63654000D01*
X141632000Y-63654000D01*
X141632000Y-64208455D01*
X141752911Y-64251282D01*
X141814851Y-64225637D01*
X141949943Y-64145978D01*
X141974253Y-64124260D01*
X141997353Y-64167477D01*
X142034842Y-64213158D01*
X142080523Y-64250647D01*
X142132640Y-64278504D01*
X142189190Y-64295659D01*
X142248000Y-64301451D01*
X143248000Y-64301451D01*
X143306810Y-64295659D01*
X143363360Y-64278504D01*
X143415477Y-64250647D01*
X143461158Y-64213158D01*
X143498647Y-64167477D01*
X143526504Y-64115360D01*
X143543659Y-64058810D01*
X143549451Y-64000000D01*
X143549451Y-63000000D01*
X143543659Y-62941190D01*
X143526504Y-62884640D01*
X143498647Y-62832523D01*
X143461158Y-62786842D01*
X143415477Y-62749353D01*
X143363360Y-62721496D01*
X143306810Y-62704341D01*
X143248000Y-62698549D01*
X142248000Y-62698549D01*
X142189190Y-62704341D01*
X142132640Y-62721496D01*
X142080523Y-62749353D01*
X142034842Y-62786842D01*
X141997353Y-62832523D01*
X141974253Y-62875740D01*
X141949943Y-62854022D01*
X141814851Y-62774363D01*
X141752911Y-62748718D01*
X141632002Y-62791544D01*
X141632002Y-62700000D01*
X141609041Y-62700000D01*
X141663051Y-62645990D01*
X146762976Y-62645990D01*
X146731353Y-62684523D01*
G36*
X152199000Y-63017000D02*
G01*
X152274000Y-63092000D01*
X152832500Y-63092000D01*
X152832500Y-63072000D01*
X153140500Y-63072000D01*
X153140500Y-63092000D01*
X153160500Y-63092000D01*
X153160500Y-63400000D01*
X153140500Y-63400000D01*
X153140500Y-64171000D01*
X153215500Y-64246000D01*
X153388243Y-64246970D01*
X153403014Y-64295659D01*
X153404463Y-64300437D01*
X153409037Y-64308995D01*
X153336613Y-64287025D01*
X153230250Y-64276549D01*
X152742750Y-64276549D01*
X152636387Y-64287025D01*
X152534111Y-64318050D01*
X152439853Y-64368432D01*
X152357235Y-64436235D01*
X152289432Y-64518853D01*
X152282347Y-64532107D01*
X151696240Y-63946000D01*
X152197548Y-63946000D01*
X152203340Y-64004810D01*
X152220495Y-64061361D01*
X152248352Y-64113478D01*
X152285841Y-64159159D01*
X152331522Y-64196648D01*
X152383639Y-64224505D01*
X152440190Y-64241660D01*
X152499000Y-64247452D01*
X152757500Y-64246000D01*
X152832500Y-64171000D01*
X152832500Y-63400000D01*
X152274000Y-63400000D01*
X152199000Y-63475000D01*
X152197548Y-63946000D01*
X151696240Y-63946000D01*
X150915202Y-63164962D01*
X150894845Y-63140157D01*
X150795870Y-63058930D01*
X150682950Y-62998573D01*
X150560424Y-62961405D01*
X150464934Y-62952000D01*
X150464923Y-62952000D01*
X150433002Y-62948856D01*
X150401081Y-62952000D01*
X149483451Y-62952000D01*
X149483451Y-62852000D01*
X149477659Y-62793190D01*
X149460504Y-62736640D01*
X149432647Y-62684523D01*
X149401024Y-62645990D01*
X152197856Y-62645990D01*
X152199000Y-63017000D01*
G37*
X152199000Y-63017000D02*
X152274000Y-63092000D01*
X152832500Y-63092000D01*
X152832500Y-63072000D01*
X153140500Y-63072000D01*
X153140500Y-63092000D01*
X153160500Y-63092000D01*
X153160500Y-63400000D01*
X153140500Y-63400000D01*
X153140500Y-64171000D01*
X153215500Y-64246000D01*
X153388243Y-64246970D01*
X153403014Y-64295659D01*
X153404463Y-64300437D01*
X153409037Y-64308995D01*
X153336613Y-64287025D01*
X153230250Y-64276549D01*
X152742750Y-64276549D01*
X152636387Y-64287025D01*
X152534111Y-64318050D01*
X152439853Y-64368432D01*
X152357235Y-64436235D01*
X152289432Y-64518853D01*
X152282347Y-64532107D01*
X151696240Y-63946000D01*
X152197548Y-63946000D01*
X152203340Y-64004810D01*
X152220495Y-64061361D01*
X152248352Y-64113478D01*
X152285841Y-64159159D01*
X152331522Y-64196648D01*
X152383639Y-64224505D01*
X152440190Y-64241660D01*
X152499000Y-64247452D01*
X152757500Y-64246000D01*
X152832500Y-64171000D01*
X152832500Y-63400000D01*
X152274000Y-63400000D01*
X152199000Y-63475000D01*
X152197548Y-63946000D01*
X151696240Y-63946000D01*
X150915202Y-63164962D01*
X150894845Y-63140157D01*
X150795870Y-63058930D01*
X150682950Y-62998573D01*
X150560424Y-62961405D01*
X150464934Y-62952000D01*
X150464923Y-62952000D01*
X150433002Y-62948856D01*
X150401081Y-62952000D01*
X149483451Y-62952000D01*
X149483451Y-62852000D01*
X149477659Y-62793190D01*
X149460504Y-62736640D01*
X149432647Y-62684523D01*
X149401024Y-62645990D01*
X152197856Y-62645990D01*
X152199000Y-63017000D01*
G04 #@! TD*
M02*
