G04 #@! TF.GenerationSoftware,KiCad,Pcbnew,(5.1.6)-1*
G04 #@! TF.CreationDate,2020-05-27T20:21:06+02:00*
G04 #@! TF.ProjectId,charger_stepup,63686172-6765-4725-9f73-74657075702e,rev?*
G04 #@! TF.SameCoordinates,Original*
G04 #@! TF.FileFunction,Copper,L2,Bot*
G04 #@! TF.FilePolarity,Positive*
%FSLAX46Y46*%
G04 Gerber Fmt 4.6, Leading zero omitted, Abs format (unit mm)*
G04 Created by KiCad (PCBNEW (5.1.6)-1) date 2020-05-27 20:21:06*
%MOMM*%
%LPD*%
G01*
G04 APERTURE LIST*
G04 #@! TA.AperFunction,NonConductor*
%ADD10C,0.300000*%
G04 #@! TD*
G04 #@! TA.AperFunction,ComponentPad*
%ADD11O,1.000000X1.000000*%
G04 #@! TD*
G04 #@! TA.AperFunction,ComponentPad*
%ADD12R,1.000000X1.000000*%
G04 #@! TD*
G04 #@! TA.AperFunction,ViaPad*
%ADD13C,0.600000*%
G04 #@! TD*
G04 #@! TA.AperFunction,Conductor*
%ADD14C,0.250000*%
G04 #@! TD*
G04 #@! TA.AperFunction,Conductor*
%ADD15C,0.700000*%
G04 #@! TD*
G04 #@! TA.AperFunction,Conductor*
%ADD16C,0.200000*%
G04 #@! TD*
G04 APERTURE END LIST*
D10*
X157733714Y-73092571D02*
X157233714Y-74592571D01*
X156733714Y-73092571D01*
X155448000Y-74592571D02*
X156305142Y-74592571D01*
X155876571Y-74592571D02*
X155876571Y-73092571D01*
X156019428Y-73306857D01*
X156162285Y-73449714D01*
X156305142Y-73521142D01*
X154805142Y-74449714D02*
X154733714Y-74521142D01*
X154805142Y-74592571D01*
X154876571Y-74521142D01*
X154805142Y-74449714D01*
X154805142Y-74592571D01*
X153805142Y-73092571D02*
X153662285Y-73092571D01*
X153519428Y-73164000D01*
X153448000Y-73235428D01*
X153376571Y-73378285D01*
X153305142Y-73664000D01*
X153305142Y-74021142D01*
X153376571Y-74306857D01*
X153448000Y-74449714D01*
X153519428Y-74521142D01*
X153662285Y-74592571D01*
X153805142Y-74592571D01*
X153948000Y-74521142D01*
X154019428Y-74449714D01*
X154090857Y-74306857D01*
X154162285Y-74021142D01*
X154162285Y-73664000D01*
X154090857Y-73378285D01*
X154019428Y-73235428D01*
X153948000Y-73164000D01*
X153805142Y-73092571D01*
X128047428Y-73235428D02*
X127976000Y-73164000D01*
X127833142Y-73092571D01*
X127476000Y-73092571D01*
X127333142Y-73164000D01*
X127261714Y-73235428D01*
X127190285Y-73378285D01*
X127190285Y-73521142D01*
X127261714Y-73735428D01*
X128118857Y-74592571D01*
X127190285Y-74592571D01*
X126261714Y-73092571D02*
X126118857Y-73092571D01*
X125976000Y-73164000D01*
X125904571Y-73235428D01*
X125833142Y-73378285D01*
X125761714Y-73664000D01*
X125761714Y-74021142D01*
X125833142Y-74306857D01*
X125904571Y-74449714D01*
X125976000Y-74521142D01*
X126118857Y-74592571D01*
X126261714Y-74592571D01*
X126404571Y-74521142D01*
X126476000Y-74449714D01*
X126547428Y-74306857D01*
X126618857Y-74021142D01*
X126618857Y-73664000D01*
X126547428Y-73378285D01*
X126476000Y-73235428D01*
X126404571Y-73164000D01*
X126261714Y-73092571D01*
X125190285Y-73235428D02*
X125118857Y-73164000D01*
X124976000Y-73092571D01*
X124618857Y-73092571D01*
X124476000Y-73164000D01*
X124404571Y-73235428D01*
X124333142Y-73378285D01*
X124333142Y-73521142D01*
X124404571Y-73735428D01*
X125261714Y-74592571D01*
X124333142Y-74592571D01*
X123404571Y-73092571D02*
X123261714Y-73092571D01*
X123118857Y-73164000D01*
X123047428Y-73235428D01*
X122976000Y-73378285D01*
X122904571Y-73664000D01*
X122904571Y-74021142D01*
X122976000Y-74306857D01*
X123047428Y-74449714D01*
X123118857Y-74521142D01*
X123261714Y-74592571D01*
X123404571Y-74592571D01*
X123547428Y-74521142D01*
X123618857Y-74449714D01*
X123690285Y-74306857D01*
X123761714Y-74021142D01*
X123761714Y-73664000D01*
X123690285Y-73378285D01*
X123618857Y-73235428D01*
X123547428Y-73164000D01*
X123404571Y-73092571D01*
X155892285Y-66967571D02*
X156749428Y-66967571D01*
X156320857Y-66967571D02*
X156320857Y-65467571D01*
X156463714Y-65681857D01*
X156606571Y-65824714D01*
X156749428Y-65896142D01*
X155320857Y-66896142D02*
X155178000Y-66967571D01*
X154892285Y-66967571D01*
X154749428Y-66896142D01*
X154678000Y-66753285D01*
X154678000Y-66681857D01*
X154749428Y-66539000D01*
X154892285Y-66467571D01*
X155106571Y-66467571D01*
X155249428Y-66396142D01*
X155320857Y-66253285D01*
X155320857Y-66181857D01*
X155249428Y-66039000D01*
X155106571Y-65967571D01*
X154892285Y-65967571D01*
X154749428Y-66039000D01*
X152178000Y-66967571D02*
X152892285Y-66967571D01*
X152892285Y-65467571D01*
X151678000Y-66967571D02*
X151678000Y-65967571D01*
X151678000Y-65467571D02*
X151749428Y-65539000D01*
X151678000Y-65610428D01*
X151606571Y-65539000D01*
X151678000Y-65467571D01*
X151678000Y-65610428D01*
X156820857Y-68017571D02*
X157535142Y-68017571D01*
X157606571Y-68731857D01*
X157535142Y-68660428D01*
X157392285Y-68589000D01*
X157035142Y-68589000D01*
X156892285Y-68660428D01*
X156820857Y-68731857D01*
X156749428Y-68874714D01*
X156749428Y-69231857D01*
X156820857Y-69374714D01*
X156892285Y-69446142D01*
X157035142Y-69517571D01*
X157392285Y-69517571D01*
X157535142Y-69446142D01*
X157606571Y-69374714D01*
X156320857Y-68017571D02*
X155820857Y-69517571D01*
X155320857Y-68017571D01*
X153463714Y-69517571D02*
X153606571Y-69446142D01*
X153678000Y-69374714D01*
X153749428Y-69231857D01*
X153749428Y-68803285D01*
X153678000Y-68660428D01*
X153606571Y-68589000D01*
X153463714Y-68517571D01*
X153249428Y-68517571D01*
X153106571Y-68589000D01*
X153035142Y-68660428D01*
X152963714Y-68803285D01*
X152963714Y-69231857D01*
X153035142Y-69374714D01*
X153106571Y-69446142D01*
X153249428Y-69517571D01*
X153463714Y-69517571D01*
X151678000Y-68517571D02*
X151678000Y-69517571D01*
X152320857Y-68517571D02*
X152320857Y-69303285D01*
X152249428Y-69446142D01*
X152106571Y-69517571D01*
X151892285Y-69517571D01*
X151749428Y-69446142D01*
X151678000Y-69374714D01*
X151178000Y-68517571D02*
X150606571Y-68517571D01*
X150963714Y-68017571D02*
X150963714Y-69303285D01*
X150892285Y-69446142D01*
X150749428Y-69517571D01*
X150606571Y-69517571D01*
X136579714Y-63091142D02*
X136365428Y-63162571D01*
X136008285Y-63162571D01*
X135865428Y-63091142D01*
X135794000Y-63019714D01*
X135722571Y-62876857D01*
X135722571Y-62734000D01*
X135794000Y-62591142D01*
X135865428Y-62519714D01*
X136008285Y-62448285D01*
X136294000Y-62376857D01*
X136436857Y-62305428D01*
X136508285Y-62234000D01*
X136579714Y-62091142D01*
X136579714Y-61948285D01*
X136508285Y-61805428D01*
X136436857Y-61734000D01*
X136294000Y-61662571D01*
X135936857Y-61662571D01*
X135722571Y-61734000D01*
X134436857Y-63162571D02*
X134436857Y-62376857D01*
X134508285Y-62234000D01*
X134651142Y-62162571D01*
X134936857Y-62162571D01*
X135079714Y-62234000D01*
X134436857Y-63091142D02*
X134579714Y-63162571D01*
X134936857Y-63162571D01*
X135079714Y-63091142D01*
X135151142Y-62948285D01*
X135151142Y-62805428D01*
X135079714Y-62662571D01*
X134936857Y-62591142D01*
X134579714Y-62591142D01*
X134436857Y-62519714D01*
X133722571Y-63162571D02*
X133722571Y-62162571D01*
X133722571Y-62305428D02*
X133651142Y-62234000D01*
X133508285Y-62162571D01*
X133294000Y-62162571D01*
X133151142Y-62234000D01*
X133079714Y-62376857D01*
X133079714Y-63162571D01*
X133079714Y-62376857D02*
X133008285Y-62234000D01*
X132865428Y-62162571D01*
X132651142Y-62162571D01*
X132508285Y-62234000D01*
X132436857Y-62376857D01*
X132436857Y-63162571D01*
X131079714Y-62162571D02*
X131079714Y-63162571D01*
X131722571Y-62162571D02*
X131722571Y-62948285D01*
X131651142Y-63091142D01*
X131508285Y-63162571D01*
X131294000Y-63162571D01*
X131151142Y-63091142D01*
X131079714Y-63019714D01*
X129794000Y-63091142D02*
X129936857Y-63162571D01*
X130222571Y-63162571D01*
X130365428Y-63091142D01*
X130436857Y-62948285D01*
X130436857Y-62376857D01*
X130365428Y-62234000D01*
X130222571Y-62162571D01*
X129936857Y-62162571D01*
X129794000Y-62234000D01*
X129722571Y-62376857D01*
X129722571Y-62519714D01*
X130436857Y-62662571D01*
X128865428Y-63162571D02*
X129008285Y-63091142D01*
X129079714Y-62948285D01*
X129079714Y-61662571D01*
X127151142Y-63162571D02*
X127151142Y-61662571D01*
X127151142Y-62376857D02*
X126294000Y-62376857D01*
X126294000Y-63162571D02*
X126294000Y-61662571D01*
X125579714Y-63162571D02*
X125579714Y-62162571D01*
X125579714Y-61662571D02*
X125651142Y-61734000D01*
X125579714Y-61805428D01*
X125508285Y-61734000D01*
X125579714Y-61662571D01*
X125579714Y-61805428D01*
X124222571Y-63091142D02*
X124365428Y-63162571D01*
X124651142Y-63162571D01*
X124794000Y-63091142D01*
X124865428Y-63019714D01*
X124936857Y-62876857D01*
X124936857Y-62448285D01*
X124865428Y-62305428D01*
X124794000Y-62234000D01*
X124651142Y-62162571D01*
X124365428Y-62162571D01*
X124222571Y-62234000D01*
X123579714Y-63162571D02*
X123579714Y-61662571D01*
X123436857Y-62591142D02*
X123008285Y-63162571D01*
X123008285Y-62162571D02*
X123579714Y-62734000D01*
D11*
G04 #@! TO.P,Charge,2*
G04 #@! TO.N,IN+*
X123952000Y-66548000D03*
D12*
G04 #@! TO.P,Charge,1*
G04 #@! TO.N,GND*
X123952000Y-65278000D03*
G04 #@! TD*
D11*
G04 #@! TO.P,Bat EN GND 5V,4*
G04 #@! TO.N,BAT+*
X138938000Y-63500000D03*
G04 #@! TO.P,Bat EN GND 5V,3*
G04 #@! TO.N,EN*
X140208000Y-63500000D03*
G04 #@! TO.P,Bat EN GND 5V,2*
G04 #@! TO.N,GND*
X141478000Y-63500000D03*
D12*
G04 #@! TO.P,Bat EN GND 5V,1*
G04 #@! TO.N,5Vout*
X142748000Y-63500000D03*
G04 #@! TD*
D11*
G04 #@! TO.P,Bat-+,2*
G04 #@! TO.N,BAT-*
X133858000Y-73406000D03*
D12*
G04 #@! TO.P,Bat-+,1*
G04 #@! TO.N,BAT+*
X132588000Y-73406000D03*
G04 #@! TD*
D13*
G04 #@! TO.N,GND*
X152908000Y-63246000D03*
G04 #@! TO.N,BAT-*
X133604000Y-65024000D03*
G04 #@! TO.N,GND*
X130386000Y-73406000D03*
X131826000Y-65786000D03*
G04 #@! TO.N,5Vout*
X151130000Y-73152000D03*
X149606000Y-73152000D03*
G04 #@! TD*
D14*
G04 #@! TO.N,BAT-*
X133604000Y-65024000D02*
X133604000Y-65024000D01*
X133858000Y-73406000D02*
X134874000Y-72390000D01*
X134874000Y-66294000D02*
X133604000Y-65024000D01*
X134874000Y-72390000D02*
X134874000Y-66294000D01*
D15*
G04 #@! TO.N,5Vout*
X142748000Y-67310000D02*
X142748000Y-63500000D01*
X151130000Y-73152000D02*
X148590000Y-73152000D01*
X148590000Y-73152000D02*
X142748000Y-67310000D01*
G04 #@! TD*
D16*
G04 #@! TO.N,GND*
G36*
X158375001Y-75190000D02*
G01*
X158326572Y-75190000D01*
X158326572Y-72459000D01*
X152569429Y-72459000D01*
X152569429Y-75190000D01*
X128783143Y-75190000D01*
X128783143Y-72906000D01*
X131786549Y-72906000D01*
X131786549Y-73906000D01*
X131792341Y-73964810D01*
X131809496Y-74021360D01*
X131837353Y-74073477D01*
X131874842Y-74119158D01*
X131920523Y-74156647D01*
X131972640Y-74184504D01*
X132029190Y-74201659D01*
X132088000Y-74207451D01*
X133088000Y-74207451D01*
X133146810Y-74201659D01*
X133203360Y-74184504D01*
X133255477Y-74156647D01*
X133301158Y-74119158D01*
X133338647Y-74073477D01*
X133359263Y-74034907D01*
X133479058Y-74114951D01*
X133624649Y-74175257D01*
X133779207Y-74206000D01*
X133936793Y-74206000D01*
X134091351Y-74175257D01*
X134236942Y-74114951D01*
X134367970Y-74027401D01*
X134479401Y-73915970D01*
X134566951Y-73784942D01*
X134627257Y-73639351D01*
X134658000Y-73484793D01*
X134658000Y-73327207D01*
X134638063Y-73226977D01*
X135159763Y-72705278D01*
X135175974Y-72691974D01*
X135229084Y-72627260D01*
X135268548Y-72553427D01*
X135292850Y-72473314D01*
X135299000Y-72410874D01*
X135299000Y-72410867D01*
X135301055Y-72390000D01*
X135299000Y-72369133D01*
X135299000Y-66314866D01*
X135301055Y-66293999D01*
X135299000Y-66273132D01*
X135299000Y-66273126D01*
X135292850Y-66210686D01*
X135268548Y-66130573D01*
X135229084Y-66056740D01*
X135175974Y-65992026D01*
X135159762Y-65978721D01*
X134204000Y-65022960D01*
X134204000Y-64964905D01*
X134180942Y-64848986D01*
X134135713Y-64739793D01*
X134070050Y-64641522D01*
X133986478Y-64557950D01*
X133888207Y-64492287D01*
X133779014Y-64447058D01*
X133663095Y-64424000D01*
X133544905Y-64424000D01*
X133428986Y-64447058D01*
X133319793Y-64492287D01*
X133221522Y-64557950D01*
X133137950Y-64641522D01*
X133072287Y-64739793D01*
X133027058Y-64848986D01*
X133004000Y-64964905D01*
X133004000Y-65083095D01*
X133027058Y-65199014D01*
X133072287Y-65308207D01*
X133137950Y-65406478D01*
X133221522Y-65490050D01*
X133319793Y-65555713D01*
X133428986Y-65600942D01*
X133544905Y-65624000D01*
X133602960Y-65624000D01*
X134449001Y-66470042D01*
X134449000Y-72213959D01*
X134037023Y-72625937D01*
X133936793Y-72606000D01*
X133779207Y-72606000D01*
X133624649Y-72636743D01*
X133479058Y-72697049D01*
X133359263Y-72777093D01*
X133338647Y-72738523D01*
X133301158Y-72692842D01*
X133255477Y-72655353D01*
X133203360Y-72627496D01*
X133146810Y-72610341D01*
X133088000Y-72604549D01*
X132088000Y-72604549D01*
X132029190Y-72610341D01*
X131972640Y-72627496D01*
X131920523Y-72655353D01*
X131874842Y-72692842D01*
X131837353Y-72738523D01*
X131809496Y-72790640D01*
X131792341Y-72847190D01*
X131786549Y-72906000D01*
X128783143Y-72906000D01*
X128783143Y-72459000D01*
X122295000Y-72459000D01*
X122295000Y-65778000D01*
X123150548Y-65778000D01*
X123156340Y-65836810D01*
X123173495Y-65893361D01*
X123201352Y-65945478D01*
X123238841Y-65991159D01*
X123284522Y-66028648D01*
X123323093Y-66049264D01*
X123243049Y-66169058D01*
X123182743Y-66314649D01*
X123152000Y-66469207D01*
X123152000Y-66626793D01*
X123182743Y-66781351D01*
X123243049Y-66926942D01*
X123330599Y-67057970D01*
X123442030Y-67169401D01*
X123573058Y-67256951D01*
X123718649Y-67317257D01*
X123873207Y-67348000D01*
X124030793Y-67348000D01*
X124185351Y-67317257D01*
X124330942Y-67256951D01*
X124461970Y-67169401D01*
X124573401Y-67057970D01*
X124660951Y-66926942D01*
X124721257Y-66781351D01*
X124752000Y-66626793D01*
X124752000Y-66469207D01*
X124721257Y-66314649D01*
X124660951Y-66169058D01*
X124580907Y-66049264D01*
X124619478Y-66028648D01*
X124665159Y-65991159D01*
X124702648Y-65945478D01*
X124730505Y-65893361D01*
X124747660Y-65836810D01*
X124753452Y-65778000D01*
X124752000Y-65507000D01*
X124677000Y-65432000D01*
X124106000Y-65432000D01*
X124106000Y-65452000D01*
X123798000Y-65452000D01*
X123798000Y-65432000D01*
X123227000Y-65432000D01*
X123152000Y-65507000D01*
X123150548Y-65778000D01*
X122295000Y-65778000D01*
X122295000Y-64778000D01*
X123150548Y-64778000D01*
X123152000Y-65049000D01*
X123227000Y-65124000D01*
X123798000Y-65124000D01*
X123798000Y-64553000D01*
X124106000Y-64553000D01*
X124106000Y-65124000D01*
X124677000Y-65124000D01*
X124752000Y-65049000D01*
X124753452Y-64778000D01*
X124747660Y-64719190D01*
X124730505Y-64662639D01*
X124702648Y-64610522D01*
X124665159Y-64564841D01*
X124619478Y-64527352D01*
X124567361Y-64499495D01*
X124510810Y-64482340D01*
X124452000Y-64476548D01*
X124181000Y-64478000D01*
X124106000Y-64553000D01*
X123798000Y-64553000D01*
X123723000Y-64478000D01*
X123452000Y-64476548D01*
X123393190Y-64482340D01*
X123336639Y-64499495D01*
X123284522Y-64527352D01*
X123238841Y-64564841D01*
X123201352Y-64610522D01*
X123173495Y-64662639D01*
X123156340Y-64719190D01*
X123150548Y-64778000D01*
X122295000Y-64778000D01*
X122295000Y-64179000D01*
X137315429Y-64179000D01*
X137315429Y-63421207D01*
X138138000Y-63421207D01*
X138138000Y-63578793D01*
X138168743Y-63733351D01*
X138229049Y-63878942D01*
X138316599Y-64009970D01*
X138428030Y-64121401D01*
X138559058Y-64208951D01*
X138704649Y-64269257D01*
X138859207Y-64300000D01*
X139016793Y-64300000D01*
X139171351Y-64269257D01*
X139316942Y-64208951D01*
X139447970Y-64121401D01*
X139559401Y-64009970D01*
X139573000Y-63989618D01*
X139586599Y-64009970D01*
X139698030Y-64121401D01*
X139829058Y-64208951D01*
X139974649Y-64269257D01*
X140129207Y-64300000D01*
X140286793Y-64300000D01*
X140441351Y-64269257D01*
X140586942Y-64208951D01*
X140717970Y-64121401D01*
X140829401Y-64009970D01*
X140846313Y-63984659D01*
X140889101Y-64041494D01*
X141006057Y-64145978D01*
X141141149Y-64225637D01*
X141203089Y-64251282D01*
X141324000Y-64208455D01*
X141324000Y-63654000D01*
X141304000Y-63654000D01*
X141304000Y-63346000D01*
X141324000Y-63346000D01*
X141324000Y-62791545D01*
X141632000Y-62791545D01*
X141632000Y-63346000D01*
X141652000Y-63346000D01*
X141652000Y-63654000D01*
X141632000Y-63654000D01*
X141632000Y-64208455D01*
X141752911Y-64251282D01*
X141814851Y-64225637D01*
X141949943Y-64145978D01*
X141974253Y-64124260D01*
X141997353Y-64167477D01*
X142034842Y-64213158D01*
X142080523Y-64250647D01*
X142098001Y-64259989D01*
X142098000Y-67278078D01*
X142094856Y-67310000D01*
X142098000Y-67341921D01*
X142098000Y-67341931D01*
X142107405Y-67437421D01*
X142144573Y-67559947D01*
X142204930Y-67672868D01*
X142255369Y-67734328D01*
X142286157Y-67771843D01*
X142310962Y-67792200D01*
X148107804Y-73589043D01*
X148128157Y-73613843D01*
X148152957Y-73634196D01*
X148152960Y-73634199D01*
X148227132Y-73695070D01*
X148340052Y-73755427D01*
X148462578Y-73792595D01*
X148558068Y-73802000D01*
X148558076Y-73802000D01*
X148590000Y-73805144D01*
X148621924Y-73802000D01*
X151161932Y-73802000D01*
X151257422Y-73792595D01*
X151379948Y-73755427D01*
X151492868Y-73695070D01*
X151591843Y-73613843D01*
X151673070Y-73514868D01*
X151733427Y-73401948D01*
X151770595Y-73279422D01*
X151783145Y-73152000D01*
X151770595Y-73024578D01*
X151733427Y-72902052D01*
X151673070Y-72789132D01*
X151591843Y-72690157D01*
X151492868Y-72608930D01*
X151379948Y-72548573D01*
X151257422Y-72511405D01*
X151161932Y-72502000D01*
X148859239Y-72502000D01*
X143398000Y-67040762D01*
X143398000Y-64834000D01*
X150013715Y-64834000D01*
X150013715Y-70534000D01*
X158342286Y-70534000D01*
X158342286Y-64834000D01*
X150013715Y-64834000D01*
X143398000Y-64834000D01*
X143398000Y-64259989D01*
X143415477Y-64250647D01*
X143461158Y-64213158D01*
X143498647Y-64167477D01*
X143526504Y-64115360D01*
X143543659Y-64058810D01*
X143549451Y-64000000D01*
X143549451Y-63000000D01*
X143543659Y-62941190D01*
X143526504Y-62884640D01*
X143498647Y-62832523D01*
X143461158Y-62786842D01*
X143415477Y-62749353D01*
X143363360Y-62721496D01*
X143306810Y-62704341D01*
X143248000Y-62698549D01*
X142248000Y-62698549D01*
X142189190Y-62704341D01*
X142132640Y-62721496D01*
X142080523Y-62749353D01*
X142034842Y-62786842D01*
X141997353Y-62832523D01*
X141974253Y-62875740D01*
X141949943Y-62854022D01*
X141814851Y-62774363D01*
X141752911Y-62748718D01*
X141632000Y-62791545D01*
X141324000Y-62791545D01*
X141203089Y-62748718D01*
X141141149Y-62774363D01*
X141006057Y-62854022D01*
X140889101Y-62958506D01*
X140846313Y-63015341D01*
X140829401Y-62990030D01*
X140717970Y-62878599D01*
X140586942Y-62791049D01*
X140441351Y-62730743D01*
X140286793Y-62700000D01*
X140129207Y-62700000D01*
X139974649Y-62730743D01*
X139829058Y-62791049D01*
X139698030Y-62878599D01*
X139586599Y-62990030D01*
X139573000Y-63010382D01*
X139559401Y-62990030D01*
X139447970Y-62878599D01*
X139316942Y-62791049D01*
X139171351Y-62730743D01*
X139016793Y-62700000D01*
X138859207Y-62700000D01*
X138704649Y-62730743D01*
X138559058Y-62791049D01*
X138428030Y-62878599D01*
X138316599Y-62990030D01*
X138229049Y-63121058D01*
X138168743Y-63266649D01*
X138138000Y-63421207D01*
X137315429Y-63421207D01*
X137315429Y-61029000D01*
X122295000Y-61029000D01*
X122295000Y-60700000D01*
X158375000Y-60700000D01*
X158375001Y-75190000D01*
G37*
X158375001Y-75190000D02*
X158326572Y-75190000D01*
X158326572Y-72459000D01*
X152569429Y-72459000D01*
X152569429Y-75190000D01*
X128783143Y-75190000D01*
X128783143Y-72906000D01*
X131786549Y-72906000D01*
X131786549Y-73906000D01*
X131792341Y-73964810D01*
X131809496Y-74021360D01*
X131837353Y-74073477D01*
X131874842Y-74119158D01*
X131920523Y-74156647D01*
X131972640Y-74184504D01*
X132029190Y-74201659D01*
X132088000Y-74207451D01*
X133088000Y-74207451D01*
X133146810Y-74201659D01*
X133203360Y-74184504D01*
X133255477Y-74156647D01*
X133301158Y-74119158D01*
X133338647Y-74073477D01*
X133359263Y-74034907D01*
X133479058Y-74114951D01*
X133624649Y-74175257D01*
X133779207Y-74206000D01*
X133936793Y-74206000D01*
X134091351Y-74175257D01*
X134236942Y-74114951D01*
X134367970Y-74027401D01*
X134479401Y-73915970D01*
X134566951Y-73784942D01*
X134627257Y-73639351D01*
X134658000Y-73484793D01*
X134658000Y-73327207D01*
X134638063Y-73226977D01*
X135159763Y-72705278D01*
X135175974Y-72691974D01*
X135229084Y-72627260D01*
X135268548Y-72553427D01*
X135292850Y-72473314D01*
X135299000Y-72410874D01*
X135299000Y-72410867D01*
X135301055Y-72390000D01*
X135299000Y-72369133D01*
X135299000Y-66314866D01*
X135301055Y-66293999D01*
X135299000Y-66273132D01*
X135299000Y-66273126D01*
X135292850Y-66210686D01*
X135268548Y-66130573D01*
X135229084Y-66056740D01*
X135175974Y-65992026D01*
X135159762Y-65978721D01*
X134204000Y-65022960D01*
X134204000Y-64964905D01*
X134180942Y-64848986D01*
X134135713Y-64739793D01*
X134070050Y-64641522D01*
X133986478Y-64557950D01*
X133888207Y-64492287D01*
X133779014Y-64447058D01*
X133663095Y-64424000D01*
X133544905Y-64424000D01*
X133428986Y-64447058D01*
X133319793Y-64492287D01*
X133221522Y-64557950D01*
X133137950Y-64641522D01*
X133072287Y-64739793D01*
X133027058Y-64848986D01*
X133004000Y-64964905D01*
X133004000Y-65083095D01*
X133027058Y-65199014D01*
X133072287Y-65308207D01*
X133137950Y-65406478D01*
X133221522Y-65490050D01*
X133319793Y-65555713D01*
X133428986Y-65600942D01*
X133544905Y-65624000D01*
X133602960Y-65624000D01*
X134449001Y-66470042D01*
X134449000Y-72213959D01*
X134037023Y-72625937D01*
X133936793Y-72606000D01*
X133779207Y-72606000D01*
X133624649Y-72636743D01*
X133479058Y-72697049D01*
X133359263Y-72777093D01*
X133338647Y-72738523D01*
X133301158Y-72692842D01*
X133255477Y-72655353D01*
X133203360Y-72627496D01*
X133146810Y-72610341D01*
X133088000Y-72604549D01*
X132088000Y-72604549D01*
X132029190Y-72610341D01*
X131972640Y-72627496D01*
X131920523Y-72655353D01*
X131874842Y-72692842D01*
X131837353Y-72738523D01*
X131809496Y-72790640D01*
X131792341Y-72847190D01*
X131786549Y-72906000D01*
X128783143Y-72906000D01*
X128783143Y-72459000D01*
X122295000Y-72459000D01*
X122295000Y-65778000D01*
X123150548Y-65778000D01*
X123156340Y-65836810D01*
X123173495Y-65893361D01*
X123201352Y-65945478D01*
X123238841Y-65991159D01*
X123284522Y-66028648D01*
X123323093Y-66049264D01*
X123243049Y-66169058D01*
X123182743Y-66314649D01*
X123152000Y-66469207D01*
X123152000Y-66626793D01*
X123182743Y-66781351D01*
X123243049Y-66926942D01*
X123330599Y-67057970D01*
X123442030Y-67169401D01*
X123573058Y-67256951D01*
X123718649Y-67317257D01*
X123873207Y-67348000D01*
X124030793Y-67348000D01*
X124185351Y-67317257D01*
X124330942Y-67256951D01*
X124461970Y-67169401D01*
X124573401Y-67057970D01*
X124660951Y-66926942D01*
X124721257Y-66781351D01*
X124752000Y-66626793D01*
X124752000Y-66469207D01*
X124721257Y-66314649D01*
X124660951Y-66169058D01*
X124580907Y-66049264D01*
X124619478Y-66028648D01*
X124665159Y-65991159D01*
X124702648Y-65945478D01*
X124730505Y-65893361D01*
X124747660Y-65836810D01*
X124753452Y-65778000D01*
X124752000Y-65507000D01*
X124677000Y-65432000D01*
X124106000Y-65432000D01*
X124106000Y-65452000D01*
X123798000Y-65452000D01*
X123798000Y-65432000D01*
X123227000Y-65432000D01*
X123152000Y-65507000D01*
X123150548Y-65778000D01*
X122295000Y-65778000D01*
X122295000Y-64778000D01*
X123150548Y-64778000D01*
X123152000Y-65049000D01*
X123227000Y-65124000D01*
X123798000Y-65124000D01*
X123798000Y-64553000D01*
X124106000Y-64553000D01*
X124106000Y-65124000D01*
X124677000Y-65124000D01*
X124752000Y-65049000D01*
X124753452Y-64778000D01*
X124747660Y-64719190D01*
X124730505Y-64662639D01*
X124702648Y-64610522D01*
X124665159Y-64564841D01*
X124619478Y-64527352D01*
X124567361Y-64499495D01*
X124510810Y-64482340D01*
X124452000Y-64476548D01*
X124181000Y-64478000D01*
X124106000Y-64553000D01*
X123798000Y-64553000D01*
X123723000Y-64478000D01*
X123452000Y-64476548D01*
X123393190Y-64482340D01*
X123336639Y-64499495D01*
X123284522Y-64527352D01*
X123238841Y-64564841D01*
X123201352Y-64610522D01*
X123173495Y-64662639D01*
X123156340Y-64719190D01*
X123150548Y-64778000D01*
X122295000Y-64778000D01*
X122295000Y-64179000D01*
X137315429Y-64179000D01*
X137315429Y-63421207D01*
X138138000Y-63421207D01*
X138138000Y-63578793D01*
X138168743Y-63733351D01*
X138229049Y-63878942D01*
X138316599Y-64009970D01*
X138428030Y-64121401D01*
X138559058Y-64208951D01*
X138704649Y-64269257D01*
X138859207Y-64300000D01*
X139016793Y-64300000D01*
X139171351Y-64269257D01*
X139316942Y-64208951D01*
X139447970Y-64121401D01*
X139559401Y-64009970D01*
X139573000Y-63989618D01*
X139586599Y-64009970D01*
X139698030Y-64121401D01*
X139829058Y-64208951D01*
X139974649Y-64269257D01*
X140129207Y-64300000D01*
X140286793Y-64300000D01*
X140441351Y-64269257D01*
X140586942Y-64208951D01*
X140717970Y-64121401D01*
X140829401Y-64009970D01*
X140846313Y-63984659D01*
X140889101Y-64041494D01*
X141006057Y-64145978D01*
X141141149Y-64225637D01*
X141203089Y-64251282D01*
X141324000Y-64208455D01*
X141324000Y-63654000D01*
X141304000Y-63654000D01*
X141304000Y-63346000D01*
X141324000Y-63346000D01*
X141324000Y-62791545D01*
X141632000Y-62791545D01*
X141632000Y-63346000D01*
X141652000Y-63346000D01*
X141652000Y-63654000D01*
X141632000Y-63654000D01*
X141632000Y-64208455D01*
X141752911Y-64251282D01*
X141814851Y-64225637D01*
X141949943Y-64145978D01*
X141974253Y-64124260D01*
X141997353Y-64167477D01*
X142034842Y-64213158D01*
X142080523Y-64250647D01*
X142098001Y-64259989D01*
X142098000Y-67278078D01*
X142094856Y-67310000D01*
X142098000Y-67341921D01*
X142098000Y-67341931D01*
X142107405Y-67437421D01*
X142144573Y-67559947D01*
X142204930Y-67672868D01*
X142255369Y-67734328D01*
X142286157Y-67771843D01*
X142310962Y-67792200D01*
X148107804Y-73589043D01*
X148128157Y-73613843D01*
X148152957Y-73634196D01*
X148152960Y-73634199D01*
X148227132Y-73695070D01*
X148340052Y-73755427D01*
X148462578Y-73792595D01*
X148558068Y-73802000D01*
X148558076Y-73802000D01*
X148590000Y-73805144D01*
X148621924Y-73802000D01*
X151161932Y-73802000D01*
X151257422Y-73792595D01*
X151379948Y-73755427D01*
X151492868Y-73695070D01*
X151591843Y-73613843D01*
X151673070Y-73514868D01*
X151733427Y-73401948D01*
X151770595Y-73279422D01*
X151783145Y-73152000D01*
X151770595Y-73024578D01*
X151733427Y-72902052D01*
X151673070Y-72789132D01*
X151591843Y-72690157D01*
X151492868Y-72608930D01*
X151379948Y-72548573D01*
X151257422Y-72511405D01*
X151161932Y-72502000D01*
X148859239Y-72502000D01*
X143398000Y-67040762D01*
X143398000Y-64834000D01*
X150013715Y-64834000D01*
X150013715Y-70534000D01*
X158342286Y-70534000D01*
X158342286Y-64834000D01*
X150013715Y-64834000D01*
X143398000Y-64834000D01*
X143398000Y-64259989D01*
X143415477Y-64250647D01*
X143461158Y-64213158D01*
X143498647Y-64167477D01*
X143526504Y-64115360D01*
X143543659Y-64058810D01*
X143549451Y-64000000D01*
X143549451Y-63000000D01*
X143543659Y-62941190D01*
X143526504Y-62884640D01*
X143498647Y-62832523D01*
X143461158Y-62786842D01*
X143415477Y-62749353D01*
X143363360Y-62721496D01*
X143306810Y-62704341D01*
X143248000Y-62698549D01*
X142248000Y-62698549D01*
X142189190Y-62704341D01*
X142132640Y-62721496D01*
X142080523Y-62749353D01*
X142034842Y-62786842D01*
X141997353Y-62832523D01*
X141974253Y-62875740D01*
X141949943Y-62854022D01*
X141814851Y-62774363D01*
X141752911Y-62748718D01*
X141632000Y-62791545D01*
X141324000Y-62791545D01*
X141203089Y-62748718D01*
X141141149Y-62774363D01*
X141006057Y-62854022D01*
X140889101Y-62958506D01*
X140846313Y-63015341D01*
X140829401Y-62990030D01*
X140717970Y-62878599D01*
X140586942Y-62791049D01*
X140441351Y-62730743D01*
X140286793Y-62700000D01*
X140129207Y-62700000D01*
X139974649Y-62730743D01*
X139829058Y-62791049D01*
X139698030Y-62878599D01*
X139586599Y-62990030D01*
X139573000Y-63010382D01*
X139559401Y-62990030D01*
X139447970Y-62878599D01*
X139316942Y-62791049D01*
X139171351Y-62730743D01*
X139016793Y-62700000D01*
X138859207Y-62700000D01*
X138704649Y-62730743D01*
X138559058Y-62791049D01*
X138428030Y-62878599D01*
X138316599Y-62990030D01*
X138229049Y-63121058D01*
X138168743Y-63266649D01*
X138138000Y-63421207D01*
X137315429Y-63421207D01*
X137315429Y-61029000D01*
X122295000Y-61029000D01*
X122295000Y-60700000D01*
X158375000Y-60700000D01*
X158375001Y-75190000D01*
G04 #@! TD*
M02*
