G04 #@! TF.GenerationSoftware,KiCad,Pcbnew,(5.1.6)-1*
G04 #@! TF.CreationDate,2020-05-27T20:21:06+02:00*
G04 #@! TF.ProjectId,charger_stepup,63686172-6765-4725-9f73-74657075702e,rev?*
G04 #@! TF.SameCoordinates,Original*
G04 #@! TF.FileFunction,Legend,Top*
G04 #@! TF.FilePolarity,Positive*
%FSLAX46Y46*%
G04 Gerber Fmt 4.6, Leading zero omitted, Abs format (unit mm)*
G04 Created by KiCad (PCBNEW (5.1.6)-1) date 2020-05-27 20:21:06*
%MOMM*%
%LPD*%
G01*
G04 APERTURE LIST*
%ADD10C,0.120000*%
%ADD11C,0.150000*%
G04 APERTURE END LIST*
D10*
G04 #@! TO.C,C5*
X147944252Y-74862000D02*
X145171748Y-74862000D01*
X147944252Y-71442000D02*
X145171748Y-71442000D01*
G04 #@! TO.C,C3*
X124468000Y-74510000D02*
X125468000Y-74510000D01*
X125468000Y-72810000D02*
X124468000Y-72810000D01*
D11*
G04 #@! TO.C,U3*
X136867000Y-71627000D02*
X135517000Y-71627000D01*
X136867000Y-74777000D02*
X141517000Y-74777000D01*
X136867000Y-71527000D02*
X141517000Y-71527000D01*
X136867000Y-74777000D02*
X136867000Y-74577000D01*
X141517000Y-74777000D02*
X141517000Y-74577000D01*
X141517000Y-71527000D02*
X141517000Y-71727000D01*
X136867000Y-71527000D02*
X136867000Y-71627000D01*
D10*
G04 #@! TO.C,R4*
X138004000Y-69334000D02*
X138004000Y-68334000D01*
X139364000Y-68334000D02*
X139364000Y-69334000D01*
G04 #@! TO.C,R6*
X153665422Y-64568000D02*
X154182578Y-64568000D01*
X153665422Y-65988000D02*
X154182578Y-65988000D01*
G04 #@! TO.C,C4*
X143696000Y-66685748D02*
X143696000Y-69458252D01*
X140276000Y-66685748D02*
X140276000Y-69458252D01*
G04 #@! TO.C,R7*
X157682000Y-69083422D02*
X157682000Y-69600578D01*
X156262000Y-69083422D02*
X156262000Y-69600578D01*
G04 #@! TO.C,L1*
X146682000Y-70502000D02*
X144382000Y-70502000D01*
X144382000Y-70502000D02*
X144382000Y-63102000D01*
X144382000Y-63102000D02*
X146682000Y-63102000D01*
X149482000Y-63102000D02*
X151782000Y-63102000D01*
X151782000Y-63102000D02*
X151782000Y-70502000D01*
X151782000Y-70502000D02*
X149482000Y-70502000D01*
G04 #@! TO.C,D3*
X149762000Y-71502000D02*
X149762000Y-74802000D01*
X149762000Y-74802000D02*
X155162000Y-74802000D01*
X149762000Y-71502000D02*
X155162000Y-71502000D01*
G04 #@! TO.C,Charge*
X122842000Y-67243000D02*
X123644470Y-67243000D01*
X124259530Y-67243000D02*
X125062000Y-67243000D01*
X122842000Y-66038000D02*
X122842000Y-67243000D01*
X125062000Y-66038000D02*
X125062000Y-67243000D01*
X122842000Y-66038000D02*
X123388529Y-66038000D01*
X124515471Y-66038000D02*
X125062000Y-66038000D01*
X122842000Y-65278000D02*
X122842000Y-64518000D01*
X122842000Y-64518000D02*
X123952000Y-64518000D01*
G04 #@! TO.C,Bat EN GND 5V*
X138243000Y-62390000D02*
X138243000Y-63192470D01*
X138243000Y-63807530D02*
X138243000Y-64610000D01*
X141988000Y-62390000D02*
X138243000Y-62390000D01*
X141988000Y-64610000D02*
X138243000Y-64610000D01*
X141988000Y-62390000D02*
X141988000Y-62936529D01*
X141988000Y-64063471D02*
X141988000Y-64610000D01*
X142748000Y-62390000D02*
X143508000Y-62390000D01*
X143508000Y-62390000D02*
X143508000Y-63500000D01*
G04 #@! TO.C,Bat-+*
X134553000Y-74516000D02*
X134553000Y-73713530D01*
X134553000Y-73098470D02*
X134553000Y-72296000D01*
X133348000Y-74516000D02*
X134553000Y-74516000D01*
X133348000Y-72296000D02*
X134553000Y-72296000D01*
X133348000Y-74516000D02*
X133348000Y-73969471D01*
X133348000Y-72842529D02*
X133348000Y-72296000D01*
X132588000Y-74516000D02*
X131828000Y-74516000D01*
X131828000Y-74516000D02*
X131828000Y-73406000D01*
G04 #@! TO.C,U4*
X155534000Y-69988000D02*
X155534000Y-68188000D01*
X152314000Y-68188000D02*
X152314000Y-70638000D01*
G04 #@! TO.C,R8*
X153665422Y-62536000D02*
X154182578Y-62536000D01*
X153665422Y-63956000D02*
X154182578Y-63956000D01*
G04 #@! TO.C,C1*
X123864000Y-69731000D02*
X123864000Y-70731000D01*
X125564000Y-70731000D02*
X125564000Y-69731000D01*
G04 #@! TO.C,C2*
X135374000Y-64174000D02*
X134374000Y-64174000D01*
X134374000Y-65874000D02*
X135374000Y-65874000D01*
G04 #@! TO.C,U2*
X134457800Y-67667300D02*
X134457800Y-70617300D01*
X137677800Y-69467300D02*
X137677800Y-67667300D01*
G04 #@! TO.C,R1*
X129024000Y-62402000D02*
X128024000Y-62402000D01*
X128024000Y-61042000D02*
X129024000Y-61042000D01*
G04 #@! TO.C,R2*
X129024000Y-63926000D02*
X128024000Y-63926000D01*
X128024000Y-62566000D02*
X129024000Y-62566000D01*
G04 #@! TO.C,R3*
X129786000Y-74086000D02*
X128786000Y-74086000D01*
X128786000Y-72726000D02*
X129786000Y-72726000D01*
G04 #@! TO.C,R5*
X132670000Y-69334000D02*
X132670000Y-68334000D01*
X134030000Y-68334000D02*
X134030000Y-69334000D01*
G04 #@! TO.C,D1*
X126260000Y-63796000D02*
X123660000Y-63796000D01*
X126260000Y-62696000D02*
X123660000Y-62696000D01*
X126260000Y-63796000D02*
X126260000Y-62696000D01*
G04 #@! TO.C,D2*
X126260000Y-62272000D02*
X123660000Y-62272000D01*
X126260000Y-61172000D02*
X123660000Y-61172000D01*
X126260000Y-62272000D02*
X126260000Y-61172000D01*
D11*
G04 #@! TO.C,U1*
X126149000Y-70655000D02*
X126149000Y-71955000D01*
X131099000Y-70655000D02*
X131099000Y-66505000D01*
X125949000Y-70655000D02*
X125949000Y-66505000D01*
X131099000Y-70655000D02*
X130899000Y-70655000D01*
X131099000Y-66505000D02*
X130899000Y-66505000D01*
X125949000Y-66505000D02*
X126149000Y-66505000D01*
X125949000Y-70655000D02*
X126149000Y-70655000D01*
G04 #@! TD*
M02*
